<svg version="1.1"  xmlns="http://www.w3.org/2000/svg">
  <symbol id="icon-test" width="79" height="53" viewBox="0 0 79 53">
  </symbol>
  <symbol id="icon-brands" width="18" height="19" viewBox="0 0 18 19">
    <path fill-rule="evenodd" clip-rule="evenodd" d="M0 3.21C0 4.98 1.44001 6.42 3.21001 6.42C4.98001 6.42 6.42 4.98 6.42 3.21C6.42 1.44 4.98001 0 3.21001 0C1.44001 0 0 1.44 0 3.21ZM1.5 3.2C1.5 2.26 2.27001 1.49 3.21001 1.49C4.16001 1.49 4.92 2.26 4.92 3.2C4.92 4.14 4.15001 4.91 3.21001 4.91C2.27001 4.91 1.5 4.14 1.5 3.2ZM11.0781 3.21C11.0781 4.98 12.5181 6.42 14.2881 6.42C16.0581 6.42 17.4981 4.98 17.4981 3.21C17.4981 1.44 16.0581 0 14.2881 0C12.5181 0 11.0781 1.44 11.0781 3.21ZM12.5781 3.2C12.5781 2.26 13.3481 1.49 14.2881 1.49C15.2281 1.49 15.9981 2.26 15.9981 3.2C15.9981 4.14 15.2281 4.91 14.2881 4.91C13.3481 4.91 12.5781 4.14 12.5781 3.2ZM14.2881 18.7286C12.5181 18.7286 11.0781 17.2886 11.0781 15.5186C11.0781 13.7486 12.5181 12.3086 14.2881 12.3086C16.0581 12.3086 17.4981 13.7486 17.4981 15.5186C17.4981 17.2886 16.0581 18.7286 14.2881 18.7286ZM14.2881 13.7986C13.3481 13.7986 12.5781 14.5686 12.5781 15.5086C12.5781 16.4486 13.3481 17.2186 14.2881 17.2186C15.2281 17.2186 15.9981 16.4486 15.9981 15.5086C15.9981 14.5686 15.2281 13.7986 14.2881 13.7986ZM0 15.5186C0 17.2886 1.44001 18.7286 3.21001 18.7286C4.98001 18.7286 6.42 17.2886 6.42 15.5186C6.42 13.7486 4.98001 12.3086 3.21001 12.3086C1.44001 12.3086 0 13.7486 0 15.5186ZM1.5 15.5086C1.5 14.5686 2.27001 13.7986 3.21001 13.7986C4.16001 13.7986 4.92 14.5686 4.92 15.5086C4.92 16.4486 4.15001 17.2186 3.21001 17.2186C2.27001 17.2186 1.5 16.4486 1.5 15.5086Z" fill="#D61C38"/>
  </symbol>
  <symbol id="icon-home-2" width="20" height="21" viewBox="0 0 20 21">
    <path fill-rule="evenodd" clip-rule="evenodd" d="M0 20.2175H0.046876L0.046875 20.2188C0.046875 20.6287 0.386875 20.9688 0.796875 20.9688H18.7969C19.2069 20.9688 19.5469 20.6287 19.5469 20.2188L19.5469 20.2175H19.55V8.18749C19.55 7.34749 19.15 6.5375 18.49 6.0175L11.49 0.5775C10.49 -0.1925 9.1 -0.1925 8.11 0.5775L1.11 6.02751C0.440001 6.54751 0.0500031 7.33749 0.0500031 8.18749L0 20.2175ZM18.05 8.1975V19.4688H1.50311L1.55 8.1975C1.55 7.8175 1.73001 7.44751 2.03001 7.21751L9.03001 1.7675C9.49001 1.4175 10.12 1.4175 10.57 1.7675L17.57 7.2075C17.87 7.4475 18.05 7.8175 18.05 8.1975ZM9 14V13.125H8.125C7.715 13.125 7.375 12.785 7.375 12.375C7.375 11.965 7.715 11.625 8.125 11.625H9V10.75C9 10.34 9.34 10 9.75 10C10.16 10 10.5 10.34 10.5 10.75V11.625H11.375C11.785 11.625 12.125 11.965 12.125 12.375C12.125 12.785 11.785 13.125 11.375 13.125H10.5V14C10.5 14.41 10.16 14.75 9.75 14.75C9.34 14.75 9 14.41 9 14Z" fill="#D61C38"/>
  </symbol>
  <symbol id="icon-home" width="21" height="23" viewBox="0 0 21 23">
    <path fill-rule="evenodd" clip-rule="evenodd" d="M17.6719 4V3.125H16.7969C16.3869 3.125 16.0469 2.785 16.0469 2.375C16.0469 1.965 16.3869 1.625 16.7969 1.625H17.6719V0.75C17.6719 0.34 18.0119 0 18.4219 0C18.8319 0 19.1719 0.34 19.1719 0.75V1.625H20.0469C20.4569 1.625 20.7969 1.965 20.7969 2.375C20.7969 2.785 20.4569 3.125 20.0469 3.125H19.1719V4C19.1719 4.41 18.8319 4.75 18.4219 4.75C18.0119 4.75 17.6719 4.41 17.6719 4ZM0 22.2214H0.046876L0.046875 22.2227C0.046875 22.6327 0.386875 22.9727 0.796875 22.9727H18.7969C19.2069 22.9727 19.5469 22.6327 19.5469 22.2227L19.5469 22.2214H19.55V10.1914C19.55 9.35139 19.15 8.54141 18.49 8.02141L11.49 2.58141C10.49 1.81141 9.1 1.81141 8.11 2.58141L1.11 8.03142C0.440001 8.55142 0.0500031 9.34139 0.0500031 10.1914L0 22.2214ZM18.05 10.2014V21.4727H1.50311L1.55 10.2014C1.55 9.8214 1.73001 9.45142 2.03001 9.22142L9.03001 3.77141C9.49001 3.42141 10.12 3.42141 10.57 3.77141L17.57 9.21141C17.87 9.45141 18.05 9.8214 18.05 10.2014Z" fill="#D61C38"/>
  </symbol>
  <symbol id="icon-color" width="22" height="20" viewBox="0 0 22 20">
    <path fill-rule="evenodd" clip-rule="evenodd" d="M8.91401 19.7125C7.91401 19.7125 6.90401 19.0325 5.55401 17.6925L2.09401 14.2325C-0.84599 11.2925 -0.54599 10.1625 2.09401 7.51252L7.66401 1.93252C9.63401 -0.0374802 11.264 -1.18748 14.384 1.93252L17.844 5.39252C20.0506 7.59906 20.1051 9.1705 18.9955 10.775C18.9823 10.7959 18.9682 10.816 18.9532 10.8353C18.6561 11.2543 18.2805 11.6761 17.844 12.1125L12.274 17.6825C10.924 19.0325 9.92401 19.7125 8.91401 19.7125ZM17.022 10.8112C16.9458 10.8898 16.8664 10.9701 16.784 11.0525L11.214 16.6225C9.08401 18.7525 8.73401 18.7425 6.61401 16.6225L3.15401 13.1625C2.12282 12.1313 1.59014 11.5283 1.5073 10.9848C6.57984 9.67631 11.9165 9.61302 17.022 10.8112ZM18.0266 9.51698C12.9506 8.22003 7.62939 8.12026 2.52186 9.20355C2.70435 9.0143 2.91033 8.80735 3.13912 8.57749L3.15401 8.56252L8.72401 2.99252C10.474 1.25252 11.134 0.80252 13.324 2.99252L16.784 6.45252C18.1489 7.81738 18.445 8.64577 18.0266 9.51698ZM18.9905 19.5932C17.8505 19.5932 16.9505 19.1532 16.5105 18.3832C16.0705 17.6132 16.1605 16.6132 16.7505 15.6332L17.4105 14.5432C17.8005 13.9032 18.3705 13.5332 18.9905 13.5332C19.6105 13.5332 20.1905 13.9032 20.5705 14.5432L21.2305 15.6332C21.8205 16.6132 21.9005 17.6132 21.4705 18.3832C21.0405 19.1532 20.1205 19.5932 18.9905 19.5932ZM18.9905 15.0332C18.9405 15.0332 18.8205 15.1132 18.6905 15.3132L18.0305 16.4032C17.7305 16.9032 17.6505 17.3532 17.8105 17.6432C17.9705 17.9332 18.4005 18.0932 18.9805 18.0932C19.5605 18.0932 19.9905 17.9332 20.1505 17.6432C20.3105 17.3532 20.2305 16.9132 19.9305 16.4032L19.2705 15.3132C19.1605 15.1032 19.0405 15.0332 18.9905 15.0332Z" fill="#D61C38"/>
  </symbol>
  <symbol id="icon-zip" width="39" height="50" viewBox="0 0 39 50">
    <path fill-rule="evenodd" clip-rule="evenodd" d="M28.5703 0.000254154L38.094 10.7143V1.94084C38.0946 1.96049 38.0949 1.98021 38.0949 2V47.9995C38.0949 49.1041 37.1995 49.9995 36.0949 49.9995H2C0.895433 49.9995 0 49.1041 0 47.9995V2C0 0.895432 0.895431 0 2 0H28.5945C28.5864 0.000169197 28.5784 0.000254154 28.5703 0.000254154Z" fill="#D61C38"/>
    <path d="M28.5682 0.000205151L38.2031 10.7147L30.4952 10.7148C28.9536 10.7148 28.5682 9.57147 28.5682 8.92915L28.5682 0.000205151Z" fill="#E3E3E3"/>
    <path d="M11 41.1099H12.9233V43.0015H11V41.1099Z" fill="white"/>
    <path d="M14.2563 37.5552V36.0825H19.8677V37.5869L16.3574 41.5161H19.9883V43.0015H14.0151V41.5923L17.5635 37.5552H14.2563Z" fill="white"/>
    <path d="M23.0098 35.2573H21.1753V33.5879H23.0098V35.2573ZM21.1753 36.0825H23.0098V43.0015H21.1753V36.0825Z" fill="white"/>
    <path d="M29.5352 39.542C29.5352 39.0088 29.4124 38.5369 29.167 38.1265C28.9258 37.716 28.5322 37.5107 27.9863 37.5107C27.3304 37.5107 26.8797 37.8218 26.6343 38.4438C26.5073 38.7739 26.4438 39.1929 26.4438 39.7007C26.4438 40.5047 26.6576 41.0697 27.085 41.3955C27.3389 41.5859 27.6393 41.6812 27.9863 41.6812C28.4899 41.6812 28.8729 41.4865 29.1353 41.0972C29.4019 40.7078 29.5352 40.1895 29.5352 39.542ZM28.5068 35.9302C29.3151 35.9302 29.9985 36.2285 30.5571 36.8252C31.12 37.4219 31.4014 38.2979 31.4014 39.4531C31.4014 40.6719 31.1263 41.6007 30.5762 42.2397C30.0303 42.8787 29.3257 43.1982 28.4624 43.1982C27.9123 43.1982 27.4552 43.0607 27.0913 42.7856C26.8924 42.6333 26.6978 42.4111 26.5073 42.1191V45.7246H24.7173V36.0825H26.4502V37.1045C26.6449 36.804 26.8522 36.5671 27.0723 36.3936C27.4743 36.0846 27.9525 35.9302 28.5068 35.9302Z" fill="white"/>
  </symbol>
  <symbol id="icon-pdf" width="39" height="50" viewBox="0 0 39 50">
    <path fill-rule="evenodd" clip-rule="evenodd" d="M28.5703 0.000254154L38.094 10.7143V1.94084C38.0946 1.96049 38.0949 1.98021 38.0949 2V47.9995C38.0949 49.1041 37.1995 49.9995 36.0949 49.9995H2C0.895433 49.9995 0 49.1041 0 47.9995V2C0 0.895432 0.895431 0 2 0H28.5945C28.5864 0.000169197 28.5784 0.000254154 28.5703 0.000254154Z" fill="#D61C38"/>
    <path d="M28.5682 0.000205151L38.2031 10.7147L30.4952 10.7148C28.9536 10.7148 28.5682 9.57147 28.5682 8.92915L28.5682 0.000205151Z" fill="#E3E3E3"/>
    <path d="M9.85125 41.0907V42.8585H8.07031V41.0907H9.85125Z" fill="white"/>
    <path d="M12.9983 36.1014V37.005C13.4522 36.2717 14.1856 35.905 15.1983 35.905C16.1324 35.905 16.8788 36.2324 17.4375 36.8872C17.9962 37.5419 18.2756 38.4149 18.2756 39.5062C18.2756 40.5712 18.0006 41.4268 17.4506 42.0728C16.9093 42.7101 16.1848 43.0288 15.2768 43.0288C14.3165 43.0288 13.5832 42.6752 13.0768 41.9681V45.3597H11.5971V36.1014H12.9983ZM14.8971 37.1098C14.3121 37.1098 13.8538 37.3193 13.5221 37.7383C13.1903 38.1574 13.0245 38.7379 13.0245 39.48C13.0245 40.2133 13.1903 40.7895 13.5221 41.2085C13.8626 41.6276 14.3296 41.8371 14.9233 41.8371C15.4907 41.8371 15.9403 41.6276 16.2721 41.2085C16.6038 40.7895 16.7697 40.222 16.7697 39.5062C16.7697 38.7729 16.5994 38.1923 16.259 37.7645C15.9272 37.328 15.4733 37.1098 14.8971 37.1098Z" fill="white"/>
    <path d="M25.9798 33.5348V42.8585H24.5787V41.9288C24.1509 42.6708 23.4307 43.0419 22.418 43.0419C21.4664 43.0419 20.7069 42.7188 20.1394 42.0728C19.5807 41.4268 19.3013 40.5582 19.3013 39.4669C19.3013 38.3844 19.5763 37.5244 20.1263 36.8872C20.685 36.2411 21.4315 35.9181 22.3656 35.9181C23.3172 35.9181 24.033 36.2717 24.5132 36.9788V33.5348H25.9798ZM22.6406 37.1229C22.0731 37.1229 21.6235 37.3324 21.2918 37.7514C20.9688 38.1617 20.8073 38.7248 20.8073 39.4407C20.8073 40.1828 20.9731 40.7677 21.3049 41.1954C21.6453 41.6232 22.108 41.8371 22.693 41.8371C23.2779 41.8371 23.7318 41.6276 24.0549 41.2085C24.3866 40.7895 24.5525 40.2089 24.5525 39.4669C24.5525 38.7248 24.3822 38.1486 24.0418 37.7383C23.71 37.328 23.243 37.1229 22.6406 37.1229Z" fill="white"/>
    <path d="M30.9341 33.5217V34.6741C30.646 34.6479 30.4277 34.6348 30.2793 34.6348C29.9738 34.6348 29.7686 34.6915 29.6639 34.805C29.5591 34.9098 29.5067 35.1237 29.5067 35.4467V36.1014H30.79V37.1883H29.5198V42.8585H28.0401V37.1883H26.927V36.1014H28.0401V35.5645C28.0401 34.8574 28.1928 34.3336 28.4984 33.9931C28.8039 33.6527 29.319 33.4824 30.0436 33.4824C30.3404 33.4824 30.6373 33.4955 30.9341 33.5217Z" fill="white"/>
  </symbol>
  <symbol id="icon-decor-tabs-home-1" width="18" height="27" viewBox="0 0 18 27">
    <path d="M8.8501 21.5C3.9701 21.5 0.000123127 17.53 0.000123127 12.65C-0.0298769 6.92 5.43009 2.15 7.78009 0.36C8.41009 -0.12 9.29011 -0.12 9.92011 0.36C12.2701 2.18 17.7301 7.01 17.7001 12.66C17.7001 17.53 13.7301 21.5 8.8501 21.5ZM8.8501 1.5C8.8001 1.5 8.74013 1.52 8.69013 1.56C7.00013 2.85 1.48007 7.46 1.51007 12.65C1.51007 16.71 4.81011 20 8.86011 20C12.9101 20 16.2101 16.71 16.2101 12.66C16.2401 7.54 10.7101 2.87 9.01007 1.56C8.95007 1.52 8.9001 1.5 8.8501 1.5Z"/>
    <path d="M8.85156 26.5C8.44156 26.5 8.10156 26.16 8.10156 25.75V5.75C8.10156 5.34 8.44156 5 8.85156 5C9.26156 5 9.60156 5.34 9.60156 5.75V25.75C9.60156 26.16 9.26156 26.5 8.85156 26.5Z"/>
  </symbol>
  <symbol id="icon-decor-tabs-home-2" width="20" height="22" viewBox="0 0 20 22">
    <path d="M9.66 21.5125C9.42 21.5125 9.18001 21.4825 8.95001 21.4125C3.76001 19.9825 0 15.1325 0 9.87249V5.48248C0 4.36248 0.810006 3.15253 1.85001 2.72253L7.42001 0.4425C8.87001 -0.1475 10.46 -0.1475 11.9 0.4425L17.47 2.72253C18.51 3.15253 19.32 4.36248 19.32 5.48248V9.87249C19.32 15.1225 15.55 19.9725 10.37 21.4125C10.14 21.4825 9.9 21.5125 9.66 21.5125ZM9.66 1.51251C9.09 1.51251 8.52999 1.62252 7.98999 1.84252L2.42001 4.12249C1.94001 4.32249 1.5 4.97249 1.5 5.49249V9.8825C1.5 14.4725 4.80001 18.7125 9.35001 19.9725C9.55001 20.0325 9.77 20.0325 9.97 19.9725C14.52 18.7125 17.82 14.4725 17.82 9.8825V5.49249C17.82 4.97249 17.38 4.32249 16.9 4.12249L11.33 1.84252C10.79 1.62252 10.23 1.51251 9.66 1.51251Z"/>
  </symbol>
  <symbol id="icon-decor-tabs-home-3" width="20" height="21" viewBox="0 0 20 21">
    <path d="M2.87 20.3689C2.13 20.3689 1.4 20.0889 0.84 19.5289C0.3 18.9889 0 18.2689 0 17.4989C0 16.7289 0.3 16.0089 0.84 15.4689L13.84 2.46891C14.96 1.34891 16.78 1.34891 17.9 2.46891C18.44 3.00891 18.74 3.72891 18.74 4.49891C18.74 5.26891 18.44 5.98891 17.9 6.52891L4.9 19.5289C4.34 20.0889 3.61 20.3689 2.87 20.3689ZM15.87 3.12891C15.52 3.12891 15.17 3.25891 14.9 3.52891L1.9 16.5289C1.64 16.7889 1.5 17.1289 1.5 17.4989C1.5 17.8689 1.64 18.2089 1.9 18.4689C2.43 18.9989 3.31 18.9989 3.84 18.4689L16.84 5.46891C17.1 5.20891 17.24 4.86891 17.24 4.49891C17.24 4.12891 17.1 3.78891 16.84 3.52891C16.57 3.25891 16.22 3.12891 15.87 3.12891Z" />
    <path d="M15.8803 8.23969C15.6903 8.23969 15.5003 8.16969 15.3503 8.01969L12.3503 5.01969C12.0603 4.72969 12.0603 4.24969 12.3503 3.95969C12.6403 3.66969 13.1203 3.66969 13.4103 3.95969L16.4103 6.95969C16.7003 7.24969 16.7003 7.72969 16.4103 8.01969C16.2603 8.16969 16.0703 8.23969 15.8803 8.23969Z" />
    <path d="M7.87407 3.99907C7.82407 3.99907 7.78407 3.98907 7.73407 3.97907L6.37407 3.57907L5.01407 3.97907C4.83407 4.02908 4.64407 3.97907 4.52407 3.84907C4.39407 3.71907 4.34407 3.53908 4.39407 3.35908L4.79407 1.99907L4.39407 0.639075C4.34407 0.459075 4.39407 0.269075 4.52407 0.149075C4.65407 0.0190748 4.84407 -0.0309252 5.01407 0.0190748L6.37407 0.419075L7.73407 0.0190748C7.91407 -0.0309252 8.09408 0.0190748 8.22408 0.149075C8.35408 0.279075 8.40407 0.469075 8.35407 0.639075L7.95407 1.99907L8.35407 3.35908C8.40407 3.53908 8.35408 3.72907 8.22408 3.84907C8.13408 3.94907 8.00408 3.99907 7.87407 3.99907ZM6.37407 2.55907C6.42407 2.55907 6.46408 2.56907 6.51408 2.57907L7.13408 2.75908L6.95407 2.13908C6.92407 2.04908 6.92407 1.94907 6.95407 1.85907L7.13408 1.23907L6.51408 1.41907C6.42408 1.44907 6.32407 1.44907 6.23407 1.41907L5.61407 1.23907L5.79407 1.85907C5.82407 1.94907 5.82407 2.04908 5.79407 2.13908L5.61407 2.75908L6.23407 2.57907C6.28407 2.56907 6.32407 2.55907 6.37407 2.55907Z" />
    <path d="M3.87407 9.99907C3.82407 9.99907 3.78408 9.98907 3.73408 9.97907L2.37407 9.57907L1.01407 9.97907C0.834075 10.0291 0.654075 9.97908 0.524075 9.84908C0.394075 9.71908 0.344075 9.52907 0.394075 9.35907L0.794075 7.99907L0.394075 6.63908C0.344075 6.45908 0.394075 6.26907 0.524075 6.14907C0.654075 6.02907 0.844075 5.96907 1.01407 6.01907L2.37407 6.41907L3.73408 6.01907C3.90408 5.96907 4.09407 6.01907 4.22407 6.14907C4.35407 6.27907 4.40408 6.46908 4.35407 6.63908L3.95407 7.99907L4.35407 9.35907C4.40408 9.53907 4.35407 9.72908 4.22407 9.84908C4.13407 9.94908 4.00408 9.99907 3.87407 9.99907ZM2.37407 8.55908C2.42407 8.55908 2.46407 8.56907 2.51407 8.57907L3.13408 8.75908L2.95407 8.13908C2.92407 8.04908 2.92407 7.94907 2.95407 7.85907L3.13408 7.23907L2.51407 7.41907C2.42407 7.44907 2.32407 7.44907 2.23407 7.41907L1.61407 7.23907L1.79407 7.85907C1.82407 7.94907 1.82407 8.04908 1.79407 8.13908L1.61407 8.75908L2.23407 8.57907C2.28407 8.56907 2.32407 8.55908 2.37407 8.55908Z" />
    <path d="M18.8741 14.9991C18.8241 14.9991 18.7841 14.9891 18.7341 14.9791L17.3741 14.5791L16.0141 14.9791C15.8341 15.0291 15.6541 14.9791 15.5241 14.8491C15.3941 14.7191 15.3441 14.5291 15.3941 14.3591L15.7941 12.9991L15.3941 11.6391C15.3441 11.4591 15.3941 11.2691 15.5241 11.1491C15.6541 11.0291 15.8441 10.9691 16.0141 11.0191L17.3741 11.4191L18.7341 11.0191C18.9041 10.9691 19.0941 11.0191 19.2241 11.1491C19.3541 11.2791 19.4041 11.4691 19.3541 11.6391L18.9541 12.9991L19.3541 14.3591C19.4041 14.5391 19.3541 14.7291 19.2241 14.8491C19.1341 14.9491 19.0041 14.9991 18.8741 14.9991ZM17.3741 13.5591C17.4241 13.5591 17.4641 13.5691 17.5141 13.5791L18.1341 13.7591L17.9541 13.1391C17.9241 13.0491 17.9241 12.9491 17.9541 12.8591L18.1341 12.2391L17.5141 12.4191C17.4241 12.4491 17.3241 12.4491 17.2341 12.4191L16.6141 12.2391L16.7941 12.8591C16.8241 12.9491 16.8241 13.0491 16.7941 13.1391L16.6141 13.7591L17.2341 13.5791C17.2841 13.5691 17.3241 13.5591 17.3741 13.5591Z"/>
  </symbol>
  <symbol id="number-404" width="476" height="200" viewBox="0 0 476 200">
    <path d="M92.5835 197.543V154.676H1.66197L0.0237423 132.56C-0.158282 129.556 0.706337 126.644 2.6176 123.823L82.4811 9.69283C83.9373 7.59954 85.6665 5.87031 87.6688 4.50512C89.6711 3.13993 91.4458 2.45734 92.993 2.45734H118.932V128.328H146.781V154.676H118.932V197.543H92.5835ZM27.3275 128.328H92.5835V37.4061C91.5823 41.4107 90.1261 44.7781 88.2149 47.5085L36.7473 120.683C34.1989 124.141 31.059 126.689 27.3275 128.328Z" fill="#424A52"/>
    <path d="M163.121 100.068C163.121 68.851 169.583 44.3686 182.507 26.6212C195.521 8.87372 213.405 0 236.159 0C258.912 0 276.75 8.87372 289.674 26.6212C302.689 44.3686 309.196 68.851 309.196 100.068C309.196 131.286 302.734 155.768 289.81 173.515C276.887 191.172 259.003 200 236.159 200C213.405 200 195.521 191.126 182.507 173.379C169.583 155.631 163.121 131.195 163.121 100.068ZM189.469 100.068C189.469 123.003 193.61 141.024 201.892 154.13C210.174 167.144 221.597 173.652 236.159 173.652C250.721 173.652 262.143 167.144 270.425 154.13C278.707 141.024 282.848 123.003 282.848 100.068C282.848 77.0421 278.707 59.0216 270.425 46.0068C262.143 32.901 250.721 26.3481 236.159 26.3481C221.597 26.3481 210.174 32.901 201.892 46.0068C193.61 59.0216 189.469 77.0421 189.469 100.068Z" fill="#424A52"/>
    <path d="M421.082 197.543V154.676H330.16L328.522 132.56C328.34 129.556 329.205 126.644 331.116 123.823L410.979 9.69283C412.436 7.59954 414.165 5.87031 416.167 4.50512C418.169 3.13993 419.944 2.45734 421.491 2.45734H447.43V128.328H475.28V154.676H447.43V197.543H421.082ZM355.826 128.328H421.082V37.4061C420.081 41.4107 418.624 44.7781 416.713 47.5085L365.246 120.683C362.697 124.141 359.557 126.689 355.826 128.328Z" fill="#424A52"/>
  </symbol>
  <symbol id="icon-vk" width="16" height="9" viewBox="0 0 16 9">
    <path fill-rule="evenodd" clip-rule="evenodd" d="M7.82834 8.96226H8.78468C8.78468 8.96226 9.07348 8.93087 9.22116 8.77421C9.35688 8.63023 9.35254 8.36002 9.35254 8.36002C9.35254 8.36002 9.33384 7.09478 9.92931 6.90845C10.5166 6.7248 11.2705 8.13126 12.0695 8.67211C12.6737 9.08125 13.1329 8.9917 13.1329 8.9917L15.2697 8.96226C15.2697 8.96226 16.3874 8.89426 15.8574 8.02777C15.814 7.95699 15.5486 7.38681 14.2686 6.21534C12.9287 4.9892 13.1083 5.18758 14.7222 3.06667C15.7051 1.77504 16.0979 0.986534 15.9752 0.648835C15.8582 0.327079 15.1352 0.412074 15.1352 0.412074L12.7295 0.426739C12.7295 0.426739 12.551 0.402797 12.4188 0.480792C12.2895 0.557064 12.2065 0.735274 12.2065 0.735274C12.2065 0.735274 11.8256 1.7347 11.318 2.58481C10.2467 4.37835 9.81826 4.47329 9.64315 4.36174C9.23575 4.10215 9.33755 3.31909 9.33755 2.76263C9.33755 1.02442 9.60495 0.299693 8.81685 0.112095C8.55537 0.0498769 8.36274 0.00871287 7.69391 0.00199115C6.83544 -0.00661937 6.10903 0.00460233 5.69763 0.203311C5.42392 0.335468 5.21275 0.629892 5.34144 0.646835C5.50049 0.667723 5.86051 0.742662 6.05139 0.998755C6.298 1.32957 6.28938 2.07218 6.28938 2.07218C6.28938 2.07218 6.43108 4.11832 5.95854 4.37241C5.6343 4.54673 5.18943 4.19087 4.23433 2.56365C3.74506 1.73015 3.37552 0.808713 3.37552 0.808713C3.37552 0.808713 3.30436 0.636558 3.17726 0.544398C3.02311 0.432739 2.80772 0.397353 2.80772 0.397353L0.5215 0.412074C0.5215 0.412074 0.178381 0.421518 0.0522889 0.568674C-0.0598865 0.699665 0.0433314 0.970257 0.0433314 0.970257C0.0433314 0.970257 1.83307 5.09897 3.85978 7.1796C5.7183 9.08747 7.82834 8.96226 7.82834 8.96226Z"/>
  </symbol>
  <symbol id="icon-logo-footer" width="131" height="40" viewBox="0 0 131 40">
    <path d="M120.36 20.873V26.4606H114.24V20.873H111.602V34.709H114.24V29.0992H120.36V34.709H122.998V20.873H120.36Z" fill="white"/>
    <path d="M107.569 27.3932C107.946 26.994 108.589 26.1515 108.589 24.9985C108.589 22.7368 106.682 20.8965 104.332 20.8965H98.1016V34.6659H105.33C107.658 34.6659 109.587 32.8255 109.587 30.5639C109.587 29.2113 108.612 27.9918 107.569 27.3932ZM100.74 23.5572H104.243C105.108 23.5572 105.796 24.2446 105.796 25.0872C105.796 25.9519 105.108 26.6393 104.243 26.6393L100.74 26.6171V23.5572ZM105.241 32.0273H100.74V29.9209V28.9231H105.241C106.106 28.9231 106.816 29.6105 106.816 30.4752C106.816 31.3178 106.106 32.0273 105.241 32.0273Z" fill="white"/>
    <path d="M45.8622 18.1242C44.0441 18.1242 42.2259 17.4368 40.8511 16.0621C39.5429 14.7317 38.8112 12.98 38.7891 11.0953C38.7891 10.3858 38.8999 9.69845 39.0995 9.01109C39.4321 7.90244 40.0307 6.88248 40.8511 6.06208C43.6228 3.31264 48.1017 3.31264 50.8511 6.06208C53.6006 8.8337 53.6006 13.3126 50.8511 16.0621C49.4764 17.4368 47.6582 18.1242 45.8622 18.1242ZM41.4498 11.0732C41.4498 12.2483 41.8933 13.357 42.7358 14.1774C44.4432 15.9069 47.2591 15.9069 48.9664 14.1774C50.6959 12.4701 50.6959 9.6541 48.9664 7.94679C47.2591 6.2173 44.4432 6.2173 42.7358 7.94679C42.2037 8.45676 41.8489 9.07761 41.6272 9.78714C41.4942 10.2084 41.4276 10.6297 41.4498 11.0732Z" fill="#D61C38"/>
    <path d="M28.7858 17.969H26.125V4H31.2691C34.2403 4 36.6572 6.41685 36.6572 9.38803C36.6572 12.3814 34.2403 14.7982 31.2691 14.7982H28.7858V17.969ZM28.7858 12.1375H31.2691C32.7769 12.1375 34.0186 10.918 34.0186 9.38803C34.0186 7.88027 32.7769 6.66075 31.2691 6.66075H28.7858V12.1375Z" fill="#D61C38"/>
    <path d="M53.5315 34.6656C51.802 35.1534 49.873 34.976 48.1657 34.0225C46.547 33.0913 45.3497 31.6057 44.8397 29.7875C44.6402 29.1223 44.5515 28.4128 44.5736 27.7033C44.5958 26.5503 44.9062 25.3973 45.4827 24.3995C47.3896 21.007 51.7133 19.7875 55.1058 21.6944C58.4983 23.6234 59.6956 27.925 57.7887 31.3174C56.8353 33.0248 55.2832 34.1778 53.5315 34.6656ZM47.3896 29.0558C47.7 30.1866 48.4539 31.1401 49.4739 31.6944C51.6025 32.8917 54.2854 32.1378 55.4827 30.0314C56.6801 27.9028 55.9262 25.1977 53.7976 24.0004C51.669 22.8252 48.9861 23.5791 47.7887 25.6855C47.4339 26.3285 47.2344 27.0381 47.2122 27.7698C47.2122 28.1911 47.2787 28.6345 47.3896 29.0558Z" fill="#D61C38"/>
    <path d="M64.3333 17.9459H55.1094V4.1543H57.748V15.3073H62.6704C63.5794 15.3073 64.3333 16.039 64.3333 16.9703V17.9459Z" fill="#D61C38"/>
    <path d="M10.051 34.8429C8.25499 34.8429 6.43681 34.1556 5.06208 32.7808C2.31264 30.0314 2.31264 25.5525 5.06208 22.7808C6.39246 21.4505 8.1663 20.7188 10.051 20.7188C11.9357 20.7188 13.7095 21.4505 15.0621 22.7808L14.1973 23.6456C13.6652 24.1777 12.867 24.2886 12.2239 23.9338C11.1818 23.3573 9.94013 23.2021 8.69845 23.5791C8.49889 23.6456 8.29934 23.7121 8.12195 23.8008C5.28381 25.2642 4.8847 28.8562 6.94679 30.9183C8.36585 32.3374 10.561 32.5813 12.2461 31.6278C12.867 31.2731 13.6874 31.4061 14.1973 31.9161L15.0621 32.7808C13.6874 34.1556 11.8692 34.8429 10.051 34.8429Z" fill="#D61C38"/>
    <path d="M75.6415 4.11133H73.3355C72.7812 4.11133 72.249 4.39958 71.9386 4.86521L68.4575 10.3641L64.9763 4.86521C64.6659 4.39958 64.1559 4.11133 63.6016 4.11133H61.2734L67.1271 13.1357V17.9472H69.7879V13.1357L75.6415 4.11133Z" fill="#D61C38"/>
    <path d="M73.087 21.6269L68.4529 28.811L63.8187 21.6269C63.5083 21.1613 62.9761 20.873 62.4218 20.873H60.9141V34.709H63.5526V26.1059L68.4529 33.689L73.3531 26.1059V34.709H75.9917V20.873H74.4839C73.9296 20.873 73.3974 21.1613 73.087 21.6269Z" fill="#D61C38"/>
    <path d="M26.1255 20.873V26.4606H20.0058V20.873H17.3672V34.709H20.0058V29.0992H26.1255V34.709H28.7863V20.873H26.1255Z" fill="#D61C38"/>
    <path d="M89.1892 23.556V20.8952L78.9453 20.873V34.709L89.1892 34.6646V32.026H81.5839V29.0992H85.4198C86.3289 29.0992 87.0828 28.3675 87.0828 27.4362V26.4606H81.5839V23.556H89.1892Z" fill="#D61C38"/>
    <path d="M40.9579 31.273C40.7361 31.0069 40.4479 30.8073 40.1596 30.6521C41.5787 29.6765 42.5322 28.0579 42.5322 26.1954C42.5322 23.2242 40.1153 20.7852 37.1441 20.7852H32V34.7763H34.6386V31.5834H37.1441C37.3215 31.5834 37.5211 31.5834 37.7206 31.5612L39.9379 34.1776C40.2483 34.5546 40.714 34.7763 41.2018 34.7763H43.9069L40.9579 31.273ZM34.6386 28.9448V23.4459H37.1441C38.6519 23.4459 39.8714 24.6876 39.8714 26.1954C39.8714 27.7031 38.6519 28.9448 37.1441 28.9448H34.6386Z" fill="#D61C38"/>
    <path d="M48.7904 23.0918L46.4844 16.6616L48.9012 15.7969L51.2072 22.227L48.7904 23.0918Z" fill="#D61C38"/>
    <path d="M93.8862 37.703H93.3984V17.7695H93.8862V37.703Z" fill="white"/>
  </symbol>
  <symbol id="icon-feedback-done" width="100" height="100" viewBox="0 0 100 100">
    <circle cx="50" cy="50" r="50" fill="#424A52"/>
    <rect x="49.0234" y="56.9707" width="4" height="13" rx="2" transform="rotate(135 49.0234 56.9707)" fill="white"/>
    <rect x="60.3359" y="40" width="4" height="24" rx="2" transform="rotate(45 60.3359 40)" fill="white"/>
  </symbol>
  <symbol id="icon-feedback-close" width="32" height="32" viewBox="0 0 32 32">
    <rect x="22.1406" y="9.00195" width="2" height="20" rx="1" transform="rotate(45 22.1406 9.00195)" fill="#D61C38"/>
    <rect x="23.5547" y="23.1426" width="2" height="20" rx="1" transform="rotate(135 23.5547 23.1426)" fill="#D61C38"/>
  </symbol>
  <symbol id="icon-close-tablet-main" width="44" height="44" viewBox="0 0 44 44">
    <circle cx="22" cy="22" r="22" fill="#F9F9F9"/>
    <path fill-rule="evenodd" clip-rule="evenodd" d="M27.3088 28.1136C27.6017 28.4065 28.0766 28.4065 28.3695 28.1136C28.6624 27.8207 28.6624 27.3458 28.3695 27.0529L23.0669 21.7504L28.3708 16.4465C28.6637 16.1536 28.6637 15.6787 28.3708 15.3858C28.0779 15.0929 27.6031 15.0929 27.3102 15.3858L22.0062 20.6897L16.7022 15.3857C16.4093 15.0928 15.9344 15.0928 15.6415 15.3857C15.3487 15.6786 15.3487 16.1535 15.6415 16.4463L20.9456 21.7504L15.6429 27.0531C15.35 27.346 15.35 27.8208 15.6429 28.1137C15.9358 28.4066 16.4107 28.4066 16.7036 28.1137L22.0062 22.811L27.3088 28.1136Z" fill="#424A52"/>
  </symbol>
  <symbol id="icon-burger-tablet" width="44" height="44" viewBox="0 0 44 44">
    <circle cx="22" cy="22" r="22" fill="#424A52"/>
    <path d="M31 19.25C31 19.6642 30.6642 20 30.25 20L13.75 20C13.3358 20 13 19.6642 13 19.25V19.25C13 18.8358 13.3358 18.5 13.75 18.5L30.25 18.5C30.6642 18.5 31 18.8358 31 19.25V19.25Z" fill="white"/>
    <path d="M13 24.75C13 24.3358 13.3358 24 13.75 24H30.25C30.6642 24 31 24.3358 31 24.75V24.75C31 25.1642 30.6642 25.5 30.25 25.5H13.75C13.3358 25.5 13 25.1642 13 24.75V24.75Z" fill="white"/>
  </symbol>
  <symbol id="icon-close-tablet" width="16" height="16" viewBox="0 0 16 16">
    <rect x="14.1406" y="0.00195312" width="2" height="20" rx="1" transform="rotate(45 14.1406 0.00195312)" fill="#9EA1A6"/>
    <rect x="15.5547" y="14.1426" width="2" height="20" rx="1" transform="rotate(135 15.5547 14.1426)" fill="#9EA1A6"/>
  </symbol>
  <symbol id="icon-message-tablet" width="44" height="44" viewBox="0 0 44 44">
    <circle cx="22" cy="22" r="22" fill="#F9F9F9"/>
    <mask id="path-2-outside-1_716_1241" maskUnits="userSpaceOnUse" x="12" y="13" width="20" height="18" fill="black">
      <rect fill="white" x="12" y="13" width="20" height="18"/>
      <path fill-rule="evenodd" clip-rule="evenodd" d="M17.9477 29.9186H26.5523C29.693 29.9186 31.5 28.1116 31.5 24.9709V18.9477C31.5 15.807 29.693 14 26.5523 14H17.9477C14.807 14 13 15.807 13 18.9477V24.9709C13 28.1116 14.807 29.9186 17.9477 29.9186ZM14.2907 18.9477C14.2907 16.4867 15.4867 15.2907 17.9477 15.2907H26.5523C29.0133 15.2907 30.2093 16.4867 30.2093 18.9477V24.9709C30.2093 27.4319 29.0133 28.6279 26.5523 28.6279H17.9477C15.4867 28.6279 14.2907 27.4319 14.2907 24.9709V18.9477ZM20.2412 21.1675C20.8005 21.6236 21.5319 21.8473 22.2547 21.8473C22.9775 21.8473 23.7089 21.6236 24.2596 21.1675L26.9528 19.0164C27.2368 18.8013 27.2798 18.3882 27.0561 18.1129C26.841 17.8289 26.4279 17.7859 26.1526 18.0096L23.4593 20.1608C22.8054 20.6857 21.6954 20.6857 21.0414 20.1608L18.3482 18.0096C18.0728 17.7859 17.6684 17.8375 17.4447 18.1129C17.221 18.3882 17.2726 18.7927 17.5479 19.0164L20.2412 21.1675Z"/>
    </mask>
    <path fill-rule="evenodd" clip-rule="evenodd" d="M17.9477 29.9186H26.5523C29.693 29.9186 31.5 28.1116 31.5 24.9709V18.9477C31.5 15.807 29.693 14 26.5523 14H17.9477C14.807 14 13 15.807 13 18.9477V24.9709C13 28.1116 14.807 29.9186 17.9477 29.9186ZM14.2907 18.9477C14.2907 16.4867 15.4867 15.2907 17.9477 15.2907H26.5523C29.0133 15.2907 30.2093 16.4867 30.2093 18.9477V24.9709C30.2093 27.4319 29.0133 28.6279 26.5523 28.6279H17.9477C15.4867 28.6279 14.2907 27.4319 14.2907 24.9709V18.9477ZM20.2412 21.1675C20.8005 21.6236 21.5319 21.8473 22.2547 21.8473C22.9775 21.8473 23.7089 21.6236 24.2596 21.1675L26.9528 19.0164C27.2368 18.8013 27.2798 18.3882 27.0561 18.1129C26.841 17.8289 26.4279 17.7859 26.1526 18.0096L23.4593 20.1608C22.8054 20.6857 21.6954 20.6857 21.0414 20.1608L18.3482 18.0096C18.0728 17.7859 17.6684 17.8375 17.4447 18.1129C17.221 18.3882 17.2726 18.7927 17.5479 19.0164L20.2412 21.1675Z" fill="#424A52"/>
    <path d="M20.2412 21.1675L20.3676 21.0125L20.366 21.0113L20.2412 21.1675ZM24.2596 21.1675L24.1347 21.0112L24.132 21.0135L24.2596 21.1675ZM26.9528 19.0164L26.832 18.8569L26.828 18.8601L26.9528 19.0164ZM27.0561 18.1129L26.8966 18.2337L26.9009 18.239L27.0561 18.1129ZM26.1526 18.0096L26.2774 18.1659L26.2787 18.1649L26.1526 18.0096ZM23.4593 20.1608L23.3345 20.0045L23.3341 20.0048L23.4593 20.1608ZM21.0414 20.1608L21.1666 20.0048L21.1663 20.0045L21.0414 20.1608ZM18.3482 18.0096L18.2221 18.1649L18.2234 18.1659L18.3482 18.0096ZM17.4447 18.1129L17.2895 17.9868L17.2895 17.9868L17.4447 18.1129ZM17.5479 19.0164L17.4218 19.1716L17.4231 19.1727L17.5479 19.0164ZM26.5523 29.7186H17.9477V30.1186H26.5523V29.7186ZM31.3 24.9709C31.3 26.5033 30.8599 27.6837 30.0625 28.4811C29.2651 29.2785 28.0847 29.7186 26.5523 29.7186V30.1186C28.1606 30.1186 29.454 29.6553 30.3453 28.764C31.2366 27.8726 31.7 26.5792 31.7 24.9709H31.3ZM31.3 18.9477V24.9709H31.7V18.9477H31.3ZM26.5523 14.2C28.0847 14.2 29.2651 14.6401 30.0625 15.4375C30.8599 16.2349 31.3 17.4153 31.3 18.9477H31.7C31.7 17.3394 31.2366 16.046 30.3453 15.1547C29.454 14.2634 28.1606 13.8 26.5523 13.8V14.2ZM17.9477 14.2H26.5523V13.8H17.9477V14.2ZM13.2 18.9477C13.2 17.4153 13.6401 16.2349 14.4375 15.4375C15.2349 14.6401 16.4153 14.2 17.9477 14.2V13.8C16.3394 13.8 15.046 14.2634 14.1547 15.1547C13.2634 16.046 12.8 17.3394 12.8 18.9477H13.2ZM13.2 24.9709V18.9477H12.8V24.9709H13.2ZM17.9477 29.7186C16.4153 29.7186 15.2349 29.2785 14.4375 28.4811C13.6401 27.6837 13.2 26.5033 13.2 24.9709H12.8C12.8 26.5792 13.2634 27.8726 14.1547 28.764C15.046 29.6553 16.3394 30.1186 17.9477 30.1186V29.7186ZM17.9477 15.0907C16.6878 15.0907 15.713 15.3968 15.0549 16.0549C14.3968 16.713 14.0907 17.6878 14.0907 18.9477H14.4907C14.4907 17.7466 14.7826 16.8929 15.3378 16.3378C15.8929 15.7826 16.7466 15.4907 17.9477 15.4907V15.0907ZM26.5523 15.0907H17.9477V15.4907H26.5523V15.0907ZM30.4093 18.9477C30.4093 17.6878 30.1032 16.713 29.4451 16.0549C28.787 15.3968 27.8122 15.0907 26.5523 15.0907V15.4907C27.7534 15.4907 28.6071 15.7826 29.1622 16.3378C29.7174 16.8929 30.0093 17.7466 30.0093 18.9477H30.4093ZM30.4093 24.9709V18.9477H30.0093V24.9709H30.4093ZM26.5523 28.8279C27.8122 28.8279 28.787 28.5218 29.4451 27.8637C30.1032 27.2056 30.4093 26.2308 30.4093 24.9709H30.0093C30.0093 26.172 29.7174 27.0257 29.1622 27.5808C28.6071 28.136 27.7534 28.4279 26.5523 28.4279V28.8279ZM17.9477 28.8279H26.5523V28.4279H17.9477V28.8279ZM14.0907 24.9709C14.0907 26.2308 14.3968 27.2056 15.0549 27.8637C15.713 28.5218 16.6878 28.8279 17.9477 28.8279V28.4279C16.7466 28.4279 15.8929 28.136 15.3378 27.5808C14.7826 27.0257 14.4907 26.172 14.4907 24.9709H14.0907ZM14.0907 18.9477V24.9709H14.4907V18.9477H14.0907ZM22.2547 21.6473C21.5709 21.6473 20.8861 21.4353 20.3676 21.0125L20.1148 21.3225C20.7149 21.8119 21.4929 22.0473 22.2547 22.0473V21.6473ZM24.132 21.0135C23.6228 21.4352 22.9388 21.6473 22.2547 21.6473V22.0473C23.0161 22.0473 23.7949 21.812 24.3871 21.3216L24.132 21.0135ZM26.828 18.8601L24.1348 21.0113L24.3844 21.3238L27.0777 19.1727L26.828 18.8601ZM26.9009 18.239C27.0555 18.4294 27.023 18.7123 26.8321 18.857L27.0736 19.1758C27.4506 18.8902 27.5041 18.3471 27.2113 17.9868L26.9009 18.239ZM26.2787 18.1649C26.4691 18.0102 26.752 18.0427 26.8967 18.2337L27.2155 17.9921C26.9299 17.6151 26.3868 17.5617 26.0265 17.8544L26.2787 18.1649ZM23.5842 20.3171L26.2774 18.1659L26.0278 17.8534L23.3345 20.0045L23.5842 20.3171ZM20.9162 20.3168C21.2851 20.6128 21.7728 20.7545 22.2504 20.7545C22.728 20.7545 23.2157 20.6128 23.5845 20.3168L23.3341 20.0048C23.049 20.2337 22.6547 20.3545 22.2504 20.3545C21.846 20.3545 21.4517 20.2337 21.1666 20.0048L20.9162 20.3168ZM18.2234 18.1659L20.9166 20.3171L21.1663 20.0045L18.473 17.8534L18.2234 18.1659ZM17.5999 18.239C17.7575 18.045 18.0367 18.0143 18.2221 18.1649L18.4743 17.8544C18.1089 17.5576 17.5793 17.6301 17.2895 17.9868L17.5999 18.239ZM17.6741 18.8612C17.4801 18.7035 17.4493 18.4243 17.5999 18.239L17.2895 17.9868C16.9926 18.3521 17.0651 18.8818 17.4218 19.1716L17.6741 18.8612ZM20.366 21.0113L17.6728 18.8601L17.4231 19.1727L20.1164 21.3238L20.366 21.0113Z" fill="#424A52" mask="url(#path-2-outside-1_716_1241)"/>
  </symbol>
  <symbol id="icon-phone-tablet" width="44" height="44" viewBox="0 0 44 44">
    <circle cx="22" cy="22" r="22" fill="#F9F9F9"/>
    <path d="M30.5704 30.0134C30.8612 29.6962 31.0905 29.3522 31.2754 28.9561C31.4619 28.5564 31.56 28.1291 31.56 27.7009C31.56 27.3857 31.4968 27.0722 31.3638 26.7352L31.3638 26.7352L31.3629 26.7331C31.2172 26.3871 30.9719 26.0973 30.6396 25.8725C30.6392 25.8723 30.6389 25.8721 30.6386 25.8718L27.7847 23.8431L27.7841 23.8427C27.5203 23.658 27.2732 23.5256 27.0431 23.4282L27.0424 23.4279C26.4142 23.1677 25.7794 23.219 25.2774 23.5279C25.0174 23.6629 24.7524 23.8672 24.4821 24.1375C24.482 24.1376 24.4819 24.1377 24.4818 24.1378L23.9407 24.6715C23.7561 24.5721 23.4567 24.3719 23.0084 23.9943L23.0077 23.9937C22.6155 23.6698 22.1967 23.2767 21.6901 22.7787C21.2966 22.3767 20.9027 21.94 20.4821 21.4593C20.0971 21.0074 19.8951 20.7059 19.7937 20.5304L20.3316 19.9688C20.5845 19.7158 20.7883 19.4598 20.9231 19.2177C21.1114 18.9032 21.2117 18.5679 21.2117 18.2214C21.2117 17.9564 21.1479 17.6854 21.0321 17.4177C20.9338 17.1679 20.7919 16.9203 20.6081 16.6664C20.608 16.6663 20.6079 16.6662 20.6078 16.666L18.6135 13.8551C18.3962 13.5296 18.0979 13.2862 17.7476 13.1244C17.4417 12.9805 17.0832 12.9 16.7333 12.9C15.8955 12.9 15.1145 13.2393 14.4361 13.9085C13.9016 14.4082 13.5061 14.9879 13.2597 15.6127L13.2596 15.613C13.0227 16.2184 12.9 16.8674 12.9 17.5505C12.9 18.5379 13.1272 19.5833 13.5787 20.6601L13.5788 20.6603C14.0037 21.6662 14.6012 22.7049 15.3445 23.742L15.3451 23.7429C16.0792 24.7446 16.9082 25.7205 17.8235 26.6444L17.8245 26.6454C18.7483 27.5519 19.7239 28.3808 20.7342 29.1234L20.735 29.124C21.7551 29.8588 22.8024 30.4648 23.8425 30.9069L23.8427 30.907C24.9104 31.3584 25.9473 31.5944 26.9353 31.5944C27.6277 31.5944 28.2855 31.4629 28.8911 31.2172C29.5261 30.9614 30.0714 30.5649 30.5704 30.0134ZM30.5704 30.0134C30.5705 30.0133 30.5706 30.0132 30.5707 30.0131L30.4966 29.946L30.5703 30.0136C30.5703 30.0136 30.5704 30.0135 30.5704 30.0134ZM26.5138 24.6988L26.4757 24.7913C26.6138 24.8481 26.7621 24.9302 26.9293 25.0472C26.9294 25.0472 26.9295 25.0473 26.9296 25.0474L29.7849 27.077L29.7849 27.0771L29.7863 27.0781C29.9306 27.1768 29.973 27.256 29.9932 27.2963C30.0556 27.4375 30.0783 27.5606 30.0783 27.6837C30.0783 27.8917 30.0304 28.1006 29.9333 28.3028L29.9329 28.3036C29.808 28.57 29.6588 28.7937 29.4681 29.0009L29.4671 29.0021C29.1238 29.3872 28.749 29.6533 28.3252 29.8278L28.3248 29.8279C27.2238 30.2867 25.8774 30.1495 24.4198 29.5272L24.4191 29.5269C23.4811 29.1346 22.5331 28.5882 21.6095 27.9127L21.6094 27.9126C20.6588 27.2189 19.7337 26.4309 18.8771 25.5829C18.0205 24.7177 17.2411 23.8012 16.5561 22.8593C15.8718 21.9185 15.3339 20.9789 14.9501 20.0749C14.5759 19.1904 14.3903 18.3349 14.3903 17.5505C14.3903 17.0546 14.4743 16.5944 14.6497 16.16L14.6497 16.16L14.6501 16.1591C14.8162 15.7353 15.0826 15.3432 15.4683 14.9827L15.4683 14.9827L15.4699 14.9811C15.878 14.5813 16.2929 14.3903 16.7333 14.3903C16.8635 14.3903 16.9957 14.4209 17.1222 14.4761C17.2347 14.5288 17.3242 14.6032 17.4002 14.7096C17.4002 14.7096 17.4003 14.7097 17.4003 14.7097L19.3957 17.5308L19.3957 17.5308L19.3968 17.5324C19.5144 17.692 19.6044 17.8399 19.6606 17.9682C19.7011 18.0656 19.7214 18.1545 19.7214 18.2042C19.7214 18.2683 19.7027 18.3451 19.6416 18.4443L19.6416 18.4443L19.6406 18.446C19.5599 18.5832 19.4367 18.74 19.269 18.9077L19.269 18.9077L19.2676 18.9091L18.6232 19.5794C18.3893 19.8136 18.2677 20.1143 18.2677 20.4494C18.2677 20.5819 18.2871 20.703 18.3397 20.9047L18.339 20.9049L18.3436 20.9166L18.4469 21.1747L18.4463 21.1749L18.4517 21.185C18.6371 21.5294 18.9347 21.9398 19.3411 22.4154L19.3415 22.4158C19.7816 22.9249 20.2045 23.3824 20.6274 23.814L20.6287 23.8152C21.1718 24.3498 21.6209 24.7643 22.036 25.1189L22.0362 25.1191C22.4954 25.5089 22.9142 25.8061 23.2752 25.9998L23.275 26L23.2818 26.0031L23.5141 26.1063L23.514 26.1065L23.5201 26.1087C23.9487 26.2671 24.5063 26.1846 24.8718 25.8285L24.8723 25.828L25.526 25.1829L25.5265 25.1824C25.6957 25.0132 25.8416 24.893 25.9994 24.814L25.9996 24.8144L26.0072 24.8097C26.1464 24.7237 26.2166 24.7107 26.2649 24.7146C26.2906 24.7167 26.3166 24.7241 26.3507 24.7377C26.368 24.7445 26.386 24.7525 26.4071 24.7618L26.4087 24.7625C26.429 24.7714 26.4515 24.7813 26.476 24.7913L26.5138 24.6988ZM26.5138 24.6988C26.4906 24.6893 26.4691 24.6798 26.4486 24.6708C26.3024 24.6063 26.2113 24.5661 25.9547 24.7246M26.5138 24.6988C26.6601 24.759 26.8149 24.845 26.9869 24.9655L25.9547 24.7246M25.9547 24.7246C25.7826 24.8106 25.6278 24.9396 25.4558 25.1117L25.9547 24.7246Z" fill="#424A52" stroke="#424A52" stroke-width="0.2"/>
  </symbol>
  <symbol id="icon-search-tablet" width="44" height="44" viewBox="0 0 44 44">
    <circle cx="22" cy="22" r="22" fill="#F9F9F9"/>
    <mask id="path-2-outside-1_716_1231" maskUnits="userSpaceOnUse" x="12" y="12" width="20" height="20" fill="black">
      <rect fill="white" x="12" y="12" width="20" height="20"/>
      <path fill-rule="evenodd" clip-rule="evenodd" d="M13 21.8218C13 26.6846 16.9591 30.6436 21.8218 30.6436C26.6846 30.6436 30.6436 26.6846 30.6436 21.8218C30.6436 16.9591 26.6846 13 21.8218 13C16.9591 13 13 16.9591 13 21.8218ZM14.291 21.8218C14.291 17.6734 17.6648 14.291 21.8218 14.291C25.9788 14.291 29.3526 17.6734 29.3526 21.8218C29.3526 25.9702 25.9788 29.3526 21.8218 29.3526C17.6648 29.3526 14.291 25.9702 14.291 21.8218ZM30.4005 31.3149C30.5296 31.444 30.6931 31.5043 30.8567 31.5043C31.0202 31.5043 31.1837 31.444 31.3128 31.3149C31.5624 31.0653 31.5624 30.6522 31.3128 30.4026L29.5915 28.6813C29.3419 28.4317 28.9288 28.4317 28.6792 28.6813C28.4296 28.9309 28.4296 29.344 28.6792 29.5936L30.4005 31.3149Z"/>
    </mask>
    <path fill-rule="evenodd" clip-rule="evenodd" d="M13 21.8218C13 26.6846 16.9591 30.6436 21.8218 30.6436C26.6846 30.6436 30.6436 26.6846 30.6436 21.8218C30.6436 16.9591 26.6846 13 21.8218 13C16.9591 13 13 16.9591 13 21.8218ZM14.291 21.8218C14.291 17.6734 17.6648 14.291 21.8218 14.291C25.9788 14.291 29.3526 17.6734 29.3526 21.8218C29.3526 25.9702 25.9788 29.3526 21.8218 29.3526C17.6648 29.3526 14.291 25.9702 14.291 21.8218ZM30.4005 31.3149C30.5296 31.444 30.6931 31.5043 30.8567 31.5043C31.0202 31.5043 31.1837 31.444 31.3128 31.3149C31.5624 31.0653 31.5624 30.6522 31.3128 30.4026L29.5915 28.6813C29.3419 28.4317 28.9288 28.4317 28.6792 28.6813C28.4296 28.9309 28.4296 29.344 28.6792 29.5936L30.4005 31.3149Z" fill="#424A52"/>
    <path d="M31.3128 30.4026L31.1714 30.544L31.1714 30.544L31.3128 30.4026ZM29.5915 28.6813L29.4501 28.8227L29.4501 28.8227L29.5915 28.6813ZM28.6792 29.5936L28.8206 29.4522L28.8206 29.4522L28.6792 29.5936ZM21.8218 30.4436C17.0695 30.4436 13.2 26.5741 13.2 21.8218H12.8C12.8 26.795 16.8486 30.8436 21.8218 30.8436V30.4436ZM30.4436 21.8218C30.4436 26.5741 26.5741 30.4436 21.8218 30.4436V30.8436C26.795 30.8436 30.8436 26.795 30.8436 21.8218H30.4436ZM21.8218 13.2C26.5741 13.2 30.4436 17.0695 30.4436 21.8218H30.8436C30.8436 16.8486 26.795 12.8 21.8218 12.8V13.2ZM13.2 21.8218C13.2 17.0695 17.0695 13.2 21.8218 13.2V12.8C16.8486 12.8 12.8 16.8486 12.8 21.8218H13.2ZM21.8218 14.091C17.5542 14.091 14.091 17.5631 14.091 21.8218H14.491C14.491 17.7837 17.7754 14.491 21.8218 14.491V14.091ZM29.5526 21.8218C29.5526 17.5631 26.0894 14.091 21.8218 14.091V14.491C25.8682 14.491 29.1526 17.7837 29.1526 21.8218H29.5526ZM21.8218 29.5526C26.0894 29.5526 29.5526 26.0805 29.5526 21.8218H29.1526C29.1526 25.8599 25.8682 29.1526 21.8218 29.1526V29.5526ZM14.091 21.8218C14.091 26.0805 17.5542 29.5526 21.8218 29.5526V29.1526C17.7754 29.1526 14.491 25.8599 14.491 21.8218H14.091ZM30.8567 31.3043C30.7433 31.3043 30.6315 31.2631 30.5419 31.1735L30.2591 31.4563C30.4277 31.6249 30.6429 31.7043 30.8567 31.7043V31.3043ZM31.1714 31.1735C31.0818 31.2631 30.97 31.3043 30.8567 31.3043V31.7043C31.0704 31.7043 31.2856 31.6249 31.4542 31.4563L31.1714 31.1735ZM31.1714 30.544C31.3429 30.7155 31.3429 31.002 31.1714 31.1735L31.4542 31.4563C31.7819 31.1286 31.7819 30.5889 31.4542 30.2612L31.1714 30.544ZM29.4501 28.8227L31.1714 30.544L31.4542 30.2612L29.7329 28.5398L29.4501 28.8227ZM28.8206 28.8227C28.9921 28.6512 29.2786 28.6512 29.4501 28.8227L29.7329 28.5398C29.4052 28.2122 28.8654 28.2122 28.5377 28.5398L28.8206 28.8227ZM28.8206 29.4522C28.6491 29.2807 28.6491 28.9942 28.8206 28.8227L28.5377 28.5398C28.21 28.8675 28.21 29.4073 28.5377 29.735L28.8206 29.4522ZM30.5419 31.1735L28.8206 29.4522L28.5377 29.735L30.2591 31.4563L30.5419 31.1735Z" fill="#424A52" mask="url(#path-2-outside-1_716_1231)"/>
  </symbol>
  <symbol id="icon-compare" width="20" height="19" viewBox="0 0 20 19">
    <path fill-rule="evenodd" clip-rule="evenodd" d="M8.14099 8.00073C6.20216 8.00073 4.58067 6.59115 4.24938 4.74485H0.697674C0.316279 4.74485 0 4.42857 0 4.04718C0 3.66578 0.316279 3.3495 0.697674 3.3495H4.2494C4.58074 1.50326 6.2022 0.09375 8.14099 0.09375C10.3177 0.09375 12.0945 1.87049 12.0945 4.04724C12.0945 6.22398 10.3177 8.00073 8.14099 8.00073ZM8.14099 1.4891C6.72704 1.4891 5.58285 2.63328 5.58285 4.04724C5.58285 5.46119 6.72704 6.60538 8.14099 6.60538C9.55494 6.60538 10.6991 5.46119 10.6991 4.04724C10.6991 2.63328 9.55494 1.4891 8.14099 1.4891ZM13.7209 4.74485H19.3023C19.6837 4.74485 20 4.42857 20 4.04718C20 3.66578 19.6837 3.3495 19.3023 3.3495H13.7209C13.3396 3.3495 13.0233 3.66578 13.0233 4.04718C13.0233 4.42857 13.3396 4.74485 13.7209 4.74485ZM15.7513 14.9774H19.3014C19.6828 14.9774 19.9991 14.6611 19.9991 14.2797C19.9991 13.8983 19.6828 13.582 19.3014 13.582H15.7513C15.42 11.7357 13.7986 10.3262 11.8597 10.3262C9.68299 10.3262 7.90625 12.1029 7.90625 14.2797C7.90625 16.4564 9.68299 18.2331 11.8597 18.2331C13.7985 18.2331 15.42 16.8236 15.7513 14.9774ZM6.27907 14.9775H0.697674C0.316279 14.9775 0 14.6612 0 14.2798C0 13.8984 0.316279 13.5821 0.697674 13.5821H6.27907C6.66047 13.5821 6.97674 13.8984 6.97674 14.2798C6.97674 14.6612 6.66047 14.9775 6.27907 14.9775ZM9.3016 14.2797C9.3016 12.8657 10.4458 11.7215 11.8597 11.7215C13.2737 11.7215 14.4179 12.8657 14.4179 14.2797C14.4179 15.6936 13.2737 16.8378 11.8597 16.8378C10.4458 16.8378 9.3016 15.6936 9.3016 14.2797Z"/>
  </symbol>
  <symbol id="icon-logo" width="178" height="53" viewBox="0 0 178 53">
    <path d="M170.259 26.9043V34.82H161.59V26.9043H157.852V46.5052H161.59V38.558H170.259V46.5052H173.997V26.9043H170.259Z" fill="#424A52"/>
    <path d="M152.139 36.1411C152.673 35.5757 153.584 34.3821 153.584 32.7487C153.584 29.5447 150.883 26.9375 147.553 26.9375H138.727V46.4441H148.967C152.265 46.4441 154.998 43.837 154.998 40.633C154.998 38.7169 153.616 36.9892 152.139 36.1411ZM142.465 30.7069H147.428C148.653 30.7069 149.626 31.6807 149.626 32.8743C149.626 34.0994 148.653 35.0731 147.428 35.0731L142.465 35.0417V30.7069ZM148.841 42.7062H142.465V39.7221V38.3085H148.841C150.066 38.3085 151.071 39.2823 151.071 40.5073C151.071 41.701 150.066 42.7062 148.841 42.7062Z" fill="#424A52"/>
    <path d="M64.7156 23.0092C62.1399 23.0092 59.5641 22.0355 57.6166 20.088C55.7633 18.2033 54.7267 15.7217 54.6953 13.0517C54.6953 12.0466 54.8524 11.0728 55.1351 10.099C55.6063 8.52845 56.4544 7.08352 57.6166 5.92129C61.5431 2.02624 67.8882 2.02624 71.7833 5.92129C75.6783 9.84774 75.6783 16.1929 71.7833 20.088C69.8357 22.0355 67.26 23.0092 64.7156 23.0092ZM58.4647 13.0203C58.4647 14.6851 59.0929 16.2557 60.2866 17.418C62.7053 19.8681 66.6946 19.8681 69.1133 17.418C71.5634 14.9993 71.5634 11.01 69.1133 8.59128C66.6946 6.14117 62.7053 6.14117 60.2866 8.59128C59.5327 9.31375 59.0301 10.1933 58.716 11.1984C58.5275 11.7953 58.4333 12.3921 58.4647 13.0203Z" fill="#D61C38"/>
    <path d="M40.535 22.7894H36.7656V3H44.0531C48.2623 3 51.6862 6.42387 51.6862 10.633C51.6862 14.8736 48.2623 18.2975 44.0531 18.2975H40.535V22.7894ZM40.535 14.5281H44.0531C46.1891 14.5281 47.9482 12.8004 47.9482 10.633C47.9482 8.49704 46.1891 6.7694 44.0531 6.7694H40.535V14.5281Z" fill="#D61C38"/>
    <path d="M75.5857 46.4439C73.1355 47.1349 70.4027 46.8836 67.984 45.5329C65.691 44.2136 63.9947 42.109 63.2723 39.5333C62.9896 38.5909 62.8639 37.5858 62.8953 36.5806C62.9267 34.9472 63.3665 33.3138 64.1832 31.9002C66.8846 27.0943 73.0099 25.3666 77.8159 28.068C82.6219 30.8008 84.3181 36.8947 81.6167 41.7007C80.266 44.1194 78.0672 45.7528 75.5857 46.4439ZM66.8846 38.4967C67.3244 40.0987 68.3924 41.4494 69.8373 42.2347C72.8528 43.9309 76.6537 42.8629 78.3499 39.8788C80.0461 36.8633 78.9781 33.0311 75.9626 31.3348C72.9471 29.67 69.1463 30.738 67.45 33.7221C66.9474 34.6331 66.6647 35.6382 66.6333 36.6748C66.6333 37.2716 66.7276 37.8999 66.8846 38.4967Z" fill="#D61C38"/>
    <path d="M90.8876 22.7568H77.8203V3.21875H81.5583V19.0188H88.5317C89.8196 19.0188 90.8876 20.0554 90.8876 21.3747V22.7568Z" fill="#D61C38"/>
    <path d="M13.9889 46.6948C11.4446 46.6948 8.86881 45.721 6.92129 43.7735C3.02624 39.8784 3.02624 33.5333 6.92129 29.6068C8.80599 27.7221 11.3189 26.6855 13.9889 26.6855C16.6589 26.6855 19.1718 27.7221 21.088 29.6068L19.8629 30.8319C19.109 31.5858 17.9782 31.7428 17.0673 31.2402C15.5909 30.4235 13.8319 30.2037 12.0728 30.7377C11.7901 30.8319 11.5074 30.9261 11.2561 31.0518C7.2354 33.1249 6.66999 38.2136 9.59128 41.1349C11.6016 43.1453 14.7114 43.4908 17.0987 42.1401C17.9782 41.6375 19.1404 41.826 19.8629 42.5484L21.088 43.7735C19.1404 45.721 16.5647 46.6948 13.9889 46.6948Z" fill="#D61C38"/>
    <path d="M106.902 3.15625H103.635C102.85 3.15625 102.096 3.5646 101.656 4.22425L96.7243 12.0143L91.7926 4.22425C91.3529 3.5646 90.6304 3.15625 89.8451 3.15625H86.5469L94.8396 15.9408V22.7571H98.609V15.9408L106.902 3.15625Z" fill="#D61C38"/>
    <path d="M103.292 27.9723L96.7268 38.1497L90.1618 27.9723C89.722 27.3126 88.9682 26.9043 88.1829 26.9043H86.0469V46.5052H89.7849V34.3175L96.7268 45.0602L103.669 34.3175V46.5052H107.407V26.9043H105.271C104.486 26.9043 103.732 27.3126 103.292 27.9723Z" fill="#D61C38"/>
    <path d="M36.7592 26.9043V34.82H28.0896V26.9043H24.3516V46.5052H28.0896V38.558H36.7592V46.5052H40.5286V26.9043H36.7592Z" fill="#D61C38"/>
    <path d="M126.098 30.7051V26.9357L111.586 26.9043V46.5052L126.098 46.4424V42.7044H115.324V38.558H120.758C122.046 38.558 123.114 37.5214 123.114 36.2022V34.82H115.324V30.7051H126.098Z" fill="#D61C38"/>
    <path d="M57.7763 41.637C57.4621 41.2601 57.0538 40.9774 56.6454 40.7575C58.6558 39.3754 60.0065 37.0823 60.0065 34.4437C60.0065 30.2346 56.5826 26.7793 52.3734 26.7793H45.0859V46.6001H48.8239V42.0768H52.3734C52.6247 42.0768 52.9074 42.0768 53.1901 42.0454L56.3313 45.7519C56.7711 46.2859 57.4307 46.6001 58.1218 46.6001H61.954L57.7763 41.637ZM48.8239 38.3388V30.5487H52.3734C54.5094 30.5487 56.2371 32.3078 56.2371 34.4437C56.2371 36.5797 54.5094 38.3388 52.3734 38.3388H48.8239Z" fill="#D61C38"/>
    <path d="M68.8684 30.0473L65.6016 20.9379L69.0254 19.7129L72.2922 28.8223L68.8684 30.0473Z" fill="#D61C38"/>
    <path d="M132.754 50.7469H132.062V22.5078H132.754V50.7469Z" fill="#424A52"/>
  </symbol>
  <symbol id="icon-phone" width="17" height="18" viewBox="0 0 17 18">
    <path d="M12.8332 18C11.938 18 10.9953 17.774 10.021 17.3386C9.07036 16.9116 8.11184 16.3256 7.17707 15.614C6.25023 14.894 5.35508 14.0902 4.50746 13.2112C3.66775 12.3153 2.90727 11.3693 2.23392 10.3981C1.55266 9.39349 1.00606 8.38884 0.617894 7.41767C0.205965 6.37953 0 5.37488 0 4.42884C0 3.77581 0.110904 3.15628 0.32479 2.5786C0.546598 1.98419 0.903076 1.43163 1.3863 0.954419C1.99627 0.31814 2.69338 0 3.43802 0C3.74697 0 4.06384 0.0753488 4.33318 0.209302C4.64213 0.36 4.90354 0.586046 5.09366 0.887442L6.9315 3.62512C7.09786 3.86791 7.2246 4.10233 7.31174 4.33674C7.41473 4.58791 7.47018 4.83907 7.47018 5.08186C7.47018 5.4 7.38304 5.70977 7.21668 6.00279C7.09786 6.22884 6.91566 6.47163 6.68593 6.71442L6.14725 7.30884C6.15517 7.33395 6.16309 7.3507 6.17102 7.36744C6.26608 7.54326 6.4562 7.84465 6.8206 8.29674C7.20876 8.76558 7.57316 9.19256 7.93756 9.58605C8.40494 10.0716 8.7931 10.4567 9.1575 10.7749C9.60904 11.1767 9.90214 11.3777 10.0764 11.4698L10.0606 11.5116L10.6389 10.9088C10.8844 10.6493 11.1221 10.4567 11.3518 10.3312C11.7875 10.0465 12.342 9.99628 12.8966 10.2391C13.1025 10.3312 13.3243 10.4567 13.562 10.6326L16.192 12.6084C16.4851 12.8177 16.699 13.0856 16.8257 13.4037C16.9445 13.7219 17 14.0149 17 14.3079C17 14.7098 16.9129 15.1116 16.7465 15.4884C16.5802 15.8651 16.3742 16.1916 16.1128 16.493C15.6612 17.0205 15.1701 17.3972 14.5997 17.64C14.0531 17.8744 13.459 18 12.8332 18ZM3.43802 1.25581C3.00233 1.25581 2.59832 1.45674 2.21016 1.8586C1.84576 2.2186 1.59226 2.61209 1.43383 3.03907C1.26747 3.47442 1.18826 3.93488 1.18826 4.42884C1.18826 5.20744 1.36254 6.05302 1.71109 6.92372C2.06757 7.81116 2.56664 8.73209 3.20037 9.65302C3.83411 10.574 4.55499 11.4698 5.34716 12.3153C6.13933 13.1442 6.99487 13.9144 7.87418 14.5926C8.72973 15.254 9.60904 15.7898 10.4804 16.1749C11.835 16.786 13.1025 16.9284 14.1482 16.4679C14.5522 16.2921 14.9087 16.0242 15.2335 15.6391C15.4157 15.4298 15.5582 15.2037 15.6771 14.9358C15.7721 14.7265 15.8197 14.5088 15.8197 14.2912C15.8197 14.1572 15.7959 14.0233 15.7325 13.8726C15.7088 13.8223 15.6612 13.7302 15.5107 13.6214L12.8807 11.6456C12.7223 11.5284 12.5797 11.4447 12.445 11.386C12.2707 11.3107 12.1994 11.2353 11.9301 11.4112C11.7717 11.4949 11.6291 11.6205 11.4706 11.7879L10.8686 12.4158C10.5596 12.734 10.0843 12.8093 9.71994 12.667L9.50606 12.5665C9.18127 12.3823 8.80103 12.0977 8.38118 11.7209C8.00093 11.3777 7.589 10.9758 7.08994 10.4567C6.70177 10.0381 6.31361 9.59442 5.9096 9.10046C5.53728 8.64 5.26794 8.24651 5.10158 7.92L5.00652 7.66884C4.95899 7.47628 4.94315 7.36744 4.94315 7.25023C4.94315 6.94884 5.04613 6.68093 5.24418 6.47163L5.8383 5.8186C5.99674 5.65116 6.11556 5.49209 6.19478 5.34977C6.25815 5.24093 6.28192 5.14884 6.28192 5.06512C6.28192 4.99814 6.25816 4.89767 6.21855 4.79721C6.16309 4.66326 6.07596 4.51256 5.96505 4.35349L4.12721 1.60744C4.048 1.49023 3.95294 1.40651 3.83411 1.34791C3.70736 1.2893 3.57269 1.25581 3.43802 1.25581ZM10.0606 11.52L9.93383 12.0893L10.1477 11.5033C10.1081 11.4949 10.0764 11.5033 10.0606 11.52Z" />
  </symbol>
</svg>
