<svg width="700" height="269" viewBox="0 0 700 269" fill="none" xmlns="http://www.w3.org/2000/svg">
<path d="M139.503 99.3668H174.574V176.132H218.997V208.865H174.574V263.809H139.503V208.865H0V176.132L126.254 5.06576H166.78L40.5261 176.132H139.503V99.3668Z" fill="#F99D15"/>
<path d="M306.938 8.96249C318.888 2.9875 332.267 0 347.074 0C361.882 0 375.131 2.9875 386.821 8.96249C398.771 14.9375 408.383 22.6011 415.657 31.9532C422.931 41.3054 428.906 52.0864 433.582 64.2962C438.258 76.5059 441.505 88.4559 443.324 100.146C445.142 111.577 446.052 123.007 446.052 134.437C446.052 145.868 445.142 157.428 443.324 169.118C441.505 180.549 438.258 192.369 433.582 204.579C428.906 216.788 422.931 227.569 415.657 236.922C408.383 246.274 398.771 253.937 386.821 259.912C375.131 265.887 361.882 268.875 347.074 268.875C332.267 268.875 318.888 265.887 306.938 259.912C295.248 253.937 285.766 246.274 278.492 236.922C271.218 227.569 265.243 216.788 260.567 204.579C255.891 192.369 252.644 180.549 250.825 169.118C249.007 157.428 248.097 145.868 248.097 134.437C248.097 123.007 249.007 111.577 250.825 100.146C252.644 88.4559 255.891 76.5059 260.567 64.2962C265.243 52.0864 271.218 41.3054 278.492 31.9532C285.766 22.6011 295.248 14.9375 306.938 8.96249ZM316.68 226.79C325.253 233.025 335.384 236.142 347.074 236.142C358.765 236.142 368.896 233.025 377.469 226.79C386.042 220.296 392.666 211.853 397.342 201.461C402.018 191.07 405.396 180.289 407.474 169.118C409.812 157.688 410.981 146.128 410.981 134.437C410.981 122.747 409.812 111.317 407.474 100.146C405.396 88.7157 402.018 77.8048 397.342 67.4136C392.666 57.0222 386.042 48.7092 377.469 42.4744C368.896 35.9799 358.765 32.7326 347.074 32.7326C335.384 32.7326 325.253 35.9799 316.68 42.4744C308.107 48.7092 301.483 57.0222 296.807 67.4136C292.13 77.8048 288.623 88.7157 286.285 100.146C284.207 111.317 283.168 122.747 283.168 134.437C283.168 146.128 284.207 157.688 286.285 169.118C288.623 180.289 292.13 191.07 296.807 201.461C301.483 211.853 308.107 220.296 316.68 226.79Z" fill="#F99D15"/>
<path d="M620.507 99.3668H655.577V176.132H700V208.865H655.577V263.809H620.507V208.865H481.003V176.132L607.258 5.06576H647.784L521.529 176.132H620.507V99.3668Z" fill="#F99D15"/>
</svg>
