<svg width="22" height="21" viewBox="0 0 22 21" fill="none" xmlns="http://www.w3.org/2000/svg">
<path fill-rule="evenodd" clip-rule="evenodd" d="M9.9 19.9516C10.15 20.0916 10.45 20.1616 10.75 20.1616C11.05 20.1616 11.34 20.1015 11.58 19.9616C13.41 18.9516 16.71 17.8616 18.77 17.5916L19.1 17.5516C20.42 17.3916 21.5 16.1716 21.5 14.8316V2.76155C21.5 1.97155 21.19 1.25155 20.62 0.731551C20.06 0.211551 19.31 -0.0484492 18.58 0.0215508H18.46C16.25 0.211551 12.93 1.33155 11.05 2.51155L10.89 2.61155C10.83 2.64155 10.68 2.64155 10.61 2.60155L10.37 2.46155C8.49 1.28155 5.17 0.181551 2.97 0.0115506C2.19 -0.0584494 1.45 0.191551 0.88 0.711551C0.31 1.23155 0 1.95155 0 2.74155V14.8215C0 16.1516 1.08 17.3816 2.39 17.5416L2.68 17.5816C4.74 17.8516 8.03 18.9316 9.9 19.9516ZM1.89 1.82155C2.12 1.61155 2.41 1.50155 2.73 1.50155H2.85C4.81 1.66155 7.89 2.68155 9.6 3.73155L9.84 3.87155C9.89115 3.9034 9.94463 3.93217 10 3.95786V18.3237C7.96206 17.3328 4.92526 16.3743 2.88 16.1016L2.58 16.0616C2.01 15.9815 1.5 15.4116 1.5 14.8215V2.74155C1.5 2.38155 1.64 2.05155 1.89 1.82155ZM18.58 16.1016C16.5488 16.3712 13.5403 17.3193 11.5 18.3143V3.96619C11.5693 3.93588 11.6362 3.901 11.7 3.86155L11.86 3.75155C13.54 2.70155 16.62 1.67155 18.53 1.50155H18.65C19.02 1.48155 19.35 1.59155 19.61 1.82155C19.86 2.06155 20 2.38155 20 2.75155V14.8215C20 15.4116 19.49 15.9915 18.92 16.0616L18.58 16.1016ZM6.5 7.32227H4.25C3.84 7.32227 3.5 6.98227 3.5 6.57227C3.5 6.16227 3.84 5.82227 4.25 5.82227H6.5C6.91 5.82227 7.25 6.16227 7.25 6.57227C7.25 6.98227 6.91 7.32227 6.5 7.32227ZM4.25 10.3223H7.25C7.66 10.3223 8 9.98227 8 9.57227C8 9.16227 7.66 8.82227 7.25 8.82227H4.25C3.84 8.82227 3.5 9.16227 3.5 9.57227C3.5 9.98227 3.84 10.3223 4.25 10.3223Z" fill="white"/>
</svg>
