<svg width="21" height="23" viewBox="0 0 21 23" fill="none" xmlns="http://www.w3.org/2000/svg">
<path fill-rule="evenodd" clip-rule="evenodd" d="M17.6719 4V3.125H16.7969C16.3869 3.125 16.0469 2.785 16.0469 2.375C16.0469 1.965 16.3869 1.625 16.7969 1.625H17.6719V0.75C17.6719 0.34 18.0119 0 18.4219 0C18.8319 0 19.1719 0.34 19.1719 0.75V1.625H20.0469C20.4569 1.625 20.7969 1.965 20.7969 2.375C20.7969 2.785 20.4569 3.125 20.0469 3.125H19.1719V4C19.1719 4.41 18.8319 4.75 18.4219 4.75C18.0119 4.75 17.6719 4.41 17.6719 4ZM0 22.2214H0.046876L0.046875 22.2227C0.046875 22.6327 0.386875 22.9727 0.796875 22.9727H18.7969C19.2069 22.9727 19.5469 22.6327 19.5469 22.2227L19.5469 22.2214H19.55V10.1914C19.55 9.35139 19.15 8.54141 18.49 8.02141L11.49 2.58141C10.49 1.81141 9.1 1.81141 8.11 2.58141L1.11 8.03142C0.440001 8.55142 0.0500031 9.34139 0.0500031 10.1914L0 22.2214ZM18.05 10.2014V21.4727H1.50311L1.55 10.2014C1.55 9.8214 1.73001 9.45142 2.03001 9.22142L9.03001 3.77141C9.49001 3.42141 10.12 3.42141 10.57 3.77141L17.57 9.21141C17.87 9.45141 18.05 9.8214 18.05 10.2014Z" fill="#D61C38"/>
</svg>
