<svg width="17" height="20" viewBox="0 0 17 20" fill="none" xmlns="http://www.w3.org/2000/svg">
<path fill-rule="evenodd" clip-rule="evenodd" d="M4.68706 17.724C5.72334 18.7156 7.05442 19.2158 8.37657 19.2158C9.69872 19.2158 11.0298 18.7156 12.0661 17.724C14.7015 15.1869 17.6138 11.1489 16.5239 6.33381C15.5323 1.95642 11.7177 0 8.38551 0H8.37657C5.0444 0 1.22982 1.95642 0.238202 6.32488C-0.860611 11.14 2.05169 15.1869 4.68706 17.724ZM1.55142 6.61968C2.43583 2.7247 5.77694 1.34002 8.37657 1.34002C10.9762 1.34002 14.3262 2.7247 15.2196 6.61968C16.1665 10.8273 13.5222 14.4543 11.137 16.7502C9.59152 18.2421 7.17056 18.2421 5.62507 16.7502C3.23091 14.4543 0.586607 10.8273 1.55142 6.61968ZM4.92206 8.08503C4.92206 9.99679 6.47647 11.5423 8.3793 11.5423C10.2821 11.5423 11.8365 10.0057 11.8365 8.09396C11.8365 6.18221 10.2821 4.63672 8.3793 4.63672C6.47647 4.63672 4.92206 6.17327 4.92206 8.08503ZM6.26207 8.09396C6.26207 6.92368 7.21795 5.97674 8.3793 5.97674C9.54065 5.97674 10.4965 6.92368 10.4965 8.09396C10.4965 9.26424 9.54958 10.2112 8.3793 10.2112C7.20902 10.2112 6.26207 9.26424 6.26207 8.09396Z" fill="#D61C38"/>
</svg>
