<svg width="13" height="12" viewBox="0 0 13 12" fill="none" xmlns="http://www.w3.org/2000/svg">
<path d="M1.66306 11.7159C1.28261 12.0947 0.665789 12.0947 0.285345 11.7159C-0.0951 11.3371 -0.0951 10.7229 0.285345 10.3441L5.33695 5.31409C5.7174 4.93528 6.33422 4.93528 6.71467 5.31409C7.09511 5.69291 7.09511 6.30709 6.71467 6.68591L1.66306 11.7159Z" fill="#424A52"/>
<path d="M0.285334 1.65592C-0.095111 1.27711 -0.095111 0.662927 0.285334 0.284111C0.665778 -0.0947046 1.2826 -0.0947046 1.66305 0.284111L6.71467 5.31409C7.09511 5.69291 7.09511 6.30709 6.71467 6.68591C6.33422 7.06472 5.71739 7.06472 5.33694 6.6859L0.285334 1.65592Z" fill="#424A52"/>
<path d="M7.66306 11.7159C7.28261 12.0947 6.66579 12.0947 6.28534 11.7159C5.9049 11.3371 5.9049 10.7229 6.28534 10.3441L11.337 5.31409C11.7174 4.93528 12.3342 4.93528 12.7147 5.31409C13.0951 5.69291 13.0951 6.30709 12.7147 6.68591L7.66306 11.7159Z" fill="#424A52"/>
<path d="M6.28533 1.65592C5.90489 1.27711 5.90489 0.662927 6.28533 0.284111C6.66578 -0.0947046 7.2826 -0.0947046 7.66305 0.284111L12.7147 5.31409C13.0951 5.69291 13.0951 6.30709 12.7147 6.68591C12.3342 7.06472 11.7174 7.06472 11.3369 6.6859L6.28533 1.65592Z" fill="#424A52"/>
</svg>
