<svg width="22" height="22" viewBox="0 0 22 22" fill="none" xmlns="http://www.w3.org/2000/svg">
<path fill-rule="evenodd" clip-rule="evenodd" d="M0 10.75C0 16.68 4.82 21.5 10.75 21.5C16.68 21.5 21.5 16.68 21.5 10.75C21.5 4.82 16.68 0 10.75 0C4.82 0 0 4.82 0 10.75ZM1.5 10.75C1.5 5.65 5.65 1.5 10.75 1.5C15.85 1.5 20 5.65 20 10.75C20 15.85 15.85 20 10.75 20C5.65 20 1.5 15.85 1.5 10.75ZM8.8275 13.5775C8.9775 13.7275 9.1675 13.7975 9.3575 13.7975C9.5475 13.7975 9.7375 13.7275 9.8875 13.5775L14.1875 9.2775C14.4775 8.9875 14.4775 8.5075 14.1875 8.2175C13.8975 7.9275 13.4175 7.9275 13.1275 8.2175L9.3575 11.9875L8.2775 10.9075C7.9875 10.6175 7.5075 10.6175 7.2175 10.9075C6.9275 11.1975 6.9275 11.6775 7.2175 11.9675L8.8275 13.5775Z" fill="#D61C38"/>
</svg>
