<svg width="164" height="115" viewBox="0 0 164 115" fill="none" xmlns="http://www.w3.org/2000/svg">
<path fill-rule="evenodd" clip-rule="evenodd" d="M18.5078 41.6621H45.2009V42.556H18.5078V41.6621Z" fill="#E31E24"/>
<path fill-rule="evenodd" clip-rule="evenodd" d="M18.5078 40.3083H22.6864V28.2715L18.5078 31.7848V40.3083Z" fill="#E31E24"/>
<path fill-rule="evenodd" clip-rule="evenodd" d="M24.1406 40.3106H28.3192V23.5547L24.1406 27.0472V40.3106Z" fill="#EF7F1A"/>
<path fill-rule="evenodd" clip-rule="evenodd" d="M29.7734 40.3103H33.952V18.8145L29.7734 22.307V40.3103Z" fill="#FFED00"/>
<path fill-rule="evenodd" clip-rule="evenodd" d="M35.3984 40.3119H39.577V14.0762L35.3984 17.5895V40.3119Z" fill="#009846"/>
<path fill-rule="evenodd" clip-rule="evenodd" d="M41.0391 40.311H45.1969V10.3125H44.0535L41.0391 12.8488V40.311Z" fill="#00A0E3"/>
<path fill-rule="evenodd" clip-rule="evenodd" d="M31.7488 65.507C36.1145 65.4862 36.364 60.1435 33.4951 51.3289C33.4535 47.3998 35.5948 45.6535 39.9604 46.0693C42.8917 46.1941 44.4093 45.3209 44.5132 43.4707H18.9844C19.0883 45.3209 20.6059 46.1941 23.5372 46.0693C27.8821 45.6535 30.0441 47.3998 30.0025 51.3289C27.1129 60.1435 27.3623 65.4862 31.7488 65.507Z" fill="#0C647B"/>
<path fill-rule="evenodd" clip-rule="evenodd" d="M87.5826 26.3188L78.3315 18.5438V6.15354H71.4088V12.7229L56.2952 0L46.9609 7.85823V15.3215L47.7717 14.6354L56.2952 7.46324L78.7265 26.3188H87.5826Z" fill="#0C647B"/>
<path fill-rule="evenodd" clip-rule="evenodd" d="M53.1328 25.1777H57.0619V29.0861H53.1328V25.1777Z" fill="#009846"/>
<path fill-rule="evenodd" clip-rule="evenodd" d="M58.2891 25.1777H62.239V29.0861H58.2891V25.1777Z" fill="#00A0E3"/>
<path fill-rule="evenodd" clip-rule="evenodd" d="M53.1328 20.0625H57.0619V23.9708H53.1328V20.0625Z" fill="#E31E24"/>
<path fill-rule="evenodd" clip-rule="evenodd" d="M58.2891 20.0625H62.239V23.9708H58.2891V20.0625Z" fill="#EF7F1A"/>
<path d="M64.031 43.5508H59.5198V39.2059H71.4319V32.8652H52.9297V61.6372H64.031C69.9143 61.6372 73.9058 58.0615 73.9058 52.594C73.9058 47.1265 69.9143 43.5508 64.031 43.5508ZM64.031 55.4836H59.5198V49.7251H64.031C65.8396 49.7251 67.3157 50.4943 67.3157 52.594C67.3157 54.6937 65.8396 55.4836 64.031 55.4836ZM91.3685 32.8652L86.296 45.4426L80.683 32.8652H74.0929L83.3024 52.6355C82.2006 54.6521 80.5582 55.7539 77.5438 55.4836V61.6372C82.9282 61.9282 87.086 59.3712 89.643 53.1761L97.9378 32.8652H91.3685ZM120.535 55.3173V32.8652H101.264V45.7752C101.264 50.6606 100.329 53.4255 98.9981 55.3173H96.0876V67.1463H102.657V61.6372H117.043V67.1463H123.612V55.3173H120.535ZM105.983 55.3173C107.023 53.4671 107.833 50.5774 107.833 45.8583V39.0396H113.966V55.3173H105.983ZM137.998 41.9084H133.695V32.8652H127.105V61.6372H137.998C143.674 61.6372 148.081 57.2507 148.081 51.7832C148.081 46.3157 143.674 41.9084 137.998 41.9084ZM137.998 55.4836H133.695V48.0828H137.998C140.015 48.0828 141.491 49.6835 141.491 51.7832C141.491 53.8621 140.015 55.4836 137.998 55.4836Z" fill="#00A0E3"/>
<path d="M17.7566 84.3812C19.5652 82.9676 20.6462 81.0134 20.6462 78.4148C20.6462 73.1552 16.4469 69.9121 10.7299 69.9121C5.38713 69.9121 2.31036 72.5731 0.543295 76.1072L6.17711 79.3503C6.90472 77.5832 8.19364 76.0656 10.7299 76.0656C13.079 76.0656 14.0561 77.1467 14.0561 78.9137C14.0561 80.6808 12.7464 81.741 10.1686 81.741H7.3205V87.5827H10.9794C13.7443 87.5827 15.0956 88.7261 15.0956 90.6179C15.0956 92.5097 13.7859 93.6531 11.0209 93.6531C7.94417 93.6531 6.50973 91.9692 5.76133 89.7656L0.0859375 93.0087C1.76984 97.0625 5.09608 99.8274 11.0209 99.8274C17.0705 99.8274 21.6649 96.5012 21.6649 91.1169C21.6649 88.0401 20.1889 85.7325 17.7566 84.3812ZM47.5472 92.9255V70.4734H28.2758V83.3834C28.2758 88.2688 27.3403 91.0337 26.0306 92.9255H23.0993V104.754H29.6894V99.2454H44.0546V104.754H50.6447V92.9255H47.5472ZM33.0157 92.9255C34.0343 91.0753 34.8659 88.1856 34.8659 83.4665V76.6477H40.9779V92.9255H33.0157ZM67.4422 99.8274C75.7162 99.8274 82.4103 93.3413 82.4103 84.8594C82.4103 76.3983 75.7162 69.9121 67.4422 69.9121C59.189 69.9121 52.4949 76.3983 52.4949 84.8594C52.4949 93.3413 59.189 99.8274 67.4422 99.8274ZM67.4422 93.4037C62.7647 93.4037 59.0643 89.9943 59.0643 84.8594C59.0643 79.7245 62.7647 76.3151 67.4422 76.3151C72.1405 76.3151 75.8202 79.7245 75.8202 84.8594C75.8202 89.9943 72.1405 93.4037 67.4422 93.4037ZM97.0041 70.4734H86.1107V99.2454H92.68V90.2021H97.0041C102.659 90.2021 107.066 85.8157 107.066 80.3482C107.066 74.8807 102.659 70.4734 97.0041 70.4734ZM97.0041 84.0486H92.68V76.6477H97.0041C98.9999 76.6477 100.497 78.2485 100.497 80.3482C100.497 82.4479 98.9999 84.0486 97.0041 84.0486ZM123.863 99.8274C132.138 99.8274 138.832 93.3413 138.832 84.8594C138.832 76.3983 132.138 69.9121 123.863 69.9121C115.61 69.9121 108.916 76.3983 108.916 84.8594C108.916 93.3413 115.61 99.8274 123.863 99.8274ZM123.863 93.4037C119.186 93.4037 115.486 89.9943 115.486 84.8594C115.486 79.7245 119.186 76.3151 123.863 76.3151C128.562 76.3151 132.262 79.7245 132.262 84.8594C132.262 89.9943 128.562 93.4037 123.863 93.4037ZM160.369 84.3397C161.928 82.9676 162.864 81.0758 162.864 78.7058C162.864 73.7373 158.81 70.4734 153.779 70.4734H142.532V99.2454H154.61C159.745 99.2454 163.903 95.9191 163.903 90.8258C163.903 87.9154 162.51 85.6909 160.369 84.3397ZM153.779 76.6477C155.317 76.6477 156.294 77.708 156.294 79.2048C156.294 80.6808 155.276 81.741 153.779 81.741H149.101V76.6477H153.779ZM154.61 93.0918H149.101V87.5827H154.61C156.253 87.5827 157.313 88.7261 157.313 90.3269C157.313 91.9276 156.253 93.0918 154.61 93.0918Z" fill="#00A0E3"/>
<path d="M4.92792 113.155L2.97375 110.307L4.84476 107.604H3.41032L1.70563 110.015V107.604H0.4375V113.155H1.70563V110.577L3.47269 113.155H4.92792ZM7.48496 107.604H5.38528V113.155H6.6534V111.408H7.48496C8.58678 111.408 9.41834 110.556 9.41834 109.517C9.41834 108.456 8.58678 107.604 7.48496 107.604ZM7.48496 110.223H6.6534V108.789H7.48496C7.87995 108.789 8.171 109.101 8.171 109.517C8.171 109.912 7.87995 110.223 7.48496 110.223ZM13.0148 113.155H14.4077L12.5367 107.604H10.9151L9.02335 113.155H10.4162L10.6865 112.281H12.7446L13.0148 113.155ZM11.0815 111.096L11.7259 109.059L12.3704 111.096H11.0815ZM17.3181 113.259C18.3368 113.259 19.2307 112.76 19.7089 111.97L18.6071 111.346C18.3784 111.762 17.8794 112.032 17.3181 112.032C16.3411 112.032 15.7174 111.367 15.7174 110.369C15.7174 109.392 16.3411 108.727 17.3181 108.727C17.8794 108.727 18.3576 108.997 18.6071 109.413L19.7089 108.789C19.2099 107.999 18.3368 107.5 17.3181 107.5C15.655 107.5 14.4493 108.747 14.4493 110.369C14.4493 112.011 15.655 113.259 17.3181 113.259ZM24.7606 113.155L22.8272 110.307L24.6982 107.604H23.243L21.5591 110.015V107.604H20.291V113.155H21.5591V110.577L23.3262 113.155H24.7606ZM28.3363 113.155H29.5836V107.604H28.6481L26.5069 110.618V107.604H25.2387V113.155H26.195L28.3363 110.14V113.155ZM36.8598 111.928V107.604H33.1593V110.099C33.1593 111.034 32.9722 111.575 32.7228 111.928H32.1615V114.215H33.4296V113.155H36.1945V114.215H37.4627V111.928H36.8598ZM34.0741 111.928C34.2612 111.575 34.4275 111.013 34.4275 110.119V108.789H35.6124V111.928H34.0741ZM37.8161 113.155C38.8347 113.259 39.9989 112.884 39.9989 110.909V108.83H41.2878V113.155H42.556V107.604H38.7308V110.951C38.7308 111.866 38.3774 112.053 37.8161 111.97V113.155ZM47.5037 107.604H45.3001C44.2399 107.604 43.3875 108.456 43.3875 109.517C43.3875 110.223 43.8657 110.889 44.5309 111.18L43.242 113.155H44.6557L45.8406 111.325H46.2356V113.155H47.5037V107.604ZM45.3001 110.223C44.9467 110.223 44.6557 109.912 44.6557 109.517C44.6557 109.101 44.9467 108.789 45.3001 108.789H46.2356V110.223H45.3001ZM53.4702 110.286C53.8236 110.015 54.0315 109.641 54.0315 109.142C54.0315 108.124 53.2207 107.5 52.1189 107.5C51.1002 107.5 50.4974 108.02 50.1647 108.685L51.2458 109.329C51.3913 108.976 51.6407 108.685 52.1189 108.685C52.5762 108.685 52.7634 108.893 52.7634 109.225C52.7634 109.579 52.5139 109.787 52.0149 109.787H51.4744V110.909H52.1605C52.701 110.909 52.9712 111.117 52.9712 111.491C52.9712 111.845 52.701 112.074 52.1813 112.074C51.5784 112.074 51.3081 111.741 51.1626 111.325L50.0816 111.949C50.3934 112.718 51.0379 113.259 52.1813 113.259C53.3454 113.259 54.2186 112.614 54.2186 111.575C54.2186 110.993 53.9483 110.535 53.4702 110.286ZM59.2079 111.928V107.604H55.5075V110.099C55.5075 111.034 55.3204 111.575 55.0709 111.928H54.5096V114.215H55.7778V113.155H58.5427V114.215H59.8108V111.928H59.2079ZM56.4014 111.928C56.6093 111.575 56.7548 111.013 56.7548 110.119V108.789H57.9398V111.928H56.4014ZM63.0331 113.259C64.6339 113.259 65.9228 112.011 65.9228 110.369C65.9228 108.747 64.6339 107.5 63.0331 107.5C61.4531 107.5 60.1642 108.747 60.1642 110.369C60.1642 112.011 61.4531 113.259 63.0331 113.259ZM63.0331 112.032C62.1392 112.032 61.4324 111.367 61.4324 110.369C61.4324 109.392 62.1392 108.727 63.0331 108.727C63.927 108.727 64.6546 109.392 64.6546 110.369C64.6546 111.367 63.927 112.032 63.0331 112.032ZM68.7293 107.604H66.6296V113.155H67.8977V111.408H68.7293C69.8103 111.408 70.6627 110.556 70.6627 109.517C70.6627 108.456 69.8103 107.604 68.7293 107.604ZM68.7293 110.223H67.8977V108.789H68.7293C69.1035 108.789 69.3945 109.101 69.3945 109.517C69.3945 109.912 69.1035 110.223 68.7293 110.223ZM73.8849 113.259C75.4857 113.259 76.7746 112.011 76.7746 110.369C76.7746 108.747 75.4857 107.5 73.8849 107.5C72.305 107.5 71.0161 108.747 71.0161 110.369C71.0161 112.011 72.305 113.259 73.8849 113.259ZM73.8849 112.032C72.991 112.032 72.2842 111.367 72.2842 110.369C72.2842 109.392 72.991 108.727 73.8849 108.727C74.7997 108.727 75.5065 109.392 75.5065 110.369C75.5065 111.367 74.7997 112.032 73.8849 112.032ZM80.9116 110.286C81.2235 110.015 81.3898 109.662 81.3898 109.184C81.3898 108.228 80.6206 107.604 79.6435 107.604H77.4814V113.155H79.8098C80.8077 113.155 81.5977 112.51 81.5977 111.533C81.5977 110.972 81.3274 110.535 80.9116 110.286ZM79.6435 108.789C79.9345 108.789 80.1424 108.997 80.1424 109.288C80.1424 109.579 79.9345 109.787 79.6435 109.787H78.7496V108.789H79.6435ZM79.8098 111.97H78.7496V110.909H79.8098C80.1216 110.909 80.3295 111.117 80.3295 111.429C80.3295 111.741 80.1216 111.97 79.8098 111.97ZM84.8615 113.259C86.4623 113.259 87.7512 112.011 87.7512 110.369C87.7512 108.747 86.4623 107.5 84.8615 107.5C83.2816 107.5 81.9927 108.747 81.9927 110.369C81.9927 112.011 83.2816 113.259 84.8615 113.259ZM84.8615 112.032C83.9676 112.032 83.2608 111.367 83.2608 110.369C83.2608 109.392 83.9676 108.727 84.8615 108.727C85.7762 108.727 86.4831 109.392 86.4831 110.369C86.4831 111.367 85.7762 112.032 84.8615 112.032ZM91.6179 107.604H88.458V113.155H89.7262V108.83H91.6179V107.604ZM94.5076 113.259C96.0876 113.259 97.3765 112.011 97.3765 110.369C97.3765 108.747 96.0876 107.5 94.5076 107.5C92.9069 107.5 91.6179 108.747 91.6179 110.369C91.6179 112.011 92.9069 113.259 94.5076 113.259ZM94.5076 112.032C93.5929 112.032 92.8861 111.367 92.8861 110.369C92.8861 109.392 93.5929 108.727 94.5076 108.727C95.4015 108.727 96.1084 109.392 96.1084 110.369C96.1084 111.367 95.4015 112.032 94.5076 112.032ZM105.609 107.604H104.341L102.844 110.078L101.326 107.604H100.079V113.155H101.326V109.932L102.761 112.281H102.906L104.341 109.932V113.155H105.609V107.604ZM109.642 113.155H110.91V107.604H109.954L107.813 110.618V107.604H106.544V113.155H107.501L109.642 110.14V113.155ZM116.336 113.155L114.382 110.307L116.253 107.604H114.818L113.114 110.015V107.604H111.846V113.155H113.114V110.577L114.881 113.155H116.336ZM118.893 107.604H116.793V113.155H118.062V111.408H118.893C119.995 111.408 120.826 110.556 120.826 109.517C120.826 108.456 119.995 107.604 118.893 107.604ZM118.893 110.223H118.062V108.789H118.893C119.288 108.789 119.579 109.101 119.579 109.517C119.579 109.912 119.288 110.223 118.893 110.223ZM124.07 113.259C125.67 113.259 126.959 112.011 126.959 110.369C126.959 108.747 125.67 107.5 124.07 107.5C122.49 107.5 121.201 108.747 121.201 110.369C121.201 112.011 122.49 113.259 124.07 113.259ZM124.07 112.032C123.176 112.032 122.448 111.367 122.448 110.369C122.448 109.392 123.176 108.727 124.07 108.727C124.963 108.727 125.691 109.392 125.691 110.369C125.691 111.367 124.963 112.032 124.07 112.032ZM132.136 113.155L130.181 110.307L132.053 107.604H130.618L128.934 110.015V107.604H127.666V113.155H128.934V110.577L130.701 113.155H132.136ZM132.302 113.155C133.321 113.259 134.485 112.884 134.485 110.909V108.83H135.774V113.155H137.042V107.604H133.217V110.951C133.217 111.866 132.863 112.053 132.302 111.97V113.155ZM141.075 113.155H142.343V107.604H141.387L139.245 110.618V107.604H137.998V113.155H138.934L141.075 110.14V113.155ZM148.829 107.604H147.561L146.064 110.078L144.547 107.604H143.279V113.155H144.547V109.932L145.981 112.281H146.127L147.561 109.932V113.155H148.829V107.604ZM153.299 113.155H154.671L152.8 107.604H151.178L149.307 113.155H150.679L150.95 112.281H153.008L153.299 113.155ZM151.345 111.096L151.989 109.059L152.634 111.096H151.345ZM158.475 107.604H154.359V108.83H155.773V113.155H157.041V108.83H158.475V107.604ZM162.155 113.155H163.527L161.656 107.604H160.034L158.163 113.155H159.536L159.806 112.281H161.864L162.155 113.155ZM160.201 111.096L160.845 109.059L161.49 111.096H160.201Z" fill="#0C647B"/>
</svg>
