<svg width="20" height="17" viewBox="0 0 20 17" fill="none" xmlns="http://www.w3.org/2000/svg">
<path fill-rule="evenodd" clip-rule="evenodd" d="M5.21512 16.7791H14.2849C17.5953 16.7791 19.5 14.8744 19.5 11.564V5.21512C19.5 1.90465 17.5953 0 14.2849 0H5.21512C1.90465 0 0 1.90465 0 5.21512V11.564C0 14.8744 1.90465 16.7791 5.21512 16.7791ZM1.36047 5.21512C1.36047 2.62116 2.62116 1.36047 5.21512 1.36047H14.2849C16.8788 1.36047 18.1395 2.62116 18.1395 5.21512V11.564C18.1395 14.1579 16.8788 15.4186 14.2849 15.4186H5.21512C2.62116 15.4186 1.36047 14.1579 1.36047 11.564V5.21512ZM7.6265 8.46143C8.21603 8.94213 8.98696 9.17794 9.74882 9.17794C10.5107 9.17794 11.2816 8.94213 11.8621 8.46143L14.7009 6.19399C15.0002 5.96725 15.0456 5.53189 14.8098 5.24166C14.583 4.94236 14.1477 4.89701 13.8574 5.13283L11.0186 7.40027C10.3293 7.95353 9.15928 7.95353 8.46998 7.40027L5.63115 5.13283C5.34092 4.89701 4.91464 4.95143 4.67883 5.24166C4.44301 5.53189 4.49743 5.95818 4.78766 6.19399L7.6265 8.46143Z" fill="#D61C38"/>
</svg>
