<svg width="263" height="507" viewBox="0 0 263 507" fill="none" xmlns="http://www.w3.org/2000/svg">
<path d="M161.914 336.959C164.705 334.088 168.93 338.314 166.14 341.105C163.349 343.975 159.123 339.749 161.914 336.959Z" fill="#D61C38"/>
<path d="M66.9139 27.9587C69.7046 25.0883 73.9305 29.3142 71.1398 32.1048C68.3491 34.9753 64.1232 30.7494 66.9139 27.9587Z" fill="#D61C38"/>
<path d="M127.914 21.9587C130.705 19.0883 134.93 23.3142 132.14 26.1048C129.349 28.9753 125.123 24.7494 127.914 21.9587Z" fill="#D61C38"/>
<path d="M146.914 18.9587C149.705 16.0883 153.93 20.3142 151.14 23.1048C148.349 25.9753 144.123 21.7494 146.914 18.9587Z" fill="#D61C38"/>
<path d="M144.914 24.9587C147.705 22.0883 151.93 26.3142 149.14 29.1048C146.349 31.9753 142.123 27.7494 144.914 24.9587Z" fill="#D61C38"/>
<path d="M167.914 30.9587C170.705 28.0883 174.93 32.3142 172.14 35.1048C169.349 37.9753 165.123 33.7494 167.914 30.9587Z" fill="#D61C38"/>
<path d="M121.914 389.959C124.705 387.088 128.93 391.314 126.14 394.105C123.349 396.975 119.123 392.749 121.914 389.959Z" fill="#D61C38"/>
<path d="M79.9139 351.959C82.7046 349.088 86.9305 353.314 84.1398 356.105C81.3491 358.975 77.1232 354.749 79.9139 351.959Z" fill="#D61C38"/>
<path d="M48.9139 310.959C51.7046 308.088 55.9305 312.314 53.1398 315.105C50.3491 317.975 46.1232 313.749 48.9139 310.959Z" fill="#D61C38"/>
<path d="M54.9139 319.959C57.7046 317.088 61.9305 321.314 59.1398 324.105C56.3491 326.975 52.1232 322.749 54.9139 319.959Z" fill="#D61C38"/>
<path d="M68.9139 304.959C71.7046 302.088 75.9305 306.314 73.1398 309.105C70.3491 311.975 66.1232 307.749 68.9139 304.959Z" fill="#D61C38"/>
<path d="M51.9139 298.959C54.7046 296.088 58.9305 300.314 56.1398 303.105C53.3491 305.975 49.1232 301.749 51.9139 298.959Z" fill="#D61C38"/>
<path d="M15.9139 351.959C18.7046 349.088 22.9305 353.314 20.1398 356.105C17.3491 358.975 13.1232 354.749 15.9139 351.959Z" fill="#D61C38"/>
<path d="M49.9139 321.959C52.7046 319.088 56.9305 323.314 54.1398 326.105C51.3491 328.975 47.1232 324.749 49.9139 321.959Z" fill="#D61C38"/>
<path d="M109.914 330.959C112.705 328.088 116.93 332.314 114.14 335.105C111.349 337.975 107.123 333.749 109.914 330.959Z" fill="#D61C38"/>
<path d="M105.914 302.959C108.705 300.088 112.93 304.314 110.14 307.105C107.349 309.975 103.123 305.749 105.914 302.959Z" fill="#D61C38"/>
<path d="M143.914 332.959C146.705 330.088 150.93 334.314 148.14 337.105C145.349 339.975 141.123 335.749 143.914 332.959Z" fill="#D61C38"/>
<path d="M136.914 343.959C139.705 341.088 143.93 345.314 141.14 348.105C138.349 350.975 134.123 346.749 136.914 343.959Z" fill="#D61C38"/>
<path d="M133.914 338.959C136.705 336.088 140.93 340.314 138.14 343.105C135.349 345.975 131.123 341.749 133.914 338.959Z" fill="#D61C38"/>
<path d="M125.914 342.959C128.705 340.088 132.93 344.314 130.14 347.105C127.349 349.975 123.123 345.749 125.914 342.959Z" fill="#D61C38"/>
<path d="M106.914 10.9587C109.705 8.08827 113.93 12.3142 111.14 15.1048C108.349 17.9753 104.123 13.7494 106.914 10.9587Z" fill="#D61C38"/>
<path d="M112.914 24.9587C115.705 22.0883 119.93 26.3142 117.14 29.1048C114.349 31.9753 110.123 27.7494 112.914 24.9587Z" fill="#D61C38"/>
<rect y="0.0644531" width="263" height="506" rx="12" fill="#424A52"/>
<rect x="19" y="20.0645" width="224" height="143" rx="10" fill="#4F5761"/>
<circle cx="222.5" cy="359.564" r="20.5" fill="#3A424A"/>
<path d="M220.5 359.564H225.5" stroke="white" stroke-width="2" stroke-linecap="round" stroke-linejoin="round"/>
<rect x="141" y="445.064" width="102" height="41" rx="20.5" fill="#D61C38"/>
<path d="M188 463.064H195" stroke="white" stroke-width="2" stroke-linecap="round" stroke-linejoin="round"/>
<path d="M188 468.064H195" stroke="white" stroke-width="2" stroke-linecap="round" stroke-linejoin="round"/>
<circle cx="222.5" cy="412.564" r="20.5" fill="#3A424A"/>
<path d="M220.5 412.564H225.5" stroke="white" stroke-width="2" stroke-linecap="round" stroke-linejoin="round"/>
<path d="M223 415.064L223 410.064" stroke="white" stroke-width="2" stroke-linecap="round" stroke-linejoin="round"/>
<circle cx="222.5" cy="307.564" r="20.5" fill="#3A424A"/>
<path d="M219 307.564H227" stroke="white" stroke-width="2" stroke-linecap="round" stroke-linejoin="round"/>
<path fill-rule="evenodd" clip-rule="evenodd" d="M223 305.064C222.448 305.064 222 304.617 222 304.064C222 303.512 222.448 303.064 223 303.064C223.552 303.064 224 303.512 224 304.064C224 304.617 223.552 305.064 223 305.064Z" fill="white"/>
<path fill-rule="evenodd" clip-rule="evenodd" d="M223 312.064C222.448 312.064 222 311.617 222 311.064C222 310.512 222.448 310.064 223 310.064C223.552 310.064 224 310.512 224 311.064C224 311.617 223.552 312.064 223 312.064Z" fill="white"/>
<circle cx="222.5" cy="203.564" r="20.5" fill="#D61C38"/>
<path d="M224 198.064L219.612 202.892C219.265 203.273 219.265 203.856 219.612 204.237L224 209.064" stroke="white" stroke-width="2" stroke-linecap="round" stroke-linejoin="round"/>
<path opacity="0.5" d="M98.4145 38.5325H99.1345V47.0645H89.8645V38.5325H90.5845V46.3925H94.1605V38.5325H94.8805V46.3925H98.4145V38.5325ZM101.538 47.0645V41.0165H102.234V46.0205C102.258 45.8965 102.3 45.7925 102.36 45.7085L105.48 41.2325C105.576 41.0885 105.732 41.0165 105.948 41.0165H106.476V47.0645H105.774V41.7545C105.746 41.8985 105.716 41.9965 105.684 42.0485L102.324 46.9025C102.256 47.0105 102.174 47.0645 102.078 47.0645H101.538ZM111.446 40.9205C112.274 40.9205 112.956 41.2145 113.492 41.8025C114.028 42.3865 114.296 43.1325 114.296 44.0405C114.296 44.9485 114.008 45.6965 113.432 46.2845C112.856 46.8685 112.122 47.1605 111.23 47.1605C110.886 47.1605 110.552 47.0865 110.228 46.9385C109.908 46.7905 109.628 46.5985 109.388 46.3625V49.2245H108.686V41.0165H109.124C109.3 41.0165 109.388 41.1345 109.388 41.3705V41.8445C109.94 41.2285 110.626 40.9205 111.446 40.9205ZM111.23 46.4525C111.918 46.4525 112.484 46.2265 112.928 45.7745C113.372 45.3185 113.594 44.7405 113.594 44.0405C113.594 43.3405 113.38 42.7645 112.952 42.3125C112.524 41.8565 111.98 41.6285 111.32 41.6285C110.904 41.6285 110.542 41.7265 110.234 41.9225C109.926 42.1185 109.644 42.3765 109.388 42.6965V45.5165C109.52 45.7365 109.762 45.9485 110.114 46.1525C110.47 46.3525 110.842 46.4525 111.23 46.4525ZM115.881 47.0645V41.0165H116.577V46.0205C116.601 45.8965 116.643 45.7925 116.703 45.7085L119.823 41.2325C119.919 41.0885 120.075 41.0165 120.291 41.0165H120.819V47.0645H120.117V41.7545C120.089 41.8985 120.059 41.9965 120.027 42.0485L116.667 46.9025C116.599 47.0105 116.517 47.0645 116.421 47.0645H115.881ZM127.188 41.0225H127.896V47.0645H127.188V44.3765H123.732V47.0645H123.03V41.0225H123.732V43.7165H127.188V41.0225ZM132.424 40.9205C133.236 40.9205 133.824 41.1405 134.188 41.5805C134.556 42.0205 134.74 42.6605 134.74 43.5005V47.0705H134.446C134.17 47.0705 134.032 46.9185 134.032 46.6145V46.1045C133.352 46.8165 132.586 47.1725 131.734 47.1725C131.174 47.1725 130.7 46.9985 130.312 46.6505C129.924 46.3025 129.73 45.8765 129.73 45.3725C129.73 44.7845 129.936 44.3345 130.348 44.0225C130.764 43.7105 131.38 43.5545 132.196 43.5545C132.792 43.5545 133.404 43.6285 134.032 43.7765V43.6685C134.032 42.9605 133.908 42.4425 133.66 42.1145C133.416 41.7865 132.996 41.6225 132.4 41.6225C131.844 41.6225 131.318 41.7665 130.822 42.0545C130.718 42.1065 130.61 42.1185 130.498 42.0905C130.386 42.0625 130.304 42.0045 130.252 41.9165L130.126 41.7065C130.35 41.4785 130.69 41.2905 131.146 41.1425C131.602 40.9945 132.028 40.9205 132.424 40.9205ZM131.83 46.4885C132.59 46.4885 133.324 46.1445 134.032 45.4565V44.3465C133.524 44.2225 132.944 44.1605 132.292 44.1605C131.668 44.1605 131.198 44.2525 130.882 44.4365C130.566 44.6165 130.408 44.9145 130.408 45.3305C130.408 45.6745 130.538 45.9545 130.798 46.1705C131.062 46.3825 131.406 46.4885 131.83 46.4885ZM143.674 46.3625H145.354V47.0645H141.028V46.3625H142.966V39.4745C142.942 39.5585 142.894 39.6385 142.822 39.7145L141.778 40.7165C141.678 40.8165 141.57 40.8725 141.454 40.8845C141.342 40.8925 141.246 40.8545 141.166 40.7705L140.944 40.5245L142.966 38.5325H143.674V46.3625ZM156.782 41.0165H157.274V47.0645H156.572V42.2525C156.572 42.2005 156.586 42.1285 156.614 42.0365L154.436 46.0325C154.364 46.1765 154.252 46.2485 154.1 46.2485C153.948 46.2485 153.834 46.1765 153.758 46.0325L151.58 42.0365C151.608 42.1285 151.622 42.2005 151.622 42.2525V47.0645H150.92V41.0165H151.412C151.624 41.0165 151.798 41.1385 151.934 41.3825L154.04 45.1625C154.064 45.2065 154.084 45.2945 154.1 45.4265C154.112 45.3025 154.13 45.2145 154.154 45.1625L156.248 41.3825C156.384 41.1385 156.562 41.0165 156.782 41.0165ZM163.388 47.0645V38.5325H166.406C167.138 38.5325 167.738 38.7465 168.206 39.1745C168.674 39.6025 168.908 40.1445 168.908 40.8005C168.908 41.0925 168.85 41.3745 168.734 41.6465C168.618 41.9145 168.442 42.1445 168.206 42.3365C167.974 42.5245 167.706 42.6345 167.402 42.6665V42.6905C167.966 42.7145 168.426 42.9285 168.782 43.3325C169.142 43.7365 169.322 44.2025 169.322 44.7305C169.322 45.3905 169.088 45.9445 168.62 46.3925C168.152 46.8365 167.57 47.0585 166.874 47.0585L163.388 47.0645ZM164.108 42.4145H166.52C166.988 42.4145 167.384 42.2625 167.708 41.9585C168.032 41.6505 168.194 41.2765 168.194 40.8365C168.194 40.3805 168.026 40.0025 167.69 39.7025C167.358 39.4025 166.928 39.2525 166.4 39.2525H164.108V42.4145ZM164.108 46.3445L166.832 46.3385C167.34 46.3385 167.76 46.1825 168.092 45.8705C168.428 45.5585 168.6 45.1665 168.608 44.6945C168.612 44.2585 168.446 43.8905 168.11 43.5905C167.778 43.2905 167.37 43.1405 166.886 43.1405H164.108V46.3445ZM171.03 41.0165H171.732V43.4465H173.598C174.158 43.4465 174.626 43.6185 175.002 43.9625C175.382 44.3025 175.572 44.7325 175.572 45.2525C175.572 45.7725 175.382 46.2045 175.002 46.5485C174.626 46.8925 174.158 47.0645 173.598 47.0645H171.03V41.0165ZM177.456 41.0165V47.0645H176.754V41.0165H177.456ZM171.732 44.1185V46.3685H173.556C173.94 46.3685 174.254 46.2705 174.498 46.0745C174.742 45.8745 174.864 45.6005 174.864 45.2525C174.864 44.9045 174.742 44.6285 174.498 44.4245C174.254 44.2205 173.94 44.1185 173.556 44.1185H171.732ZM181.917 47.1665C181.021 47.1665 180.273 46.8685 179.673 46.2725C179.077 45.6765 178.779 44.9325 178.779 44.0405C178.779 43.1485 179.077 42.4065 179.673 41.8145C180.273 41.2185 181.021 40.9205 181.917 40.9205C182.293 40.9205 182.671 40.9905 183.051 41.1305C183.435 41.2665 183.751 41.4585 183.999 41.7065L183.843 41.9405C183.779 42.0325 183.695 42.0885 183.591 42.1085C183.487 42.1285 183.381 42.1065 183.273 42.0425C182.841 41.7625 182.389 41.6225 181.917 41.6225C181.225 41.6225 180.647 41.8545 180.183 42.3185C179.719 42.7785 179.487 43.3525 179.487 44.0405C179.487 44.7285 179.719 45.3045 180.183 45.7685C180.647 46.2285 181.225 46.4585 181.917 46.4585C182.401 46.4585 182.857 46.3165 183.285 46.0325C183.389 45.9685 183.495 45.9465 183.603 45.9665C183.715 45.9865 183.803 46.0445 183.867 46.1405L184.017 46.3625C183.753 46.6145 183.433 46.8125 183.057 46.9565C182.681 47.0965 182.301 47.1665 181.917 47.1665ZM185.848 46.2725C185.252 45.6765 184.954 44.9325 184.954 44.0405C184.954 43.1485 185.252 42.4065 185.848 41.8145C186.448 41.2185 187.196 40.9205 188.092 40.9205C188.988 40.9205 189.734 41.2185 190.33 41.8145C190.926 42.4065 191.224 43.1485 191.224 44.0405C191.224 44.9365 190.926 45.6825 190.33 46.2785C189.734 46.8705 188.988 47.1665 188.092 47.1665C187.196 47.1665 186.448 46.8685 185.848 46.2725ZM186.358 42.3185C185.894 42.7785 185.662 43.3525 185.662 44.0405C185.662 44.7285 185.894 45.3045 186.358 45.7685C186.822 46.2285 187.4 46.4585 188.092 46.4585C188.784 46.4585 189.36 46.2285 189.82 45.7685C190.284 45.3085 190.516 44.7325 190.516 44.0405C190.516 43.3525 190.284 42.7785 189.82 42.3185C189.36 41.8545 188.784 41.6225 188.092 41.6225C187.4 41.6225 186.822 41.8545 186.358 42.3185ZM191.691 41.6945V41.0165H196.341V41.6945H194.367V47.0645H193.665V41.6945H191.691ZM199.924 40.9205C200.736 40.9205 201.324 41.1405 201.688 41.5805C202.056 42.0205 202.24 42.6605 202.24 43.5005V47.0705H201.946C201.67 47.0705 201.532 46.9185 201.532 46.6145V46.1045C200.852 46.8165 200.086 47.1725 199.234 47.1725C198.674 47.1725 198.2 46.9985 197.812 46.6505C197.424 46.3025 197.23 45.8765 197.23 45.3725C197.23 44.7845 197.436 44.3345 197.848 44.0225C198.264 43.7105 198.88 43.5545 199.696 43.5545C200.292 43.5545 200.904 43.6285 201.532 43.7765V43.6685C201.532 42.9605 201.408 42.4425 201.16 42.1145C200.916 41.7865 200.496 41.6225 199.9 41.6225C199.344 41.6225 198.818 41.7665 198.322 42.0545C198.218 42.1065 198.11 42.1185 197.998 42.0905C197.886 42.0625 197.804 42.0045 197.752 41.9165L197.626 41.7065C197.85 41.4785 198.19 41.2905 198.646 41.1425C199.102 40.9945 199.528 40.9205 199.924 40.9205ZM199.33 46.4885C200.09 46.4885 200.824 46.1445 201.532 45.4565V44.3465C201.024 44.2225 200.444 44.1605 199.792 44.1605C199.168 44.1605 198.698 44.2525 198.382 44.4365C198.066 44.6165 197.908 44.9145 197.908 45.3305C197.908 45.6745 198.038 45.9545 198.298 46.1705C198.562 46.3825 198.906 46.4885 199.33 46.4885ZM211.054 42.4445C211.606 42.5405 212.056 42.8005 212.404 43.2245C212.752 43.6445 212.926 44.1425 212.926 44.7185C212.926 45.4345 212.678 46.0225 212.182 46.4825C211.686 46.9385 211.04 47.1665 210.244 47.1665C209.756 47.1665 209.292 47.0605 208.852 46.8485C208.412 46.6325 208.068 46.3385 207.82 45.9665L207.946 45.7565C208.014 45.6485 208.1 45.5905 208.204 45.5825C208.308 45.5705 208.412 45.6145 208.516 45.7145C208.92 46.2145 209.488 46.4645 210.22 46.4645C210.828 46.4645 211.314 46.3005 211.678 45.9725C212.042 45.6445 212.224 45.2105 212.224 44.6705C212.224 44.1225 212.032 43.6785 211.648 43.3385C211.268 42.9985 210.782 42.8285 210.19 42.8285H209.482V42.1205H210.19C210.666 42.1205 211.05 41.9865 211.342 41.7185C211.638 41.4465 211.786 41.0845 211.786 40.6325C211.786 40.1245 211.64 39.7485 211.348 39.5045C211.056 39.2605 210.686 39.1385 210.238 39.1385C209.926 39.1385 209.632 39.2045 209.356 39.3365C209.084 39.4685 208.868 39.6605 208.708 39.9125C208.604 40.0045 208.506 40.0465 208.414 40.0385C208.326 40.0305 208.248 39.9885 208.18 39.9125L208.072 39.7625C208.272 39.3385 208.578 39.0105 208.99 38.7785C209.402 38.5465 209.84 38.4305 210.304 38.4305C210.936 38.4305 211.456 38.6185 211.864 38.9945C212.272 39.3705 212.476 39.8925 212.476 40.5605C212.476 41.0485 212.346 41.4585 212.086 41.7905C211.83 42.1185 211.486 42.3365 211.054 42.4445ZM224.4 41.0165H224.892V47.0645H224.19V42.2525C224.19 42.2005 224.204 42.1285 224.232 42.0365L222.054 46.0325C221.982 46.1765 221.87 46.2485 221.718 46.2485C221.566 46.2485 221.452 46.1765 221.376 46.0325L219.198 42.0365C219.226 42.1285 219.24 42.2005 219.24 42.2525V47.0645H218.538V41.0165H219.03C219.242 41.0165 219.416 41.1385 219.552 41.3825L221.658 45.1625C221.682 45.2065 221.702 45.2945 221.718 45.4265C221.73 45.3025 221.748 45.2145 221.772 45.1625L223.866 41.3825C224.002 41.1385 224.18 41.0165 224.4 41.0165Z" fill="white"/>
<path d="M163.422 105.022H164.13V111.064H163.422V108.376H159.966V111.064H159.264V105.022H159.966V107.716H163.422V105.022ZM168.659 104.92C169.471 104.92 170.059 105.14 170.423 105.58C170.791 106.02 170.975 106.66 170.975 107.5V111.07H170.681C170.405 111.07 170.267 110.918 170.267 110.614V110.104C169.587 110.816 168.821 111.172 167.969 111.172C167.409 111.172 166.935 110.998 166.547 110.65C166.159 110.302 165.965 109.876 165.965 109.372C165.965 108.784 166.171 108.334 166.583 108.022C166.999 107.71 167.615 107.554 168.431 107.554C169.027 107.554 169.639 107.628 170.267 107.776V107.668C170.267 106.96 170.143 106.442 169.895 106.114C169.651 105.786 169.231 105.622 168.635 105.622C168.079 105.622 167.553 105.766 167.057 106.054C166.953 106.106 166.845 106.118 166.733 106.09C166.621 106.062 166.539 106.004 166.487 105.916L166.361 105.706C166.585 105.478 166.925 105.29 167.381 105.142C167.837 104.994 168.263 104.92 168.659 104.92ZM168.065 110.488C168.825 110.488 169.559 110.144 170.267 109.456V108.346C169.759 108.222 169.179 108.16 168.527 108.16C167.903 108.16 167.433 108.252 167.117 108.436C166.801 108.616 166.643 108.914 166.643 109.33C166.643 109.674 166.773 109.954 167.033 110.17C167.297 110.382 167.641 110.488 168.065 110.488ZM181.456 110.416H182.248L182.242 111.064V112.24H181.858C181.682 112.24 181.594 112.136 181.594 111.928V111.064H176.386V111.904C176.386 112.112 176.298 112.216 176.122 112.216H175.738V110.416H175.846C175.91 110.416 175.984 110.402 176.068 110.374C176.152 110.346 176.248 110.29 176.356 110.206C176.464 110.122 176.562 110.018 176.65 109.894C176.742 109.766 176.824 109.592 176.896 109.372C176.972 109.152 177.02 108.902 177.04 108.622L177.298 105.016H181.456V110.416ZM177.058 110.416H180.748V105.67H177.958L177.736 108.676C177.676 109.452 177.45 110.032 177.058 110.416ZM187.341 107.95C187.681 108.022 187.961 108.19 188.181 108.454C188.401 108.718 188.511 109.026 188.511 109.378C188.511 109.858 188.339 110.26 187.995 110.584C187.655 110.904 187.237 111.064 186.741 111.064H183.627V105.016H186.471C186.963 105.016 187.377 105.172 187.713 105.484C188.049 105.796 188.217 106.186 188.217 106.654C188.217 106.942 188.135 107.206 187.971 107.446C187.807 107.682 187.597 107.85 187.341 107.95ZM184.329 105.7V107.692H186.447C186.747 107.692 187.001 107.596 187.209 107.404C187.417 107.212 187.521 106.976 187.521 106.696C187.521 106.416 187.417 106.18 187.209 105.988C187.005 105.796 186.755 105.7 186.459 105.7H184.329ZM187.809 109.342C187.813 109.062 187.707 108.828 187.491 108.64C187.275 108.448 187.013 108.352 186.705 108.352H184.329V110.38H186.711C187.019 110.38 187.279 110.28 187.491 110.08C187.703 109.88 187.809 109.634 187.809 109.342ZM192.389 104.92C193.201 104.92 193.789 105.14 194.153 105.58C194.521 106.02 194.705 106.66 194.705 107.5V111.07H194.411C194.135 111.07 193.997 110.918 193.997 110.614V110.104C193.317 110.816 192.551 111.172 191.699 111.172C191.139 111.172 190.665 110.998 190.277 110.65C189.889 110.302 189.695 109.876 189.695 109.372C189.695 108.784 189.901 108.334 190.313 108.022C190.729 107.71 191.345 107.554 192.161 107.554C192.757 107.554 193.369 107.628 193.997 107.776V107.668C193.997 106.96 193.873 106.442 193.625 106.114C193.381 105.786 192.961 105.622 192.365 105.622C191.809 105.622 191.283 105.766 190.787 106.054C190.683 106.106 190.575 106.118 190.463 106.09C190.351 106.062 190.269 106.004 190.217 105.916L190.091 105.706C190.315 105.478 190.655 105.29 191.111 105.142C191.567 104.994 191.993 104.92 192.389 104.92ZM191.795 110.488C192.555 110.488 193.289 110.144 193.997 109.456V108.346C193.489 108.222 192.909 108.16 192.257 108.16C191.633 108.16 191.163 108.252 190.847 108.436C190.531 108.616 190.373 108.914 190.373 109.33C190.373 109.674 190.503 109.954 190.763 110.17C191.027 110.382 191.371 110.488 191.795 110.488ZM203.092 111.166C202.196 111.166 201.448 110.868 200.848 110.272C200.252 109.676 199.954 108.932 199.954 108.04C199.954 107.148 200.252 106.406 200.848 105.814C201.448 105.218 202.196 104.92 203.092 104.92C203.468 104.92 203.846 104.99 204.226 105.13C204.61 105.266 204.926 105.458 205.174 105.706L205.018 105.94C204.954 106.032 204.87 106.088 204.766 106.108C204.662 106.128 204.556 106.106 204.448 106.042C204.016 105.762 203.564 105.622 203.092 105.622C202.4 105.622 201.822 105.854 201.358 106.318C200.894 106.778 200.662 107.352 200.662 108.04C200.662 108.728 200.894 109.304 201.358 109.768C201.822 110.228 202.4 110.458 203.092 110.458C203.576 110.458 204.032 110.316 204.46 110.032C204.564 109.968 204.67 109.946 204.778 109.966C204.89 109.986 204.978 110.044 205.042 110.14L205.192 110.362C204.928 110.614 204.608 110.812 204.232 110.956C203.856 111.096 203.476 111.166 203.092 111.166ZM211.488 105.016V111.064H210.786V105.67H207.996L207.714 109.516C207.67 110.088 207.546 110.498 207.342 110.746C207.138 110.994 206.818 111.118 206.382 111.118C206.266 111.118 206.126 111.104 205.962 111.076C205.798 111.052 205.692 111.03 205.644 111.01V110.77C205.644 110.654 205.664 110.566 205.704 110.506C205.748 110.442 205.8 110.41 205.86 110.41C205.9 110.41 205.964 110.416 206.052 110.428C206.14 110.44 206.222 110.446 206.298 110.446C206.51 110.446 206.676 110.372 206.796 110.224C206.916 110.072 206.988 109.818 207.012 109.462L207.342 105.016H211.488ZM213.95 110.272C213.354 109.676 213.056 108.932 213.056 108.04C213.056 107.148 213.354 106.406 213.95 105.814C214.55 105.218 215.298 104.92 216.194 104.92C217.09 104.92 217.836 105.218 218.432 105.814C219.028 106.406 219.326 107.148 219.326 108.04C219.326 108.936 219.028 109.682 218.432 110.278C217.836 110.87 217.09 111.166 216.194 111.166C215.298 111.166 214.55 110.868 213.95 110.272ZM214.46 106.318C213.996 106.778 213.764 107.352 213.764 108.04C213.764 108.728 213.996 109.304 214.46 109.768C214.924 110.228 215.502 110.458 216.194 110.458C216.886 110.458 217.462 110.228 217.922 109.768C218.386 109.308 218.618 108.732 218.618 108.04C218.618 107.352 218.386 106.778 217.922 106.318C217.462 105.854 216.886 105.622 216.194 105.622C215.502 105.622 214.924 105.854 214.46 106.318ZM222.399 105.016H224.901V111.064H224.193V108.502H222.813L220.965 110.836C220.853 110.988 220.677 111.064 220.437 111.064H219.945L221.985 108.46L222.057 108.37C221.633 108.322 221.281 108.148 221.001 107.848C220.725 107.544 220.587 107.182 220.587 106.762C220.587 106.27 220.761 105.856 221.109 105.52C221.461 105.184 221.891 105.016 222.399 105.016ZM224.193 107.818V105.7H222.435C222.111 105.7 221.839 105.802 221.619 106.006C221.399 106.206 221.289 106.458 221.289 106.762C221.289 107.058 221.399 107.308 221.619 107.512C221.839 107.716 222.109 107.818 222.429 107.818H224.193Z" fill="white"/>
<path d="M153.376 75.9685V72.8645H168.72V75.9685H153.376ZM153.376 83.6485V80.5445H168.72V83.6485H153.376ZM191.794 86.0645V81.0405H181.138L180.946 78.4485C180.924 78.0965 181.026 77.7551 181.25 77.4245L190.61 64.0485C190.78 63.8031 190.983 63.6005 191.218 63.4405C191.452 63.2805 191.66 63.2005 191.842 63.2005H194.882V77.9525H198.146V81.0405H194.882V86.0645H191.794ZM184.146 77.9525H191.794V67.2965C191.676 67.7658 191.506 68.1605 191.282 68.4805L185.25 77.0565C184.951 77.4618 184.583 77.7605 184.146 77.9525ZM224.416 69.7765V86.0645H221.344V72.6245H215.44L214.816 81.6325C214.688 83.2965 214.314 84.4805 213.696 85.1845C213.088 85.8778 212.122 86.2245 210.799 86.2245C210.458 86.2245 209.994 86.1765 209.408 86.0805C208.832 85.9951 208.453 85.9151 208.271 85.8405V84.7685C208.271 84.2778 208.357 83.8991 208.527 83.6325C208.698 83.3551 208.906 83.2165 209.152 83.2165C209.333 83.2165 209.536 83.2378 209.76 83.2805C209.994 83.3125 210.197 83.3285 210.368 83.3285C210.752 83.3285 211.061 83.1951 211.296 82.9285C211.541 82.6511 211.69 82.1498 211.744 81.4245L212.56 69.7765H224.416Z" fill="white"/>
<circle cx="39.5" cy="307.564" r="20.5" fill="#3A424A"/>
<path d="M36.086 302.354H43.226V302.872C43.226 303.117 43.156 303.384 43.016 303.674L38.816 312.494C38.711 312.714 38.596 312.867 38.471 312.952C38.346 313.032 38.166 313.072 37.931 313.072H36.956L41.021 304.537C41.086 304.392 41.1985 304.247 41.3585 304.102C41.5185 303.952 41.6835 303.852 41.8535 303.802V303.787H36.086V302.354Z" fill="white"/>
<circle cx="39.5" cy="359.564" r="20.5" fill="#3A424A"/>
<path d="M40.6337 365.064V362.709H35.6387L35.5487 361.494C35.5387 361.329 35.5862 361.169 35.6912 361.014L40.0787 354.744C40.1587 354.629 40.2537 354.534 40.3637 354.459C40.4737 354.384 40.5712 354.347 40.6562 354.347H42.0812V361.262H43.6112V362.709H42.0812V365.064H40.6337ZM37.0487 361.262H40.6337V356.267C40.5787 356.487 40.4987 356.672 40.3937 356.822L37.5662 360.842C37.4262 361.032 37.2537 361.172 37.0487 361.262Z" fill="white"/>
<circle cx="39.5" cy="412.564" r="20.5" fill="#3A424A"/>
<path d="M41.042 416.624H43.052V418.064H37.3145V416.624H39.5945V409.364C39.5445 409.499 39.472 409.614 39.377 409.709L38.6645 410.422C38.4645 410.617 38.257 410.722 38.042 410.737C37.832 410.752 37.6495 410.677 37.4945 410.512L37.007 409.987L39.617 407.347H41.042V416.624Z" fill="white"/>
<circle cx="39.5" cy="465.564" r="20.5" fill="#3A424A"/>
<path d="M34.9854 465.709C34.9854 463.994 35.3404 462.649 36.0504 461.674C36.7654 460.699 37.7479 460.212 38.9979 460.212C40.2479 460.212 41.2279 460.699 41.9379 461.674C42.6529 462.649 43.0104 463.994 43.0104 465.709C43.0104 467.424 42.6554 468.769 41.9454 469.744C41.2354 470.714 40.2529 471.199 38.9979 471.199C37.7479 471.199 36.7654 470.712 36.0504 469.737C35.3404 468.762 34.9854 467.419 34.9854 465.709ZM36.4329 465.709C36.4329 466.969 36.6604 467.959 37.1154 468.679C37.5704 469.394 38.1979 469.752 38.9979 469.752C39.7979 469.752 40.4254 469.394 40.8804 468.679C41.3354 467.959 41.5629 466.969 41.5629 465.709C41.5629 464.444 41.3354 463.454 40.8804 462.739C40.4254 462.019 39.7979 461.659 38.9979 461.659C38.1979 461.659 37.5704 462.019 37.1154 462.739C36.6604 463.454 36.4329 464.444 36.4329 465.709Z" fill="white"/>
<circle cx="100.5" cy="307.564" r="20.5" fill="#3A424A"/>
<path d="M101.904 307.237C102.569 307.387 103.109 307.717 103.524 308.227C103.939 308.732 104.147 309.319 104.147 309.989C104.147 310.919 103.804 311.687 103.119 312.292C102.434 312.892 101.562 313.192 100.502 313.192H100.494C99.4294 313.192 98.5544 312.892 97.8694 312.292C97.1844 311.687 96.8419 310.919 96.8419 309.989C96.8419 309.319 97.0494 308.732 97.4644 308.227C97.8844 307.717 98.4269 307.387 99.0919 307.237C98.6019 307.092 98.2019 306.814 97.8919 306.404C97.5869 305.994 97.4344 305.532 97.4344 305.017C97.4344 304.197 97.7219 303.524 98.2969 302.999C98.8719 302.474 99.6044 302.212 100.494 302.212H100.502C101.392 302.212 102.124 302.477 102.699 303.007C103.274 303.532 103.562 304.202 103.562 305.017C103.562 305.532 103.407 305.994 103.097 306.404C102.792 306.814 102.394 307.092 101.904 307.237ZM100.494 303.659C100.024 303.659 99.6369 303.794 99.3319 304.064C99.0269 304.334 98.8744 304.679 98.8744 305.099C98.8744 305.519 99.0269 305.867 99.3319 306.142C99.6369 306.412 100.024 306.547 100.494 306.547H100.502C100.972 306.547 101.357 306.412 101.657 306.142C101.962 305.867 102.114 305.519 102.114 305.099C102.114 304.679 101.962 304.334 101.657 304.064C101.357 303.794 100.972 303.659 100.502 303.659H100.494ZM100.502 311.752C101.147 311.752 101.674 311.579 102.084 311.234C102.499 310.889 102.707 310.444 102.707 309.899C102.707 309.344 102.499 308.887 102.084 308.527C101.669 308.162 101.142 307.979 100.502 307.979H100.494C99.8494 307.979 99.3194 308.162 98.9044 308.527C98.4894 308.887 98.2819 309.344 98.2819 309.899C98.2819 310.444 98.4894 310.889 98.9044 311.234C99.3194 311.579 99.8494 311.752 100.494 311.752C100.494 311.777 100.497 311.794 100.502 311.804V311.752Z" fill="white"/>
<circle cx="100.5" cy="359.564" r="20.5" fill="#3A424A"/>
<path d="M100.187 365.169C99.5872 365.169 98.9722 365.049 98.3422 364.809C97.7172 364.569 97.2372 364.292 96.9022 363.977L97.1947 363.302C97.2797 363.112 97.4122 363.004 97.5922 362.979C97.7722 362.954 97.9597 363.009 98.1547 363.144C98.4197 363.319 98.7422 363.462 99.1222 363.572C99.5022 363.682 99.8472 363.737 100.157 363.737C100.862 363.737 101.43 363.524 101.86 363.099C102.29 362.669 102.505 362.104 102.505 361.404C102.505 360.764 102.302 360.254 101.897 359.874C101.492 359.489 100.952 359.297 100.277 359.297C99.7522 359.297 99.2897 359.362 98.8897 359.492C98.6047 359.577 98.4172 359.619 98.3272 359.619C98.0172 359.619 97.7572 359.469 97.5472 359.169L98.3272 354.347H103.39V355.794H99.5722L99.1747 358.254C99.3247 358.189 99.5322 358.129 99.7972 358.074C100.067 358.019 100.33 357.992 100.585 357.992C101.575 357.992 102.382 358.314 103.007 358.959C103.637 359.599 103.952 360.414 103.952 361.404C103.952 362.504 103.6 363.407 102.895 364.112C102.19 364.817 101.287 365.169 100.187 365.169Z" fill="white"/>
<circle cx="100.5" cy="412.564" r="20.5" fill="#3A424A"/>
<path d="M100.151 416.617H104.208V418.064H97.0755V417.367C97.0755 417.087 97.213 416.814 97.488 416.549L101.606 412.409C101.901 412.114 102.136 411.807 102.311 411.487C102.491 411.162 102.581 410.877 102.581 410.632C102.581 410.057 102.401 409.587 102.041 409.222C101.686 408.852 101.233 408.667 100.683 408.667C100.363 408.667 100.033 408.767 99.693 408.967C99.353 409.162 99.0705 409.412 98.8455 409.717C98.7355 409.872 98.5855 409.967 98.3955 410.002C98.2105 410.032 98.0255 409.997 97.8405 409.897L97.3005 409.589C97.6005 408.899 98.068 408.332 98.703 407.887C99.338 407.442 99.998 407.219 100.683 407.219C101.658 407.219 102.458 407.539 103.083 408.179C103.713 408.819 104.028 409.634 104.028 410.624C104.028 411.049 103.908 411.512 103.668 412.012C103.428 412.512 103.108 412.964 102.708 413.369L99.8205 416.264L99.1305 416.954H99.1755C99.3205 416.859 99.4205 416.797 99.4755 416.767C99.5305 416.737 99.618 416.704 99.738 416.669C99.863 416.634 100.001 416.617 100.151 416.617Z" fill="white"/>
<circle cx="100.5" cy="465.564" r="20.5" fill="#3A424A"/>
<path d="M100.002 469.114C100.312 469.114 100.562 469.237 100.752 469.482C100.942 469.722 101.037 470.039 101.037 470.434C101.037 471.464 100.552 472.382 99.5821 473.187L99.3271 472.939C99.1271 472.739 99.1321 472.534 99.3421 472.324C99.7571 471.909 99.9946 471.512 100.055 471.132C99.9646 471.152 99.8921 471.162 99.8371 471.162C99.6021 471.162 99.3971 471.064 99.2221 470.869C99.0521 470.674 98.9671 470.434 98.9671 470.149C98.9671 469.849 99.0646 469.602 99.2596 469.407C99.4546 469.212 99.7021 469.114 100.002 469.114Z" fill="white"/>
<circle cx="222.5" cy="255.564" r="20.5" fill="#3A424A"/>
<path d="M226 252.064L219 259.064" stroke="white" stroke-width="2" stroke-linecap="round" stroke-linejoin="round"/>
<path d="M219 252.064L226 259.064" stroke="white" stroke-width="2" stroke-linecap="round" stroke-linejoin="round"/>
<circle cx="39.5" cy="255.564" r="20.5" fill="#3A424A"/>
<path d="M40.349 261.199C39.329 261.199 38.3965 260.959 37.5515 260.479C36.7065 259.999 36.0415 259.339 35.5565 258.499C35.0715 257.654 34.829 256.724 34.829 255.709C34.829 254.694 35.0715 253.767 35.5565 252.927C36.0415 252.082 36.7065 251.419 37.5515 250.939C38.3965 250.454 39.329 250.212 40.349 250.212C41.064 250.212 41.769 250.362 42.464 250.662C43.159 250.957 43.744 251.352 44.219 251.847L43.874 252.177C43.694 252.357 43.4965 252.472 43.2815 252.522C43.0665 252.572 42.8515 252.542 42.6365 252.432C41.9515 251.942 41.189 251.697 40.349 251.697C39.604 251.697 38.924 251.872 38.309 252.222C37.694 252.572 37.2065 253.054 36.8465 253.669C36.4915 254.284 36.314 254.964 36.314 255.709C36.314 256.454 36.4915 257.134 36.8465 257.749C37.2065 258.364 37.694 258.847 38.309 259.197C38.924 259.547 39.604 259.722 40.349 259.722C41.194 259.722 41.964 259.467 42.659 258.957C42.874 258.842 43.0915 258.807 43.3115 258.852C43.5365 258.892 43.7415 258.997 43.9265 259.167L44.279 259.504C43.799 260.019 43.2065 260.432 42.5015 260.742C41.8015 261.047 41.084 261.199 40.349 261.199Z" fill="white"/>
<circle cx="100.5" cy="255.564" r="20.5" fill="#3A424A"/>
<path d="M95.3799 256.557C95.3799 257.447 95.5324 258.377 95.8374 259.347C96.1424 260.317 96.5299 261.222 96.9999 262.062C97.1949 262.422 97.2924 262.682 97.2924 262.842C97.2924 262.962 97.2524 263.074 97.1724 263.179C97.0974 263.284 97.0024 263.357 96.8874 263.397L96.3849 263.584C95.6349 262.599 95.0499 261.492 94.6299 260.262C94.2149 259.027 94.0074 257.794 94.0074 256.564C94.0074 255.309 94.2149 254.059 94.6299 252.814C95.0499 251.569 95.6349 250.454 96.3849 249.469L96.8874 249.657C97.0074 249.702 97.1049 249.777 97.1799 249.882C97.2549 249.987 97.2924 250.099 97.2924 250.219C97.2924 250.409 97.1949 250.664 96.9999 250.984C96.5249 251.779 96.1349 252.674 95.8299 253.669C95.5299 254.659 95.3799 255.622 95.3799 256.557ZM104.624 256.557C104.624 255.622 104.472 254.659 104.167 253.669C103.867 252.674 103.479 251.779 103.004 250.984C102.809 250.649 102.712 250.394 102.712 250.219C102.712 250.099 102.749 249.987 102.824 249.882C102.899 249.777 102.997 249.702 103.117 249.657L103.619 249.469C104.369 250.454 104.952 251.569 105.367 252.814C105.787 254.059 105.997 255.309 105.997 256.564C105.997 257.794 105.787 259.027 105.367 260.262C104.952 261.492 104.369 262.599 103.619 263.584L103.117 263.397C103.002 263.357 102.904 263.284 102.824 263.179C102.749 263.074 102.712 262.962 102.712 262.842C102.712 262.682 102.809 262.422 103.004 262.062C103.474 261.222 103.862 260.317 104.167 259.347C104.472 258.377 104.624 257.447 104.624 256.557Z" fill="white"/>
<circle cx="161.5" cy="255.564" r="20.5" fill="#3A424A"/>
<path d="M163.612 251.007C163.727 250.797 163.89 250.629 164.1 250.504C164.315 250.379 164.537 250.317 164.767 250.317H165.465L159.427 260.374C159.297 260.584 159.127 260.752 158.917 260.877C158.712 261.002 158.497 261.064 158.272 261.064H157.575L163.612 251.007ZM155.595 253.497C155.595 252.527 155.8 251.764 156.21 251.209C156.62 250.654 157.187 250.377 157.912 250.377C158.637 250.377 159.205 250.657 159.615 251.217C160.03 251.772 160.237 252.532 160.237 253.497C160.237 254.462 160.03 255.222 159.615 255.777C159.205 256.327 158.637 256.602 157.912 256.602C157.187 256.602 156.62 256.327 156.21 255.777C155.8 255.222 155.595 254.462 155.595 253.497ZM157.087 252.094C156.887 252.434 156.787 252.902 156.787 253.497C156.787 254.092 156.887 254.559 157.087 254.899C157.287 255.239 157.562 255.409 157.912 255.409C158.262 255.409 158.537 255.239 158.737 254.899C158.942 254.559 159.045 254.092 159.045 253.497C159.045 252.902 158.942 252.434 158.737 252.094C158.537 251.754 158.262 251.584 157.912 251.584C157.562 251.584 157.287 251.754 157.087 252.094ZM162.765 258.042C162.765 257.072 162.97 256.309 163.38 255.754C163.79 255.199 164.357 254.922 165.082 254.922C165.807 254.922 166.375 255.202 166.785 255.762C167.2 256.317 167.407 257.077 167.407 258.042C167.407 259.007 167.2 259.767 166.785 260.322C166.375 260.872 165.807 261.147 165.082 261.147C164.357 261.147 163.79 260.872 163.38 260.322C162.97 259.767 162.765 259.007 162.765 258.042ZM164.257 256.639C164.057 256.979 163.957 257.447 163.957 258.042C163.957 258.637 164.057 259.104 164.257 259.444C164.457 259.784 164.732 259.954 165.082 259.954C165.432 259.954 165.707 259.784 165.907 259.444C166.112 259.104 166.215 258.637 166.215 258.042C166.215 257.447 166.112 256.979 165.907 256.639C165.707 256.299 165.432 256.129 165.082 256.129C164.732 256.129 164.457 256.299 164.257 256.639Z" fill="white"/>
<circle cx="161.5" cy="307.564" r="20.5" fill="#3A424A"/>
<path d="M161.472 302.212C162.482 302.212 163.312 302.524 163.962 303.149C164.612 303.774 164.937 304.572 164.937 305.542C164.937 306.787 164.63 308.044 164.015 309.314C163.405 310.584 162.612 311.694 161.637 312.644C161.347 312.924 160.925 313.064 160.37 313.064H159.155C161.07 311.354 162.312 309.772 162.882 308.317C162.397 308.642 161.817 308.804 161.142 308.804C160.222 308.804 159.472 308.494 158.892 307.874C158.312 307.249 158.022 306.469 158.022 305.534C158.022 304.569 158.347 303.774 158.997 303.149C159.647 302.524 160.472 302.212 161.472 302.212ZM160.032 304.184C159.657 304.534 159.47 304.984 159.47 305.534C159.47 306.084 159.657 306.539 160.032 306.899C160.412 307.259 160.895 307.439 161.48 307.439C161.92 307.439 162.315 307.327 162.665 307.102C163.02 306.872 163.282 306.577 163.452 306.217C163.477 306.077 163.49 305.852 163.49 305.542C163.49 304.992 163.3 304.539 162.92 304.184C162.54 303.829 162.057 303.652 161.472 303.652C160.887 303.652 160.407 303.829 160.032 304.184Z" fill="white"/>
<circle cx="161.5" cy="359.564" r="20.5" fill="#3A424A"/>
<path d="M161.862 358.607C162.782 358.607 163.532 358.919 164.112 359.544C164.692 360.164 164.982 360.942 164.982 361.877C164.982 362.842 164.657 363.637 164.007 364.262C163.357 364.887 162.532 365.199 161.532 365.199C160.522 365.199 159.692 364.887 159.042 364.262C158.392 363.637 158.067 362.839 158.067 361.869C158.067 360.624 158.372 359.367 158.982 358.097C159.597 356.827 160.392 355.717 161.367 354.767C161.657 354.487 162.08 354.347 162.635 354.347H163.85C161.935 356.057 160.692 357.639 160.122 359.094C160.607 358.769 161.187 358.607 161.862 358.607ZM160.085 363.227C160.465 363.582 160.947 363.759 161.532 363.759C162.117 363.759 162.597 363.584 162.972 363.234C163.347 362.879 163.535 362.427 163.535 361.877C163.535 361.327 163.345 360.872 162.965 360.512C162.59 360.152 162.11 359.972 161.525 359.972C161.085 359.972 160.687 360.087 160.332 360.317C159.982 360.542 159.722 360.834 159.552 361.194C159.527 361.334 159.515 361.559 159.515 361.869C159.515 362.419 159.705 362.872 160.085 363.227Z" fill="white"/>
<circle cx="161.5" cy="412.564" r="20.5" fill="#3A424A"/>
<path d="M162.726 412.319C163.371 412.439 163.896 412.752 164.301 413.257C164.711 413.762 164.916 414.357 164.916 415.042C164.916 415.967 164.594 416.724 163.949 417.314C163.304 417.899 162.461 418.192 161.421 418.192C160.791 418.192 160.174 418.052 159.569 417.772C158.969 417.492 158.491 417.139 158.136 416.714L158.391 416.264C158.516 416.034 158.684 415.904 158.894 415.874C159.104 415.839 159.314 415.917 159.524 416.107C159.999 416.542 160.611 416.759 161.361 416.759C162.021 416.759 162.539 416.597 162.914 416.272C163.289 415.947 163.476 415.499 163.476 414.929C163.476 414.359 163.281 413.912 162.891 413.587C162.506 413.257 161.991 413.092 161.346 413.092H160.349V411.652H161.346C161.856 411.652 162.256 411.524 162.546 411.269C162.841 411.014 162.989 410.654 162.989 410.189C162.989 409.664 162.836 409.279 162.531 409.034C162.226 408.789 161.829 408.667 161.339 408.667C160.719 408.667 160.154 408.887 159.644 409.327C159.514 409.437 159.384 409.499 159.254 409.514C159.124 409.524 159.009 409.499 158.909 409.439C158.814 409.374 158.731 409.287 158.661 409.177L158.436 408.824C158.751 408.339 159.189 407.949 159.749 407.654C160.314 407.359 160.896 407.212 161.496 407.212C162.341 407.212 163.036 407.467 163.581 407.977C164.126 408.482 164.399 409.164 164.399 410.024C164.399 410.609 164.246 411.107 163.941 411.517C163.636 411.922 163.231 412.189 162.726 412.319Z" fill="white"/>
</svg>
