<svg width="39" height="50" viewBox="0 0 39 50" fill="none" xmlns="http://www.w3.org/2000/svg">
<path fill-rule="evenodd" clip-rule="evenodd" d="M28.5703 0.000254154L38.094 10.7143V1.94084C38.0946 1.96049 38.0949 1.98021 38.0949 2V47.9995C38.0949 49.1041 37.1995 49.9995 36.0949 49.9995H2C0.895433 49.9995 0 49.1041 0 47.9995V2C0 0.895432 0.895431 0 2 0H28.5945C28.5864 0.000169197 28.5784 0.000254154 28.5703 0.000254154Z" fill="#D61C38"/>
<path d="M28.5682 0.000205151L38.2031 10.7147L30.4952 10.7148C28.9536 10.7148 28.5682 9.57147 28.5682 8.92915L28.5682 0.000205151Z" fill="#E3E3E3"/>
<path d="M11 41.1099H12.9233V43.0015H11V41.1099Z" fill="white"/>
<path d="M14.2563 37.5552V36.0825H19.8677V37.5869L16.3574 41.5161H19.9883V43.0015H14.0151V41.5923L17.5635 37.5552H14.2563Z" fill="white"/>
<path d="M23.0098 35.2573H21.1753V33.5879H23.0098V35.2573ZM21.1753 36.0825H23.0098V43.0015H21.1753V36.0825Z" fill="white"/>
<path d="M29.5352 39.542C29.5352 39.0088 29.4124 38.5369 29.167 38.1265C28.9258 37.716 28.5322 37.5107 27.9863 37.5107C27.3304 37.5107 26.8797 37.8218 26.6343 38.4438C26.5073 38.7739 26.4438 39.1929 26.4438 39.7007C26.4438 40.5047 26.6576 41.0697 27.085 41.3955C27.3389 41.5859 27.6393 41.6812 27.9863 41.6812C28.4899 41.6812 28.8729 41.4865 29.1353 41.0972C29.4019 40.7078 29.5352 40.1895 29.5352 39.542ZM28.5068 35.9302C29.3151 35.9302 29.9985 36.2285 30.5571 36.8252C31.12 37.4219 31.4014 38.2979 31.4014 39.4531C31.4014 40.6719 31.1263 41.6007 30.5762 42.2397C30.0303 42.8787 29.3257 43.1982 28.4624 43.1982C27.9123 43.1982 27.4552 43.0607 27.0913 42.7856C26.8924 42.6333 26.6978 42.4111 26.5073 42.1191V45.7246H24.7173V36.0825H26.4502V37.1045C26.6449 36.804 26.8522 36.5671 27.0723 36.3936C27.4743 36.0846 27.9525 35.9302 28.5068 35.9302Z" fill="white"/>
</svg>
