<svg width="44" height="44" viewBox="0 0 44 44" fill="none" xmlns="http://www.w3.org/2000/svg">
<circle cx="22" cy="22" r="22" fill="#F9F9F9"/>
<mask id="path-2-outside-1_716_1241" maskUnits="userSpaceOnUse" x="12" y="13" width="20" height="18" fill="black">
<rect fill="white" x="12" y="13" width="20" height="18"/>
<path fill-rule="evenodd" clip-rule="evenodd" d="M17.9477 29.9186H26.5523C29.693 29.9186 31.5 28.1116 31.5 24.9709V18.9477C31.5 15.807 29.693 14 26.5523 14H17.9477C14.807 14 13 15.807 13 18.9477V24.9709C13 28.1116 14.807 29.9186 17.9477 29.9186ZM14.2907 18.9477C14.2907 16.4867 15.4867 15.2907 17.9477 15.2907H26.5523C29.0133 15.2907 30.2093 16.4867 30.2093 18.9477V24.9709C30.2093 27.4319 29.0133 28.6279 26.5523 28.6279H17.9477C15.4867 28.6279 14.2907 27.4319 14.2907 24.9709V18.9477ZM20.2412 21.1675C20.8005 21.6236 21.5319 21.8473 22.2547 21.8473C22.9775 21.8473 23.7089 21.6236 24.2596 21.1675L26.9528 19.0164C27.2368 18.8013 27.2798 18.3882 27.0561 18.1129C26.841 17.8289 26.4279 17.7859 26.1526 18.0096L23.4593 20.1608C22.8054 20.6857 21.6954 20.6857 21.0414 20.1608L18.3482 18.0096C18.0728 17.7859 17.6684 17.8375 17.4447 18.1129C17.221 18.3882 17.2726 18.7927 17.5479 19.0164L20.2412 21.1675Z"/>
</mask>
<path fill-rule="evenodd" clip-rule="evenodd" d="M17.9477 29.9186H26.5523C29.693 29.9186 31.5 28.1116 31.5 24.9709V18.9477C31.5 15.807 29.693 14 26.5523 14H17.9477C14.807 14 13 15.807 13 18.9477V24.9709C13 28.1116 14.807 29.9186 17.9477 29.9186ZM14.2907 18.9477C14.2907 16.4867 15.4867 15.2907 17.9477 15.2907H26.5523C29.0133 15.2907 30.2093 16.4867 30.2093 18.9477V24.9709C30.2093 27.4319 29.0133 28.6279 26.5523 28.6279H17.9477C15.4867 28.6279 14.2907 27.4319 14.2907 24.9709V18.9477ZM20.2412 21.1675C20.8005 21.6236 21.5319 21.8473 22.2547 21.8473C22.9775 21.8473 23.7089 21.6236 24.2596 21.1675L26.9528 19.0164C27.2368 18.8013 27.2798 18.3882 27.0561 18.1129C26.841 17.8289 26.4279 17.7859 26.1526 18.0096L23.4593 20.1608C22.8054 20.6857 21.6954 20.6857 21.0414 20.1608L18.3482 18.0096C18.0728 17.7859 17.6684 17.8375 17.4447 18.1129C17.221 18.3882 17.2726 18.7927 17.5479 19.0164L20.2412 21.1675Z" fill="#424A52"/>
<path d="M20.2412 21.1675L20.3676 21.0125L20.366 21.0113L20.2412 21.1675ZM24.2596 21.1675L24.1347 21.0112L24.132 21.0135L24.2596 21.1675ZM26.9528 19.0164L26.832 18.8569L26.828 18.8601L26.9528 19.0164ZM27.0561 18.1129L26.8966 18.2337L26.9009 18.239L27.0561 18.1129ZM26.1526 18.0096L26.2774 18.1659L26.2787 18.1649L26.1526 18.0096ZM23.4593 20.1608L23.3345 20.0045L23.3341 20.0048L23.4593 20.1608ZM21.0414 20.1608L21.1666 20.0048L21.1663 20.0045L21.0414 20.1608ZM18.3482 18.0096L18.2221 18.1649L18.2234 18.1659L18.3482 18.0096ZM17.4447 18.1129L17.2895 17.9868L17.2895 17.9868L17.4447 18.1129ZM17.5479 19.0164L17.4218 19.1716L17.4231 19.1727L17.5479 19.0164ZM26.5523 29.7186H17.9477V30.1186H26.5523V29.7186ZM31.3 24.9709C31.3 26.5033 30.8599 27.6837 30.0625 28.4811C29.2651 29.2785 28.0847 29.7186 26.5523 29.7186V30.1186C28.1606 30.1186 29.454 29.6553 30.3453 28.764C31.2366 27.8726 31.7 26.5792 31.7 24.9709H31.3ZM31.3 18.9477V24.9709H31.7V18.9477H31.3ZM26.5523 14.2C28.0847 14.2 29.2651 14.6401 30.0625 15.4375C30.8599 16.2349 31.3 17.4153 31.3 18.9477H31.7C31.7 17.3394 31.2366 16.046 30.3453 15.1547C29.454 14.2634 28.1606 13.8 26.5523 13.8V14.2ZM17.9477 14.2H26.5523V13.8H17.9477V14.2ZM13.2 18.9477C13.2 17.4153 13.6401 16.2349 14.4375 15.4375C15.2349 14.6401 16.4153 14.2 17.9477 14.2V13.8C16.3394 13.8 15.046 14.2634 14.1547 15.1547C13.2634 16.046 12.8 17.3394 12.8 18.9477H13.2ZM13.2 24.9709V18.9477H12.8V24.9709H13.2ZM17.9477 29.7186C16.4153 29.7186 15.2349 29.2785 14.4375 28.4811C13.6401 27.6837 13.2 26.5033 13.2 24.9709H12.8C12.8 26.5792 13.2634 27.8726 14.1547 28.764C15.046 29.6553 16.3394 30.1186 17.9477 30.1186V29.7186ZM17.9477 15.0907C16.6878 15.0907 15.713 15.3968 15.0549 16.0549C14.3968 16.713 14.0907 17.6878 14.0907 18.9477H14.4907C14.4907 17.7466 14.7826 16.8929 15.3378 16.3378C15.8929 15.7826 16.7466 15.4907 17.9477 15.4907V15.0907ZM26.5523 15.0907H17.9477V15.4907H26.5523V15.0907ZM30.4093 18.9477C30.4093 17.6878 30.1032 16.713 29.4451 16.0549C28.787 15.3968 27.8122 15.0907 26.5523 15.0907V15.4907C27.7534 15.4907 28.6071 15.7826 29.1622 16.3378C29.7174 16.8929 30.0093 17.7466 30.0093 18.9477H30.4093ZM30.4093 24.9709V18.9477H30.0093V24.9709H30.4093ZM26.5523 28.8279C27.8122 28.8279 28.787 28.5218 29.4451 27.8637C30.1032 27.2056 30.4093 26.2308 30.4093 24.9709H30.0093C30.0093 26.172 29.7174 27.0257 29.1622 27.5808C28.6071 28.136 27.7534 28.4279 26.5523 28.4279V28.8279ZM17.9477 28.8279H26.5523V28.4279H17.9477V28.8279ZM14.0907 24.9709C14.0907 26.2308 14.3968 27.2056 15.0549 27.8637C15.713 28.5218 16.6878 28.8279 17.9477 28.8279V28.4279C16.7466 28.4279 15.8929 28.136 15.3378 27.5808C14.7826 27.0257 14.4907 26.172 14.4907 24.9709H14.0907ZM14.0907 18.9477V24.9709H14.4907V18.9477H14.0907ZM22.2547 21.6473C21.5709 21.6473 20.8861 21.4353 20.3676 21.0125L20.1148 21.3225C20.7149 21.8119 21.4929 22.0473 22.2547 22.0473V21.6473ZM24.132 21.0135C23.6228 21.4352 22.9388 21.6473 22.2547 21.6473V22.0473C23.0161 22.0473 23.7949 21.812 24.3871 21.3216L24.132 21.0135ZM26.828 18.8601L24.1348 21.0113L24.3844 21.3238L27.0777 19.1727L26.828 18.8601ZM26.9009 18.239C27.0555 18.4294 27.023 18.7123 26.8321 18.857L27.0736 19.1758C27.4506 18.8902 27.5041 18.3471 27.2113 17.9868L26.9009 18.239ZM26.2787 18.1649C26.4691 18.0102 26.752 18.0427 26.8967 18.2337L27.2155 17.9921C26.9299 17.6151 26.3868 17.5617 26.0265 17.8544L26.2787 18.1649ZM23.5842 20.3171L26.2774 18.1659L26.0278 17.8534L23.3345 20.0045L23.5842 20.3171ZM20.9162 20.3168C21.2851 20.6128 21.7728 20.7545 22.2504 20.7545C22.728 20.7545 23.2157 20.6128 23.5845 20.3168L23.3341 20.0048C23.049 20.2337 22.6547 20.3545 22.2504 20.3545C21.846 20.3545 21.4517 20.2337 21.1666 20.0048L20.9162 20.3168ZM18.2234 18.1659L20.9166 20.3171L21.1663 20.0045L18.473 17.8534L18.2234 18.1659ZM17.5999 18.239C17.7575 18.045 18.0367 18.0143 18.2221 18.1649L18.4743 17.8544C18.1089 17.5576 17.5793 17.6301 17.2895 17.9868L17.5999 18.239ZM17.6741 18.8612C17.4801 18.7035 17.4493 18.4243 17.5999 18.239L17.2895 17.9868C16.9926 18.3521 17.0651 18.8818 17.4218 19.1716L17.6741 18.8612ZM20.366 21.0113L17.6728 18.8601L17.4231 19.1727L20.1164 21.3238L20.366 21.0113Z" fill="#424A52" mask="url(#path-2-outside-1_716_1241)"/>
</svg>
