<svg width="44" height="44" viewBox="0 0 44 44" fill="none" xmlns="http://www.w3.org/2000/svg">
<circle cx="22" cy="22" r="22" fill="#F9F9F9"/>
<path d="M30.5704 30.0134C30.8612 29.6962 31.0905 29.3522 31.2754 28.9561C31.4619 28.5564 31.56 28.1291 31.56 27.7009C31.56 27.3857 31.4968 27.0722 31.3638 26.7352L31.3638 26.7352L31.3629 26.7331C31.2172 26.3871 30.9719 26.0973 30.6396 25.8725C30.6392 25.8723 30.6389 25.8721 30.6386 25.8718L27.7847 23.8431L27.7841 23.8427C27.5203 23.658 27.2732 23.5256 27.0431 23.4282L27.0424 23.4279C26.4142 23.1677 25.7794 23.219 25.2774 23.5279C25.0174 23.6629 24.7524 23.8672 24.4821 24.1375C24.482 24.1376 24.4819 24.1377 24.4818 24.1378L23.9407 24.6715C23.7561 24.5721 23.4567 24.3719 23.0084 23.9943L23.0077 23.9937C22.6155 23.6698 22.1967 23.2767 21.6901 22.7787C21.2966 22.3767 20.9027 21.94 20.4821 21.4593C20.0971 21.0074 19.8951 20.7059 19.7937 20.5304L20.3316 19.9688C20.5845 19.7158 20.7883 19.4598 20.9231 19.2177C21.1114 18.9032 21.2117 18.5679 21.2117 18.2214C21.2117 17.9564 21.1479 17.6854 21.0321 17.4177C20.9338 17.1679 20.7919 16.9203 20.6081 16.6664C20.608 16.6663 20.6079 16.6662 20.6078 16.666L18.6135 13.8551C18.3962 13.5296 18.0979 13.2862 17.7476 13.1244C17.4417 12.9805 17.0832 12.9 16.7333 12.9C15.8955 12.9 15.1145 13.2393 14.4361 13.9085C13.9016 14.4082 13.5061 14.9879 13.2597 15.6127L13.2596 15.613C13.0227 16.2184 12.9 16.8674 12.9 17.5505C12.9 18.5379 13.1272 19.5833 13.5787 20.6601L13.5788 20.6603C14.0037 21.6662 14.6012 22.7049 15.3445 23.742L15.3451 23.7429C16.0792 24.7446 16.9082 25.7205 17.8235 26.6444L17.8245 26.6454C18.7483 27.5519 19.7239 28.3808 20.7342 29.1234L20.735 29.124C21.7551 29.8588 22.8024 30.4648 23.8425 30.9069L23.8427 30.907C24.9104 31.3584 25.9473 31.5944 26.9353 31.5944C27.6277 31.5944 28.2855 31.4629 28.8911 31.2172C29.5261 30.9614 30.0714 30.5649 30.5704 30.0134ZM30.5704 30.0134C30.5705 30.0133 30.5706 30.0132 30.5707 30.0131L30.4966 29.946L30.5703 30.0136C30.5703 30.0136 30.5704 30.0135 30.5704 30.0134ZM26.5138 24.6988L26.4757 24.7913C26.6138 24.8481 26.7621 24.9302 26.9293 25.0472C26.9294 25.0472 26.9295 25.0473 26.9296 25.0474L29.7849 27.077L29.7849 27.0771L29.7863 27.0781C29.9306 27.1768 29.973 27.256 29.9932 27.2963C30.0556 27.4375 30.0783 27.5606 30.0783 27.6837C30.0783 27.8917 30.0304 28.1006 29.9333 28.3028L29.9329 28.3036C29.808 28.57 29.6588 28.7937 29.4681 29.0009L29.4671 29.0021C29.1238 29.3872 28.749 29.6533 28.3252 29.8278L28.3248 29.8279C27.2238 30.2867 25.8774 30.1495 24.4198 29.5272L24.4191 29.5269C23.4811 29.1346 22.5331 28.5882 21.6095 27.9127L21.6094 27.9126C20.6588 27.2189 19.7337 26.4309 18.8771 25.5829C18.0205 24.7177 17.2411 23.8012 16.5561 22.8593C15.8718 21.9185 15.3339 20.9789 14.9501 20.0749C14.5759 19.1904 14.3903 18.3349 14.3903 17.5505C14.3903 17.0546 14.4743 16.5944 14.6497 16.16L14.6497 16.16L14.6501 16.1591C14.8162 15.7353 15.0826 15.3432 15.4683 14.9827L15.4683 14.9827L15.4699 14.9811C15.878 14.5813 16.2929 14.3903 16.7333 14.3903C16.8635 14.3903 16.9957 14.4209 17.1222 14.4761C17.2347 14.5288 17.3242 14.6032 17.4002 14.7096C17.4002 14.7096 17.4003 14.7097 17.4003 14.7097L19.3957 17.5308L19.3957 17.5308L19.3968 17.5324C19.5144 17.692 19.6044 17.8399 19.6606 17.9682C19.7011 18.0656 19.7214 18.1545 19.7214 18.2042C19.7214 18.2683 19.7027 18.3451 19.6416 18.4443L19.6416 18.4443L19.6406 18.446C19.5599 18.5832 19.4367 18.74 19.269 18.9077L19.269 18.9077L19.2676 18.9091L18.6232 19.5794C18.3893 19.8136 18.2677 20.1143 18.2677 20.4494C18.2677 20.5819 18.2871 20.703 18.3397 20.9047L18.339 20.9049L18.3436 20.9166L18.4469 21.1747L18.4463 21.1749L18.4517 21.185C18.6371 21.5294 18.9347 21.9398 19.3411 22.4154L19.3415 22.4158C19.7816 22.9249 20.2045 23.3824 20.6274 23.814L20.6287 23.8152C21.1718 24.3498 21.6209 24.7643 22.036 25.1189L22.0362 25.1191C22.4954 25.5089 22.9142 25.8061 23.2752 25.9998L23.275 26L23.2818 26.0031L23.5141 26.1063L23.514 26.1065L23.5201 26.1087C23.9487 26.2671 24.5063 26.1846 24.8718 25.8285L24.8723 25.828L25.526 25.1829L25.5265 25.1824C25.6957 25.0132 25.8416 24.893 25.9994 24.814L25.9996 24.8144L26.0072 24.8097C26.1464 24.7237 26.2166 24.7107 26.2649 24.7146C26.2906 24.7167 26.3166 24.7241 26.3507 24.7377C26.368 24.7445 26.386 24.7525 26.4071 24.7618L26.4087 24.7625C26.429 24.7714 26.4515 24.7813 26.476 24.7913L26.5138 24.6988ZM26.5138 24.6988C26.4906 24.6893 26.4691 24.6798 26.4486 24.6708C26.3024 24.6063 26.2113 24.5661 25.9547 24.7246M26.5138 24.6988C26.6601 24.759 26.8149 24.845 26.9869 24.9655L25.9547 24.7246M25.9547 24.7246C25.7826 24.8106 25.6278 24.9396 25.4558 25.1117L25.9547 24.7246Z" fill="#424A52" stroke="#424A52" stroke-width="0.2"/>
</svg>
