<svg width="20" height="20" viewBox="0 0 20 20" fill="none" xmlns="http://www.w3.org/2000/svg">
<path d="M14.6902 19.4963C13.6655 19.4963 12.5864 19.2514 11.4711 18.7799C10.3829 18.3174 9.28567 17.6827 8.21564 16.9119C7.15468 16.132 6.12999 15.2615 5.15971 14.3094C4.1985 13.3391 3.32797 12.3144 2.55719 11.2625C1.77733 10.1743 1.15164 9.08617 0.707307 8.03428C0.235769 6.90984 0 5.82168 0 4.79699C0 4.08968 0.126952 3.41865 0.371789 2.79295C0.625694 2.14912 1.03376 1.55063 1.58691 1.03376C2.28514 0.344585 3.08313 0 3.93553 0C4.28918 0 4.6519 0.0816123 4.96021 0.226701C5.31387 0.389925 5.61311 0.634762 5.83075 0.961212L7.93453 3.92646C8.12496 4.18943 8.27005 4.44334 8.36979 4.69724C8.48768 4.96928 8.55116 5.24132 8.55116 5.5043C8.55116 5.84888 8.45141 6.1844 8.26098 6.50178C8.12496 6.74662 7.91639 7.00959 7.65342 7.27256L7.03679 7.91639C7.04586 7.9436 7.05493 7.96173 7.064 7.97987C7.17281 8.1703 7.39045 8.49675 7.80758 8.98642C8.25191 9.49423 8.66904 9.9567 9.08617 10.3829C9.62118 10.9088 10.0655 11.326 10.4826 11.6706C10.9995 12.1058 11.335 12.3235 11.5345 12.4232L11.5164 12.4685L12.1784 11.8156C12.4595 11.5345 12.7315 11.326 12.9945 11.19C13.4932 10.8816 14.128 10.8272 14.7628 11.0902C14.9985 11.19 15.2524 11.326 15.5245 11.5164L18.5351 13.6565C18.8706 13.8832 19.1154 14.1733 19.2605 14.5179C19.3965 14.8625 19.46 15.1799 19.46 15.4973C19.46 15.9325 19.3603 16.3678 19.1698 16.7759C18.9794 17.1839 18.7436 17.5376 18.4444 17.864C17.9275 18.4353 17.3653 18.8434 16.7124 19.1063C16.0867 19.3603 15.4066 19.4963 14.6902 19.4963ZM3.93553 1.36021C3.43678 1.36021 2.97431 1.57784 2.52998 2.0131C2.11285 2.40303 1.82267 2.82923 1.64131 3.2917C1.45089 3.76323 1.36021 4.26198 1.36021 4.79699C1.36021 5.64032 1.5597 6.55619 1.9587 7.49926C2.36676 8.46048 2.93804 9.45796 3.66349 10.4554C4.38893 11.4529 5.21412 12.4232 6.12092 13.3391C7.02773 14.2368 8.00707 15.0711 9.01363 15.8056C9.99297 16.522 10.9995 17.1023 11.997 17.5194C13.5476 18.1814 14.9985 18.3356 16.1955 17.8368C16.658 17.6464 17.066 17.3562 17.4378 16.9391C17.6464 16.7124 17.8096 16.4675 17.9456 16.1774C18.0545 15.9507 18.1089 15.7149 18.1089 15.4791C18.1089 15.334 18.0817 15.189 18.0091 15.0257C17.9819 14.9713 17.9275 14.8716 17.7552 14.7537L14.7446 12.6136C14.5633 12.4867 14.4 12.396 14.2459 12.3325C14.0464 12.2509 13.9648 12.1693 13.6565 12.3597C13.4751 12.4504 13.3119 12.5864 13.1305 12.7678L12.4413 13.4479C12.0877 13.7925 11.5436 13.8741 11.1265 13.7199L10.8816 13.6111C10.5099 13.4116 10.0746 13.1033 9.59398 12.6952C9.15871 12.3235 8.68718 11.8882 8.11589 11.326C7.67156 10.8726 7.22722 10.392 6.76475 9.85695C6.33856 9.35821 6.03024 8.93201 5.83981 8.57836L5.731 8.30632C5.67659 8.09775 5.65845 7.97987 5.65845 7.85292C5.65845 7.52647 5.77634 7.23629 6.00304 7.00959L6.68314 6.30228C6.8645 6.12092 7.00052 5.94863 7.0912 5.79447C7.16375 5.67659 7.19095 5.57684 7.19095 5.48616C7.19095 5.41362 7.16375 5.3048 7.11841 5.19598C7.05493 5.05089 6.95518 4.88767 6.82823 4.71538L4.72445 1.74106C4.63377 1.61411 4.52495 1.52343 4.38893 1.45995C4.24384 1.39648 4.08968 1.36021 3.93553 1.36021ZM11.5164 12.4776L11.3713 13.0942L11.6162 12.4595C11.5708 12.4504 11.5345 12.4595 11.5164 12.4776Z" fill="#D61C38"/>
</svg>
