<svg width="22" height="20" viewBox="0 0 22 20" fill="none" xmlns="http://www.w3.org/2000/svg">
<path fill-rule="evenodd" clip-rule="evenodd" d="M8.91401 19.7125C7.91401 19.7125 6.90401 19.0325 5.55401 17.6925L2.09401 14.2325C-0.84599 11.2925 -0.54599 10.1625 2.09401 7.51252L7.66401 1.93252C9.63401 -0.0374802 11.264 -1.18748 14.384 1.93252L17.844 5.39252C20.0506 7.59906 20.1051 9.1705 18.9955 10.775C18.9823 10.7959 18.9682 10.816 18.9532 10.8353C18.6561 11.2543 18.2805 11.6761 17.844 12.1125L12.274 17.6825C10.924 19.0325 9.92401 19.7125 8.91401 19.7125ZM17.022 10.8112C16.9458 10.8898 16.8664 10.9701 16.784 11.0525L11.214 16.6225C9.08401 18.7525 8.73401 18.7425 6.61401 16.6225L3.15401 13.1625C2.12282 12.1313 1.59014 11.5283 1.5073 10.9848C6.57984 9.67631 11.9165 9.61302 17.022 10.8112ZM18.0266 9.51698C12.9506 8.22003 7.62939 8.12026 2.52186 9.20355C2.70435 9.0143 2.91033 8.80735 3.13912 8.57749L3.15401 8.56252L8.72401 2.99252C10.474 1.25252 11.134 0.80252 13.324 2.99252L16.784 6.45252C18.1489 7.81738 18.445 8.64577 18.0266 9.51698ZM18.9905 19.5932C17.8505 19.5932 16.9505 19.1532 16.5105 18.3832C16.0705 17.6132 16.1605 16.6132 16.7505 15.6332L17.4105 14.5432C17.8005 13.9032 18.3705 13.5332 18.9905 13.5332C19.6105 13.5332 20.1905 13.9032 20.5705 14.5432L21.2305 15.6332C21.8205 16.6132 21.9005 17.6132 21.4705 18.3832C21.0405 19.1532 20.1205 19.5932 18.9905 19.5932ZM18.9905 15.0332C18.9405 15.0332 18.8205 15.1132 18.6905 15.3132L18.0305 16.4032C17.7305 16.9032 17.6505 17.3532 17.8105 17.6432C17.9705 17.9332 18.4005 18.0932 18.9805 18.0932C19.5605 18.0932 19.9905 17.9332 20.1505 17.6432C20.3105 17.3532 20.2305 16.9132 19.9305 16.4032L19.2705 15.3132C19.1605 15.1032 19.0405 15.0332 18.9905 15.0332Z" fill="#D61C38"/>
</svg>
