<svg width="20" height="22" viewBox="0 0 20 22" fill="none" xmlns="http://www.w3.org/2000/svg">
<path d="M9.66 21.5125C9.42 21.5125 9.18001 21.4825 8.95001 21.4125C3.76001 19.9825 0 15.1325 0 9.87249V5.48248C0 4.36248 0.810006 3.15253 1.85001 2.72253L7.42001 0.4425C8.87001 -0.1475 10.46 -0.1475 11.9 0.4425L17.47 2.72253C18.51 3.15253 19.32 4.36248 19.32 5.48248V9.87249C19.32 15.1225 15.55 19.9725 10.37 21.4125C10.14 21.4825 9.9 21.5125 9.66 21.5125ZM9.66 1.51251C9.09 1.51251 8.52999 1.62252 7.98999 1.84252L2.42001 4.12249C1.94001 4.32249 1.5 4.97249 1.5 5.49249V9.8825C1.5 14.4725 4.80001 18.7125 9.35001 19.9725C9.55001 20.0325 9.77 20.0325 9.97 19.9725C14.52 18.7125 17.82 14.4725 17.82 9.8825V5.49249C17.82 4.97249 17.38 4.32249 16.9 4.12249L11.33 1.84252C10.79 1.62252 10.23 1.51251 9.66 1.51251Z" fill="#D61C38"/>
</svg>
