<svg width="20" height="21" viewBox="0 0 20 21" fill="none" xmlns="http://www.w3.org/2000/svg">
<path fill-rule="evenodd" clip-rule="evenodd" d="M0 20.2175H0.046876L0.046875 20.2188C0.046875 20.6287 0.386875 20.9688 0.796875 20.9688H18.7969C19.2069 20.9688 19.5469 20.6287 19.5469 20.2188L19.5469 20.2175H19.55V8.18749C19.55 7.34749 19.15 6.5375 18.49 6.0175L11.49 0.5775C10.49 -0.1925 9.1 -0.1925 8.11 0.5775L1.11 6.02751C0.440001 6.54751 0.0500031 7.33749 0.0500031 8.18749L0 20.2175ZM18.05 8.1975V19.4688H1.50311L1.55 8.1975C1.55 7.8175 1.73001 7.44751 2.03001 7.21751L9.03001 1.7675C9.49001 1.4175 10.12 1.4175 10.57 1.7675L17.57 7.2075C17.87 7.4475 18.05 7.8175 18.05 8.1975ZM9 14V13.125H8.125C7.715 13.125 7.375 12.785 7.375 12.375C7.375 11.965 7.715 11.625 8.125 11.625H9V10.75C9 10.34 9.34 10 9.75 10C10.16 10 10.5 10.34 10.5 10.75V11.625H11.375C11.785 11.625 12.125 11.965 12.125 12.375C12.125 12.785 11.785 13.125 11.375 13.125H10.5V14C10.5 14.41 10.16 14.75 9.75 14.75C9.34 14.75 9 14.41 9 14Z" fill="#D61C38"/>
</svg>
