<svg width="14" height="14" viewBox="0 0 14 14" fill="none" xmlns="http://www.w3.org/2000/svg">
<path id="Union" fill-rule="evenodd" clip-rule="evenodd" d="M11.8869 12.9476C12.1798 13.2405 12.6547 13.2405 12.9476 12.9476C13.2405 12.6547 13.2405 12.1798 12.9476 11.8869L7.64503 6.58437L12.9489 1.28044C13.2418 0.987552 13.2418 0.512678 12.9489 0.219784C12.6561 -0.0731088 12.1812 -0.0731085 11.8883 0.219785L6.58437 5.52371L1.28033 0.21967C0.987437 -0.0732233 0.512563 -0.0732233 0.21967 0.21967C-0.0732234 0.512563 -0.0732232 0.987437 0.21967 1.28033L5.52371 6.58437L0.221028 11.887C-0.0718651 12.1799 -0.0718651 12.6548 0.221028 12.9477C0.513921 13.2406 0.988795 13.2406 1.28169 12.9477L6.58437 7.64503L11.8869 12.9476Z" fill="#424A52"/>
</svg>
