<svg width="20" height="21" viewBox="0 0 20 21" fill="none" xmlns="http://www.w3.org/2000/svg">
<path d="M2.87 20.3689C2.13 20.3689 1.4 20.0889 0.84 19.5289C0.3 18.9889 0 18.2689 0 17.4989C0 16.7289 0.3 16.0089 0.84 15.4689L13.84 2.46891C14.96 1.34891 16.78 1.34891 17.9 2.46891C18.44 3.00891 18.74 3.72891 18.74 4.49891C18.74 5.26891 18.44 5.98891 17.9 6.52891L4.9 19.5289C4.34 20.0889 3.61 20.3689 2.87 20.3689ZM15.87 3.12891C15.52 3.12891 15.17 3.25891 14.9 3.52891L1.9 16.5289C1.64 16.7889 1.5 17.1289 1.5 17.4989C1.5 17.8689 1.64 18.2089 1.9 18.4689C2.43 18.9989 3.31 18.9989 3.84 18.4689L16.84 5.46891C17.1 5.20891 17.24 4.86891 17.24 4.49891C17.24 4.12891 17.1 3.78891 16.84 3.52891C16.57 3.25891 16.22 3.12891 15.87 3.12891Z" fill="#D61C38"/>
<path d="M15.8803 8.23969C15.6903 8.23969 15.5003 8.16969 15.3503 8.01969L12.3503 5.01969C12.0603 4.72969 12.0603 4.24969 12.3503 3.95969C12.6403 3.66969 13.1203 3.66969 13.4103 3.95969L16.4103 6.95969C16.7003 7.24969 16.7003 7.72969 16.4103 8.01969C16.2603 8.16969 16.0703 8.23969 15.8803 8.23969Z" fill="#D61C38"/>
<path d="M7.87407 3.99907C7.82407 3.99907 7.78407 3.98907 7.73407 3.97907L6.37407 3.57907L5.01407 3.97907C4.83407 4.02908 4.64407 3.97907 4.52407 3.84907C4.39407 3.71907 4.34407 3.53908 4.39407 3.35908L4.79407 1.99907L4.39407 0.639075C4.34407 0.459075 4.39407 0.269075 4.52407 0.149075C4.65407 0.0190748 4.84407 -0.0309252 5.01407 0.0190748L6.37407 0.419075L7.73407 0.0190748C7.91407 -0.0309252 8.09408 0.0190748 8.22408 0.149075C8.35408 0.279075 8.40407 0.469075 8.35407 0.639075L7.95407 1.99907L8.35407 3.35908C8.40407 3.53908 8.35408 3.72907 8.22408 3.84907C8.13408 3.94907 8.00408 3.99907 7.87407 3.99907ZM6.37407 2.55907C6.42407 2.55907 6.46408 2.56907 6.51408 2.57907L7.13408 2.75908L6.95407 2.13908C6.92407 2.04908 6.92407 1.94907 6.95407 1.85907L7.13408 1.23907L6.51408 1.41907C6.42408 1.44907 6.32407 1.44907 6.23407 1.41907L5.61407 1.23907L5.79407 1.85907C5.82407 1.94907 5.82407 2.04908 5.79407 2.13908L5.61407 2.75908L6.23407 2.57907C6.28407 2.56907 6.32407 2.55907 6.37407 2.55907Z" fill="#D61C38"/>
<path d="M3.87407 9.99907C3.82407 9.99907 3.78408 9.98907 3.73408 9.97907L2.37407 9.57907L1.01407 9.97907C0.834075 10.0291 0.654075 9.97908 0.524075 9.84908C0.394075 9.71908 0.344075 9.52907 0.394075 9.35907L0.794075 7.99907L0.394075 6.63908C0.344075 6.45908 0.394075 6.26907 0.524075 6.14907C0.654075 6.02907 0.844075 5.96907 1.01407 6.01907L2.37407 6.41907L3.73408 6.01907C3.90408 5.96907 4.09407 6.01907 4.22407 6.14907C4.35407 6.27907 4.40408 6.46908 4.35407 6.63908L3.95407 7.99907L4.35407 9.35907C4.40408 9.53907 4.35407 9.72908 4.22407 9.84908C4.13407 9.94908 4.00408 9.99907 3.87407 9.99907ZM2.37407 8.55908C2.42407 8.55908 2.46407 8.56907 2.51407 8.57907L3.13408 8.75908L2.95407 8.13908C2.92407 8.04908 2.92407 7.94907 2.95407 7.85907L3.13408 7.23907L2.51407 7.41907C2.42407 7.44907 2.32407 7.44907 2.23407 7.41907L1.61407 7.23907L1.79407 7.85907C1.82407 7.94907 1.82407 8.04908 1.79407 8.13908L1.61407 8.75908L2.23407 8.57907C2.28407 8.56907 2.32407 8.55908 2.37407 8.55908Z" fill="#D61C38"/>
<path d="M18.8741 14.9991C18.8241 14.9991 18.7841 14.9891 18.7341 14.9791L17.3741 14.5791L16.0141 14.9791C15.8341 15.0291 15.6541 14.9791 15.5241 14.8491C15.3941 14.7191 15.3441 14.5291 15.3941 14.3591L15.7941 12.9991L15.3941 11.6391C15.3441 11.4591 15.3941 11.2691 15.5241 11.1491C15.6541 11.0291 15.8441 10.9691 16.0141 11.0191L17.3741 11.4191L18.7341 11.0191C18.9041 10.9691 19.0941 11.0191 19.2241 11.1491C19.3541 11.2791 19.4041 11.4691 19.3541 11.6391L18.9541 12.9991L19.3541 14.3591C19.4041 14.5391 19.3541 14.7291 19.2241 14.8491C19.1341 14.9491 19.0041 14.9991 18.8741 14.9991ZM17.3741 13.5591C17.4241 13.5591 17.4641 13.5691 17.5141 13.5791L18.1341 13.7591L17.9541 13.1391C17.9241 13.0491 17.9241 12.9491 17.9541 12.8591L18.1341 12.2391L17.5141 12.4191C17.4241 12.4491 17.3241 12.4491 17.2341 12.4191L16.6141 12.2391L16.7941 12.8591C16.8241 12.9491 16.8241 13.0491 16.7941 13.1391L16.6141 13.7591L17.2341 13.5791C17.2841 13.5691 17.3241 13.5591 17.3741 13.5591Z" fill="#D61C38"/>
</svg>
