<svg width="44" height="44" viewBox="0 0 44 44" fill="none" xmlns="http://www.w3.org/2000/svg">
<circle cx="22" cy="22" r="22" fill="#F9F9F9"/>
<mask id="path-2-outside-1_716_1231" maskUnits="userSpaceOnUse" x="12" y="12" width="20" height="20" fill="black">
<rect fill="white" x="12" y="12" width="20" height="20"/>
<path fill-rule="evenodd" clip-rule="evenodd" d="M13 21.8218C13 26.6846 16.9591 30.6436 21.8218 30.6436C26.6846 30.6436 30.6436 26.6846 30.6436 21.8218C30.6436 16.9591 26.6846 13 21.8218 13C16.9591 13 13 16.9591 13 21.8218ZM14.291 21.8218C14.291 17.6734 17.6648 14.291 21.8218 14.291C25.9788 14.291 29.3526 17.6734 29.3526 21.8218C29.3526 25.9702 25.9788 29.3526 21.8218 29.3526C17.6648 29.3526 14.291 25.9702 14.291 21.8218ZM30.4005 31.3149C30.5296 31.444 30.6931 31.5043 30.8567 31.5043C31.0202 31.5043 31.1837 31.444 31.3128 31.3149C31.5624 31.0653 31.5624 30.6522 31.3128 30.4026L29.5915 28.6813C29.3419 28.4317 28.9288 28.4317 28.6792 28.6813C28.4296 28.9309 28.4296 29.344 28.6792 29.5936L30.4005 31.3149Z"/>
</mask>
<path fill-rule="evenodd" clip-rule="evenodd" d="M13 21.8218C13 26.6846 16.9591 30.6436 21.8218 30.6436C26.6846 30.6436 30.6436 26.6846 30.6436 21.8218C30.6436 16.9591 26.6846 13 21.8218 13C16.9591 13 13 16.9591 13 21.8218ZM14.291 21.8218C14.291 17.6734 17.6648 14.291 21.8218 14.291C25.9788 14.291 29.3526 17.6734 29.3526 21.8218C29.3526 25.9702 25.9788 29.3526 21.8218 29.3526C17.6648 29.3526 14.291 25.9702 14.291 21.8218ZM30.4005 31.3149C30.5296 31.444 30.6931 31.5043 30.8567 31.5043C31.0202 31.5043 31.1837 31.444 31.3128 31.3149C31.5624 31.0653 31.5624 30.6522 31.3128 30.4026L29.5915 28.6813C29.3419 28.4317 28.9288 28.4317 28.6792 28.6813C28.4296 28.9309 28.4296 29.344 28.6792 29.5936L30.4005 31.3149Z" fill="#424A52"/>
<path d="M31.3128 30.4026L31.1714 30.544L31.1714 30.544L31.3128 30.4026ZM29.5915 28.6813L29.4501 28.8227L29.4501 28.8227L29.5915 28.6813ZM28.6792 29.5936L28.8206 29.4522L28.8206 29.4522L28.6792 29.5936ZM21.8218 30.4436C17.0695 30.4436 13.2 26.5741 13.2 21.8218H12.8C12.8 26.795 16.8486 30.8436 21.8218 30.8436V30.4436ZM30.4436 21.8218C30.4436 26.5741 26.5741 30.4436 21.8218 30.4436V30.8436C26.795 30.8436 30.8436 26.795 30.8436 21.8218H30.4436ZM21.8218 13.2C26.5741 13.2 30.4436 17.0695 30.4436 21.8218H30.8436C30.8436 16.8486 26.795 12.8 21.8218 12.8V13.2ZM13.2 21.8218C13.2 17.0695 17.0695 13.2 21.8218 13.2V12.8C16.8486 12.8 12.8 16.8486 12.8 21.8218H13.2ZM21.8218 14.091C17.5542 14.091 14.091 17.5631 14.091 21.8218H14.491C14.491 17.7837 17.7754 14.491 21.8218 14.491V14.091ZM29.5526 21.8218C29.5526 17.5631 26.0894 14.091 21.8218 14.091V14.491C25.8682 14.491 29.1526 17.7837 29.1526 21.8218H29.5526ZM21.8218 29.5526C26.0894 29.5526 29.5526 26.0805 29.5526 21.8218H29.1526C29.1526 25.8599 25.8682 29.1526 21.8218 29.1526V29.5526ZM14.091 21.8218C14.091 26.0805 17.5542 29.5526 21.8218 29.5526V29.1526C17.7754 29.1526 14.491 25.8599 14.491 21.8218H14.091ZM30.8567 31.3043C30.7433 31.3043 30.6315 31.2631 30.5419 31.1735L30.2591 31.4563C30.4277 31.6249 30.6429 31.7043 30.8567 31.7043V31.3043ZM31.1714 31.1735C31.0818 31.2631 30.97 31.3043 30.8567 31.3043V31.7043C31.0704 31.7043 31.2856 31.6249 31.4542 31.4563L31.1714 31.1735ZM31.1714 30.544C31.3429 30.7155 31.3429 31.002 31.1714 31.1735L31.4542 31.4563C31.7819 31.1286 31.7819 30.5889 31.4542 30.2612L31.1714 30.544ZM29.4501 28.8227L31.1714 30.544L31.4542 30.2612L29.7329 28.5398L29.4501 28.8227ZM28.8206 28.8227C28.9921 28.6512 29.2786 28.6512 29.4501 28.8227L29.7329 28.5398C29.4052 28.2122 28.8654 28.2122 28.5377 28.5398L28.8206 28.8227ZM28.8206 29.4522C28.6491 29.2807 28.6491 28.9942 28.8206 28.8227L28.5377 28.5398C28.21 28.8675 28.21 29.4073 28.5377 29.735L28.8206 29.4522ZM30.5419 31.1735L28.8206 29.4522L28.5377 29.735L30.2591 31.4563L30.5419 31.1735Z" fill="#424A52" mask="url(#path-2-outside-1_716_1231)"/>
</svg>
