<svg width="17" height="18" viewBox="0 0 17 18" fill="none" xmlns="http://www.w3.org/2000/svg">
<path d="M12.8332 18C11.938 18 10.9953 17.774 10.021 17.3386C9.07036 16.9116 8.11184 16.3256 7.17707 15.614C6.25023 14.894 5.35508 14.0902 4.50746 13.2112C3.66775 12.3153 2.90727 11.3693 2.23392 10.3981C1.55266 9.39349 1.00606 8.38884 0.617894 7.41767C0.205965 6.37953 0 5.37488 0 4.42884C0 3.77581 0.110904 3.15628 0.32479 2.5786C0.546598 1.98419 0.903076 1.43163 1.3863 0.954419C1.99627 0.31814 2.69338 0 3.43802 0C3.74697 0 4.06384 0.0753488 4.33318 0.209302C4.64213 0.36 4.90354 0.586046 5.09366 0.887442L6.9315 3.62512C7.09786 3.86791 7.2246 4.10233 7.31174 4.33674C7.41473 4.58791 7.47018 4.83907 7.47018 5.08186C7.47018 5.4 7.38304 5.70977 7.21668 6.00279C7.09786 6.22884 6.91566 6.47163 6.68593 6.71442L6.14725 7.30884C6.15517 7.33395 6.16309 7.3507 6.17102 7.36744C6.26608 7.54326 6.4562 7.84465 6.8206 8.29674C7.20876 8.76558 7.57316 9.19256 7.93756 9.58605C8.40494 10.0716 8.7931 10.4567 9.1575 10.7749C9.60904 11.1767 9.90214 11.3777 10.0764 11.4698L10.0606 11.5116L10.6389 10.9088C10.8844 10.6493 11.1221 10.4567 11.3518 10.3312C11.7875 10.0465 12.342 9.99628 12.8966 10.2391C13.1025 10.3312 13.3243 10.4567 13.562 10.6326L16.192 12.6084C16.4851 12.8177 16.699 13.0856 16.8257 13.4037C16.9445 13.7219 17 14.0149 17 14.3079C17 14.7098 16.9129 15.1116 16.7465 15.4884C16.5802 15.8651 16.3742 16.1916 16.1128 16.493C15.6612 17.0205 15.1701 17.3972 14.5997 17.64C14.0531 17.8744 13.459 18 12.8332 18ZM3.43802 1.25581C3.00233 1.25581 2.59832 1.45674 2.21016 1.8586C1.84576 2.2186 1.59226 2.61209 1.43383 3.03907C1.26747 3.47442 1.18826 3.93488 1.18826 4.42884C1.18826 5.20744 1.36254 6.05302 1.71109 6.92372C2.06757 7.81116 2.56664 8.73209 3.20037 9.65302C3.83411 10.574 4.55499 11.4698 5.34716 12.3153C6.13933 13.1442 6.99487 13.9144 7.87418 14.5926C8.72973 15.254 9.60904 15.7898 10.4804 16.1749C11.835 16.786 13.1025 16.9284 14.1482 16.4679C14.5522 16.2921 14.9087 16.0242 15.2335 15.6391C15.4157 15.4298 15.5582 15.2037 15.6771 14.9358C15.7721 14.7265 15.8197 14.5088 15.8197 14.2912C15.8197 14.1572 15.7959 14.0233 15.7325 13.8726C15.7088 13.8223 15.6612 13.7302 15.5107 13.6214L12.8807 11.6456C12.7223 11.5284 12.5797 11.4447 12.445 11.386C12.2707 11.3107 12.1994 11.2353 11.9301 11.4112C11.7717 11.4949 11.6291 11.6205 11.4706 11.7879L10.8686 12.4158C10.5596 12.734 10.0843 12.8093 9.71994 12.667L9.50606 12.5665C9.18127 12.3823 8.80103 12.0977 8.38118 11.7209C8.00093 11.3777 7.589 10.9758 7.08994 10.4567C6.70177 10.0381 6.31361 9.59442 5.9096 9.10046C5.53728 8.64 5.26794 8.24651 5.10158 7.92L5.00652 7.66884C4.95899 7.47628 4.94315 7.36744 4.94315 7.25023C4.94315 6.94884 5.04613 6.68093 5.24418 6.47163L5.8383 5.8186C5.99674 5.65116 6.11556 5.49209 6.19478 5.34977C6.25815 5.24093 6.28192 5.14884 6.28192 5.06512C6.28192 4.99814 6.25816 4.89767 6.21855 4.79721C6.16309 4.66326 6.07596 4.51256 5.96505 4.35349L4.12721 1.60744C4.048 1.49023 3.95294 1.40651 3.83411 1.34791C3.70736 1.2893 3.57269 1.25581 3.43802 1.25581ZM10.0606 11.52L9.93383 12.0893L10.1477 11.5033C10.1081 11.4949 10.0764 11.5033 10.0606 11.52Z" fill="#D61C38"/>
</svg>
