<svg width="131" height="40" viewBox="0 0 131 40" fill="none" xmlns="http://www.w3.org/2000/svg">
<path d="M120.36 20.873V26.4606H114.24V20.873H111.602V34.709H114.24V29.0992H120.36V34.709H122.998V20.873H120.36Z" fill="white"/>
<path d="M107.569 27.3932C107.946 26.994 108.589 26.1515 108.589 24.9985C108.589 22.7368 106.682 20.8965 104.332 20.8965H98.1016V34.6659H105.33C107.658 34.6659 109.587 32.8255 109.587 30.5639C109.587 29.2113 108.612 27.9918 107.569 27.3932ZM100.74 23.5572H104.243C105.108 23.5572 105.796 24.2446 105.796 25.0872C105.796 25.9519 105.108 26.6393 104.243 26.6393L100.74 26.6171V23.5572ZM105.241 32.0273H100.74V29.9209V28.9231H105.241C106.106 28.9231 106.816 29.6105 106.816 30.4752C106.816 31.3178 106.106 32.0273 105.241 32.0273Z" fill="white"/>
<path d="M45.8622 18.1242C44.0441 18.1242 42.2259 17.4368 40.8511 16.0621C39.5429 14.7317 38.8112 12.98 38.7891 11.0953C38.7891 10.3858 38.8999 9.69845 39.0995 9.01109C39.4321 7.90244 40.0307 6.88248 40.8511 6.06208C43.6228 3.31264 48.1017 3.31264 50.8511 6.06208C53.6006 8.8337 53.6006 13.3126 50.8511 16.0621C49.4764 17.4368 47.6582 18.1242 45.8622 18.1242ZM41.4498 11.0732C41.4498 12.2483 41.8933 13.357 42.7358 14.1774C44.4432 15.9069 47.2591 15.9069 48.9664 14.1774C50.6959 12.4701 50.6959 9.6541 48.9664 7.94679C47.2591 6.2173 44.4432 6.2173 42.7358 7.94679C42.2037 8.45676 41.8489 9.07761 41.6272 9.78714C41.4942 10.2084 41.4276 10.6297 41.4498 11.0732Z" fill="#D61C38"/>
<path d="M28.7858 17.969H26.125V4H31.2691C34.2403 4 36.6572 6.41685 36.6572 9.38803C36.6572 12.3814 34.2403 14.7982 31.2691 14.7982H28.7858V17.969ZM28.7858 12.1375H31.2691C32.7769 12.1375 34.0186 10.918 34.0186 9.38803C34.0186 7.88027 32.7769 6.66075 31.2691 6.66075H28.7858V12.1375Z" fill="#D61C38"/>
<path d="M53.5315 34.6656C51.802 35.1534 49.873 34.976 48.1657 34.0225C46.547 33.0913 45.3497 31.6057 44.8397 29.7875C44.6402 29.1223 44.5515 28.4128 44.5736 27.7033C44.5958 26.5503 44.9062 25.3973 45.4827 24.3995C47.3896 21.007 51.7133 19.7875 55.1058 21.6944C58.4983 23.6234 59.6956 27.925 57.7887 31.3174C56.8353 33.0248 55.2832 34.1778 53.5315 34.6656ZM47.3896 29.0558C47.7 30.1866 48.4539 31.1401 49.4739 31.6944C51.6025 32.8917 54.2854 32.1378 55.4827 30.0314C56.6801 27.9028 55.9262 25.1977 53.7976 24.0004C51.669 22.8252 48.9861 23.5791 47.7887 25.6855C47.4339 26.3285 47.2344 27.0381 47.2122 27.7698C47.2122 28.1911 47.2787 28.6345 47.3896 29.0558Z" fill="#D61C38"/>
<path d="M64.3333 17.9459H55.1094V4.1543H57.748V15.3073H62.6704C63.5794 15.3073 64.3333 16.039 64.3333 16.9703V17.9459Z" fill="#D61C38"/>
<path d="M10.051 34.8429C8.25499 34.8429 6.43681 34.1556 5.06208 32.7808C2.31264 30.0314 2.31264 25.5525 5.06208 22.7808C6.39246 21.4505 8.1663 20.7188 10.051 20.7188C11.9357 20.7188 13.7095 21.4505 15.0621 22.7808L14.1973 23.6456C13.6652 24.1777 12.867 24.2886 12.2239 23.9338C11.1818 23.3573 9.94013 23.2021 8.69845 23.5791C8.49889 23.6456 8.29934 23.7121 8.12195 23.8008C5.28381 25.2642 4.8847 28.8562 6.94679 30.9183C8.36585 32.3374 10.561 32.5813 12.2461 31.6278C12.867 31.2731 13.6874 31.4061 14.1973 31.9161L15.0621 32.7808C13.6874 34.1556 11.8692 34.8429 10.051 34.8429Z" fill="#D61C38"/>
<path d="M75.6415 4.11133H73.3355C72.7812 4.11133 72.249 4.39958 71.9386 4.86521L68.4575 10.3641L64.9763 4.86521C64.6659 4.39958 64.1559 4.11133 63.6016 4.11133H61.2734L67.1271 13.1357V17.9472H69.7879V13.1357L75.6415 4.11133Z" fill="#D61C38"/>
<path d="M73.087 21.6269L68.4529 28.811L63.8187 21.6269C63.5083 21.1613 62.9761 20.873 62.4218 20.873H60.9141V34.709H63.5526V26.1059L68.4529 33.689L73.3531 26.1059V34.709H75.9917V20.873H74.4839C73.9296 20.873 73.3974 21.1613 73.087 21.6269Z" fill="#D61C38"/>
<path d="M26.1255 20.873V26.4606H20.0058V20.873H17.3672V34.709H20.0058V29.0992H26.1255V34.709H28.7863V20.873H26.1255Z" fill="#D61C38"/>
<path d="M89.1892 23.556V20.8952L78.9453 20.873V34.709L89.1892 34.6646V32.026H81.5839V29.0992H85.4198C86.3289 29.0992 87.0828 28.3675 87.0828 27.4362V26.4606H81.5839V23.556H89.1892Z" fill="#D61C38"/>
<path d="M40.9579 31.273C40.7361 31.0069 40.4479 30.8073 40.1596 30.6521C41.5787 29.6765 42.5322 28.0579 42.5322 26.1954C42.5322 23.2242 40.1153 20.7852 37.1441 20.7852H32V34.7763H34.6386V31.5834H37.1441C37.3215 31.5834 37.5211 31.5834 37.7206 31.5612L39.9379 34.1776C40.2483 34.5546 40.714 34.7763 41.2018 34.7763H43.9069L40.9579 31.273ZM34.6386 28.9448V23.4459H37.1441C38.6519 23.4459 39.8714 24.6876 39.8714 26.1954C39.8714 27.7031 38.6519 28.9448 37.1441 28.9448H34.6386Z" fill="#D61C38"/>
<path d="M48.7904 23.0918L46.4844 16.6616L48.9012 15.7969L51.2072 22.227L48.7904 23.0918Z" fill="#D61C38"/>
<path d="M93.8862 37.703H93.3984V17.7695H93.8862V37.703Z" fill="white"/>
</svg>
