<svg width="20" height="19" viewBox="0 0 20 19" fill="none" xmlns="http://www.w3.org/2000/svg">
<path fill-rule="evenodd" clip-rule="evenodd" d="M8.14099 8.00073C6.20216 8.00073 4.58067 6.59115 4.24938 4.74485H0.697674C0.316279 4.74485 0 4.42857 0 4.04718C0 3.66578 0.316279 3.3495 0.697674 3.3495H4.2494C4.58074 1.50326 6.2022 0.09375 8.14099 0.09375C10.3177 0.09375 12.0945 1.87049 12.0945 4.04724C12.0945 6.22398 10.3177 8.00073 8.14099 8.00073ZM8.14099 1.4891C6.72704 1.4891 5.58285 2.63328 5.58285 4.04724C5.58285 5.46119 6.72704 6.60538 8.14099 6.60538C9.55494 6.60538 10.6991 5.46119 10.6991 4.04724C10.6991 2.63328 9.55494 1.4891 8.14099 1.4891ZM13.7209 4.74485H19.3023C19.6837 4.74485 20 4.42857 20 4.04718C20 3.66578 19.6837 3.3495 19.3023 3.3495H13.7209C13.3396 3.3495 13.0233 3.66578 13.0233 4.04718C13.0233 4.42857 13.3396 4.74485 13.7209 4.74485ZM15.7513 14.9774H19.3014C19.6828 14.9774 19.9991 14.6611 19.9991 14.2797C19.9991 13.8983 19.6828 13.582 19.3014 13.582H15.7513C15.42 11.7357 13.7986 10.3262 11.8597 10.3262C9.68299 10.3262 7.90625 12.1029 7.90625 14.2797C7.90625 16.4564 9.68299 18.2331 11.8597 18.2331C13.7985 18.2331 15.42 16.8236 15.7513 14.9774ZM6.27907 14.9775H0.697674C0.316279 14.9775 0 14.6612 0 14.2798C0 13.8984 0.316279 13.5821 0.697674 13.5821H6.27907C6.66047 13.5821 6.97674 13.8984 6.97674 14.2798C6.97674 14.6612 6.66047 14.9775 6.27907 14.9775ZM9.3016 14.2797C9.3016 12.8657 10.4458 11.7215 11.8597 11.7215C13.2737 11.7215 14.4179 12.8657 14.4179 14.2797C14.4179 15.6936 13.2737 16.8378 11.8597 16.8378C10.4458 16.8378 9.3016 15.6936 9.3016 14.2797Z" fill="#424A52"/>
</svg>
