<svg width="39" height="50" viewBox="0 0 39 50" fill="none" xmlns="http://www.w3.org/2000/svg">
<path fill-rule="evenodd" clip-rule="evenodd" d="M28.5703 0.000254154L38.094 10.7143V1.94084C38.0946 1.96049 38.0949 1.98021 38.0949 2V47.9995C38.0949 49.1041 37.1995 49.9995 36.0949 49.9995H2C0.895433 49.9995 0 49.1041 0 47.9995V2C0 0.895432 0.895431 0 2 0H28.5945C28.5864 0.000169197 28.5784 0.000254154 28.5703 0.000254154Z" fill="#D61C38"/>
<path d="M28.5682 0.000205151L38.2031 10.7147L30.4952 10.7148C28.9536 10.7148 28.5682 9.57147 28.5682 8.92915L28.5682 0.000205151Z" fill="#E3E3E3"/>
<path d="M7.768 41.0752V42.8302H6V41.0752H7.768Z" fill="white"/>
<path d="M15.8322 33.5742V42.8302H14.4412V41.9072C14.0165 42.6439 13.3015 43.0122 12.2962 43.0122C11.3515 43.0122 10.5975 42.6916 10.0342 42.0502C9.4795 41.4089 9.20216 40.5466 9.20216 39.4632C9.20216 38.3886 9.47516 37.5349 10.0212 36.9022C10.5758 36.2609 11.3168 35.9402 12.2442 35.9402C13.1888 35.9402 13.8995 36.2912 14.3762 36.9932V33.5742H15.8322ZM12.5172 37.1362C11.9538 37.1362 11.5075 37.3442 11.1782 37.7602C10.8575 38.1676 10.6972 38.7266 10.6972 39.4372C10.6972 40.1739 10.8618 40.7546 11.1912 41.1792C11.5292 41.6039 11.9885 41.8162 12.5692 41.8162C13.1498 41.8162 13.6005 41.6082 13.9212 41.1922C14.2505 40.7762 14.4152 40.1999 14.4152 39.4632C14.4152 38.7266 14.2462 38.1546 13.9082 37.7472C13.5788 37.3399 13.1152 37.1362 12.5172 37.1362Z" fill="white"/>
<path d="M20.5294 35.9272C21.5521 35.9272 22.3668 36.2479 22.9734 36.8892C23.5801 37.5306 23.8834 38.3929 23.8834 39.4762C23.8834 40.5682 23.5801 41.4349 22.9734 42.0762C22.3754 42.7176 21.5608 43.0382 20.5294 43.0382C19.4808 43.0382 18.6488 42.7176 18.0334 42.0762C17.4181 41.4349 17.1104 40.5682 17.1104 39.4762C17.1104 38.3929 17.4181 37.5306 18.0334 36.8892C18.6574 36.2479 19.4894 35.9272 20.5294 35.9272ZM21.8814 37.7342C21.5521 37.3096 21.0928 37.0972 20.5034 37.0972C19.9141 37.0972 19.4504 37.3096 19.1124 37.7342C18.7744 38.1589 18.6054 38.7396 18.6054 39.4762C18.6054 40.2302 18.7744 40.8196 19.1124 41.2442C19.4504 41.6689 19.9184 41.8812 20.5164 41.8812C21.0971 41.8812 21.5521 41.6689 21.8814 41.2442C22.2194 40.8109 22.3884 40.2172 22.3884 39.4632C22.3884 38.7266 22.2194 38.1502 21.8814 37.7342Z" fill="white"/>
<path d="M31.2125 40.2952C31.1085 41.1186 30.7792 41.7772 30.2245 42.2712C29.6698 42.7566 28.9722 42.9992 28.1315 42.9992C27.1262 42.9992 26.3245 42.6829 25.7265 42.0502C25.1285 41.4089 24.8295 40.5726 24.8295 39.5412C24.8295 38.4319 25.1285 37.5522 25.7265 36.9022C26.3332 36.2436 27.1478 35.9142 28.1705 35.9142C29.0285 35.9142 29.7175 36.1309 30.2375 36.5642C30.7662 36.9976 31.0738 37.5999 31.1605 38.3712H29.6915C29.6048 37.9466 29.4315 37.6216 29.1715 37.3962C28.9115 37.1709 28.5822 37.0582 28.1835 37.0582C27.6115 37.0582 27.1608 37.2749 26.8315 37.7082C26.5022 38.1329 26.3375 38.7179 26.3375 39.4632C26.3375 40.2086 26.4935 40.7892 26.8055 41.2052C27.1262 41.6212 27.5682 41.8292 28.1315 41.8292C28.5735 41.8292 28.9332 41.6992 29.2105 41.4392C29.4965 41.1706 29.6785 40.7892 29.7565 40.2952H31.2125Z" fill="white"/>
</svg>
