<svg width="44" height="44" viewBox="0 0 44 44" fill="none" xmlns="http://www.w3.org/2000/svg">
<circle cx="22" cy="22" r="22" fill="#F9F9F9"/>
<path fill-rule="evenodd" clip-rule="evenodd" d="M27.3088 28.1136C27.6017 28.4065 28.0766 28.4065 28.3695 28.1136C28.6624 27.8207 28.6624 27.3458 28.3695 27.0529L23.0669 21.7504L28.3708 16.4465C28.6637 16.1536 28.6637 15.6787 28.3708 15.3858C28.0779 15.0929 27.6031 15.0929 27.3102 15.3858L22.0062 20.6897L16.7022 15.3857C16.4093 15.0928 15.9344 15.0928 15.6415 15.3857C15.3487 15.6786 15.3487 16.1535 15.6415 16.4463L20.9456 21.7504L15.6429 27.0531C15.35 27.346 15.35 27.8208 15.6429 28.1137C15.9358 28.4066 16.4107 28.4066 16.7036 28.1137L22.0062 22.811L27.3088 28.1136Z" fill="#424A52"/>
</svg>
