<svg width="39" height="50" viewBox="0 0 39 50" fill="none" xmlns="http://www.w3.org/2000/svg">
<path fill-rule="evenodd" clip-rule="evenodd" d="M28.5703 0.000254154L38.094 10.7143V1.94084C38.0946 1.96049 38.0949 1.98021 38.0949 2V47.9995C38.0949 49.1041 37.1995 49.9995 36.0949 49.9995H2C0.895433 49.9995 0 49.1041 0 47.9995V2C0 0.895432 0.895431 0 2 0H28.5945C28.5864 0.000169197 28.5784 0.000254154 28.5703 0.000254154Z" fill="#D61C38"/>
<path d="M28.5682 0.000205151L38.2031 10.7147L30.4952 10.7148C28.9536 10.7148 28.5682 9.57147 28.5682 8.92915L28.5682 0.000205151Z" fill="#E3E3E3"/>
<path d="M9.85125 41.0907V42.8585H8.07031V41.0907H9.85125Z" fill="white"/>
<path d="M12.9983 36.1014V37.005C13.4522 36.2717 14.1856 35.905 15.1983 35.905C16.1324 35.905 16.8788 36.2324 17.4375 36.8872C17.9962 37.5419 18.2756 38.4149 18.2756 39.5062C18.2756 40.5712 18.0006 41.4268 17.4506 42.0728C16.9093 42.7101 16.1848 43.0288 15.2768 43.0288C14.3165 43.0288 13.5832 42.6752 13.0768 41.9681V45.3597H11.5971V36.1014H12.9983ZM14.8971 37.1098C14.3121 37.1098 13.8538 37.3193 13.5221 37.7383C13.1903 38.1574 13.0245 38.7379 13.0245 39.48C13.0245 40.2133 13.1903 40.7895 13.5221 41.2085C13.8626 41.6276 14.3296 41.8371 14.9233 41.8371C15.4907 41.8371 15.9403 41.6276 16.2721 41.2085C16.6038 40.7895 16.7697 40.222 16.7697 39.5062C16.7697 38.7729 16.5994 38.1923 16.259 37.7645C15.9272 37.328 15.4733 37.1098 14.8971 37.1098Z" fill="white"/>
<path d="M25.9798 33.5348V42.8585H24.5787V41.9288C24.1509 42.6708 23.4307 43.0419 22.418 43.0419C21.4664 43.0419 20.7069 42.7188 20.1394 42.0728C19.5807 41.4268 19.3013 40.5582 19.3013 39.4669C19.3013 38.3844 19.5763 37.5244 20.1263 36.8872C20.685 36.2411 21.4315 35.9181 22.3656 35.9181C23.3172 35.9181 24.033 36.2717 24.5132 36.9788V33.5348H25.9798ZM22.6406 37.1229C22.0731 37.1229 21.6235 37.3324 21.2918 37.7514C20.9688 38.1617 20.8073 38.7248 20.8073 39.4407C20.8073 40.1828 20.9731 40.7677 21.3049 41.1954C21.6453 41.6232 22.108 41.8371 22.693 41.8371C23.2779 41.8371 23.7318 41.6276 24.0549 41.2085C24.3866 40.7895 24.5525 40.2089 24.5525 39.4669C24.5525 38.7248 24.3822 38.1486 24.0418 37.7383C23.71 37.328 23.243 37.1229 22.6406 37.1229Z" fill="white"/>
<path d="M30.9341 33.5217V34.6741C30.646 34.6479 30.4277 34.6348 30.2793 34.6348C29.9738 34.6348 29.7686 34.6915 29.6639 34.805C29.5591 34.9098 29.5067 35.1237 29.5067 35.4467V36.1014H30.79V37.1883H29.5198V42.8585H28.0401V37.1883H26.927V36.1014H28.0401V35.5645C28.0401 34.8574 28.1928 34.3336 28.4984 33.9931C28.8039 33.6527 29.319 33.4824 30.0436 33.4824C30.3404 33.4824 30.6373 33.4955 30.9341 33.5217Z" fill="white"/>
</svg>
