<svg width="18" height="27" viewBox="0 0 18 27" fill="none" xmlns="http://www.w3.org/2000/svg">
<path d="M8.8501 21.5C3.9701 21.5 0.000123127 17.53 0.000123127 12.65C-0.0298769 6.92 5.43009 2.15 7.78009 0.36C8.41009 -0.12 9.29011 -0.12 9.92011 0.36C12.2701 2.18 17.7301 7.01 17.7001 12.66C17.7001 17.53 13.7301 21.5 8.8501 21.5ZM8.8501 1.5C8.8001 1.5 8.74013 1.52 8.69013 1.56C7.00013 2.85 1.48007 7.46 1.51007 12.65C1.51007 16.71 4.81011 20 8.86011 20C12.9101 20 16.2101 16.71 16.2101 12.66C16.2401 7.54 10.7101 2.87 9.01007 1.56C8.95007 1.52 8.9001 1.5 8.8501 1.5Z" fill="#D61C38"/>
<path d="M8.85156 26.5C8.44156 26.5 8.10156 26.16 8.10156 25.75V5.75C8.10156 5.34 8.44156 5 8.85156 5C9.26156 5 9.60156 5.34 9.60156 5.75V25.75C9.60156 26.16 9.26156 26.5 8.85156 26.5Z" fill="#D61C38"/>
</svg>
