<svg width="18" height="19" viewBox="0 0 18 19" fill="none" xmlns="http://www.w3.org/2000/svg">
<path fill-rule="evenodd" clip-rule="evenodd" d="M0 3.21C0 4.98 1.44001 6.42 3.21001 6.42C4.98001 6.42 6.42 4.98 6.42 3.21C6.42 1.44 4.98001 0 3.21001 0C1.44001 0 0 1.44 0 3.21ZM1.5 3.2C1.5 2.26 2.27001 1.49 3.21001 1.49C4.16001 1.49 4.92 2.26 4.92 3.2C4.92 4.14 4.15001 4.91 3.21001 4.91C2.27001 4.91 1.5 4.14 1.5 3.2ZM11.0781 3.21C11.0781 4.98 12.5181 6.42 14.2881 6.42C16.0581 6.42 17.4981 4.98 17.4981 3.21C17.4981 1.44 16.0581 0 14.2881 0C12.5181 0 11.0781 1.44 11.0781 3.21ZM12.5781 3.2C12.5781 2.26 13.3481 1.49 14.2881 1.49C15.2281 1.49 15.9981 2.26 15.9981 3.2C15.9981 4.14 15.2281 4.91 14.2881 4.91C13.3481 4.91 12.5781 4.14 12.5781 3.2ZM14.2881 18.7286C12.5181 18.7286 11.0781 17.2886 11.0781 15.5186C11.0781 13.7486 12.5181 12.3086 14.2881 12.3086C16.0581 12.3086 17.4981 13.7486 17.4981 15.5186C17.4981 17.2886 16.0581 18.7286 14.2881 18.7286ZM14.2881 13.7986C13.3481 13.7986 12.5781 14.5686 12.5781 15.5086C12.5781 16.4486 13.3481 17.2186 14.2881 17.2186C15.2281 17.2186 15.9981 16.4486 15.9981 15.5086C15.9981 14.5686 15.2281 13.7986 14.2881 13.7986ZM0 15.5186C0 17.2886 1.44001 18.7286 3.21001 18.7286C4.98001 18.7286 6.42 17.2886 6.42 15.5186C6.42 13.7486 4.98001 12.3086 3.21001 12.3086C1.44001 12.3086 0 13.7486 0 15.5186ZM1.5 15.5086C1.5 14.5686 2.27001 13.7986 3.21001 13.7986C4.16001 13.7986 4.92 14.5686 4.92 15.5086C4.92 16.4486 4.15001 17.2186 3.21001 17.2186C2.27001 17.2186 1.5 16.4486 1.5 15.5086Z" fill="#D61C38"/>
</svg>
