<svg width="16" height="9" viewBox="0 0 16 9" fill="none" xmlns="http://www.w3.org/2000/svg">
<path fill-rule="evenodd" clip-rule="evenodd" d="M7.82834 8.96226H8.78468C8.78468 8.96226 9.07348 8.93087 9.22116 8.77421C9.35688 8.63023 9.35254 8.36002 9.35254 8.36002C9.35254 8.36002 9.33384 7.09478 9.92931 6.90845C10.5166 6.7248 11.2705 8.13126 12.0695 8.67211C12.6737 9.08125 13.1329 8.9917 13.1329 8.9917L15.2697 8.96226C15.2697 8.96226 16.3874 8.89426 15.8574 8.02777C15.814 7.95699 15.5486 7.38681 14.2686 6.21534C12.9287 4.9892 13.1083 5.18758 14.7222 3.06667C15.7051 1.77504 16.0979 0.986534 15.9752 0.648835C15.8582 0.327079 15.1352 0.412074 15.1352 0.412074L12.7295 0.426739C12.7295 0.426739 12.551 0.402797 12.4188 0.480792C12.2895 0.557064 12.2065 0.735274 12.2065 0.735274C12.2065 0.735274 11.8256 1.7347 11.318 2.58481C10.2467 4.37835 9.81826 4.47329 9.64315 4.36174C9.23575 4.10215 9.33755 3.31909 9.33755 2.76263C9.33755 1.02442 9.60495 0.299693 8.81685 0.112095C8.55537 0.0498769 8.36274 0.00871287 7.69391 0.00199115C6.83544 -0.00661937 6.10903 0.00460233 5.69763 0.203311C5.42392 0.335468 5.21275 0.629892 5.34144 0.646835C5.50049 0.667723 5.86051 0.742662 6.05139 0.998755C6.298 1.32957 6.28938 2.07218 6.28938 2.07218C6.28938 2.07218 6.43108 4.11832 5.95854 4.37241C5.6343 4.54673 5.18943 4.19087 4.23433 2.56365C3.74506 1.73015 3.37552 0.808713 3.37552 0.808713C3.37552 0.808713 3.30436 0.636558 3.17726 0.544398C3.02311 0.432739 2.80772 0.397353 2.80772 0.397353L0.5215 0.412074C0.5215 0.412074 0.178381 0.421518 0.0522889 0.568674C-0.0598865 0.699665 0.0433314 0.970257 0.0433314 0.970257C0.0433314 0.970257 1.83307 5.09897 3.85978 7.1796C5.7183 9.08747 7.82834 8.96226 7.82834 8.96226Z" fill="white"/>
</svg>
