<svg width="333" height="574" viewBox="0 0 333 574" fill="none" xmlns="http://www.w3.org/2000/svg">
<path d="M196.914 380.894C199.705 378.024 203.93 382.25 201.14 385.04C198.349 387.911 194.123 383.685 196.914 380.894Z" fill="#D61C38"/>
<path d="M111.914 40.8942C114.705 38.0238 118.93 42.2497 116.14 45.0404C113.349 47.9108 109.123 43.6849 111.914 40.8942Z" fill="#D61C38"/>
<path d="M326.914 34.8942C329.705 32.0238 333.93 36.2497 331.14 39.0404C328.349 41.9108 324.123 37.6849 326.914 34.8942Z" fill="#D61C38"/>
<path d="M89.9139 3.95869C92.7046 1.08827 96.9305 5.31416 94.1398 8.10485C91.3491 10.9753 87.1232 6.74937 89.9139 3.95869Z" fill="#D61C38"/>
<path d="M117.914 21.9587C120.705 19.0883 124.93 23.3142 122.14 26.1048C119.349 28.9753 115.123 24.7494 117.914 21.9587Z" fill="#D61C38"/>
<path d="M101.914 71.8942C104.705 69.0238 108.93 73.2497 106.14 76.0404C103.349 78.9108 99.1232 74.6849 101.914 71.8942Z" fill="#D61C38"/>
<path d="M162.914 65.8942C165.705 63.0238 169.93 67.2497 167.14 70.0404C164.349 72.9108 160.123 68.6849 162.914 65.8942Z" fill="#D61C38"/>
<path d="M173.914 24.8942C176.705 22.0238 180.93 26.2497 178.14 29.0404C175.349 31.9108 171.123 27.6849 173.914 24.8942Z" fill="#D61C38"/>
<path d="M181.914 62.8942C184.705 60.0238 188.93 64.2497 186.14 67.0404C183.349 69.9108 179.123 65.6849 181.914 62.8942Z" fill="#D61C38"/>
<path d="M179.914 68.8942C182.705 66.0238 186.93 70.2497 184.14 73.0404C181.349 75.9108 177.123 71.6849 179.914 68.8942Z" fill="#D61C38"/>
<path d="M202.914 74.8942C205.705 72.0238 209.93 76.2497 207.14 79.0404C204.349 81.9108 200.123 77.6849 202.914 74.8942Z" fill="#D61C38"/>
<path d="M228.914 43.8942C231.705 41.0238 235.93 45.2497 233.14 48.0404C230.349 50.9108 226.123 46.6849 228.914 43.8942Z" fill="#D61C38"/>
<path d="M204.914 0.95869C207.705 -1.91173 211.93 2.31416 209.14 5.10485C206.349 7.97526 202.123 3.74937 204.914 0.95869Z" fill="#D61C38"/>
<path d="M170.914 3.95869C173.705 1.08827 177.93 5.31416 175.14 8.10485C172.349 10.9753 168.123 6.74937 170.914 3.95869Z" fill="#D61C38"/>
<path d="M162.914 15.9587C165.705 13.0883 169.93 17.3142 167.14 20.1048C164.349 22.9753 160.123 18.7494 162.914 15.9587Z" fill="#D61C38"/>
<path d="M147.914 12.9587C150.705 10.0883 154.93 14.3142 152.14 17.1048C149.349 19.9753 145.123 15.7494 147.914 12.9587Z" fill="#D61C38"/>
<path d="M158.914 18.9587C161.705 16.0883 165.93 20.3142 163.14 23.1048C160.349 25.9753 156.123 21.7494 158.914 18.9587Z" fill="#D61C38"/>
<path d="M15.9139 502.894C18.7046 500.024 22.9305 504.25 20.1398 507.04C17.3491 509.911 13.1232 505.685 15.9139 502.894Z" fill="#D61C38"/>
<path d="M127.914 568.894C130.705 566.024 134.93 570.25 132.14 573.04C129.349 575.911 125.123 571.685 127.914 568.894Z" fill="#D61C38"/>
<path d="M0.913907 521.894C3.70459 519.024 7.93048 523.25 5.1398 526.04C2.34912 528.911 -1.87678 524.685 0.913907 521.894Z" fill="#D61C38"/>
<path d="M156.914 433.894C159.705 431.024 163.93 435.25 161.14 438.04C158.349 440.911 154.123 436.685 156.914 433.894Z" fill="#D61C38"/>
<path d="M114.914 395.894C117.705 393.024 121.93 397.25 119.14 400.04C116.349 402.911 112.123 398.685 114.914 395.894Z" fill="#D61C38"/>
<path d="M83.9139 354.894C86.7046 352.024 90.9305 356.25 88.1398 359.04C85.3491 361.911 81.1232 357.685 83.9139 354.894Z" fill="#D61C38"/>
<path d="M89.9139 363.894C92.7046 361.024 96.9305 365.25 94.1398 368.04C91.3491 370.911 87.1232 366.685 89.9139 363.894Z" fill="#D61C38"/>
<path d="M103.914 348.894C106.705 346.024 110.93 350.25 108.14 353.04C105.349 355.911 101.123 351.685 103.914 348.894Z" fill="#D61C38"/>
<path d="M86.9139 342.894C89.7046 340.024 93.9305 344.25 91.1398 347.04C88.3491 349.911 84.1232 345.685 86.9139 342.894Z" fill="#D61C38"/>
<path d="M50.9139 395.894C53.7046 393.024 57.9305 397.25 55.1398 400.04C52.3491 402.911 48.1232 398.685 50.9139 395.894Z" fill="#D61C38"/>
<path d="M84.9139 365.894C87.7046 363.024 91.9305 367.25 89.1398 370.04C86.3491 372.911 82.1232 368.685 84.9139 365.894Z" fill="#D61C38"/>
<path d="M144.914 374.894C147.705 372.024 151.93 376.25 149.14 379.04C146.349 381.911 142.123 377.685 144.914 374.894Z" fill="#D61C38"/>
<path d="M140.914 346.894C143.705 344.024 147.93 348.25 145.14 351.04C142.349 353.911 138.123 349.685 140.914 346.894Z" fill="#D61C38"/>
<path d="M178.914 376.894C181.705 374.024 185.93 378.25 183.14 381.04C180.349 383.911 176.123 379.685 178.914 376.894Z" fill="#D61C38"/>
<path d="M171.914 387.894C174.705 385.024 178.93 389.25 176.14 392.04C173.349 394.911 169.123 390.685 171.914 387.894Z" fill="#D61C38"/>
<path d="M168.914 382.894C171.705 380.024 175.93 384.25 173.14 387.04C170.349 389.911 166.123 385.685 168.914 382.894Z" fill="#D61C38"/>
<path d="M160.914 386.894C163.705 384.024 167.93 388.25 165.14 391.04C162.349 393.911 158.123 389.685 160.914 386.894Z" fill="#D61C38"/>
<path d="M162.914 37.8942C165.705 35.0238 169.93 39.2497 167.14 42.0404C164.349 44.9108 160.123 40.6849 162.914 37.8942Z" fill="#D61C38"/>
<path d="M141.914 54.8942C144.705 52.0238 148.93 56.2497 146.14 59.0404C143.349 61.9108 139.123 57.6849 141.914 54.8942Z" fill="#D61C38"/>
<path d="M147.914 68.8942C150.705 66.0238 154.93 70.2497 152.14 73.0404C149.349 75.9108 145.123 71.6849 147.914 68.8942Z" fill="#D61C38"/>
<rect x="31" y="50" width="263" height="506" rx="12" fill="#424A52"/>
<rect x="50" y="70" width="224" height="143" rx="10" fill="#4F5761"/>
<circle cx="253.5" cy="409.5" r="20.5" fill="#3A424A"/>
<path d="M251.5 409.5H256.5" stroke="white" stroke-width="2" stroke-linecap="round" stroke-linejoin="round"/>
<rect x="172" y="495" width="102" height="41" rx="20.5" fill="#D61C38"/>
<path d="M219 513H226" stroke="white" stroke-width="2" stroke-linecap="round" stroke-linejoin="round"/>
<path d="M219 518H226" stroke="white" stroke-width="2" stroke-linecap="round" stroke-linejoin="round"/>
<circle cx="253.5" cy="462.5" r="20.5" fill="#3A424A"/>
<path d="M251.5 462.5H256.5" stroke="white" stroke-width="2" stroke-linecap="round" stroke-linejoin="round"/>
<path d="M254 465L254 460" stroke="white" stroke-width="2" stroke-linecap="round" stroke-linejoin="round"/>
<circle cx="253.5" cy="357.5" r="20.5" fill="#3A424A"/>
<path d="M250 357.5H258" stroke="white" stroke-width="2" stroke-linecap="round" stroke-linejoin="round"/>
<path fill-rule="evenodd" clip-rule="evenodd" d="M254 355C253.448 355 253 354.552 253 354C253 353.448 253.448 353 254 353C254.552 353 255 353.448 255 354C255 354.552 254.552 355 254 355Z" fill="white"/>
<path fill-rule="evenodd" clip-rule="evenodd" d="M254 362C253.448 362 253 361.552 253 361C253 360.448 253.448 360 254 360C254.552 360 255 360.448 255 361C255 361.552 254.552 362 254 362Z" fill="white"/>
<circle cx="253.5" cy="253.5" r="20.5" fill="#D61C38"/>
<path d="M255 248L250.612 252.827C250.265 253.209 250.265 253.791 250.612 254.173L255 259" stroke="white" stroke-width="2" stroke-linecap="round" stroke-linejoin="round"/>
<path opacity="0.5" d="M129.415 88.468H130.135V97H120.865V88.468H121.585V96.328H125.161V88.468H125.881V96.328H129.415V88.468ZM132.538 97V90.952H133.234V95.956C133.258 95.832 133.3 95.728 133.36 95.644L136.48 91.168C136.576 91.024 136.732 90.952 136.948 90.952H137.476V97H136.774V91.69C136.746 91.834 136.716 91.932 136.684 91.984L133.324 96.838C133.256 96.946 133.174 97 133.078 97H132.538ZM142.446 90.856C143.274 90.856 143.956 91.15 144.492 91.738C145.028 92.322 145.296 93.068 145.296 93.976C145.296 94.884 145.008 95.632 144.432 96.22C143.856 96.804 143.122 97.096 142.23 97.096C141.886 97.096 141.552 97.022 141.228 96.874C140.908 96.726 140.628 96.534 140.388 96.298V99.16H139.686V90.952H140.124C140.3 90.952 140.388 91.07 140.388 91.306V91.78C140.94 91.164 141.626 90.856 142.446 90.856ZM142.23 96.388C142.918 96.388 143.484 96.162 143.928 95.71C144.372 95.254 144.594 94.676 144.594 93.976C144.594 93.276 144.38 92.7 143.952 92.248C143.524 91.792 142.98 91.564 142.32 91.564C141.904 91.564 141.542 91.662 141.234 91.858C140.926 92.054 140.644 92.312 140.388 92.632V95.452C140.52 95.672 140.762 95.884 141.114 96.088C141.47 96.288 141.842 96.388 142.23 96.388ZM146.881 97V90.952H147.577V95.956C147.601 95.832 147.643 95.728 147.703 95.644L150.823 91.168C150.919 91.024 151.075 90.952 151.291 90.952H151.819V97H151.117V91.69C151.089 91.834 151.059 91.932 151.027 91.984L147.667 96.838C147.599 96.946 147.517 97 147.421 97H146.881ZM158.188 90.958H158.896V97H158.188V94.312H154.732V97H154.03V90.958H154.732V93.652H158.188V90.958ZM163.424 90.856C164.236 90.856 164.824 91.076 165.188 91.516C165.556 91.956 165.74 92.596 165.74 93.436V97.006H165.446C165.17 97.006 165.032 96.854 165.032 96.55V96.04C164.352 96.752 163.586 97.108 162.734 97.108C162.174 97.108 161.7 96.934 161.312 96.586C160.924 96.238 160.73 95.812 160.73 95.308C160.73 94.72 160.936 94.27 161.348 93.958C161.764 93.646 162.38 93.49 163.196 93.49C163.792 93.49 164.404 93.564 165.032 93.712V93.604C165.032 92.896 164.908 92.378 164.66 92.05C164.416 91.722 163.996 91.558 163.4 91.558C162.844 91.558 162.318 91.702 161.822 91.99C161.718 92.042 161.61 92.054 161.498 92.026C161.386 91.998 161.304 91.94 161.252 91.852L161.126 91.642C161.35 91.414 161.69 91.226 162.146 91.078C162.602 90.93 163.028 90.856 163.424 90.856ZM162.83 96.424C163.59 96.424 164.324 96.08 165.032 95.392V94.282C164.524 94.158 163.944 94.096 163.292 94.096C162.668 94.096 162.198 94.188 161.882 94.372C161.566 94.552 161.408 94.85 161.408 95.266C161.408 95.61 161.538 95.89 161.798 96.106C162.062 96.318 162.406 96.424 162.83 96.424ZM174.674 96.298H176.354V97H172.028V96.298H173.966V89.41C173.942 89.494 173.894 89.574 173.822 89.65L172.778 90.652C172.678 90.752 172.57 90.808 172.454 90.82C172.342 90.828 172.246 90.79 172.166 90.706L171.944 90.46L173.966 88.468H174.674V96.298ZM187.782 90.952H188.274V97H187.572V92.188C187.572 92.136 187.586 92.064 187.614 91.972L185.436 95.968C185.364 96.112 185.252 96.184 185.1 96.184C184.948 96.184 184.834 96.112 184.758 95.968L182.58 91.972C182.608 92.064 182.622 92.136 182.622 92.188V97H181.92V90.952H182.412C182.624 90.952 182.798 91.074 182.934 91.318L185.04 95.098C185.064 95.142 185.084 95.23 185.1 95.362C185.112 95.238 185.13 95.15 185.154 95.098L187.248 91.318C187.384 91.074 187.562 90.952 187.782 90.952ZM194.388 97V88.468H197.406C198.138 88.468 198.738 88.682 199.206 89.11C199.674 89.538 199.908 90.08 199.908 90.736C199.908 91.028 199.85 91.31 199.734 91.582C199.618 91.85 199.442 92.08 199.206 92.272C198.974 92.46 198.706 92.57 198.402 92.602V92.626C198.966 92.65 199.426 92.864 199.782 93.268C200.142 93.672 200.322 94.138 200.322 94.666C200.322 95.326 200.088 95.88 199.62 96.328C199.152 96.772 198.57 96.994 197.874 96.994L194.388 97ZM195.108 92.35H197.52C197.988 92.35 198.384 92.198 198.708 91.894C199.032 91.586 199.194 91.212 199.194 90.772C199.194 90.316 199.026 89.938 198.69 89.638C198.358 89.338 197.928 89.188 197.4 89.188H195.108V92.35ZM195.108 96.28L197.832 96.274C198.34 96.274 198.76 96.118 199.092 95.806C199.428 95.494 199.6 95.102 199.608 94.63C199.612 94.194 199.446 93.826 199.11 93.526C198.778 93.226 198.37 93.076 197.886 93.076H195.108V96.28ZM202.03 90.952H202.732V93.382H204.598C205.158 93.382 205.626 93.554 206.002 93.898C206.382 94.238 206.572 94.668 206.572 95.188C206.572 95.708 206.382 96.14 206.002 96.484C205.626 96.828 205.158 97 204.598 97H202.03V90.952ZM208.456 90.952V97H207.754V90.952H208.456ZM202.732 94.054V96.304H204.556C204.94 96.304 205.254 96.206 205.498 96.01C205.742 95.81 205.864 95.536 205.864 95.188C205.864 94.84 205.742 94.564 205.498 94.36C205.254 94.156 204.94 94.054 204.556 94.054H202.732ZM212.917 97.102C212.021 97.102 211.273 96.804 210.673 96.208C210.077 95.612 209.779 94.868 209.779 93.976C209.779 93.084 210.077 92.342 210.673 91.75C211.273 91.154 212.021 90.856 212.917 90.856C213.293 90.856 213.671 90.926 214.051 91.066C214.435 91.202 214.751 91.394 214.999 91.642L214.843 91.876C214.779 91.968 214.695 92.024 214.591 92.044C214.487 92.064 214.381 92.042 214.273 91.978C213.841 91.698 213.389 91.558 212.917 91.558C212.225 91.558 211.647 91.79 211.183 92.254C210.719 92.714 210.487 93.288 210.487 93.976C210.487 94.664 210.719 95.24 211.183 95.704C211.647 96.164 212.225 96.394 212.917 96.394C213.401 96.394 213.857 96.252 214.285 95.968C214.389 95.904 214.495 95.882 214.603 95.902C214.715 95.922 214.803 95.98 214.867 96.076L215.017 96.298C214.753 96.55 214.433 96.748 214.057 96.892C213.681 97.032 213.301 97.102 212.917 97.102ZM216.848 96.208C216.252 95.612 215.954 94.868 215.954 93.976C215.954 93.084 216.252 92.342 216.848 91.75C217.448 91.154 218.196 90.856 219.092 90.856C219.988 90.856 220.734 91.154 221.33 91.75C221.926 92.342 222.224 93.084 222.224 93.976C222.224 94.872 221.926 95.618 221.33 96.214C220.734 96.806 219.988 97.102 219.092 97.102C218.196 97.102 217.448 96.804 216.848 96.208ZM217.358 92.254C216.894 92.714 216.662 93.288 216.662 93.976C216.662 94.664 216.894 95.24 217.358 95.704C217.822 96.164 218.4 96.394 219.092 96.394C219.784 96.394 220.36 96.164 220.82 95.704C221.284 95.244 221.516 94.668 221.516 93.976C221.516 93.288 221.284 92.714 220.82 92.254C220.36 91.79 219.784 91.558 219.092 91.558C218.4 91.558 217.822 91.79 217.358 92.254ZM222.691 91.63V90.952H227.341V91.63H225.367V97H224.665V91.63H222.691ZM230.924 90.856C231.736 90.856 232.324 91.076 232.688 91.516C233.056 91.956 233.24 92.596 233.24 93.436V97.006H232.946C232.67 97.006 232.532 96.854 232.532 96.55V96.04C231.852 96.752 231.086 97.108 230.234 97.108C229.674 97.108 229.2 96.934 228.812 96.586C228.424 96.238 228.23 95.812 228.23 95.308C228.23 94.72 228.436 94.27 228.848 93.958C229.264 93.646 229.88 93.49 230.696 93.49C231.292 93.49 231.904 93.564 232.532 93.712V93.604C232.532 92.896 232.408 92.378 232.16 92.05C231.916 91.722 231.496 91.558 230.9 91.558C230.344 91.558 229.818 91.702 229.322 91.99C229.218 92.042 229.11 92.054 228.998 92.026C228.886 91.998 228.804 91.94 228.752 91.852L228.626 91.642C228.85 91.414 229.19 91.226 229.646 91.078C230.102 90.93 230.528 90.856 230.924 90.856ZM230.33 96.424C231.09 96.424 231.824 96.08 232.532 95.392V94.282C232.024 94.158 231.444 94.096 230.792 94.096C230.168 94.096 229.698 94.188 229.382 94.372C229.066 94.552 228.908 94.85 228.908 95.266C228.908 95.61 229.038 95.89 229.298 96.106C229.562 96.318 229.906 96.424 230.33 96.424ZM242.054 92.38C242.606 92.476 243.056 92.736 243.404 93.16C243.752 93.58 243.926 94.078 243.926 94.654C243.926 95.37 243.678 95.958 243.182 96.418C242.686 96.874 242.04 97.102 241.244 97.102C240.756 97.102 240.292 96.996 239.852 96.784C239.412 96.568 239.068 96.274 238.82 95.902L238.946 95.692C239.014 95.584 239.1 95.526 239.204 95.518C239.308 95.506 239.412 95.55 239.516 95.65C239.92 96.15 240.488 96.4 241.22 96.4C241.828 96.4 242.314 96.236 242.678 95.908C243.042 95.58 243.224 95.146 243.224 94.606C243.224 94.058 243.032 93.614 242.648 93.274C242.268 92.934 241.782 92.764 241.19 92.764H240.482V92.056H241.19C241.666 92.056 242.05 91.922 242.342 91.654C242.638 91.382 242.786 91.02 242.786 90.568C242.786 90.06 242.64 89.684 242.348 89.44C242.056 89.196 241.686 89.074 241.238 89.074C240.926 89.074 240.632 89.14 240.356 89.272C240.084 89.404 239.868 89.596 239.708 89.848C239.604 89.94 239.506 89.982 239.414 89.974C239.326 89.966 239.248 89.924 239.18 89.848L239.072 89.698C239.272 89.274 239.578 88.946 239.99 88.714C240.402 88.482 240.84 88.366 241.304 88.366C241.936 88.366 242.456 88.554 242.864 88.93C243.272 89.306 243.476 89.828 243.476 90.496C243.476 90.984 243.346 91.394 243.086 91.726C242.83 92.054 242.486 92.272 242.054 92.38ZM255.4 90.952H255.892V97H255.19V92.188C255.19 92.136 255.204 92.064 255.232 91.972L253.054 95.968C252.982 96.112 252.87 96.184 252.718 96.184C252.566 96.184 252.452 96.112 252.376 95.968L250.198 91.972C250.226 92.064 250.24 92.136 250.24 92.188V97H249.538V90.952H250.03C250.242 90.952 250.416 91.074 250.552 91.318L252.658 95.098C252.682 95.142 252.702 95.23 252.718 95.362C252.73 95.238 252.748 95.15 252.772 95.098L254.866 91.318C255.002 91.074 255.18 90.952 255.4 90.952Z" fill="white"/>
<path d="M194.422 154.958H195.13V161H194.422V158.312H190.966V161H190.264V154.958H190.966V157.652H194.422V154.958ZM199.659 154.856C200.471 154.856 201.059 155.076 201.423 155.516C201.791 155.956 201.975 156.596 201.975 157.436V161.006H201.681C201.405 161.006 201.267 160.854 201.267 160.55V160.04C200.587 160.752 199.821 161.108 198.969 161.108C198.409 161.108 197.935 160.934 197.547 160.586C197.159 160.238 196.965 159.812 196.965 159.308C196.965 158.72 197.171 158.27 197.583 157.958C197.999 157.646 198.615 157.49 199.431 157.49C200.027 157.49 200.639 157.564 201.267 157.712V157.604C201.267 156.896 201.143 156.378 200.895 156.05C200.651 155.722 200.231 155.558 199.635 155.558C199.079 155.558 198.553 155.702 198.057 155.99C197.953 156.042 197.845 156.054 197.733 156.026C197.621 155.998 197.539 155.94 197.487 155.852L197.361 155.642C197.585 155.414 197.925 155.226 198.381 155.078C198.837 154.93 199.263 154.856 199.659 154.856ZM199.065 160.424C199.825 160.424 200.559 160.08 201.267 159.392V158.282C200.759 158.158 200.179 158.096 199.527 158.096C198.903 158.096 198.433 158.188 198.117 158.372C197.801 158.552 197.643 158.85 197.643 159.266C197.643 159.61 197.773 159.89 198.033 160.106C198.297 160.318 198.641 160.424 199.065 160.424ZM212.456 160.352H213.248L213.242 161V162.176H212.858C212.682 162.176 212.594 162.072 212.594 161.864V161H207.386V161.84C207.386 162.048 207.298 162.152 207.122 162.152H206.738V160.352H206.846C206.91 160.352 206.984 160.338 207.068 160.31C207.152 160.282 207.248 160.226 207.356 160.142C207.464 160.058 207.562 159.954 207.65 159.83C207.742 159.702 207.824 159.528 207.896 159.308C207.972 159.088 208.02 158.838 208.04 158.558L208.298 154.952H212.456V160.352ZM208.058 160.352H211.748V155.606H208.958L208.736 158.612C208.676 159.388 208.45 159.968 208.058 160.352ZM218.341 157.886C218.681 157.958 218.961 158.126 219.181 158.39C219.401 158.654 219.511 158.962 219.511 159.314C219.511 159.794 219.339 160.196 218.995 160.52C218.655 160.84 218.237 161 217.741 161H214.627V154.952H217.471C217.963 154.952 218.377 155.108 218.713 155.42C219.049 155.732 219.217 156.122 219.217 156.59C219.217 156.878 219.135 157.142 218.971 157.382C218.807 157.618 218.597 157.786 218.341 157.886ZM215.329 155.636V157.628H217.447C217.747 157.628 218.001 157.532 218.209 157.34C218.417 157.148 218.521 156.912 218.521 156.632C218.521 156.352 218.417 156.116 218.209 155.924C218.005 155.732 217.755 155.636 217.459 155.636H215.329ZM218.809 159.278C218.813 158.998 218.707 158.764 218.491 158.576C218.275 158.384 218.013 158.288 217.705 158.288H215.329V160.316H217.711C218.019 160.316 218.279 160.216 218.491 160.016C218.703 159.816 218.809 159.57 218.809 159.278ZM223.389 154.856C224.201 154.856 224.789 155.076 225.153 155.516C225.521 155.956 225.705 156.596 225.705 157.436V161.006H225.411C225.135 161.006 224.997 160.854 224.997 160.55V160.04C224.317 160.752 223.551 161.108 222.699 161.108C222.139 161.108 221.665 160.934 221.277 160.586C220.889 160.238 220.695 159.812 220.695 159.308C220.695 158.72 220.901 158.27 221.313 157.958C221.729 157.646 222.345 157.49 223.161 157.49C223.757 157.49 224.369 157.564 224.997 157.712V157.604C224.997 156.896 224.873 156.378 224.625 156.05C224.381 155.722 223.961 155.558 223.365 155.558C222.809 155.558 222.283 155.702 221.787 155.99C221.683 156.042 221.575 156.054 221.463 156.026C221.351 155.998 221.269 155.94 221.217 155.852L221.091 155.642C221.315 155.414 221.655 155.226 222.111 155.078C222.567 154.93 222.993 154.856 223.389 154.856ZM222.795 160.424C223.555 160.424 224.289 160.08 224.997 159.392V158.282C224.489 158.158 223.909 158.096 223.257 158.096C222.633 158.096 222.163 158.188 221.847 158.372C221.531 158.552 221.373 158.85 221.373 159.266C221.373 159.61 221.503 159.89 221.763 160.106C222.027 160.318 222.371 160.424 222.795 160.424ZM234.092 161.102C233.196 161.102 232.448 160.804 231.848 160.208C231.252 159.612 230.954 158.868 230.954 157.976C230.954 157.084 231.252 156.342 231.848 155.75C232.448 155.154 233.196 154.856 234.092 154.856C234.468 154.856 234.846 154.926 235.226 155.066C235.61 155.202 235.926 155.394 236.174 155.642L236.018 155.876C235.954 155.968 235.87 156.024 235.766 156.044C235.662 156.064 235.556 156.042 235.448 155.978C235.016 155.698 234.564 155.558 234.092 155.558C233.4 155.558 232.822 155.79 232.358 156.254C231.894 156.714 231.662 157.288 231.662 157.976C231.662 158.664 231.894 159.24 232.358 159.704C232.822 160.164 233.4 160.394 234.092 160.394C234.576 160.394 235.032 160.252 235.46 159.968C235.564 159.904 235.67 159.882 235.778 159.902C235.89 159.922 235.978 159.98 236.042 160.076L236.192 160.298C235.928 160.55 235.608 160.748 235.232 160.892C234.856 161.032 234.476 161.102 234.092 161.102ZM242.488 154.952V161H241.786V155.606H238.996L238.714 159.452C238.67 160.024 238.546 160.434 238.342 160.682C238.138 160.93 237.818 161.054 237.382 161.054C237.266 161.054 237.126 161.04 236.962 161.012C236.798 160.988 236.692 160.966 236.644 160.946V160.706C236.644 160.59 236.664 160.502 236.704 160.442C236.748 160.378 236.8 160.346 236.86 160.346C236.9 160.346 236.964 160.352 237.052 160.364C237.14 160.376 237.222 160.382 237.298 160.382C237.51 160.382 237.676 160.308 237.796 160.16C237.916 160.008 237.988 159.754 238.012 159.398L238.342 154.952H242.488ZM244.95 160.208C244.354 159.612 244.056 158.868 244.056 157.976C244.056 157.084 244.354 156.342 244.95 155.75C245.55 155.154 246.298 154.856 247.194 154.856C248.09 154.856 248.836 155.154 249.432 155.75C250.028 156.342 250.326 157.084 250.326 157.976C250.326 158.872 250.028 159.618 249.432 160.214C248.836 160.806 248.09 161.102 247.194 161.102C246.298 161.102 245.55 160.804 244.95 160.208ZM245.46 156.254C244.996 156.714 244.764 157.288 244.764 157.976C244.764 158.664 244.996 159.24 245.46 159.704C245.924 160.164 246.502 160.394 247.194 160.394C247.886 160.394 248.462 160.164 248.922 159.704C249.386 159.244 249.618 158.668 249.618 157.976C249.618 157.288 249.386 156.714 248.922 156.254C248.462 155.79 247.886 155.558 247.194 155.558C246.502 155.558 245.924 155.79 245.46 156.254ZM253.399 154.952H255.901V161H255.193V158.438H253.813L251.965 160.772C251.853 160.924 251.677 161 251.437 161H250.945L252.985 158.396L253.057 158.306C252.633 158.258 252.281 158.084 252.001 157.784C251.725 157.48 251.587 157.118 251.587 156.698C251.587 156.206 251.761 155.792 252.109 155.456C252.461 155.12 252.891 154.952 253.399 154.952ZM255.193 157.754V155.636H253.435C253.111 155.636 252.839 155.738 252.619 155.942C252.399 156.142 252.289 156.394 252.289 156.698C252.289 156.994 252.399 157.244 252.619 157.448C252.839 157.652 253.109 157.754 253.429 157.754H255.193Z" fill="white"/>
<path d="M184.376 125.904V122.8H199.72V125.904H184.376ZM184.376 133.584V130.48H199.72V133.584H184.376ZM222.794 136V130.976H212.138L211.946 128.384C211.924 128.032 212.026 127.691 212.25 127.36L221.61 113.984C221.78 113.739 221.983 113.536 222.218 113.376C222.452 113.216 222.66 113.136 222.842 113.136H225.882V127.888H229.146V130.976H225.882V136H222.794ZM215.146 127.888H222.794V117.232C222.676 117.701 222.506 118.096 222.282 118.416L216.25 126.992C215.951 127.397 215.583 127.696 215.146 127.888ZM255.416 119.712V136H252.344V122.56H246.44L245.816 131.568C245.688 133.232 245.314 134.416 244.696 135.12C244.088 135.813 243.122 136.16 241.799 136.16C241.458 136.16 240.994 136.112 240.408 136.016C239.832 135.931 239.453 135.851 239.271 135.776V134.704C239.271 134.213 239.357 133.835 239.527 133.568C239.698 133.291 239.906 133.152 240.152 133.152C240.333 133.152 240.536 133.173 240.76 133.216C240.994 133.248 241.197 133.264 241.368 133.264C241.752 133.264 242.061 133.131 242.296 132.864C242.541 132.587 242.69 132.085 242.744 131.36L243.56 119.712H255.416Z" fill="white"/>
<circle cx="70.5" cy="357.5" r="20.5" fill="#3A424A"/>
<path d="M67.086 352.29H74.226V352.807C74.226 353.052 74.156 353.32 74.016 353.61L69.816 362.43C69.711 362.65 69.596 362.802 69.471 362.887C69.346 362.967 69.166 363.008 68.931 363.008H67.956L72.021 354.472C72.086 354.327 72.1985 354.182 72.3585 354.037C72.5185 353.887 72.6835 353.787 72.8535 353.737V353.722H67.086V352.29Z" fill="white"/>
<circle cx="70.5" cy="409.5" r="20.5" fill="#3A424A"/>
<path d="M71.6337 415V412.645H66.6387L66.5487 411.43C66.5387 411.265 66.5862 411.105 66.6912 410.95L71.0787 404.68C71.1587 404.565 71.2537 404.47 71.3637 404.395C71.4737 404.32 71.5712 404.282 71.6562 404.282H73.0812V411.197H74.6112V412.645H73.0812V415H71.6337ZM68.0487 411.197H71.6337V406.202C71.5787 406.422 71.4987 406.607 71.3937 406.757L68.5662 410.777C68.4262 410.967 68.2537 411.107 68.0487 411.197Z" fill="white"/>
<circle cx="70.5" cy="462.5" r="20.5" fill="#3A424A"/>
<path d="M72.042 466.56H74.052V468H68.3145V466.56H70.5945V459.3C70.5445 459.435 70.472 459.55 70.377 459.645L69.6645 460.357C69.4645 460.552 69.257 460.657 69.042 460.672C68.832 460.687 68.6495 460.612 68.4945 460.447L68.007 459.922L70.617 457.282H72.042V466.56Z" fill="white"/>
<circle cx="70.5" cy="515.5" r="20.5" fill="#3A424A"/>
<path d="M65.9854 515.645C65.9854 513.93 66.3404 512.585 67.0504 511.61C67.7654 510.635 68.7479 510.147 69.9979 510.147C71.2479 510.147 72.2279 510.635 72.9379 511.61C73.6529 512.585 74.0104 513.93 74.0104 515.645C74.0104 517.36 73.6554 518.705 72.9454 519.68C72.2354 520.65 71.2529 521.135 69.9979 521.135C68.7479 521.135 67.7654 520.648 67.0504 519.672C66.3404 518.697 65.9854 517.355 65.9854 515.645ZM67.4329 515.645C67.4329 516.905 67.6604 517.895 68.1154 518.615C68.5704 519.33 69.1979 519.687 69.9979 519.687C70.7979 519.687 71.4254 519.33 71.8804 518.615C72.3354 517.895 72.5629 516.905 72.5629 515.645C72.5629 514.38 72.3354 513.39 71.8804 512.675C71.4254 511.955 70.7979 511.595 69.9979 511.595C69.1979 511.595 68.5704 511.955 68.1154 512.675C67.6604 513.39 67.4329 514.38 67.4329 515.645Z" fill="white"/>
<circle cx="131.5" cy="357.5" r="20.5" fill="#3A424A"/>
<path d="M132.904 357.172C133.569 357.322 134.109 357.652 134.524 358.162C134.939 358.667 135.147 359.255 135.147 359.925C135.147 360.855 134.804 361.622 134.119 362.227C133.434 362.827 132.562 363.128 131.502 363.128H131.494C130.429 363.128 129.554 362.827 128.869 362.227C128.184 361.622 127.842 360.855 127.842 359.925C127.842 359.255 128.049 358.667 128.464 358.162C128.884 357.652 129.427 357.322 130.092 357.172C129.602 357.027 129.202 356.75 128.892 356.34C128.587 355.93 128.434 355.467 128.434 354.952C128.434 354.132 128.722 353.46 129.297 352.935C129.872 352.41 130.604 352.147 131.494 352.147H131.502C132.392 352.147 133.124 352.412 133.699 352.942C134.274 353.467 134.562 354.137 134.562 354.952C134.562 355.467 134.407 355.93 134.097 356.34C133.792 356.75 133.394 357.027 132.904 357.172ZM131.494 353.595C131.024 353.595 130.637 353.73 130.332 354C130.027 354.27 129.874 354.615 129.874 355.035C129.874 355.455 130.027 355.802 130.332 356.077C130.637 356.347 131.024 356.482 131.494 356.482H131.502C131.972 356.482 132.357 356.347 132.657 356.077C132.962 355.802 133.114 355.455 133.114 355.035C133.114 354.615 132.962 354.27 132.657 354C132.357 353.73 131.972 353.595 131.502 353.595H131.494ZM131.502 361.687C132.147 361.687 132.674 361.515 133.084 361.17C133.499 360.825 133.707 360.38 133.707 359.835C133.707 359.28 133.499 358.822 133.084 358.462C132.669 358.097 132.142 357.915 131.502 357.915H131.494C130.849 357.915 130.319 358.097 129.904 358.462C129.489 358.822 129.282 359.28 129.282 359.835C129.282 360.38 129.489 360.825 129.904 361.17C130.319 361.515 130.849 361.687 131.494 361.687C131.494 361.712 131.497 361.73 131.502 361.74V361.687Z" fill="white"/>
<circle cx="131.5" cy="409.5" r="20.5" fill="#3A424A"/>
<path d="M131.187 415.105C130.587 415.105 129.972 414.985 129.342 414.745C128.717 414.505 128.237 414.227 127.902 413.912L128.195 413.237C128.28 413.047 128.412 412.94 128.592 412.915C128.772 412.89 128.96 412.945 129.155 413.08C129.42 413.255 129.742 413.397 130.122 413.507C130.502 413.617 130.847 413.672 131.157 413.672C131.862 413.672 132.43 413.46 132.86 413.035C133.29 412.605 133.505 412.04 133.505 411.34C133.505 410.7 133.302 410.19 132.897 409.81C132.492 409.425 131.952 409.232 131.277 409.232C130.752 409.232 130.29 409.297 129.89 409.427C129.605 409.512 129.417 409.555 129.327 409.555C129.017 409.555 128.757 409.405 128.547 409.105L129.327 404.282H134.39V405.73H130.572L130.175 408.19C130.325 408.125 130.532 408.065 130.797 408.01C131.067 407.955 131.33 407.927 131.585 407.927C132.575 407.927 133.382 408.25 134.007 408.895C134.637 409.535 134.952 410.35 134.952 411.34C134.952 412.44 134.6 413.342 133.895 414.047C133.19 414.752 132.287 415.105 131.187 415.105Z" fill="white"/>
<circle cx="131.5" cy="462.5" r="20.5" fill="#3A424A"/>
<path d="M131.151 466.552H135.208V468H128.076V467.302C128.076 467.022 128.213 466.75 128.488 466.485L132.606 462.345C132.901 462.05 133.136 461.742 133.311 461.422C133.491 461.097 133.581 460.812 133.581 460.567C133.581 459.992 133.401 459.522 133.041 459.157C132.686 458.787 132.233 458.602 131.683 458.602C131.363 458.602 131.033 458.702 130.693 458.902C130.353 459.097 130.071 459.347 129.846 459.652C129.736 459.807 129.586 459.902 129.396 459.937C129.211 459.967 129.026 459.932 128.841 459.832L128.301 459.525C128.601 458.835 129.068 458.267 129.703 457.822C130.338 457.377 130.998 457.155 131.683 457.155C132.658 457.155 133.458 457.475 134.083 458.115C134.713 458.755 135.028 459.57 135.028 460.56C135.028 460.985 134.908 461.447 134.668 461.947C134.428 462.447 134.108 462.9 133.708 463.305L130.821 466.2L130.131 466.89H130.176C130.321 466.795 130.421 466.732 130.476 466.702C130.531 466.672 130.618 466.64 130.738 466.605C130.863 466.57 131.001 466.552 131.151 466.552Z" fill="white"/>
<circle cx="131.5" cy="515.5" r="20.5" fill="#3A424A"/>
<path d="M131.002 519.05C131.312 519.05 131.562 519.172 131.752 519.417C131.942 519.657 132.037 519.975 132.037 520.37C132.037 521.4 131.552 522.318 130.582 523.123L130.327 522.875C130.127 522.675 130.132 522.47 130.342 522.26C130.757 521.845 130.995 521.448 131.055 521.068C130.965 521.088 130.892 521.098 130.837 521.098C130.602 521.098 130.397 521 130.222 520.805C130.052 520.61 129.967 520.37 129.967 520.085C129.967 519.785 130.065 519.537 130.26 519.342C130.455 519.147 130.702 519.05 131.002 519.05Z" fill="white"/>
<circle cx="253.5" cy="305.5" r="20.5" fill="#3A424A"/>
<path d="M257 302L250 309" stroke="white" stroke-width="2" stroke-linecap="round" stroke-linejoin="round"/>
<path d="M250 302L257 309" stroke="white" stroke-width="2" stroke-linecap="round" stroke-linejoin="round"/>
<circle cx="70.5" cy="305.5" r="20.5" fill="#3A424A"/>
<path d="M71.349 311.135C70.329 311.135 69.3965 310.895 68.5515 310.415C67.7065 309.935 67.0415 309.275 66.5565 308.435C66.0715 307.59 65.829 306.66 65.829 305.645C65.829 304.63 66.0715 303.702 66.5565 302.862C67.0415 302.017 67.7065 301.355 68.5515 300.875C69.3965 300.39 70.329 300.147 71.349 300.147C72.064 300.147 72.769 300.297 73.464 300.597C74.159 300.892 74.744 301.287 75.219 301.782L74.874 302.112C74.694 302.292 74.4965 302.407 74.2815 302.457C74.0665 302.507 73.8515 302.477 73.6365 302.367C72.9515 301.877 72.189 301.632 71.349 301.632C70.604 301.632 69.924 301.807 69.309 302.157C68.694 302.507 68.2065 302.99 67.8465 303.605C67.4915 304.22 67.314 304.9 67.314 305.645C67.314 306.39 67.4915 307.07 67.8465 307.685C68.2065 308.3 68.694 308.782 69.309 309.132C69.924 309.482 70.604 309.657 71.349 309.657C72.194 309.657 72.964 309.402 73.659 308.892C73.874 308.777 74.0915 308.742 74.3115 308.787C74.5365 308.827 74.7415 308.932 74.9265 309.102L75.279 309.44C74.799 309.955 74.2065 310.367 73.5015 310.677C72.8015 310.983 72.084 311.135 71.349 311.135Z" fill="white"/>
<circle cx="131.5" cy="305.5" r="20.5" fill="#3A424A"/>
<path d="M126.38 306.492C126.38 307.382 126.532 308.312 126.837 309.282C127.142 310.252 127.53 311.158 128 311.998C128.195 312.358 128.292 312.618 128.292 312.778C128.292 312.898 128.252 313.01 128.172 313.115C128.097 313.22 128.002 313.293 127.887 313.333L127.385 313.52C126.635 312.535 126.05 311.428 125.63 310.197C125.215 308.962 125.007 307.73 125.007 306.5C125.007 305.245 125.215 303.995 125.63 302.75C126.05 301.505 126.635 300.39 127.385 299.405L127.887 299.592C128.007 299.637 128.105 299.712 128.18 299.817C128.255 299.922 128.292 300.035 128.292 300.155C128.292 300.345 128.195 300.6 128 300.92C127.525 301.715 127.135 302.61 126.83 303.605C126.53 304.595 126.38 305.557 126.38 306.492ZM135.624 306.492C135.624 305.557 135.472 304.595 135.167 303.605C134.867 302.61 134.479 301.715 134.004 300.92C133.809 300.585 133.712 300.33 133.712 300.155C133.712 300.035 133.749 299.922 133.824 299.817C133.899 299.712 133.997 299.637 134.117 299.592L134.619 299.405C135.369 300.39 135.952 301.505 136.367 302.75C136.787 303.995 136.997 305.245 136.997 306.5C136.997 307.73 136.787 308.962 136.367 310.197C135.952 311.428 135.369 312.535 134.619 313.52L134.117 313.333C134.002 313.293 133.904 313.22 133.824 313.115C133.749 313.01 133.712 312.898 133.712 312.778C133.712 312.618 133.809 312.358 134.004 311.998C134.474 311.158 134.862 310.252 135.167 309.282C135.472 308.312 135.624 307.382 135.624 306.492Z" fill="white"/>
<circle cx="192.5" cy="305.5" r="20.5" fill="#3A424A"/>
<path d="M194.612 300.942C194.727 300.732 194.89 300.565 195.1 300.44C195.315 300.315 195.537 300.252 195.767 300.252H196.465L190.427 310.31C190.297 310.52 190.127 310.687 189.917 310.812C189.712 310.937 189.497 311 189.272 311H188.575L194.612 300.942ZM186.595 303.432C186.595 302.462 186.8 301.7 187.21 301.145C187.62 300.59 188.187 300.312 188.912 300.312C189.637 300.312 190.205 300.592 190.615 301.152C191.03 301.707 191.237 302.467 191.237 303.432C191.237 304.397 191.03 305.157 190.615 305.712C190.205 306.262 189.637 306.537 188.912 306.537C188.187 306.537 187.62 306.262 187.21 305.712C186.8 305.157 186.595 304.397 186.595 303.432ZM188.087 302.03C187.887 302.37 187.787 302.837 187.787 303.432C187.787 304.027 187.887 304.495 188.087 304.835C188.287 305.175 188.562 305.345 188.912 305.345C189.262 305.345 189.537 305.175 189.737 304.835C189.942 304.495 190.045 304.027 190.045 303.432C190.045 302.837 189.942 302.37 189.737 302.03C189.537 301.69 189.262 301.52 188.912 301.52C188.562 301.52 188.287 301.69 188.087 302.03ZM193.765 307.977C193.765 307.007 193.97 306.245 194.38 305.69C194.79 305.135 195.357 304.857 196.082 304.857C196.807 304.857 197.375 305.137 197.785 305.697C198.2 306.252 198.407 307.012 198.407 307.977C198.407 308.942 198.2 309.702 197.785 310.257C197.375 310.807 196.807 311.083 196.082 311.083C195.357 311.083 194.79 310.807 194.38 310.257C193.97 309.702 193.765 308.942 193.765 307.977ZM195.257 306.575C195.057 306.915 194.957 307.382 194.957 307.977C194.957 308.572 195.057 309.04 195.257 309.38C195.457 309.72 195.732 309.89 196.082 309.89C196.432 309.89 196.707 309.72 196.907 309.38C197.112 309.04 197.215 308.572 197.215 307.977C197.215 307.382 197.112 306.915 196.907 306.575C196.707 306.235 196.432 306.065 196.082 306.065C195.732 306.065 195.457 306.235 195.257 306.575Z" fill="white"/>
<circle cx="192.5" cy="357.5" r="20.5" fill="#3A424A"/>
<path d="M192.472 352.147C193.482 352.147 194.312 352.46 194.962 353.085C195.612 353.71 195.937 354.507 195.937 355.477C195.937 356.722 195.63 357.98 195.015 359.25C194.405 360.52 193.612 361.63 192.637 362.58C192.347 362.86 191.925 363 191.37 363H190.155C192.07 361.29 193.312 359.707 193.882 358.252C193.397 358.577 192.817 358.74 192.142 358.74C191.222 358.74 190.472 358.43 189.892 357.81C189.312 357.185 189.022 356.405 189.022 355.47C189.022 354.505 189.347 353.71 189.997 353.085C190.647 352.46 191.472 352.147 192.472 352.147ZM191.032 354.12C190.657 354.47 190.47 354.92 190.47 355.47C190.47 356.02 190.657 356.475 191.032 356.835C191.412 357.195 191.895 357.375 192.48 357.375C192.92 357.375 193.315 357.262 193.665 357.037C194.02 356.807 194.282 356.512 194.452 356.152C194.477 356.012 194.49 355.787 194.49 355.477C194.49 354.927 194.3 354.475 193.92 354.12C193.54 353.765 193.057 353.587 192.472 353.587C191.887 353.587 191.407 353.765 191.032 354.12Z" fill="white"/>
<circle cx="192.5" cy="409.5" r="20.5" fill="#3A424A"/>
<path d="M192.862 408.542C193.782 408.542 194.532 408.855 195.112 409.48C195.692 410.1 195.982 410.877 195.982 411.812C195.982 412.777 195.657 413.572 195.007 414.197C194.357 414.822 193.532 415.135 192.532 415.135C191.522 415.135 190.692 414.822 190.042 414.197C189.392 413.572 189.067 412.775 189.067 411.805C189.067 410.56 189.372 409.302 189.982 408.032C190.597 406.762 191.392 405.652 192.367 404.702C192.657 404.422 193.08 404.282 193.635 404.282H194.85C192.935 405.992 191.692 407.575 191.122 409.03C191.607 408.705 192.187 408.542 192.862 408.542ZM191.085 413.162C191.465 413.517 191.947 413.695 192.532 413.695C193.117 413.695 193.597 413.52 193.972 413.17C194.347 412.815 194.535 412.362 194.535 411.812C194.535 411.262 194.345 410.807 193.965 410.447C193.59 410.087 193.11 409.907 192.525 409.907C192.085 409.907 191.687 410.022 191.332 410.252C190.982 410.477 190.722 410.77 190.552 411.13C190.527 411.27 190.515 411.495 190.515 411.805C190.515 412.355 190.705 412.807 191.085 413.162Z" fill="white"/>
<circle cx="192.5" cy="462.5" r="20.5" fill="#3A424A"/>
<path d="M193.726 462.255C194.371 462.375 194.896 462.687 195.301 463.192C195.711 463.697 195.916 464.292 195.916 464.977C195.916 465.902 195.594 466.66 194.949 467.25C194.304 467.835 193.461 468.128 192.421 468.128C191.791 468.128 191.174 467.988 190.569 467.707C189.969 467.427 189.491 467.075 189.136 466.65L189.391 466.2C189.516 465.97 189.684 465.84 189.894 465.81C190.104 465.775 190.314 465.852 190.524 466.042C190.999 466.477 191.611 466.695 192.361 466.695C193.021 466.695 193.539 466.532 193.914 466.207C194.289 465.882 194.476 465.435 194.476 464.865C194.476 464.295 194.281 463.847 193.891 463.522C193.506 463.192 192.991 463.027 192.346 463.027H191.349V461.587H192.346C192.856 461.587 193.256 461.46 193.546 461.205C193.841 460.95 193.989 460.59 193.989 460.125C193.989 459.6 193.836 459.215 193.531 458.97C193.226 458.725 192.829 458.602 192.339 458.602C191.719 458.602 191.154 458.822 190.644 459.262C190.514 459.372 190.384 459.435 190.254 459.45C190.124 459.46 190.009 459.435 189.909 459.375C189.814 459.31 189.731 459.222 189.661 459.112L189.436 458.76C189.751 458.275 190.189 457.885 190.749 457.59C191.314 457.295 191.896 457.147 192.496 457.147C193.341 457.147 194.036 457.402 194.581 457.912C195.126 458.417 195.399 459.1 195.399 459.96C195.399 460.545 195.246 461.042 194.941 461.452C194.636 461.857 194.231 462.125 193.726 462.255Z" fill="white"/>
</svg>
