<svg width="10" height="6" viewBox="0 0 10 6" fill="none" xmlns="http://www.w3.org/2000/svg">
<path d="M0.23676 1.42548C-0.0789199 1.09938 -0.07892 0.570676 0.23676 0.244581C0.552439 -0.0815143 1.06426 -0.0815143 1.37994 0.244581L5.57159 4.57453C5.88727 4.90063 5.88727 5.42933 5.57159 5.75543C5.25591 6.08152 4.74409 6.08152 4.42841 5.75543L0.23676 1.42548Z" fill="#424A52"/>
<path d="M8.62006 0.244572C8.93574 -0.0815238 9.44756 -0.0815239 9.76324 0.244572C10.0789 0.570667 10.0789 1.09937 9.76324 1.42547L5.57159 5.75543C5.25591 6.08152 4.74409 6.08152 4.42841 5.75543C4.11273 5.42933 4.11273 4.90062 4.42841 4.57452L8.62006 0.244572Z" fill="#424A52"/>
</svg>
