<svg width="20" height="20" viewBox="0 0 20 20" fill="none" xmlns="http://www.w3.org/2000/svg">
<path fill-rule="evenodd" clip-rule="evenodd" d="M0 9.75C0 15.1284 4.37163 19.5 9.75 19.5C15.1284 19.5 19.5 15.1284 19.5 9.75C19.5 4.37163 15.1284 0 9.75 0C4.37163 0 0 4.37163 0 9.75ZM1.36047 9.75C1.36047 5.12442 5.12442 1.36047 9.75 1.36047C14.3756 1.36047 18.1395 5.12442 18.1395 9.75C18.1395 14.3756 14.3756 18.1395 9.75 18.1395C5.12442 18.1395 1.36047 14.3756 1.36047 9.75ZM12.7692 13.2153C12.878 13.2878 12.9959 13.315 13.1138 13.315C13.3406 13.315 13.5673 13.1971 13.7034 12.9794C13.8938 12.6529 13.794 12.2357 13.4675 12.0453L10.6559 10.3673C10.3747 10.2041 10.1027 9.7234 10.1027 9.39688V5.67828C10.1027 5.30642 9.79428 4.99805 9.42242 4.99805C9.05056 4.99805 8.74219 5.30642 8.74219 5.67828V9.39688C8.74219 10.2041 9.25916 11.1201 9.95754 11.5373L12.7692 13.2153Z" fill="#D61C38"/>
</svg>
