<svg width="178" height="53" viewBox="0 0 178 53" fill="none" xmlns="http://www.w3.org/2000/svg">
<path d="M170.259 26.9043V34.82H161.59V26.9043H157.852V46.5052H161.59V38.558H170.259V46.5052H173.997V26.9043H170.259Z" fill="#424A52"/>
<path d="M152.139 36.1411C152.673 35.5757 153.584 34.3821 153.584 32.7487C153.584 29.5447 150.883 26.9375 147.553 26.9375H138.727V46.4441H148.967C152.265 46.4441 154.998 43.837 154.998 40.633C154.998 38.7169 153.616 36.9892 152.139 36.1411ZM142.465 30.7069H147.428C148.653 30.7069 149.626 31.6807 149.626 32.8743C149.626 34.0994 148.653 35.0731 147.428 35.0731L142.465 35.0417V30.7069ZM148.841 42.7062H142.465V39.7221V38.3085H148.841C150.066 38.3085 151.071 39.2823 151.071 40.5073C151.071 41.701 150.066 42.7062 148.841 42.7062Z" fill="#424A52"/>
<path d="M64.7156 23.0092C62.1399 23.0092 59.5641 22.0355 57.6166 20.088C55.7633 18.2033 54.7267 15.7217 54.6953 13.0517C54.6953 12.0466 54.8524 11.0728 55.1351 10.099C55.6063 8.52845 56.4544 7.08352 57.6166 5.92129C61.5431 2.02624 67.8882 2.02624 71.7833 5.92129C75.6783 9.84774 75.6783 16.1929 71.7833 20.088C69.8357 22.0355 67.26 23.0092 64.7156 23.0092ZM58.4647 13.0203C58.4647 14.6851 59.0929 16.2557 60.2866 17.418C62.7053 19.8681 66.6946 19.8681 69.1133 17.418C71.5634 14.9993 71.5634 11.01 69.1133 8.59128C66.6946 6.14117 62.7053 6.14117 60.2866 8.59128C59.5327 9.31375 59.0301 10.1933 58.716 11.1984C58.5275 11.7953 58.4333 12.3921 58.4647 13.0203Z" fill="#D61C38"/>
<path d="M40.535 22.7894H36.7656V3H44.0531C48.2623 3 51.6862 6.42387 51.6862 10.633C51.6862 14.8736 48.2623 18.2975 44.0531 18.2975H40.535V22.7894ZM40.535 14.5281H44.0531C46.1891 14.5281 47.9482 12.8004 47.9482 10.633C47.9482 8.49704 46.1891 6.7694 44.0531 6.7694H40.535V14.5281Z" fill="#D61C38"/>
<path d="M75.5857 46.4439C73.1355 47.1349 70.4027 46.8836 67.984 45.5329C65.691 44.2136 63.9947 42.109 63.2723 39.5333C62.9896 38.5909 62.8639 37.5858 62.8953 36.5806C62.9267 34.9472 63.3665 33.3138 64.1832 31.9002C66.8846 27.0943 73.0099 25.3666 77.8159 28.068C82.6219 30.8008 84.3181 36.8947 81.6167 41.7007C80.266 44.1194 78.0672 45.7528 75.5857 46.4439ZM66.8846 38.4967C67.3244 40.0987 68.3924 41.4494 69.8373 42.2347C72.8528 43.9309 76.6537 42.8629 78.3499 39.8788C80.0461 36.8633 78.9781 33.0311 75.9626 31.3348C72.9471 29.67 69.1463 30.738 67.45 33.7221C66.9474 34.6331 66.6647 35.6382 66.6333 36.6748C66.6333 37.2716 66.7276 37.8999 66.8846 38.4967Z" fill="#D61C38"/>
<path d="M90.8876 22.7568H77.8203V3.21875H81.5583V19.0188H88.5317C89.8196 19.0188 90.8876 20.0554 90.8876 21.3747V22.7568Z" fill="#D61C38"/>
<path d="M13.9889 46.6948C11.4446 46.6948 8.86881 45.721 6.92129 43.7735C3.02624 39.8784 3.02624 33.5333 6.92129 29.6068C8.80599 27.7221 11.3189 26.6855 13.9889 26.6855C16.6589 26.6855 19.1718 27.7221 21.088 29.6068L19.8629 30.8319C19.109 31.5858 17.9782 31.7428 17.0673 31.2402C15.5909 30.4235 13.8319 30.2037 12.0728 30.7377C11.7901 30.8319 11.5074 30.9261 11.2561 31.0518C7.2354 33.1249 6.66999 38.2136 9.59128 41.1349C11.6016 43.1453 14.7114 43.4908 17.0987 42.1401C17.9782 41.6375 19.1404 41.826 19.8629 42.5484L21.088 43.7735C19.1404 45.721 16.5647 46.6948 13.9889 46.6948Z" fill="#D61C38"/>
<path d="M106.902 3.15625H103.635C102.85 3.15625 102.096 3.5646 101.656 4.22425L96.7243 12.0143L91.7926 4.22425C91.3529 3.5646 90.6304 3.15625 89.8451 3.15625H86.5469L94.8396 15.9408V22.7571H98.609V15.9408L106.902 3.15625Z" fill="#D61C38"/>
<path d="M103.292 27.9723L96.7268 38.1497L90.1618 27.9723C89.722 27.3126 88.9682 26.9043 88.1829 26.9043H86.0469V46.5052H89.7849V34.3175L96.7268 45.0602L103.669 34.3175V46.5052H107.407V26.9043H105.271C104.486 26.9043 103.732 27.3126 103.292 27.9723Z" fill="#D61C38"/>
<path d="M36.7592 26.9043V34.82H28.0896V26.9043H24.3516V46.5052H28.0896V38.558H36.7592V46.5052H40.5286V26.9043H36.7592Z" fill="#D61C38"/>
<path d="M126.098 30.7051V26.9357L111.586 26.9043V46.5052L126.098 46.4424V42.7044H115.324V38.558H120.758C122.046 38.558 123.114 37.5214 123.114 36.2022V34.82H115.324V30.7051H126.098Z" fill="#D61C38"/>
<path d="M57.7763 41.637C57.4621 41.2601 57.0538 40.9774 56.6454 40.7575C58.6558 39.3754 60.0065 37.0823 60.0065 34.4437C60.0065 30.2346 56.5826 26.7793 52.3734 26.7793H45.0859V46.6001H48.8239V42.0768H52.3734C52.6247 42.0768 52.9074 42.0768 53.1901 42.0454L56.3313 45.7519C56.7711 46.2859 57.4307 46.6001 58.1218 46.6001H61.954L57.7763 41.637ZM48.8239 38.3388V30.5487H52.3734C54.5094 30.5487 56.2371 32.3078 56.2371 34.4437C56.2371 36.5797 54.5094 38.3388 52.3734 38.3388H48.8239Z" fill="#D61C38"/>
<path d="M68.8684 30.0473L65.6016 20.9379L69.0254 19.7129L72.2922 28.8223L68.8684 30.0473Z" fill="#D61C38"/>
<path d="M132.754 50.7469H132.062V22.5078H132.754V50.7469Z" fill="#424A52"/>
</svg>
