<svg width="902" height="500" viewBox="0 0 902 500" fill="none" xmlns="http://www.w3.org/2000/svg">
<rect width="901.965" height="500" transform="matrix(1 0 0 -1 0 500)" fill="#424A52"/>
<path d="M497.445 116.681V231.56L616.112 300.992V184.851L497.445 116.681Z" fill="#464E57" stroke="#464E57" stroke-linejoin="round"/>
<path d="M513.857 111L497.445 116.681L616.007 185L616.112 300.993L632.523 295.312V179.17L513.857 111Z" fill="#3A424A" stroke="#3A424A" stroke-linejoin="round"/>
<path d="M421.629 147.329V262.208L540.295 331.641V215.499L421.629 147.329Z" fill="#4A414E" stroke="#4A414E" stroke-linejoin="round"/>
<path d="M438.04 141.648L421.629 147.329L540.19 215.648L540.295 331.641L556.707 325.96V209.819L438.04 141.648Z" fill="#413944" stroke="#413944" stroke-linejoin="round"/>
<path d="M345.816 174.752V289.631L464.483 359.063V242.922L345.816 174.752Z" fill="#8E4554" stroke="#8E4554" stroke-linejoin="round"/>
<path d="M362.228 169.071L345.816 174.752L464.378 243.071L464.483 359.063L480.894 353.382V237.241L362.228 169.071Z" fill="#763946" stroke="#763946" stroke-linejoin="round"/>
<path d="M270 205.603V320.482L388.666 389.914V273.773L270 205.603Z" fill="#D61C38" stroke="#BD042A" stroke-linejoin="round"/>
<path d="M286.411 199.921L270 205.602L388.561 273.921L388.666 389.913L405.078 384.233V268.091L286.411 199.921Z" fill="#BD042A" stroke="#BD042A" stroke-linejoin="round"/>
</svg>
