<svg width="902" height="500" viewBox="0 0 902 500" fill="none" xmlns="http://www.w3.org/2000/svg">
<rect width="901.965" height="500" transform="matrix(1 0 0 -1 0 500)" fill="#EAEBEC"/>
<rect x="459.562" y="414.525" width="87.2218" height="35.0598" rx="17.5299" fill="#D61C38"/>
<path fill-rule="evenodd" clip-rule="evenodd" d="M498.898 429.918C498.898 429.445 499.281 429.062 499.754 429.062H505.739C506.212 429.062 506.594 429.445 506.594 429.918C506.594 430.39 506.212 430.773 505.739 430.773H499.754C499.281 430.773 498.898 430.39 498.898 429.918Z" fill="white"/>
<path fill-rule="evenodd" clip-rule="evenodd" d="M498.898 434.193C498.898 433.721 499.281 433.338 499.754 433.338H505.739C506.212 433.338 506.594 433.721 506.594 434.193C506.594 434.665 506.212 435.048 505.739 435.048H499.754C499.281 435.048 498.898 434.665 498.898 434.193Z" fill="white"/>
<g opacity="0.5">
<path d="M423.155 66.8919H423.771V74.1878H415.844V66.8919H416.459V73.6131H419.517V66.8919H420.133V73.6131H423.155V66.8919Z" fill="white"/>
<path d="M425.826 74.1878V69.016H426.421V73.295C426.441 73.189 426.477 73.1001 426.529 73.0282L429.196 69.2007C429.279 69.0776 429.412 69.016 429.597 69.016H430.048V74.1878H429.448V69.6471C429.424 69.7702 429.398 69.854 429.371 69.8985L426.498 74.0492C426.44 74.1416 426.369 74.1878 426.287 74.1878H425.826Z" fill="white"/>
<path d="M434.298 68.9339C435.007 68.9339 435.59 69.1853 436.048 69.6881C436.506 70.1875 436.736 70.8254 436.736 71.6019C436.736 72.3783 436.489 73.018 435.997 73.5208C435.504 74.0202 434.877 74.2699 434.114 74.2699C433.82 74.2699 433.534 74.2066 433.257 74.08C432.983 73.9535 432.744 73.7893 432.539 73.5875V76.0348H431.938V69.016H432.313C432.463 69.016 432.539 69.1169 432.539 69.3187V69.7241C433.011 69.1973 433.597 68.9339 434.298 68.9339ZM434.114 73.6644C434.702 73.6644 435.186 73.4712 435.566 73.0847C435.945 72.6947 436.135 72.2005 436.135 71.6019C436.135 71.0033 435.952 70.5108 435.586 70.1242C435.22 69.7343 434.755 69.5393 434.191 69.5393C433.835 69.5393 433.525 69.6231 433.262 69.7908C432.999 69.9584 432.758 70.179 432.539 70.4526V72.864C432.652 73.0522 432.858 73.2335 433.159 73.4079C433.464 73.5789 433.782 73.6644 434.114 73.6644Z" fill="white"/>
<path d="M438.091 74.1878V69.016H438.686V73.295C438.707 73.189 438.743 73.1001 438.794 73.0282L441.462 69.2007C441.544 69.0776 441.678 69.016 441.862 69.016H442.314V74.1878H441.713V69.6471C441.689 69.7702 441.664 69.854 441.636 69.8985L438.763 74.0492C438.705 74.1416 438.635 74.1878 438.553 74.1878H438.091Z" fill="white"/>
<path d="M447.759 69.0211H448.365V74.1878H447.759V71.8892H444.804V74.1878H444.204V69.0211H444.804V71.3248H447.759V69.0211Z" fill="white"/>
<path d="M452.237 68.9339C452.932 68.9339 453.434 69.1221 453.746 69.4983C454.06 69.8746 454.218 70.4218 454.218 71.1401V74.1929H453.966C453.73 74.1929 453.612 74.0629 453.612 73.803V73.3668C453.031 73.9757 452.376 74.2801 451.647 74.2801C451.168 74.2801 450.763 74.1313 450.431 73.8337C450.099 73.5362 449.934 73.1719 449.934 72.7409C449.934 72.2381 450.11 71.8533 450.462 71.5865C450.818 71.3197 451.344 71.1863 452.042 71.1863C452.552 71.1863 453.075 71.2496 453.612 71.3761V71.2838C453.612 70.6784 453.506 70.2354 453.294 69.9549C453.085 69.6745 452.726 69.5342 452.217 69.5342C451.741 69.5342 451.291 69.6574 450.867 69.9036C450.778 69.9481 450.686 69.9584 450.59 69.9344C450.494 69.9105 450.424 69.8609 450.38 69.7856L450.272 69.606C450.464 69.4111 450.754 69.2503 451.144 69.1238C451.534 68.9972 451.899 68.9339 452.237 68.9339ZM451.729 73.6952C452.379 73.6952 453.007 73.4011 453.612 72.8127V71.8636C453.178 71.7575 452.682 71.7045 452.124 71.7045C451.591 71.7045 451.189 71.7832 450.919 71.9405C450.648 72.0944 450.513 72.3493 450.513 72.705C450.513 72.9991 450.624 73.2386 450.847 73.4233C451.073 73.6046 451.367 73.6952 451.729 73.6952Z" fill="white"/>
<path d="M461.857 73.5875H463.293V74.1878H459.594V73.5875H461.251V67.6974C461.231 67.7693 461.19 67.8377 461.128 67.9027L460.235 68.7595C460.15 68.845 460.058 68.8929 459.958 68.9031C459.863 68.91 459.781 68.8775 459.712 68.8057L459.522 68.5953L461.251 66.8919H461.857V73.5875Z" fill="white"/>
<path d="M473.066 69.016H473.487V74.1878H472.887V70.0729C472.887 70.0285 472.899 69.9669 472.923 69.8882L471.06 73.3053C470.999 73.4284 470.903 73.49 470.773 73.49C470.643 73.49 470.545 73.4284 470.48 73.3053L468.618 69.8882C468.642 69.9669 468.654 70.0285 468.654 70.0729V74.1878H468.054V69.016H468.474C468.656 69.016 468.804 69.1203 468.921 69.329L470.722 72.5613C470.742 72.599 470.759 72.6742 470.773 72.7871C470.783 72.681 470.799 72.6058 470.819 72.5613L472.61 69.329C472.726 69.1203 472.878 69.016 473.066 69.016Z" fill="white"/>
<path d="M478.715 74.1878V66.8919H481.296C481.922 66.8919 482.435 67.0749 482.835 67.4409C483.235 67.8069 483.435 68.2704 483.435 68.8313C483.435 69.081 483.385 69.3221 483.286 69.5547C483.187 69.7839 483.037 69.9806 482.835 70.1448C482.636 70.3055 482.407 70.3996 482.147 70.427V70.4475C482.63 70.468 483.023 70.651 483.327 70.9965C483.635 71.3419 483.789 71.7404 483.789 72.1919C483.789 72.7563 483.589 73.23 483.189 73.6131C482.789 73.9928 482.291 74.1826 481.696 74.1826L478.715 74.1878ZM479.331 70.2115H481.393C481.793 70.2115 482.132 70.0815 482.409 69.8215C482.686 69.5582 482.825 69.2383 482.825 68.8621C482.825 68.4722 482.681 68.1489 482.394 67.8924C482.11 67.6359 481.742 67.5076 481.29 67.5076H479.331V70.2115ZM479.331 73.5721L481.66 73.5669C482.094 73.5669 482.453 73.4335 482.737 73.1668C483.025 72.9 483.172 72.5647 483.179 72.1611C483.182 71.7883 483.04 71.4736 482.753 71.2171C482.469 70.9606 482.12 70.8323 481.706 70.8323H479.331V73.5721Z" fill="white"/>
<path d="M485.249 69.016H485.85V71.0939H487.445C487.924 71.0939 488.324 71.241 488.646 71.5352C488.971 71.8259 489.133 72.1936 489.133 72.6383C489.133 73.0829 488.971 73.4524 488.646 73.7465C488.324 74.0407 487.924 74.1878 487.445 74.1878H485.249V69.016ZM490.744 69.016V74.1878H490.144V69.016H490.744ZM485.85 71.6686V73.5926H487.41C487.738 73.5926 488.006 73.5088 488.215 73.3412C488.424 73.1702 488.528 72.9359 488.528 72.6383C488.528 72.3407 488.424 72.1047 488.215 71.9303C488.006 71.7558 487.738 71.6686 487.41 71.6686H485.85Z" fill="white"/>
<path d="M494.559 74.275C493.793 74.275 493.153 74.0202 492.64 73.5105C492.131 73.0009 491.876 72.3647 491.876 71.6019C491.876 70.8391 492.131 70.2046 492.64 69.6984C493.153 69.1888 493.793 68.9339 494.559 68.9339C494.881 68.9339 495.204 68.9938 495.529 69.1135C495.857 69.2298 496.127 69.394 496.339 69.606L496.206 69.8061C496.151 69.8848 496.079 69.9327 495.991 69.9498C495.902 69.9669 495.811 69.9481 495.719 69.8934C495.349 69.6539 494.963 69.5342 494.559 69.5342C493.967 69.5342 493.473 69.7326 493.076 70.1294C492.68 70.5227 492.481 71.0136 492.481 71.6019C492.481 72.1902 492.68 72.6828 493.076 73.0795C493.473 73.4729 493.967 73.6696 494.559 73.6696C494.973 73.6696 495.363 73.5481 495.729 73.3053C495.818 73.2506 495.908 73.2317 496.001 73.2488C496.097 73.2659 496.172 73.3155 496.227 73.3976L496.355 73.5875C496.129 73.803 495.855 73.9723 495.534 74.0954C495.212 74.2151 494.887 74.275 494.559 74.275Z" fill="white"/>
<path d="M497.921 73.5105C497.412 73.0009 497.157 72.3647 497.157 71.6019C497.157 70.8391 497.412 70.2046 497.921 69.6984C498.434 69.1888 499.074 68.9339 499.84 68.9339C500.606 68.9339 501.244 69.1888 501.754 69.6984C502.263 70.2046 502.518 70.8391 502.518 71.6019C502.518 72.3681 502.263 73.006 501.754 73.5156C501.244 74.0219 500.606 74.275 499.84 74.275C499.074 74.275 498.434 74.0202 497.921 73.5105ZM498.357 70.1294C497.961 70.5227 497.762 71.0136 497.762 71.6019C497.762 72.1902 497.961 72.6828 498.357 73.0795C498.754 73.4729 499.248 73.6696 499.84 73.6696C500.432 73.6696 500.924 73.4729 501.318 73.0795C501.714 72.6862 501.913 72.1936 501.913 71.6019C501.913 71.0136 501.714 70.5227 501.318 70.1294C500.924 69.7326 500.432 69.5342 499.84 69.5342C499.248 69.5342 498.754 69.7326 498.357 70.1294Z" fill="white"/>
<path d="M502.917 69.5958V69.016H506.894V69.5958H505.206V74.1878H504.605V69.5958H502.917Z" fill="white"/>
<path d="M509.958 68.9339C510.652 68.9339 511.155 69.1221 511.466 69.4983C511.781 69.8746 511.938 70.4218 511.938 71.1401V74.1929H511.687C511.451 74.1929 511.333 74.0629 511.333 73.803V73.3668C510.751 73.9757 510.096 74.2801 509.368 74.2801C508.889 74.2801 508.483 74.1313 508.152 73.8337C507.82 73.5362 507.654 73.1719 507.654 72.7409C507.654 72.2381 507.83 71.8533 508.182 71.5865C508.538 71.3197 509.065 71.1863 509.763 71.1863C510.272 71.1863 510.796 71.2496 511.333 71.3761V71.2838C511.333 70.6784 511.227 70.2354 511.014 69.9549C510.806 69.6745 510.447 69.5342 509.937 69.5342C509.462 69.5342 509.012 69.6574 508.588 69.9036C508.499 69.9481 508.406 69.9584 508.311 69.9344C508.215 69.9105 508.145 69.8609 508.1 69.7856L507.993 69.606C508.184 69.4111 508.475 69.2503 508.865 69.1238C509.255 68.9972 509.619 68.9339 509.958 68.9339ZM509.45 73.6952C510.1 73.6952 510.727 73.4011 511.333 72.8127V71.8636C510.898 71.7575 510.402 71.7045 509.845 71.7045C509.311 71.7045 508.909 71.7832 508.639 71.9405C508.369 72.0944 508.234 72.3493 508.234 72.705C508.234 72.9991 508.345 73.2386 508.567 73.4233C508.793 73.6046 509.087 73.6952 509.45 73.6952Z" fill="white"/>
<path d="M519.475 70.2371C519.947 70.3192 520.331 70.5415 520.629 70.9041C520.927 71.2633 521.075 71.6891 521.075 72.1817C521.075 72.7939 520.863 73.2967 520.439 73.6901C520.015 74.08 519.463 74.275 518.782 74.275C518.365 74.275 517.968 74.1843 517.592 74.0031C517.215 73.8183 516.921 73.5669 516.709 73.2488L516.817 73.0693C516.875 72.9769 516.949 72.9273 517.037 72.9205C517.126 72.9102 517.215 72.9478 517.304 73.0334C517.65 73.4609 518.135 73.6747 518.761 73.6747C519.281 73.6747 519.697 73.5345 520.008 73.254C520.319 72.9735 520.475 72.6024 520.475 72.1406C520.475 71.672 520.311 71.2923 519.982 71.0016C519.658 70.7109 519.242 70.5655 518.736 70.5655H518.13V69.9601H518.736C519.143 69.9601 519.471 69.8455 519.721 69.6163C519.974 69.3837 520.1 69.0742 520.1 68.6877C520.1 68.2533 519.976 67.9317 519.726 67.7231C519.476 67.5144 519.16 67.4101 518.777 67.4101C518.51 67.4101 518.259 67.4665 518.023 67.5794C517.79 67.6923 517.605 67.8565 517.468 68.072C517.379 68.1506 517.296 68.1866 517.217 68.1797C517.142 68.1729 517.075 68.137 517.017 68.072L516.925 67.9437C517.096 67.5811 517.357 67.3007 517.71 67.1023C518.062 66.9039 518.436 66.8047 518.833 66.8047C519.374 66.8047 519.818 66.9654 520.167 67.287C520.516 67.6085 520.69 68.0549 520.69 68.6261C520.69 69.0434 520.579 69.394 520.357 69.6779C520.138 69.9584 519.844 70.1448 519.475 70.2371Z" fill="white"/>
<path d="M530.887 69.016H531.308V74.1878H530.707V70.0729C530.707 70.0285 530.719 69.9669 530.743 69.8882L528.881 73.3053C528.819 73.4284 528.723 73.49 528.593 73.49C528.463 73.49 528.366 73.4284 528.301 73.3053L526.439 69.8882C526.463 69.9669 526.474 70.0285 526.474 70.0729V74.1878H525.874V69.016H526.295C526.476 69.016 526.625 69.1203 526.741 69.329L528.542 72.5613C528.563 72.599 528.58 72.6742 528.593 72.7871C528.604 72.681 528.619 72.6058 528.64 72.5613L530.43 69.329C530.547 69.1203 530.699 69.016 530.887 69.016Z" fill="white"/>
</g>
<circle cx="372.764" cy="432.055" r="17.5299" fill="#3A424A"/>
<path d="M368.906 432.18C368.906 430.713 369.21 429.563 369.817 428.729C370.428 427.895 371.269 427.479 372.337 427.479C373.406 427.479 374.244 427.895 374.851 428.729C375.463 429.563 375.769 430.713 375.769 432.18C375.769 433.646 375.465 434.796 374.858 435.63C374.251 436.459 373.411 436.874 372.337 436.874C371.269 436.874 370.428 436.457 369.817 435.623C369.21 434.79 368.906 433.642 368.906 432.18ZM370.144 432.18C370.144 433.257 370.339 434.104 370.728 434.719C371.117 435.331 371.653 435.636 372.337 435.636C373.021 435.636 373.558 435.331 373.947 434.719C374.336 434.104 374.531 433.257 374.531 432.18C374.531 431.098 374.336 430.251 373.947 429.64C373.558 429.024 373.021 428.716 372.337 428.716C371.653 428.716 371.117 429.024 370.728 429.64C370.339 430.251 370.144 431.098 370.144 432.18Z" fill="white"/>
<circle cx="424.936" cy="432.055" r="17.5299" fill="#3A424A"/>
<path d="M424.51 435.092C424.775 435.092 424.989 435.197 425.151 435.406C425.314 435.611 425.395 435.883 425.395 436.221C425.395 437.101 424.98 437.886 424.151 438.574L423.933 438.363C423.762 438.192 423.766 438.016 423.946 437.837C424.301 437.482 424.504 437.142 424.555 436.817C424.478 436.834 424.416 436.843 424.369 436.843C424.168 436.843 423.993 436.759 423.843 436.593C423.698 436.426 423.625 436.221 423.625 435.977C423.625 435.72 423.708 435.509 423.875 435.342C424.042 435.175 424.254 435.092 424.51 435.092Z" fill="white"/>
<path d="M388.985 276.438C391.439 278.824 387.826 282.438 385.439 280.052C382.985 277.665 386.599 274.052 388.985 276.438Z" fill="#D61C38"/>
<path d="M594.446 203.754C596.9 206.141 593.287 209.754 590.9 207.368C588.446 204.982 592.059 201.368 594.446 203.754Z" fill="#D61C38"/>
<path d="M599.579 387.604C602.033 389.99 598.42 393.604 596.033 391.218C593.579 388.831 597.192 385.218 599.579 387.604Z" fill="#D61C38"/>
<path d="M667.93 266.178C670.385 268.565 666.771 272.178 664.385 269.792C661.93 267.406 665.544 263.792 667.93 266.178Z" fill="#D61C38"/>
<path d="M626.032 184.942C628.486 187.328 624.873 190.942 622.486 188.556C620.032 186.169 623.645 182.556 626.032 184.942Z" fill="#D61C38"/>
<path d="M610.641 208.885C613.096 211.272 609.482 214.885 607.096 212.499C604.641 210.113 608.255 206.499 610.641 208.885Z" fill="#D61C38"/>
<path d="M567.938 195.204C570.393 197.59 566.779 201.204 564.393 198.817C561.938 196.431 565.552 192.817 567.938 195.204Z" fill="#D61C38"/>
<path d="M573.071 247.366C575.525 249.752 571.912 253.366 569.525 250.979C567.071 248.593 570.684 244.979 573.071 247.366Z" fill="#D61C38"/>
<path d="M608.126 256.772C610.58 259.158 606.966 262.772 604.58 260.386C602.126 257.999 605.739 254.386 608.126 256.772Z" fill="#D61C38"/>
<path d="M575.633 263.612C578.088 265.998 574.474 269.612 572.088 267.225C569.633 264.839 573.247 261.225 575.633 263.612Z" fill="#D61C38"/>
<path d="M570.501 261.903C572.955 264.289 569.341 267.903 566.955 265.516C564.501 263.13 568.114 259.517 570.501 261.903Z" fill="#D61C38"/>
<path d="M565.368 281.569C567.822 283.955 564.209 287.569 561.822 285.183C559.368 282.796 562.981 279.183 565.368 281.569Z" fill="#D61C38"/>
<path d="M591.883 303.803C594.338 306.19 590.724 309.803 588.338 307.417C585.883 305.031 589.497 301.417 591.883 303.803Z" fill="#D61C38"/>
<path d="M628.594 283.28C631.049 285.666 627.435 289.28 625.049 286.893C622.594 284.507 626.208 280.893 628.594 283.28Z" fill="#D61C38"/>
<path d="M645.696 256.772C648.15 259.158 644.537 262.772 642.15 260.386C639.696 257.999 643.309 254.386 645.696 256.772Z" fill="#D61C38"/>
<path d="M626.032 254.206C628.486 256.592 624.873 260.206 622.486 257.819C620.032 255.433 623.645 251.819 626.032 254.206Z" fill="#D61C38"/>
<path d="M615.766 247.366C618.221 249.752 614.607 253.366 612.221 250.979C609.766 248.593 613.38 244.979 615.766 247.366Z" fill="#D61C38"/>
<path d="M618.336 234.538C620.791 236.924 617.177 240.538 614.791 238.151C612.336 235.765 615.95 232.151 618.336 234.538Z" fill="#D61C38"/>
<path d="M613.204 243.944C615.658 246.33 612.045 249.944 609.658 247.558C607.204 245.171 610.817 241.558 613.204 243.944Z" fill="#D61C38"/>
<path d="M341.649 121.663C344.103 124.049 340.49 127.663 338.104 125.276C335.649 122.89 339.263 119.276 341.649 121.663Z" fill="#D61C38"/>
<path d="M270.672 221.711C273.127 224.098 269.513 227.711 267.127 225.325C264.672 222.939 268.286 219.325 270.672 221.711Z" fill="#D61C38"/>
<path d="M285.211 217.436C287.666 219.822 284.052 223.436 281.666 221.05C279.211 218.663 282.825 215.05 285.211 217.436Z" fill="#D61C38"/>
<path d="M219.368 115.676C221.822 118.063 218.209 121.676 215.822 119.29C213.368 116.904 216.981 113.29 219.368 115.676Z" fill="#D61C38"/>
<path d="M325.399 108.836C327.853 111.223 324.24 114.836 321.854 112.45C319.399 110.064 323.013 106.45 325.399 108.836Z" fill="#D61C38"/>
<path d="M343.665 242.235C346.119 244.621 342.505 248.235 340.119 245.849C337.665 243.462 341.278 239.849 343.665 242.235Z" fill="#D61C38"/>
<path d="M376.157 206.319C378.611 208.705 374.998 212.319 372.611 209.933C370.157 207.546 373.77 203.933 376.157 206.319Z" fill="#D61C38"/>
<path d="M411.219 179.811C413.674 182.197 410.06 185.811 407.674 183.425C405.219 181.038 408.833 177.425 411.219 179.811Z" fill="#D61C38"/>
<path d="M403.524 184.942C405.978 187.328 402.365 190.942 399.979 188.556C397.524 186.169 401.138 182.556 403.524 184.942Z" fill="#D61C38"/>
<path d="M416.352 196.913C418.807 199.299 415.193 202.913 412.807 200.526C410.352 198.14 413.966 194.526 416.352 196.913Z" fill="#D61C38"/>
<path d="M421.485 182.376C423.939 184.762 420.326 188.376 417.939 185.989C415.485 183.603 419.099 179.989 421.485 182.376Z" fill="#D61C38"/>
<path d="M376.157 151.592C378.611 153.979 374.998 157.592 372.611 155.206C370.157 152.82 373.77 149.206 376.157 151.592Z" fill="#D61C38"/>
<path d="M401.813 180.667C404.268 183.053 400.654 186.667 398.268 184.28C395.813 181.894 399.427 178.28 401.813 180.667Z" fill="#D61C38"/>
<path d="M394.118 231.973C396.572 234.36 392.959 237.973 390.572 235.587C388.118 233.2 391.731 229.587 394.118 231.973Z" fill="#D61C38"/>
<path d="M418.063 228.553C420.518 230.94 416.904 234.553 414.518 232.167C412.063 229.781 415.677 226.167 418.063 228.553Z" fill="#D61C38"/>
<path d="M392.407 261.047C394.861 263.434 391.248 267.047 388.861 264.661C386.407 262.275 390.02 258.661 392.407 261.047Z" fill="#D61C38"/>
<path d="M383.001 255.061C385.455 257.447 381.841 261.061 379.455 258.675C377.001 256.288 380.614 252.675 383.001 255.061Z" fill="#D61C38"/>
<path d="M387.274 252.497C389.728 254.883 386.115 258.497 383.729 256.11C381.274 253.724 384.888 250.11 387.274 252.497Z" fill="#D61C38"/>
<path d="M383.86 245.655C386.314 248.041 382.701 251.655 380.314 249.268C377.86 246.882 381.474 243.268 383.86 245.655Z" fill="#D61C38"/>
<path d="M597.008 247.366C599.463 249.752 595.849 253.366 593.463 250.979C591.008 248.593 594.622 244.979 597.008 247.366Z" fill="#D61C38"/>
<path d="M582.477 229.407C584.932 231.793 581.318 235.407 578.932 233.02C576.477 230.634 580.091 227.02 582.477 229.407Z" fill="#D61C38"/>
<path d="M570.501 234.538C572.955 236.924 569.341 240.538 566.955 238.151C564.501 235.765 568.114 232.151 570.501 234.538Z" fill="#D61C38"/>
<rect x="339" y="34" width="224.896" height="432.689" rx="12" fill="#424A52"/>
<rect x="355.25" y="51.1016" width="191.546" height="122.282" rx="10" fill="#4F5761"/>
<circle cx="529.256" cy="341.413" r="17.5299" fill="#3A424A"/>
<path fill-rule="evenodd" clip-rule="evenodd" d="M526.688 341.412C526.688 340.939 527.07 340.557 527.543 340.557H531.818C532.29 340.557 532.673 340.939 532.673 341.412C532.673 341.884 532.29 342.267 531.818 342.267H527.543C527.07 342.267 526.688 341.884 526.688 341.412Z" fill="white"/>
<circle cx="529.256" cy="386.733" r="17.5299" fill="#3A424A"/>
<path fill-rule="evenodd" clip-rule="evenodd" d="M526.688 386.732C526.688 386.26 527.07 385.877 527.543 385.877H531.818C532.29 385.877 532.673 386.26 532.673 386.732C532.673 387.204 532.29 387.587 531.818 387.587H527.543C527.07 387.587 526.688 387.204 526.688 386.732Z" fill="white"/>
<path fill-rule="evenodd" clip-rule="evenodd" d="M529.683 389.727C529.211 389.727 528.828 389.344 528.828 388.871L528.828 384.596C528.828 384.124 529.211 383.741 529.683 383.741C530.156 383.741 530.538 384.124 530.538 384.596L530.538 388.871C530.538 389.344 530.156 389.727 529.683 389.727Z" fill="white"/>
<circle cx="529.256" cy="296.946" r="17.5299" fill="#3A424A"/>
<path fill-rule="evenodd" clip-rule="evenodd" d="M525.406 296.945C525.406 296.473 525.789 296.09 526.261 296.09H533.102C533.575 296.09 533.957 296.473 533.957 296.945C533.957 297.417 533.575 297.8 533.102 297.8H526.261C525.789 297.8 525.406 297.417 525.406 296.945Z" fill="white"/>
<path fill-rule="evenodd" clip-rule="evenodd" d="M529.683 294.808C529.211 294.808 528.828 294.425 528.828 293.953C528.828 293.481 529.211 293.098 529.683 293.098C530.156 293.098 530.538 293.481 530.538 293.953C530.538 294.425 530.156 294.808 529.683 294.808Z" fill="white"/>
<path fill-rule="evenodd" clip-rule="evenodd" d="M529.683 300.794C529.211 300.794 528.828 300.411 528.828 299.939C528.828 299.467 529.211 299.084 529.683 299.084C530.156 299.084 530.538 299.467 530.538 299.939C530.538 300.411 530.156 300.794 529.683 300.794Z" fill="white"/>
<circle cx="529.256" cy="208.014" r="17.5299" fill="#D61C38"/>
<path fill-rule="evenodd" clip-rule="evenodd" d="M531.167 202.732C531.486 203.081 531.462 203.621 531.114 203.941L526.671 208.013L531.114 212.086C531.462 212.405 531.486 212.946 531.167 213.294C530.848 213.642 530.307 213.666 529.959 213.347L525.516 209.274C524.776 208.596 524.776 207.43 525.516 206.753L529.959 202.68C530.307 202.361 530.848 202.384 531.167 202.732Z" fill="white"/>
<path d="M478.743 123.749H479.348V128.916H478.743V126.617H475.788V128.916H475.188V123.749H475.788V126.053H478.743V123.749Z" fill="white"/>
<path d="M483.221 123.662C483.915 123.662 484.418 123.85 484.729 124.226C485.044 124.603 485.201 125.15 485.201 125.868V128.921H484.95C484.714 128.921 484.596 128.791 484.596 128.531V128.095C484.014 128.704 483.359 129.008 482.631 129.008C482.152 129.008 481.747 128.86 481.415 128.562C481.083 128.264 480.917 127.9 480.917 127.469C480.917 126.966 481.093 126.581 481.446 126.315C481.801 126.048 482.328 125.914 483.026 125.914C483.535 125.914 484.059 125.978 484.596 126.104V126.012C484.596 125.407 484.49 124.964 484.278 124.683C484.069 124.403 483.71 124.262 483.2 124.262C482.725 124.262 482.275 124.386 481.851 124.632C481.762 124.676 481.67 124.687 481.574 124.663C481.478 124.639 481.408 124.589 481.363 124.514L481.256 124.334C481.447 124.139 481.738 123.979 482.128 123.852C482.518 123.725 482.882 123.662 483.221 123.662ZM482.713 128.423C483.363 128.423 483.99 128.129 484.596 127.541V126.592C484.161 126.486 483.665 126.433 483.108 126.433C482.574 126.433 482.172 126.511 481.902 126.669C481.632 126.823 481.497 127.077 481.497 127.433C481.497 127.727 481.608 127.967 481.83 128.151C482.056 128.333 482.35 128.423 482.713 128.423Z" fill="white"/>
<path d="M494.164 128.362H494.841L494.836 128.916V129.922H494.508C494.357 129.922 494.282 129.833 494.282 129.655V128.916H489.829V129.634C489.829 129.812 489.753 129.901 489.603 129.901H489.275V128.362H489.367C489.422 128.362 489.485 128.35 489.557 128.326C489.629 128.302 489.711 128.254 489.803 128.182C489.895 128.11 489.979 128.021 490.054 127.915C490.133 127.806 490.203 127.657 490.265 127.469C490.33 127.281 490.371 127.067 490.388 126.828L490.609 123.744H494.164V128.362ZM490.403 128.362H493.559V124.303H491.173L490.983 126.874C490.932 127.537 490.739 128.033 490.403 128.362Z" fill="white"/>
<path d="M499.197 126.253C499.488 126.315 499.727 126.458 499.915 126.684C500.103 126.91 500.197 127.173 500.197 127.474C500.197 127.885 500.05 128.228 499.756 128.505C499.465 128.779 499.108 128.916 498.684 128.916H496.021V123.744H498.453C498.874 123.744 499.228 123.878 499.515 124.144C499.802 124.411 499.946 124.745 499.946 125.145C499.946 125.391 499.876 125.617 499.736 125.822C499.595 126.024 499.416 126.168 499.197 126.253ZM496.621 124.329V126.032H498.432C498.689 126.032 498.906 125.95 499.084 125.786C499.262 125.622 499.351 125.42 499.351 125.181C499.351 124.941 499.262 124.74 499.084 124.575C498.91 124.411 498.696 124.329 498.443 124.329H496.621ZM499.597 127.443C499.6 127.204 499.51 127.004 499.325 126.843C499.14 126.679 498.916 126.597 498.653 126.597H496.621V128.331H498.658C498.921 128.331 499.144 128.246 499.325 128.075C499.506 127.903 499.597 127.693 499.597 127.443Z" fill="white"/>
<path d="M503.513 123.662C504.207 123.662 504.71 123.85 505.022 124.226C505.336 124.603 505.494 125.15 505.494 125.868V128.921H505.242C505.006 128.921 504.888 128.791 504.888 128.531V128.095C504.307 128.704 503.652 129.008 502.923 129.008C502.444 129.008 502.039 128.86 501.707 128.562C501.375 128.264 501.209 127.9 501.209 127.469C501.209 126.966 501.386 126.581 501.738 126.315C502.094 126.048 502.62 125.914 503.318 125.914C503.828 125.914 504.351 125.978 504.888 126.104V126.012C504.888 125.407 504.782 124.964 504.57 124.683C504.361 124.403 504.002 124.262 503.493 124.262C503.017 124.262 502.567 124.386 502.143 124.632C502.054 124.676 501.962 124.687 501.866 124.663C501.77 124.639 501.7 124.589 501.656 124.514L501.548 124.334C501.74 124.139 502.03 123.979 502.42 123.852C502.81 123.725 503.174 123.662 503.513 123.662ZM503.005 128.423C503.655 128.423 504.283 128.129 504.888 127.541V126.592C504.454 126.486 503.958 126.433 503.4 126.433C502.867 126.433 502.465 126.511 502.195 126.669C501.924 126.823 501.789 127.077 501.789 127.433C501.789 127.727 501.9 127.967 502.123 128.151C502.348 128.333 502.643 128.423 503.005 128.423Z" fill="white"/>
<path d="M512.666 129.003C511.9 129.003 511.26 128.748 510.747 128.239C510.237 127.729 509.982 127.093 509.982 126.33C509.982 125.567 510.237 124.933 510.747 124.427C511.26 123.917 511.9 123.662 512.666 123.662C512.987 123.662 513.311 123.722 513.635 123.842C513.964 123.958 514.234 124.122 514.446 124.334L514.313 124.534C514.258 124.613 514.186 124.661 514.097 124.678C514.008 124.695 513.918 124.676 513.825 124.622C513.456 124.382 513.069 124.262 512.666 124.262C512.074 124.262 511.58 124.461 511.183 124.858C510.786 125.251 510.588 125.742 510.588 126.33C510.588 126.918 510.786 127.411 511.183 127.808C511.58 128.201 512.074 128.398 512.666 128.398C513.08 128.398 513.47 128.276 513.836 128.033C513.925 127.979 514.015 127.96 514.108 127.977C514.203 127.994 514.279 128.044 514.333 128.126L514.462 128.316C514.236 128.531 513.962 128.7 513.641 128.824C513.319 128.943 512.994 129.003 512.666 129.003Z" fill="white"/>
<path d="M519.845 123.744V128.916H519.245V124.303H516.859L516.618 127.592C516.58 128.081 516.474 128.432 516.3 128.644C516.125 128.856 515.852 128.962 515.479 128.962C515.38 128.962 515.26 128.95 515.12 128.926C514.98 128.906 514.889 128.887 514.848 128.87V128.665C514.848 128.565 514.865 128.49 514.899 128.439C514.937 128.384 514.981 128.357 515.033 128.357C515.067 128.357 515.122 128.362 515.197 128.372C515.272 128.382 515.342 128.387 515.407 128.387C515.588 128.387 515.73 128.324 515.833 128.198C515.936 128.068 515.997 127.85 516.018 127.546L516.3 123.744H519.845Z" fill="white"/>
<path d="M521.95 128.239C521.441 127.729 521.186 127.093 521.186 126.33C521.186 125.567 521.441 124.933 521.95 124.427C522.463 123.917 523.103 123.662 523.869 123.662C524.635 123.662 525.273 123.917 525.783 124.427C526.293 124.933 526.547 125.567 526.547 126.33C526.547 127.096 526.293 127.734 525.783 128.244C525.273 128.75 524.635 129.003 523.869 129.003C523.103 129.003 522.463 128.748 521.95 128.239ZM522.386 124.858C521.99 125.251 521.791 125.742 521.791 126.33C521.791 126.918 521.99 127.411 522.386 127.808C522.783 128.201 523.277 128.398 523.869 128.398C524.461 128.398 524.953 128.201 525.347 127.808C525.744 127.414 525.942 126.922 525.942 126.33C525.942 125.742 525.744 125.251 525.347 124.858C524.953 124.461 524.461 124.262 523.869 124.262C523.277 124.262 522.783 124.461 522.386 124.858Z" fill="white"/>
<path d="M529.175 123.744H531.314V128.916H530.709V126.725H529.529L527.949 128.721C527.853 128.851 527.702 128.916 527.497 128.916H527.076L528.821 126.689L528.882 126.612C528.52 126.571 528.219 126.422 527.979 126.166C527.743 125.906 527.625 125.596 527.625 125.237C527.625 124.817 527.774 124.462 528.072 124.175C528.373 123.888 528.741 123.744 529.175 123.744ZM530.709 126.14V124.329H529.206C528.929 124.329 528.696 124.416 528.508 124.591C528.32 124.762 528.226 124.977 528.226 125.237C528.226 125.49 528.32 125.704 528.508 125.879C528.696 126.053 528.927 126.14 529.201 126.14H530.709Z" fill="white"/>
<path d="M470.148 98.9045V96.2502H483.269V98.9045H470.148ZM470.148 105.472V102.817H483.269V105.472H470.148Z" fill="white"/>
<path d="M503 107.538V103.242H493.888L493.724 101.025C493.705 100.724 493.792 100.432 493.984 100.149L501.987 88.7115C502.133 88.5017 502.307 88.3284 502.507 88.1916C502.708 88.0547 502.886 87.9863 503.041 87.9863H505.64V100.601H508.432V103.242H505.64V107.538H503ZM496.46 100.601H503V91.4889C502.9 91.8902 502.754 92.2277 502.562 92.5013L497.404 99.8348C497.149 100.181 496.834 100.437 496.46 100.601Z" fill="white"/>
<path d="M530.895 93.6096V107.538H528.269V96.0449H523.22L522.686 103.748C522.577 105.171 522.258 106.183 521.729 106.785C521.209 107.378 520.383 107.675 519.252 107.675C518.96 107.675 518.564 107.633 518.062 107.551C517.569 107.478 517.246 107.41 517.09 107.346V106.429C517.09 106.01 517.163 105.686 517.309 105.458C517.455 105.221 517.633 105.102 517.843 105.102C517.998 105.102 518.171 105.121 518.363 105.157C518.564 105.184 518.737 105.198 518.883 105.198C519.211 105.198 519.476 105.084 519.676 104.856C519.886 104.619 520.014 104.19 520.059 103.57L520.757 93.6096H530.895Z" fill="white"/>
<circle cx="372.764" cy="296.946" r="17.5299" fill="#3A424A"/>
<path d="M369.844 292.49H375.949V292.933C375.949 293.142 375.889 293.371 375.77 293.619L372.178 301.161C372.088 301.349 371.99 301.48 371.883 301.552C371.776 301.621 371.622 301.655 371.421 301.655H370.588L374.064 294.357C374.119 294.233 374.216 294.109 374.352 293.985C374.489 293.856 374.63 293.771 374.776 293.728V293.715H369.844V292.49Z" fill="white"/>
<circle cx="372.764" cy="341.413" r="17.5299" fill="#3A424A"/>
<path d="M373.732 346.116V344.102H369.461L369.384 343.063C369.375 342.922 369.416 342.785 369.506 342.653L373.258 337.291C373.326 337.193 373.407 337.112 373.501 337.047C373.595 336.983 373.679 336.951 373.751 336.951H374.97V342.864H376.278V344.102H374.97V346.116H373.732ZM370.667 342.864H373.732V338.593C373.685 338.781 373.617 338.939 373.527 339.068L371.109 342.505C370.989 342.668 370.842 342.787 370.667 342.864Z" fill="white"/>
<circle cx="372.764" cy="386.733" r="17.5299" fill="#3A424A"/>
<path d="M374.083 390.205H375.802V391.436H370.896V390.205H372.845V383.997C372.803 384.112 372.741 384.21 372.659 384.292L372.05 384.901C371.879 385.068 371.702 385.158 371.518 385.17C371.338 385.183 371.182 385.119 371.05 384.978L370.633 384.529L372.865 382.271H374.083V390.205Z" fill="white"/>
<circle cx="424.936" cy="296.946" r="17.5299" fill="#3A424A"/>
<path d="M426.142 296.666C426.71 296.794 427.172 297.077 427.527 297.513C427.882 297.944 428.059 298.447 428.059 299.02C428.059 299.815 427.766 300.471 427.18 300.989C426.595 301.502 425.849 301.758 424.942 301.758H424.936C424.025 301.758 423.277 301.502 422.691 300.989C422.105 300.471 421.812 299.815 421.812 299.02C421.812 298.447 421.99 297.944 422.345 297.513C422.704 297.077 423.168 296.794 423.737 296.666C423.318 296.542 422.975 296.305 422.71 295.954C422.45 295.604 422.319 295.208 422.319 294.768C422.319 294.067 422.565 293.491 423.057 293.043C423.548 292.594 424.175 292.369 424.936 292.369H424.942C425.703 292.369 426.33 292.596 426.821 293.049C427.313 293.498 427.559 294.071 427.559 294.768C427.559 295.208 427.426 295.604 427.161 295.954C426.9 296.305 426.561 296.542 426.142 296.666ZM424.936 293.607C424.534 293.607 424.203 293.722 423.942 293.953C423.681 294.184 423.551 294.479 423.551 294.838C423.551 295.197 423.681 295.495 423.942 295.73C424.203 295.961 424.534 296.076 424.936 296.076H424.942C425.344 296.076 425.673 295.961 425.93 295.73C426.191 295.495 426.321 295.197 426.321 294.838C426.321 294.479 426.191 294.184 425.93 293.953C425.673 293.722 425.344 293.607 424.942 293.607H424.936ZM424.942 300.527C425.494 300.527 425.945 300.379 426.295 300.084C426.65 299.789 426.828 299.409 426.828 298.943C426.828 298.468 426.65 298.077 426.295 297.769C425.941 297.457 425.489 297.301 424.942 297.301H424.936C424.384 297.301 423.931 297.457 423.576 297.769C423.221 298.077 423.044 298.468 423.044 298.943C423.044 299.409 423.221 299.789 423.576 300.084C423.931 300.379 424.384 300.527 424.936 300.527C424.936 300.548 424.938 300.563 424.942 300.572V300.527Z" fill="white"/>
<circle cx="424.936" cy="341.413" r="17.5299" fill="#3A424A"/>
<path d="M424.668 346.206C424.155 346.206 423.629 346.103 423.091 345.898C422.556 345.693 422.146 345.455 421.859 345.186L422.109 344.609C422.182 344.446 422.295 344.354 422.449 344.333C422.603 344.312 422.764 344.359 422.93 344.474C423.157 344.624 423.433 344.746 423.758 344.84C424.083 344.934 424.378 344.981 424.643 344.981C425.246 344.981 425.731 344.799 426.099 344.436C426.466 344.068 426.65 343.585 426.65 342.986C426.65 342.439 426.477 342.003 426.131 341.678C425.784 341.349 425.323 341.184 424.745 341.184C424.296 341.184 423.901 341.24 423.559 341.351C423.315 341.423 423.155 341.46 423.078 341.46C422.813 341.46 422.59 341.332 422.411 341.075L423.078 336.951H427.407V338.189H424.143L423.803 340.293C423.931 340.237 424.108 340.186 424.335 340.139C424.566 340.092 424.79 340.068 425.008 340.068C425.855 340.068 426.545 340.344 427.08 340.895C427.619 341.443 427.888 342.14 427.888 342.986C427.888 343.927 427.587 344.699 426.984 345.301C426.381 345.904 425.609 346.206 424.668 346.206Z" fill="white"/>
<circle cx="424.936" cy="386.733" r="17.5299" fill="#3A424A"/>
<path d="M424.637 390.198H428.107V391.436H422.008V390.839C422.008 390.6 422.125 390.367 422.361 390.14L425.881 386.6C426.134 386.348 426.335 386.085 426.484 385.811C426.638 385.533 426.715 385.29 426.715 385.08C426.715 384.589 426.561 384.187 426.253 383.874C425.95 383.558 425.563 383.4 425.093 383.4C424.819 383.4 424.537 383.485 424.246 383.656C423.955 383.823 423.714 384.037 423.521 384.298C423.427 384.43 423.299 384.512 423.137 384.541C422.978 384.567 422.82 384.537 422.662 384.452L422.2 384.189C422.457 383.599 422.857 383.113 423.4 382.733C423.943 382.352 424.507 382.162 425.093 382.162C425.926 382.162 426.61 382.436 427.145 382.983C427.684 383.53 427.953 384.227 427.953 385.074C427.953 385.437 427.85 385.833 427.645 386.26C427.44 386.688 427.166 387.075 426.824 387.421L424.355 389.897L423.765 390.487H423.804C423.928 390.405 424.013 390.352 424.06 390.326C424.107 390.301 424.182 390.273 424.285 390.243C424.391 390.213 424.509 390.198 424.637 390.198Z" fill="white"/>
<circle cx="529.249" cy="252.481" r="17.5299" fill="#3A424A"/>
<path fill-rule="evenodd" clip-rule="evenodd" d="M532.844 248.883C533.178 249.217 533.178 249.759 532.844 250.093L526.858 256.078C526.524 256.412 525.983 256.412 525.649 256.078C525.315 255.744 525.315 255.203 525.649 254.869L531.635 248.883C531.969 248.549 532.51 248.549 532.844 248.883Z" fill="white"/>
<path fill-rule="evenodd" clip-rule="evenodd" d="M525.649 248.883C525.983 248.549 526.524 248.549 526.858 248.883L532.844 254.868C533.178 255.202 533.178 255.744 532.844 256.078C532.51 256.412 531.969 256.412 531.635 256.078L525.649 250.092C525.315 249.758 525.315 249.216 525.649 248.883Z" fill="white"/>
<circle cx="372.764" cy="252.481" r="17.5299" fill="#3A424A"/>
<path d="M373.486 257.3C372.614 257.3 371.816 257.095 371.094 256.684C370.371 256.274 369.802 255.709 369.388 254.991C368.973 254.268 368.766 253.473 368.766 252.605C368.766 251.737 368.973 250.944 369.388 250.226C369.802 249.503 370.371 248.937 371.094 248.526C371.816 248.112 372.614 247.904 373.486 247.904C374.097 247.904 374.7 248.033 375.294 248.289C375.889 248.541 376.389 248.879 376.795 249.302L376.5 249.585C376.346 249.739 376.177 249.837 375.993 249.88C375.81 249.922 375.626 249.897 375.442 249.803C374.856 249.384 374.204 249.174 373.486 249.174C372.849 249.174 372.267 249.324 371.741 249.623C371.216 249.922 370.799 250.335 370.491 250.861C370.187 251.387 370.035 251.968 370.035 252.605C370.035 253.242 370.187 253.824 370.491 254.35C370.799 254.876 371.216 255.288 371.741 255.588C372.267 255.887 372.849 256.036 373.486 256.036C374.208 256.036 374.867 255.818 375.461 255.382C375.645 255.284 375.831 255.254 376.019 255.293C376.212 255.327 376.387 255.416 376.545 255.562L376.846 255.85C376.436 256.291 375.929 256.644 375.327 256.909C374.728 257.169 374.114 257.3 373.486 257.3Z" fill="white"/>
<circle cx="424.928" cy="252.481" r="17.5299" fill="#3A424A"/>
<path d="M420.549 253.328C420.549 254.089 420.679 254.885 420.94 255.714C421.201 256.543 421.532 257.317 421.934 258.036C422.101 258.343 422.184 258.566 422.184 258.703C422.184 258.805 422.15 258.901 422.081 258.991C422.017 259.081 421.936 259.143 421.838 259.177L421.408 259.338C420.767 258.495 420.266 257.548 419.907 256.496C419.552 255.44 419.375 254.386 419.375 253.335C419.375 252.261 419.552 251.193 419.907 250.128C420.266 249.063 420.767 248.11 421.408 247.268L421.838 247.428C421.94 247.466 422.024 247.531 422.088 247.62C422.152 247.71 422.184 247.806 422.184 247.909C422.184 248.071 422.101 248.289 421.934 248.563C421.528 249.243 421.194 250.008 420.933 250.859C420.677 251.706 420.549 252.529 420.549 253.328Z" fill="white"/>
<path d="M428.454 253.328C428.454 252.529 428.323 251.706 428.063 250.859C427.806 250.008 427.475 249.243 427.069 248.563C426.902 248.277 426.818 248.059 426.818 247.909C426.818 247.806 426.85 247.71 426.915 247.62C426.979 247.531 427.062 247.466 427.165 247.428L427.594 247.268C428.236 248.11 428.734 249.063 429.089 250.128C429.448 251.193 429.627 252.261 429.627 253.335C429.627 254.386 429.448 255.44 429.089 256.496C428.734 257.548 428.236 258.495 427.594 259.338L427.165 259.177C427.066 259.143 426.983 259.081 426.915 258.991C426.85 258.901 426.818 258.805 426.818 258.703C426.818 258.566 426.902 258.343 427.069 258.036C427.47 257.317 427.802 256.543 428.063 255.714C428.323 254.885 428.454 254.089 428.454 253.328Z" fill="white"/>
<circle cx="477.092" cy="252.481" r="17.5299" fill="#3A424A"/>
<path d="M478.895 248.584C478.993 248.405 479.132 248.261 479.312 248.154C479.496 248.048 479.686 247.994 479.883 247.994H480.479L475.316 256.594C475.205 256.774 475.06 256.917 474.88 257.024C474.705 257.131 474.521 257.185 474.329 257.185H473.732L478.895 248.584ZM472.039 250.713C472.039 249.884 472.214 249.232 472.565 248.757C472.916 248.283 473.401 248.045 474.021 248.045C474.641 248.045 475.126 248.285 475.477 248.764C475.832 249.238 476.009 249.888 476.009 250.713C476.009 251.539 475.832 252.188 475.477 252.663C475.126 253.133 474.641 253.369 474.021 253.369C473.401 253.369 472.916 253.133 472.565 252.663C472.214 252.188 472.039 251.539 472.039 250.713ZM473.315 249.514C473.144 249.805 473.059 250.205 473.059 250.713C473.059 251.222 473.144 251.622 473.315 251.913C473.486 252.203 473.722 252.349 474.021 252.349C474.32 252.349 474.555 252.203 474.726 251.913C474.902 251.622 474.989 251.222 474.989 250.713C474.989 250.205 474.902 249.805 474.726 249.514C474.555 249.223 474.32 249.078 474.021 249.078C473.722 249.078 473.486 249.223 473.315 249.514ZM478.17 254.6C478.17 253.77 478.346 253.118 478.696 252.644C479.047 252.169 479.532 251.932 480.152 251.932C480.772 251.932 481.257 252.171 481.608 252.65C481.963 253.125 482.14 253.775 482.14 254.6C482.14 255.425 481.963 256.075 481.608 256.55C481.257 257.02 480.772 257.255 480.152 257.255C479.532 257.255 479.047 257.02 478.696 256.55C478.346 256.075 478.17 255.425 478.17 254.6ZM479.447 253.401C479.275 253.691 479.19 254.091 479.19 254.6C479.19 255.109 479.275 255.508 479.447 255.799C479.618 256.09 479.853 256.235 480.152 256.235C480.451 256.235 480.686 256.09 480.857 255.799C481.033 255.508 481.12 255.109 481.12 254.6C481.12 254.091 481.033 253.691 480.857 253.401C480.686 253.11 480.451 252.965 480.152 252.965C479.853 252.965 479.618 253.11 479.447 253.401Z" fill="white"/>
<circle cx="477.092" cy="296.946" r="17.5299" fill="#3A424A"/>
<path d="M477.067 292.369C477.931 292.369 478.641 292.636 479.197 293.171C479.752 293.705 480.03 294.387 480.03 295.217C480.03 296.281 479.767 297.357 479.241 298.443C478.72 299.529 478.042 300.478 477.208 301.29C476.96 301.53 476.599 301.649 476.125 301.649H475.086C476.723 300.187 477.786 298.834 478.273 297.59C477.858 297.868 477.362 298.006 476.785 298.006C475.998 298.006 475.357 297.741 474.861 297.211C474.365 296.677 474.117 296.01 474.117 295.21C474.117 294.385 474.395 293.705 474.951 293.171C475.507 292.636 476.212 292.369 477.067 292.369ZM475.836 294.056C475.515 294.355 475.355 294.74 475.355 295.21C475.355 295.681 475.515 296.07 475.836 296.377C476.161 296.685 476.574 296.839 477.074 296.839C477.45 296.839 477.788 296.743 478.087 296.551C478.391 296.354 478.615 296.102 478.76 295.794C478.782 295.674 478.793 295.482 478.793 295.217C478.793 294.746 478.63 294.359 478.305 294.056C477.98 293.752 477.568 293.601 477.067 293.601C476.567 293.601 476.157 293.752 475.836 294.056Z" fill="white"/>
<circle cx="477.092" cy="341.413" r="17.5299" fill="#3A424A"/>
<path d="M477.401 340.594C478.188 340.594 478.829 340.861 479.325 341.396C479.821 341.926 480.069 342.591 480.069 343.39C480.069 344.215 479.791 344.895 479.236 345.43C478.68 345.964 477.974 346.231 477.119 346.231C476.256 346.231 475.546 345.964 474.99 345.43C474.434 344.895 474.156 344.213 474.156 343.384C474.156 342.319 474.417 341.244 474.939 340.158C475.465 339.072 476.144 338.123 476.978 337.31C477.226 337.071 477.587 336.951 478.062 336.951H479.101C477.463 338.413 476.401 339.767 475.914 341.011C476.328 340.733 476.824 340.594 477.401 340.594ZM475.881 344.545C476.206 344.848 476.619 345 477.119 345C477.619 345 478.03 344.85 478.351 344.551C478.671 344.247 478.832 343.861 478.832 343.39C478.832 342.92 478.669 342.531 478.344 342.223C478.024 341.915 477.613 341.761 477.113 341.761C476.737 341.761 476.397 341.86 476.093 342.056C475.794 342.249 475.571 342.499 475.426 342.807C475.405 342.926 475.394 343.119 475.394 343.384C475.394 343.854 475.557 344.241 475.881 344.545Z" fill="white"/>
<circle cx="477.092" cy="386.733" r="17.5299" fill="#3A424A"/>
<path d="M478.136 386.524C478.687 386.626 479.136 386.894 479.483 387.325C479.833 387.757 480.009 388.266 480.009 388.852C480.009 389.643 479.733 390.291 479.181 390.795C478.63 391.295 477.909 391.545 477.02 391.545C476.481 391.545 475.953 391.426 475.436 391.186C474.923 390.947 474.515 390.645 474.211 390.282L474.429 389.897C474.536 389.701 474.679 389.589 474.859 389.564C475.038 389.534 475.218 389.6 475.397 389.763C475.804 390.134 476.327 390.32 476.969 390.32C477.533 390.32 477.976 390.182 478.296 389.904C478.617 389.626 478.777 389.243 478.777 388.756C478.777 388.268 478.611 387.886 478.277 387.608C477.948 387.325 477.507 387.184 476.956 387.184H476.103V385.953H476.956C477.392 385.953 477.734 385.844 477.982 385.626C478.234 385.408 478.36 385.1 478.36 384.702C478.36 384.253 478.23 383.924 477.969 383.715C477.708 383.505 477.368 383.4 476.949 383.4C476.419 383.4 475.936 383.589 475.5 383.965C475.389 384.059 475.278 384.112 475.167 384.125C475.055 384.134 474.957 384.112 474.872 384.061C474.79 384.005 474.72 383.931 474.66 383.837L474.467 383.535C474.737 383.12 475.111 382.787 475.59 382.535C476.073 382.282 476.571 382.156 477.084 382.156C477.807 382.156 478.401 382.374 478.867 382.81C479.333 383.242 479.566 383.826 479.566 384.561C479.566 385.062 479.436 385.487 479.175 385.838C478.914 386.184 478.568 386.413 478.136 386.524Z" fill="white"/>
</svg>
