<svg width="597" height="400" viewBox="0 0 597 400" fill="none" xmlns="http://www.w3.org/2000/svg">
<rect width="597" height="400" transform="matrix(1 0 0 -1 0 400)" fill="#EAEBEC"/>
<path d="M255.9 221.74C257.86 223.646 254.975 226.531 253.07 224.625C251.11 222.72 253.995 219.835 255.9 221.74Z" fill="#D61C38"/>
<path d="M419.931 163.715C421.891 165.62 419.006 168.505 417.101 166.6C415.141 164.695 418.026 161.81 419.931 163.715Z" fill="#D61C38"/>
<path d="M424.025 310.49C425.985 312.396 423.1 315.281 421.195 313.375C419.235 311.47 422.12 308.585 424.025 310.49Z" fill="#D61C38"/>
<path d="M478.596 213.551C480.555 215.456 477.67 218.341 475.765 216.436C473.805 214.531 476.69 211.646 478.596 213.551Z" fill="#D61C38"/>
<path d="M445.142 148.696C447.102 150.601 444.217 153.486 442.312 151.581C440.352 149.675 443.237 146.79 445.142 148.696Z" fill="#D61C38"/>
<path d="M432.861 167.811C434.821 169.716 431.936 172.601 430.031 170.696C428.071 168.791 430.956 165.906 432.861 167.811Z" fill="#D61C38"/>
<path d="M398.767 156.889C400.727 158.794 397.842 161.679 395.937 159.774C393.977 157.869 396.862 154.984 398.767 156.889Z" fill="#D61C38"/>
<path d="M402.861 198.532C404.821 200.437 401.936 203.322 400.031 201.416C398.071 199.511 400.956 196.626 402.861 198.532Z" fill="#D61C38"/>
<path d="M430.853 206.041C432.813 207.946 429.928 210.831 428.023 208.926C426.063 207.021 428.948 204.136 430.853 206.041Z" fill="#D61C38"/>
<path d="M404.908 211.502C406.868 213.407 403.983 216.292 402.078 214.387C400.118 212.482 403.003 209.597 404.908 211.502Z" fill="#D61C38"/>
<path d="M400.814 210.137C402.774 212.042 399.889 214.927 397.984 213.022C396.024 211.117 398.909 208.232 400.814 210.137Z" fill="#D61C38"/>
<path d="M396.713 225.838C398.672 227.743 395.787 230.628 393.882 228.723C391.923 226.818 394.808 223.933 396.713 225.838Z" fill="#D61C38"/>
<path d="M417.885 243.588C419.844 245.493 416.959 248.378 415.054 246.473C413.095 244.568 415.979 241.683 417.885 243.588Z" fill="#D61C38"/>
<path d="M447.189 227.203C449.149 229.109 446.264 231.993 444.359 230.088C442.399 228.183 445.284 225.298 447.189 227.203Z" fill="#D61C38"/>
<path d="M460.846 206.041C462.805 207.946 459.92 210.831 458.015 208.926C456.055 207.021 458.94 204.136 460.846 206.041Z" fill="#D61C38"/>
<path d="M445.142 203.992C447.102 205.898 444.217 208.783 442.312 206.877C440.352 204.972 443.237 202.087 445.142 203.992Z" fill="#D61C38"/>
<path d="M436.947 198.532C438.907 200.437 436.022 203.322 434.117 201.416C432.157 199.511 435.042 196.626 436.947 198.532Z" fill="#D61C38"/>
<path d="M439.002 188.291C440.961 190.196 438.076 193.081 436.171 191.176C434.212 189.271 437.097 186.386 439.002 188.291Z" fill="#D61C38"/>
<path d="M434.908 195.799C436.868 197.704 433.983 200.589 432.078 198.684C430.118 196.779 433.003 193.894 434.908 195.799Z" fill="#D61C38"/>
<path d="M218.111 98.176C220.071 100.081 217.186 102.966 215.281 101.061C213.321 99.1558 216.206 96.2709 218.111 98.176Z" fill="#D61C38"/>
<path d="M161.447 178.051C163.407 179.956 160.522 182.841 158.617 180.936C156.657 179.031 159.542 176.146 161.447 178.051Z" fill="#D61C38"/>
<path d="M173.056 174.637C175.016 176.542 172.131 179.427 170.226 177.522C168.266 175.617 171.151 172.732 173.056 174.637Z" fill="#D61C38"/>
<path d="M120.486 93.3987C122.446 95.3038 119.561 98.1888 117.656 96.2836C115.696 94.3785 118.581 91.4936 120.486 93.3987Z" fill="#D61C38"/>
<path d="M205.135 87.9378C207.094 89.8429 204.209 92.7278 202.304 90.8227C200.345 88.9175 203.229 86.0326 205.135 87.9378Z" fill="#D61C38"/>
<path d="M219.721 194.436C221.68 196.341 218.795 199.226 216.89 197.321C214.93 195.416 217.815 192.531 219.721 194.436Z" fill="#D61C38"/>
<path d="M245.658 165.762C247.618 167.667 244.733 170.552 242.828 168.647C240.868 166.742 243.753 163.857 245.658 165.762Z" fill="#D61C38"/>
<path d="M273.65 144.6C275.61 146.505 272.725 149.39 270.82 147.485C268.86 145.58 271.745 142.695 273.65 144.6Z" fill="#D61C38"/>
<path d="M267.51 148.696C269.469 150.601 266.584 153.486 264.679 151.581C262.72 149.675 265.604 146.79 267.51 148.696Z" fill="#D61C38"/>
<path d="M277.752 158.252C279.711 160.157 276.826 163.042 274.921 161.137C272.962 159.232 275.847 156.347 277.752 158.252Z" fill="#D61C38"/>
<path d="M281.846 146.647C283.805 148.552 280.92 151.437 279.015 149.532C277.055 147.627 279.94 144.742 281.846 146.647Z" fill="#D61C38"/>
<path d="M245.658 122.071C247.618 123.976 244.733 126.861 242.828 124.956C240.868 123.05 243.753 120.165 245.658 122.071Z" fill="#D61C38"/>
<path d="M266.142 145.283C268.102 147.189 265.217 150.074 263.312 148.168C261.352 146.263 264.237 143.378 266.142 145.283Z" fill="#D61C38"/>
<path d="M260.002 186.242C261.961 188.148 259.076 191.033 257.171 189.127C255.212 187.222 258.097 184.337 260.002 186.242Z" fill="#D61C38"/>
<path d="M279.111 183.512C281.071 185.417 278.186 188.302 276.281 186.397C274.321 184.492 277.206 181.607 279.111 183.512Z" fill="#D61C38"/>
<path d="M258.635 209.455C260.594 211.36 257.709 214.245 255.804 212.34C253.845 210.435 256.729 207.55 258.635 209.455Z" fill="#D61C38"/>
<path d="M251.119 204.676C253.079 206.581 250.194 209.466 248.288 207.561C246.329 205.656 249.214 202.771 251.119 204.676Z" fill="#D61C38"/>
<path d="M254.533 202.627C256.493 204.532 253.608 207.417 251.703 205.512C249.743 203.607 252.628 200.722 254.533 202.627Z" fill="#D61C38"/>
<path d="M251.806 197.166C253.766 199.071 250.881 201.956 248.976 200.051C247.016 198.146 249.901 195.261 251.806 197.166Z" fill="#D61C38"/>
<path d="M421.978 198.532C423.938 200.437 421.053 203.322 419.148 201.416C417.188 199.511 420.073 196.626 421.978 198.532Z" fill="#D61C38"/>
<path d="M410.377 184.194C412.336 186.099 409.451 188.984 407.546 187.079C405.587 185.173 408.472 182.288 410.377 184.194Z" fill="#D61C38"/>
<path d="M400.814 188.291C402.774 190.196 399.889 193.081 397.984 191.176C396.024 189.271 398.909 186.386 400.814 188.291Z" fill="#D61C38"/>
<rect x="209.25" y="27" width="179.545" height="345.436" rx="12" fill="#424A52"/>
<rect x="222.227" y="40.6523" width="152.92" height="97.6232" rx="10" fill="#4F5761"/>
<circle cx="361.143" cy="272.423" r="13.9949" fill="#3A424A"/>
<path fill-rule="evenodd" clip-rule="evenodd" d="M359.094 272.421C359.094 272.044 359.399 271.738 359.776 271.738H363.19C363.567 271.738 363.873 272.044 363.873 272.421C363.873 272.798 363.567 273.104 363.19 273.104H359.776C359.399 273.104 359.094 272.798 359.094 272.421Z" fill="white"/>
<rect x="305.508" y="330.791" width="69.6333" height="27.9899" rx="13.9949" fill="#D61C38"/>
<path fill-rule="evenodd" clip-rule="evenodd" d="M336.914 343.079C336.914 342.702 337.22 342.396 337.597 342.396H342.375C342.753 342.396 343.058 342.702 343.058 343.079C343.058 343.456 342.753 343.762 342.375 343.762H337.597C337.22 343.762 336.914 343.456 336.914 343.079Z" fill="white"/>
<path fill-rule="evenodd" clip-rule="evenodd" d="M336.914 346.493C336.914 346.116 337.22 345.811 337.597 345.811H342.375C342.753 345.811 343.058 346.116 343.058 346.493C343.058 346.87 342.753 347.176 342.375 347.176H337.597C337.22 347.176 336.914 346.87 336.914 346.493Z" fill="white"/>
<circle cx="361.143" cy="308.604" r="13.9949" fill="#3A424A"/>
<path fill-rule="evenodd" clip-rule="evenodd" d="M359.094 308.603C359.094 308.226 359.399 307.92 359.776 307.92H363.19C363.567 307.92 363.873 308.226 363.873 308.603C363.873 308.98 363.567 309.285 363.19 309.285H359.776C359.399 309.285 359.094 308.98 359.094 308.603Z" fill="white"/>
<path fill-rule="evenodd" clip-rule="evenodd" d="M361.487 310.994C361.11 310.994 360.805 310.688 360.805 310.311L360.805 306.898C360.805 306.521 361.11 306.215 361.487 306.215C361.864 306.215 362.17 306.521 362.17 306.898L362.17 310.311C362.17 310.688 361.864 310.994 361.487 310.994Z" fill="white"/>
<circle cx="361.143" cy="236.921" r="13.9949" fill="#3A424A"/>
<path fill-rule="evenodd" clip-rule="evenodd" d="M358.07 236.919C358.07 236.542 358.376 236.236 358.753 236.236H364.214C364.591 236.236 364.897 236.542 364.897 236.919C364.897 237.296 364.591 237.602 364.214 237.602H358.753C358.376 237.602 358.07 237.296 358.07 236.919Z" fill="white"/>
<path fill-rule="evenodd" clip-rule="evenodd" d="M361.487 235.213C361.11 235.213 360.805 234.907 360.805 234.53C360.805 234.153 361.11 233.848 361.487 233.848C361.864 233.848 362.17 234.153 362.17 234.53C362.17 234.907 361.864 235.213 361.487 235.213Z" fill="white"/>
<path fill-rule="evenodd" clip-rule="evenodd" d="M361.487 239.992C361.11 239.992 360.805 239.687 360.805 239.31C360.805 238.933 361.11 238.627 361.487 238.627C361.864 238.627 362.17 238.933 362.17 239.31C362.17 239.687 361.864 239.992 361.487 239.992Z" fill="white"/>
<circle cx="361.143" cy="165.925" r="13.9949" fill="#D61C38"/>
<path fill-rule="evenodd" clip-rule="evenodd" d="M362.665 161.708C362.92 161.986 362.901 162.417 362.623 162.672L359.076 165.924L362.623 169.175C362.901 169.43 362.92 169.862 362.665 170.14C362.411 170.418 361.979 170.436 361.701 170.182L358.154 166.93C357.563 166.389 357.563 165.458 358.154 164.917L361.701 161.666C361.979 161.411 362.411 161.43 362.665 161.708Z" fill="white"/>
<g opacity="0.5">
<path d="M276.438 53.2591H276.93V59.0837H270.602V53.2591H271.093V58.6249H273.534V53.2591H274.026V58.6249H276.438V53.2591Z" fill="white"/>
<path d="M278.571 59.0837V54.9549H279.046V58.371C279.062 58.2863 279.091 58.2153 279.132 58.158L281.262 55.1023C281.327 55.004 281.434 54.9549 281.581 54.9549H281.942V59.0837H281.462V55.4587C281.443 55.557 281.423 55.6239 281.401 55.6594L279.107 58.9731C279.061 59.0468 279.005 59.0837 278.939 59.0837H278.571Z" fill="white"/>
<path d="M285.335 54.8893C285.9 54.8893 286.366 55.09 286.732 55.4914C287.098 55.8901 287.28 56.3994 287.28 57.0193C287.28 57.6392 287.084 58.1498 286.691 58.5512C286.297 58.9499 285.796 59.1492 285.187 59.1492C284.953 59.1492 284.725 59.0987 284.503 58.9977C284.285 58.8967 284.094 58.7656 283.93 58.6045V60.5583H283.451V54.9549H283.75C283.87 54.9549 283.93 55.0354 283.93 55.1965V55.5201C284.307 55.0996 284.775 54.8893 285.335 54.8893ZM285.187 58.6659C285.657 58.6659 286.043 58.5116 286.347 58.2031C286.65 57.8917 286.801 57.4972 286.801 57.0193C286.801 56.5414 286.655 56.1482 286.363 55.8396C286.071 55.5283 285.699 55.3727 285.249 55.3727C284.965 55.3727 284.718 55.4396 284.507 55.5734C284.297 55.7072 284.105 55.8833 283.93 56.1018V58.0269C284.02 58.1771 284.185 58.3218 284.426 58.4611C284.669 58.5976 284.922 58.6659 285.187 58.6659Z" fill="white"/>
<path d="M288.363 59.0837V54.9549H288.838V58.371C288.854 58.2863 288.883 58.2153 288.924 58.158L291.054 55.1023C291.119 55.004 291.226 54.9549 291.373 54.9549H291.734V59.0837H291.255V55.4587C291.235 55.557 291.215 55.6239 291.193 55.6594L288.899 58.9731C288.853 59.0468 288.797 59.0837 288.731 59.0837H288.363Z" fill="white"/>
<path d="M296.081 54.959H296.565V59.0837H296.081V57.2487H293.722V59.0837H293.243V54.959H293.722V56.7981H296.081V54.959Z" fill="white"/>
<path d="M299.656 54.8893C300.211 54.8893 300.612 55.0395 300.86 55.3399C301.112 55.6403 301.237 56.0772 301.237 56.6506V59.0878H301.037C300.848 59.0878 300.754 58.984 300.754 58.7765V58.4283C300.29 58.9144 299.767 59.1574 299.185 59.1574C298.803 59.1574 298.479 59.0387 298.214 58.8011C297.949 58.5635 297.817 58.2727 297.817 57.9286C297.817 57.5272 297.958 57.22 298.239 57.007C298.523 56.794 298.943 56.6875 299.501 56.6875C299.907 56.6875 300.325 56.738 300.754 56.8391V56.7653C300.754 56.282 300.669 55.9284 300.5 55.7044C300.333 55.4805 300.047 55.3686 299.64 55.3686C299.26 55.3686 298.901 55.4669 298.563 55.6635C298.492 55.699 298.418 55.7072 298.341 55.6881C298.265 55.6689 298.209 55.6293 298.173 55.5693L298.087 55.4259C298.24 55.2703 298.472 55.1419 298.784 55.0409C299.095 54.9398 299.386 54.8893 299.656 54.8893ZM299.251 58.6905C299.77 58.6905 300.271 58.4556 300.754 57.986V57.2282C300.407 57.1435 300.011 57.1012 299.566 57.1012C299.14 57.1012 298.819 57.164 298.603 57.2896C298.388 57.4125 298.28 57.6159 298.28 57.8999C298.28 58.1348 298.369 58.3259 298.546 58.4734C298.726 58.6181 298.961 58.6905 299.251 58.6905Z" fill="white"/>
<path d="M307.336 58.6045H308.483V59.0837H305.53V58.6045H306.853V53.9022C306.836 53.9595 306.803 54.0141 306.754 54.066L306.042 54.7501C305.973 54.8183 305.9 54.8566 305.82 54.8647C305.744 54.8702 305.678 54.8443 305.624 54.7869L305.472 54.619L306.853 53.2591H307.336V58.6045Z" fill="white"/>
<path d="M316.285 54.9549H316.621V59.0837H316.142V55.7987C316.142 55.7632 316.151 55.714 316.17 55.6512L314.683 58.3792C314.634 58.4775 314.558 58.5266 314.454 58.5266C314.35 58.5266 314.273 58.4775 314.221 58.3792L312.734 55.6512C312.753 55.714 312.762 55.7632 312.762 55.7987V59.0837H312.283V54.9549H312.619C312.764 54.9549 312.883 55.0381 312.975 55.2047L314.413 57.7853C314.43 57.8153 314.443 57.8754 314.454 57.9655C314.462 57.8808 314.475 57.8208 314.491 57.7853L315.92 55.2047C316.013 55.0381 316.135 54.9549 316.285 54.9549Z" fill="white"/>
<path d="M320.795 59.0837V53.2591H322.855C323.355 53.2591 323.764 53.4052 324.084 53.6974C324.403 53.9896 324.563 54.3596 324.563 54.8074C324.563 55.0067 324.523 55.1993 324.444 55.385C324.365 55.5679 324.245 55.7249 324.084 55.856C323.925 55.9843 323.742 56.0594 323.535 56.0813V56.0977C323.92 56.1141 324.234 56.2601 324.477 56.5359C324.723 56.8118 324.846 57.1299 324.846 57.4903C324.846 57.9409 324.686 58.3191 324.366 58.6249C324.047 58.9281 323.649 59.0796 323.174 59.0796L320.795 59.0837ZM321.286 55.9092H322.933C323.252 55.9092 323.522 55.8055 323.744 55.5979C323.965 55.3877 324.075 55.1324 324.075 54.832C324.075 54.5207 323.961 54.2626 323.731 54.0578C323.505 53.853 323.211 53.7506 322.851 53.7506H321.286V55.9092ZM321.286 58.5922L323.146 58.5881C323.492 58.5881 323.779 58.4816 324.006 58.2686C324.235 58.0556 324.353 57.788 324.358 57.4658C324.361 57.1681 324.247 56.9169 324.018 56.7121C323.791 56.5073 323.513 56.4049 323.183 56.4049H321.286V58.5922Z" fill="white"/>
<path d="M326.011 54.9549H326.491V56.6138H327.765C328.147 56.6138 328.466 56.7312 328.723 56.966C328.982 57.1981 329.112 57.4917 329.112 57.8467C329.112 58.2017 328.982 58.4966 328.723 58.7314C328.466 58.9663 328.147 59.0837 327.765 59.0837H326.011V54.9549ZM330.398 54.9549V59.0837H329.919V54.9549H330.398ZM326.491 57.0725V58.6086H327.736C327.998 58.6086 328.212 58.5417 328.379 58.4079C328.546 58.2713 328.629 58.0843 328.629 57.8467C328.629 57.6091 328.546 57.4207 328.379 57.2814C328.212 57.1422 327.998 57.0725 327.736 57.0725H326.491Z" fill="white"/>
<path d="M333.444 59.1533C332.832 59.1533 332.321 58.9499 331.912 58.543C331.505 58.1361 331.301 57.6282 331.301 57.0193C331.301 56.4103 331.505 55.9038 331.912 55.4996C332.321 55.0928 332.832 54.8893 333.444 54.8893C333.7 54.8893 333.958 54.9371 334.218 55.0327C334.48 55.1255 334.696 55.2566 334.865 55.4259L334.759 55.5857C334.715 55.6485 334.658 55.6867 334.587 55.7003C334.516 55.714 334.443 55.699 334.369 55.6553C334.074 55.4641 333.766 55.3686 333.444 55.3686C332.971 55.3686 332.577 55.5269 332.26 55.8437C331.943 56.1577 331.785 56.5496 331.785 57.0193C331.785 57.489 331.943 57.8822 332.26 58.199C332.577 58.513 332.971 58.67 333.444 58.67C333.774 58.67 334.085 58.5731 334.378 58.3792C334.449 58.3355 334.521 58.3205 334.595 58.3341C334.671 58.3478 334.731 58.3874 334.775 58.4529L334.877 58.6045C334.697 58.7765 334.479 58.9117 334.222 59.01C333.965 59.1056 333.706 59.1533 333.444 59.1533Z" fill="white"/>
<path d="M336.128 58.543C335.721 58.1361 335.518 57.6282 335.518 57.0193C335.518 56.4103 335.721 55.9038 336.128 55.4996C336.537 55.0928 337.048 54.8893 337.66 54.8893C338.271 54.8893 338.781 55.0928 339.188 55.4996C339.594 55.9038 339.798 56.4103 339.798 57.0193C339.798 57.631 339.594 58.1402 339.188 58.5471C338.781 58.9513 338.271 59.1533 337.66 59.1533C337.048 59.1533 336.537 58.9499 336.128 58.543ZM336.476 55.8437C336.159 56.1577 336.001 56.5496 336.001 57.0193C336.001 57.489 336.159 57.8822 336.476 58.199C336.793 58.513 337.187 58.67 337.66 58.67C338.132 58.67 338.525 58.513 338.839 58.199C339.156 57.8849 339.315 57.4917 339.315 57.0193C339.315 56.5496 339.156 56.1577 338.839 55.8437C338.525 55.5269 338.132 55.3686 337.66 55.3686C337.187 55.3686 336.793 55.5269 336.476 55.8437Z" fill="white"/>
<path d="M340.117 55.4177V54.9549H343.291V55.4177H341.943V59.0837H341.464V55.4177H340.117Z" fill="white"/>
<path d="M345.737 54.8893C346.291 54.8893 346.693 55.0395 346.941 55.3399C347.193 55.6403 347.318 56.0772 347.318 56.6506V59.0878H347.117C346.929 59.0878 346.835 58.984 346.835 58.7765V58.4283C346.371 58.9144 345.848 59.1574 345.266 59.1574C344.884 59.1574 344.56 59.0387 344.295 58.8011C344.03 58.5635 343.898 58.2727 343.898 57.9286C343.898 57.5272 344.039 57.22 344.32 57.007C344.604 56.794 345.024 56.6875 345.581 56.6875C345.988 56.6875 346.406 56.738 346.835 56.8391V56.7653C346.835 56.282 346.75 55.9284 346.581 55.7044C346.414 55.4805 346.128 55.3686 345.721 55.3686C345.341 55.3686 344.982 55.4669 344.643 55.6635C344.572 55.699 344.499 55.7072 344.422 55.6881C344.346 55.6689 344.29 55.6293 344.254 55.5693L344.168 55.4259C344.321 55.2703 344.553 55.1419 344.865 55.0409C345.176 54.9398 345.467 54.8893 345.737 54.8893ZM345.332 58.6905C345.85 58.6905 346.351 58.4556 346.835 57.986V57.2282C346.488 57.1435 346.092 57.1012 345.647 57.1012C345.221 57.1012 344.9 57.164 344.684 57.2896C344.469 57.4125 344.361 57.6159 344.361 57.8999C344.361 58.1348 344.45 58.3259 344.627 58.4734C344.807 58.6181 345.042 58.6905 345.332 58.6905Z" fill="white"/>
<path d="M353.335 55.9297C353.712 55.9953 354.019 56.1728 354.257 56.4622C354.494 56.7489 354.613 57.0889 354.613 57.4821C354.613 57.9709 354.444 58.3724 354.105 58.6864C353.766 58.9977 353.325 59.1533 352.782 59.1533C352.449 59.1533 352.132 59.081 351.832 58.9362C351.531 58.7888 351.296 58.5881 351.127 58.3341L351.213 58.1908C351.26 58.117 351.318 58.0774 351.389 58.072C351.46 58.0638 351.531 58.0938 351.602 58.1621C351.878 58.5034 352.266 58.6741 352.766 58.6741C353.181 58.6741 353.512 58.5621 353.761 58.3382C354.009 58.1143 354.134 57.818 354.134 57.4494C354.134 57.0753 354.003 56.7722 353.74 56.54C353.481 56.3079 353.149 56.1919 352.745 56.1919H352.262V55.7085H352.745C353.07 55.7085 353.332 55.6171 353.532 55.4341C353.734 55.2484 353.835 55.0013 353.835 54.6927C353.835 54.3459 353.735 54.0892 353.536 53.9227C353.336 53.7561 353.084 53.6728 352.778 53.6728C352.565 53.6728 352.364 53.7178 352.176 53.808C351.99 53.8981 351.843 54.0291 351.733 54.2012C351.662 54.264 351.595 54.2927 351.533 54.2872C351.473 54.2817 351.419 54.2531 351.373 54.2012L351.299 54.0988C351.436 53.8093 351.645 53.5854 351.926 53.427C352.207 53.2686 352.506 53.1895 352.823 53.1895C353.254 53.1895 353.609 53.3178 353.888 53.5745C354.166 53.8312 354.306 54.1875 354.306 54.6436C354.306 54.9767 354.217 55.2566 354.039 55.4833C353.865 55.7072 353.63 55.856 353.335 55.9297Z" fill="white"/>
<path d="M362.446 54.9549H362.782V59.0837H362.303V55.7987C362.303 55.7632 362.312 55.714 362.331 55.6512L360.844 58.3792C360.795 58.4775 360.719 58.5266 360.615 58.5266C360.511 58.5266 360.433 58.4775 360.381 58.3792L358.895 55.6512C358.914 55.714 358.923 55.7632 358.923 55.7987V59.0837H358.444V54.9549H358.78C358.925 54.9549 359.043 55.0381 359.136 55.2047L360.574 57.7853C360.59 57.8153 360.604 57.8754 360.615 57.9655C360.623 57.8808 360.635 57.8208 360.652 57.7853L362.081 55.2047C362.174 55.0381 362.296 54.9549 362.446 54.9549Z" fill="white"/>
</g>
<path d="M320.815 98.6517H321.298V102.776H320.815V100.941H318.456V102.776H317.977V98.6517H318.456V100.491H320.815V98.6517Z" fill="white"/>
<path d="M324.39 98.582C324.944 98.582 325.346 98.7322 325.594 99.0326C325.845 99.333 325.971 99.7699 325.971 100.343V102.781H325.77C325.582 102.781 325.488 102.677 325.488 102.469V102.121C325.023 102.607 324.501 102.85 323.919 102.85C323.537 102.85 323.213 102.731 322.948 102.494C322.683 102.256 322.551 101.965 322.551 101.621C322.551 101.22 322.691 100.913 322.973 100.7C323.257 100.487 323.677 100.38 324.234 100.38C324.641 100.38 325.059 100.431 325.488 100.532V100.458C325.488 99.9747 325.403 99.6211 325.234 99.3972C325.067 99.1732 324.78 99.0613 324.374 99.0613C323.994 99.0613 323.635 99.1596 323.296 99.3562C323.225 99.3917 323.152 99.3999 323.075 99.3808C322.999 99.3617 322.943 99.3221 322.907 99.262L322.821 99.1186C322.974 98.963 323.206 98.8346 323.517 98.7336C323.829 98.6325 324.12 98.582 324.39 98.582ZM323.984 102.383C324.503 102.383 325.004 102.148 325.488 101.679V100.921C325.141 100.836 324.745 100.794 324.3 100.794C323.874 100.794 323.553 100.857 323.337 100.982C323.122 101.105 323.014 101.309 323.014 101.593C323.014 101.827 323.102 102.019 323.28 102.166C323.46 102.311 323.695 102.383 323.984 102.383Z" fill="white"/>
<path d="M333.126 102.334H333.667L333.663 102.776V103.579H333.401C333.281 103.579 333.221 103.508 333.221 103.366V102.776H329.665V103.35C329.665 103.492 329.605 103.563 329.485 103.563H329.223V102.334H329.297C329.34 102.334 329.391 102.324 329.448 102.305C329.506 102.286 329.571 102.248 329.645 102.191C329.719 102.133 329.785 102.062 329.846 101.978C329.908 101.89 329.964 101.772 330.013 101.621C330.065 101.471 330.098 101.3 330.112 101.109L330.288 98.6476H333.126V102.334ZM330.124 102.334H332.643V99.094H330.738L330.587 101.146C330.546 101.676 330.392 102.072 330.124 102.334Z" fill="white"/>
<path d="M337.144 100.651C337.376 100.7 337.568 100.814 337.718 100.995C337.868 101.175 337.943 101.385 337.943 101.625C337.943 101.953 337.826 102.228 337.591 102.449C337.359 102.667 337.073 102.776 336.735 102.776H334.609V98.6476H336.55C336.886 98.6476 337.169 98.7541 337.398 98.9671C337.628 99.1801 337.742 99.4463 337.742 99.7658C337.742 99.9624 337.686 100.143 337.574 100.306C337.462 100.468 337.319 100.582 337.144 100.651ZM335.088 99.1145V100.474H336.534C336.739 100.474 336.912 100.409 337.054 100.278C337.196 100.147 337.267 99.9856 337.267 99.7945C337.267 99.6033 337.196 99.4422 337.054 99.3111C336.915 99.1801 336.744 99.1145 336.542 99.1145H335.088ZM337.464 101.601C337.467 101.41 337.394 101.25 337.247 101.122C337.099 100.991 336.92 100.925 336.71 100.925H335.088V102.309H336.714C336.925 102.309 337.102 102.241 337.247 102.105C337.391 101.968 337.464 101.8 337.464 101.601Z" fill="white"/>
<path d="M340.59 98.582C341.145 98.582 341.546 98.7322 341.794 99.0326C342.046 99.333 342.171 99.7699 342.171 100.343V102.781H341.971C341.782 102.781 341.688 102.677 341.688 102.469V102.121C341.224 102.607 340.701 102.85 340.119 102.85C339.737 102.85 339.413 102.731 339.148 102.494C338.884 102.256 338.751 101.965 338.751 101.621C338.751 101.22 338.892 100.913 339.173 100.7C339.457 100.487 339.878 100.38 340.435 100.38C340.841 100.38 341.259 100.431 341.688 100.532V100.458C341.688 99.9747 341.603 99.6211 341.434 99.3972C341.267 99.1732 340.981 99.0613 340.574 99.0613C340.194 99.0613 339.835 99.1596 339.497 99.3562C339.426 99.3917 339.352 99.3999 339.275 99.3808C339.199 99.3617 339.143 99.3221 339.107 99.262L339.021 99.1186C339.174 98.963 339.406 98.8346 339.718 98.7336C340.029 98.6325 340.32 98.582 340.59 98.582ZM340.185 102.383C340.704 102.383 341.205 102.148 341.688 101.679V100.921C341.341 100.836 340.945 100.794 340.5 100.794C340.074 100.794 339.753 100.857 339.538 100.982C339.322 101.105 339.214 101.309 339.214 101.593C339.214 101.827 339.303 102.019 339.48 102.166C339.66 102.311 339.895 102.383 340.185 102.383Z" fill="white"/>
<path d="M347.897 102.846C347.286 102.846 346.775 102.643 346.365 102.236C345.958 101.829 345.755 101.321 345.755 100.712C345.755 100.103 345.958 99.5965 346.365 99.1923C346.775 98.7855 347.286 98.582 347.897 98.582C348.154 98.582 348.412 98.6298 348.671 98.7254C348.934 98.8182 349.149 98.9493 349.319 99.1186L349.212 99.2784C349.168 99.3412 349.111 99.3794 349.04 99.3931C348.969 99.4067 348.897 99.3917 348.823 99.348C348.528 99.1568 348.219 99.0613 347.897 99.0613C347.425 99.0613 347.03 99.2197 346.713 99.5364C346.397 99.8504 346.238 100.242 346.238 100.712C346.238 101.182 346.397 101.575 346.713 101.892C347.03 102.206 347.425 102.363 347.897 102.363C348.228 102.363 348.539 102.266 348.831 102.072C348.902 102.028 348.975 102.013 349.048 102.027C349.125 102.04 349.185 102.08 349.228 102.146L349.331 102.297C349.151 102.469 348.932 102.604 348.676 102.703C348.419 102.798 348.159 102.846 347.897 102.846Z" fill="white"/>
<path d="M353.629 98.6476V102.776H353.15V99.094H351.245L351.052 101.72C351.022 102.11 350.938 102.39 350.798 102.559C350.659 102.729 350.441 102.813 350.143 102.813C350.064 102.813 349.968 102.804 349.856 102.785C349.744 102.768 349.672 102.753 349.639 102.74V102.576C349.639 102.497 349.653 102.436 349.68 102.395C349.71 102.352 349.746 102.33 349.787 102.33C349.814 102.33 349.858 102.334 349.918 102.342C349.978 102.35 350.034 102.355 350.086 102.355C350.23 102.355 350.344 102.304 350.426 102.203C350.508 102.099 350.557 101.926 350.573 101.683L350.798 98.6476H353.629Z" fill="white"/>
<path d="M355.309 102.236C354.903 101.829 354.699 101.321 354.699 100.712C354.699 100.103 354.903 99.5965 355.309 99.1923C355.719 98.7855 356.23 98.582 356.841 98.582C357.453 98.582 357.962 98.7855 358.369 99.1923C358.776 99.5965 358.98 100.103 358.98 100.712C358.98 101.324 358.776 101.833 358.369 102.24C357.962 102.644 357.453 102.846 356.841 102.846C356.23 102.846 355.719 102.643 355.309 102.236ZM355.658 99.5364C355.341 99.8504 355.183 100.242 355.183 100.712C355.183 101.182 355.341 101.575 355.658 101.892C355.974 102.206 356.369 102.363 356.841 102.363C357.314 102.363 357.707 102.206 358.021 101.892C358.338 101.578 358.496 101.184 358.496 100.712C358.496 100.242 358.338 99.8504 358.021 99.5364C357.707 99.2197 357.314 99.0613 356.841 99.0613C356.369 99.0613 355.974 99.2197 355.658 99.5364Z" fill="white"/>
<path d="M361.077 98.6476H362.785V102.776H362.302V101.027H361.36L360.098 102.621C360.022 102.725 359.902 102.776 359.738 102.776H359.402L360.795 100.999L360.844 100.937C360.554 100.905 360.314 100.786 360.123 100.581C359.934 100.373 359.84 100.126 359.84 99.8395C359.84 99.5036 359.959 99.221 360.197 98.9916C360.437 98.7623 360.73 98.6476 361.077 98.6476ZM362.302 100.56V99.1145H361.102C360.881 99.1145 360.695 99.1842 360.545 99.3234C360.395 99.46 360.319 99.632 360.319 99.8395C360.319 100.042 360.395 100.212 360.545 100.352C360.695 100.491 360.879 100.56 361.098 100.56H362.302Z" fill="white"/>
<path d="M313.953 78.8161V76.697H324.428V78.8161H313.953ZM313.953 84.059V81.94H324.428V84.059H313.953Z" fill="white"/>
<path d="M340.18 85.7084V82.2786H332.905L332.774 80.5091C332.76 80.2688 332.829 80.0358 332.982 79.81L339.372 70.6785C339.488 70.511 339.627 70.3727 339.787 70.2635C339.947 70.1542 340.089 70.0996 340.213 70.0996H342.288V80.1705H344.516V82.2786H342.288V85.7084H340.18ZM334.959 80.1705H340.18V72.8959C340.1 73.2163 339.983 73.4857 339.83 73.7042L335.713 79.5588C335.509 79.8355 335.257 80.0394 334.959 80.1705Z" fill="white"/>
<path d="M362.45 74.5889V85.7084H360.353V76.5332H356.323L355.897 82.6828C355.809 83.8187 355.554 84.627 355.132 85.1076C354.717 85.581 354.058 85.8176 353.155 85.8176C352.922 85.8176 352.605 85.7849 352.205 85.7193C351.811 85.6611 351.553 85.6064 351.429 85.5555V84.8236C351.429 84.4887 351.487 84.2302 351.604 84.0481C351.72 83.8588 351.862 83.7641 352.03 83.7641C352.154 83.7641 352.292 83.7787 352.445 83.8078C352.605 83.8297 352.744 83.8406 352.86 83.8406C353.122 83.8406 353.333 83.7496 353.494 83.5675C353.661 83.3782 353.763 83.0359 353.799 82.5408L354.356 74.5889H362.45Z" fill="white"/>
<circle cx="236.214" cy="236.921" r="13.9949" fill="#3A424A"/>
<path d="M233.883 233.363H238.757V233.717C238.757 233.884 238.709 234.066 238.614 234.264L235.747 240.286C235.675 240.436 235.596 240.54 235.511 240.598C235.426 240.653 235.303 240.68 235.142 240.68H234.477L237.252 234.853C237.296 234.754 237.373 234.655 237.482 234.556C237.591 234.454 237.704 234.386 237.82 234.351V234.341H233.883V233.363Z" fill="white"/>
<circle cx="236.214" cy="272.423" r="13.9949" fill="#3A424A"/>
<path d="M236.988 276.178V274.57H233.578L233.517 273.741C233.51 273.628 233.542 273.519 233.614 273.413L236.609 269.133C236.664 269.054 236.729 268.989 236.804 268.938C236.879 268.887 236.945 268.861 237.003 268.861H237.976V273.582H239.021V274.57H237.976V276.178H236.988ZM234.541 273.582H236.988V270.172C236.95 270.322 236.896 270.449 236.824 270.551L234.894 273.295C234.798 273.425 234.68 273.521 234.541 273.582Z" fill="white"/>
<circle cx="236.214" cy="308.604" r="13.9949" fill="#3A424A"/>
<path d="M237.27 311.377H238.642V312.36H234.726V311.377H236.282V306.42C236.248 306.512 236.198 306.591 236.134 306.656L235.647 307.142C235.511 307.275 235.369 307.347 235.222 307.357C235.079 307.367 234.954 307.316 234.848 307.204L234.516 306.845L236.297 305.043H237.27V311.377Z" fill="white"/>
<circle cx="236.214" cy="344.786" r="13.9949" fill="#3A424A"/>
<path d="M233.133 344.886C233.133 343.715 233.375 342.797 233.86 342.131C234.348 341.466 235.019 341.133 235.872 341.133C236.725 341.133 237.394 341.466 237.879 342.131C238.367 342.797 238.611 343.715 238.611 344.886C238.611 346.057 238.369 346.975 237.884 347.64C237.4 348.303 236.729 348.634 235.872 348.634C235.019 348.634 234.348 348.301 233.86 347.635C233.375 346.97 233.133 346.053 233.133 344.886ZM234.121 344.886C234.121 345.746 234.276 346.422 234.587 346.913C234.898 347.402 235.326 347.646 235.872 347.646C236.418 347.646 236.847 347.402 237.157 346.913C237.468 346.422 237.623 345.746 237.623 344.886C237.623 344.022 237.468 343.346 237.157 342.858C236.847 342.367 236.418 342.121 235.872 342.121C235.326 342.121 234.898 342.367 234.587 342.858C234.276 343.346 234.121 344.022 234.121 344.886Z" fill="white"/>
<circle cx="277.862" cy="236.921" r="13.9949" fill="#3A424A"/>
<path d="M278.823 236.698C279.277 236.8 279.646 237.026 279.929 237.374C280.213 237.719 280.354 238.12 280.354 238.577C280.354 239.212 280.12 239.736 279.653 240.149C279.185 240.559 278.589 240.763 277.866 240.763H277.861C277.134 240.763 276.536 240.559 276.069 240.149C275.601 239.736 275.367 239.212 275.367 238.577C275.367 238.12 275.509 237.719 275.792 237.374C276.079 237.026 276.449 236.8 276.903 236.698C276.569 236.599 276.296 236.41 276.084 236.13C275.876 235.85 275.772 235.534 275.772 235.182C275.772 234.623 275.968 234.164 276.36 233.805C276.753 233.447 277.253 233.268 277.861 233.268H277.866C278.473 233.268 278.973 233.448 279.366 233.81C279.759 234.169 279.955 234.626 279.955 235.182C279.955 235.534 279.849 235.85 279.637 236.13C279.429 236.41 279.158 236.599 278.823 236.698ZM277.861 234.256C277.54 234.256 277.275 234.348 277.067 234.532C276.859 234.717 276.755 234.952 276.755 235.239C276.755 235.526 276.859 235.763 277.067 235.951C277.275 236.135 277.54 236.227 277.861 236.227H277.866C278.187 236.227 278.449 236.135 278.654 235.951C278.863 235.763 278.967 235.526 278.967 235.239C278.967 234.952 278.863 234.717 278.654 234.532C278.449 234.348 278.187 234.256 277.866 234.256H277.861ZM277.866 239.78C278.306 239.78 278.666 239.663 278.946 239.427C279.229 239.192 279.371 238.888 279.371 238.516C279.371 238.137 279.229 237.824 278.946 237.579C278.663 237.33 278.303 237.205 277.866 237.205H277.861C277.42 237.205 277.059 237.33 276.775 237.579C276.492 237.824 276.35 238.137 276.35 238.516C276.35 238.888 276.492 239.192 276.775 239.427C277.059 239.663 277.42 239.78 277.861 239.78C277.861 239.797 277.862 239.809 277.866 239.816V239.78Z" fill="white"/>
<circle cx="277.862" cy="272.423" r="13.9949" fill="#3A424A"/>
<path d="M277.649 276.25C277.239 276.25 276.819 276.168 276.389 276.004C275.963 275.84 275.635 275.651 275.406 275.436L275.606 274.975C275.664 274.845 275.754 274.772 275.877 274.755C276 274.737 276.128 274.775 276.261 274.867C276.442 274.987 276.662 275.084 276.922 275.159C277.181 275.234 277.417 275.272 277.628 275.272C278.11 275.272 278.497 275.127 278.791 274.836C279.084 274.543 279.231 274.157 279.231 273.679C279.231 273.242 279.093 272.894 278.816 272.635C278.54 272.372 278.171 272.241 277.71 272.241C277.352 272.241 277.036 272.285 276.763 272.374C276.569 272.432 276.441 272.461 276.379 272.461C276.167 272.461 275.99 272.358 275.847 272.154L276.379 268.861H279.835V269.85H277.229L276.958 271.529C277.06 271.485 277.202 271.444 277.383 271.406C277.567 271.368 277.746 271.35 277.92 271.35C278.596 271.35 279.147 271.57 279.574 272.01C280.004 272.447 280.219 273.003 280.219 273.679C280.219 274.43 279.978 275.046 279.497 275.528C279.016 276.009 278.4 276.25 277.649 276.25Z" fill="white"/>
<circle cx="277.862" cy="308.604" r="13.9949" fill="#3A424A"/>
<path d="M277.623 311.371H280.393V312.359H275.523V311.883C275.523 311.691 275.617 311.505 275.805 311.324L278.616 308.498C278.817 308.297 278.978 308.087 279.097 307.868C279.22 307.647 279.282 307.452 279.282 307.285C279.282 306.892 279.159 306.571 278.913 306.322C278.671 306.07 278.362 305.943 277.986 305.943C277.768 305.943 277.542 306.012 277.31 306.148C277.078 306.281 276.885 306.452 276.732 306.66C276.657 306.766 276.554 306.831 276.425 306.855C276.298 306.875 276.172 306.851 276.046 306.783L275.677 306.573C275.882 306.102 276.201 305.715 276.634 305.411C277.068 305.107 277.519 304.955 277.986 304.955C278.652 304.955 279.198 305.174 279.625 305.61C280.055 306.047 280.27 306.604 280.27 307.28C280.27 307.57 280.188 307.885 280.024 308.227C279.86 308.568 279.642 308.877 279.369 309.154L277.397 311.13L276.926 311.601H276.957C277.056 311.536 277.124 311.493 277.162 311.473C277.199 311.452 277.259 311.43 277.341 311.406C277.426 311.383 277.52 311.371 277.623 311.371Z" fill="white"/>
<circle cx="277.862" cy="344.786" r="13.9949" fill="#3A424A"/>
<path d="M277.519 347.211C277.731 347.211 277.901 347.295 278.031 347.462C278.161 347.626 278.226 347.842 278.226 348.112C278.226 348.815 277.895 349.442 277.232 349.991L277.058 349.822C276.922 349.686 276.925 349.546 277.069 349.402C277.352 349.119 277.514 348.848 277.555 348.588C277.493 348.602 277.444 348.609 277.406 348.609C277.246 348.609 277.106 348.542 276.987 348.409C276.871 348.276 276.812 348.112 276.812 347.918C276.812 347.713 276.879 347.544 277.012 347.411C277.145 347.277 277.314 347.211 277.519 347.211Z" fill="white"/>
<circle cx="361.143" cy="201.425" r="13.9949" fill="#3A424A"/>
<path fill-rule="evenodd" clip-rule="evenodd" d="M364.014 198.552C364.281 198.818 364.281 199.25 364.014 199.517L359.236 204.296C358.969 204.562 358.537 204.562 358.27 204.296C358.004 204.029 358.004 203.597 358.27 203.33L363.049 198.552C363.316 198.285 363.748 198.285 364.014 198.552Z" fill="white"/>
<path fill-rule="evenodd" clip-rule="evenodd" d="M358.27 198.552C358.537 198.285 358.969 198.285 359.236 198.552L364.014 203.331C364.281 203.597 364.281 204.03 364.014 204.296C363.748 204.563 363.316 204.563 363.049 204.296L358.27 199.517C358.004 199.251 358.004 198.819 358.27 198.552Z" fill="white"/>
<circle cx="236.214" cy="201.425" r="13.9949" fill="#3A424A"/>
<path d="M236.792 205.272C236.095 205.272 235.459 205.109 234.882 204.781C234.305 204.453 233.851 204.003 233.52 203.429C233.189 202.852 233.023 202.217 233.023 201.525C233.023 200.832 233.189 200.198 233.52 199.625C233.851 199.048 234.305 198.596 234.882 198.268C235.459 197.937 236.095 197.771 236.792 197.771C237.28 197.771 237.761 197.874 238.236 198.079C238.71 198.28 239.11 198.55 239.434 198.888L239.198 199.113C239.075 199.236 238.941 199.314 238.794 199.348C238.647 199.383 238.5 199.362 238.353 199.287C237.886 198.953 237.365 198.785 236.792 198.785C236.283 198.785 235.819 198.905 235.399 199.144C234.979 199.383 234.647 199.712 234.401 200.132C234.158 200.552 234.037 201.016 234.037 201.525C234.037 202.033 234.158 202.497 234.401 202.917C234.647 203.337 234.979 203.666 235.399 203.905C235.819 204.144 236.283 204.264 236.792 204.264C237.369 204.264 237.894 204.09 238.369 203.742C238.516 203.663 238.664 203.639 238.814 203.67C238.968 203.697 239.108 203.769 239.234 203.885L239.475 204.115C239.147 204.467 238.743 204.748 238.261 204.96C237.783 205.168 237.294 205.272 236.792 205.272Z" fill="white"/>
<circle cx="277.854" cy="201.425" r="13.9949" fill="#3A424A"/>
<path d="M274.359 202.1C274.359 202.708 274.463 203.343 274.671 204.005C274.879 204.667 275.144 205.285 275.465 205.858C275.598 206.104 275.664 206.282 275.664 206.391C275.664 206.473 275.637 206.55 275.583 206.621C275.531 206.693 275.467 206.742 275.388 206.77L275.045 206.898C274.533 206.225 274.134 205.469 273.847 204.63C273.564 203.786 273.422 202.945 273.422 202.105C273.422 201.249 273.564 200.395 273.847 199.545C274.134 198.695 274.533 197.934 275.045 197.262L275.388 197.39C275.47 197.42 275.536 197.472 275.588 197.543C275.639 197.615 275.664 197.692 275.664 197.774C275.664 197.903 275.598 198.078 275.465 198.296C275.141 198.839 274.874 199.45 274.666 200.129C274.461 200.805 274.359 201.462 274.359 202.1Z" fill="white"/>
<path d="M280.67 202.1C280.67 201.462 280.566 200.805 280.358 200.129C280.153 199.45 279.888 198.839 279.564 198.296C279.431 198.067 279.364 197.893 279.364 197.774C279.364 197.692 279.39 197.615 279.441 197.543C279.492 197.472 279.559 197.42 279.641 197.39L279.984 197.262C280.496 197.934 280.894 198.695 281.177 199.545C281.464 200.395 281.607 201.249 281.607 202.105C281.607 202.945 281.464 203.786 281.177 204.63C280.894 205.469 280.496 206.225 279.984 206.898L279.641 206.77C279.562 206.742 279.496 206.693 279.441 206.621C279.39 206.55 279.364 206.473 279.364 206.391C279.364 206.282 279.431 206.104 279.564 205.858C279.885 205.285 280.149 204.667 280.358 204.005C280.566 203.343 280.67 202.708 280.67 202.1Z" fill="white"/>
<circle cx="319.503" cy="201.425" r="13.9949" fill="#3A424A"/>
<path d="M320.942 198.313C321.021 198.169 321.132 198.055 321.275 197.97C321.422 197.884 321.574 197.842 321.731 197.842H322.207L318.085 204.708C317.996 204.851 317.88 204.966 317.737 205.051C317.597 205.136 317.45 205.179 317.297 205.179H316.82L320.942 198.313ZM315.469 200.013C315.469 199.351 315.609 198.83 315.889 198.451C316.168 198.072 316.556 197.883 317.051 197.883C317.546 197.883 317.933 198.074 318.213 198.456C318.496 198.835 318.638 199.354 318.638 200.013C318.638 200.672 318.496 201.19 318.213 201.569C317.933 201.945 317.546 202.132 317.051 202.132C316.556 202.132 316.168 201.945 315.889 201.569C315.609 201.19 315.469 200.672 315.469 200.013ZM316.488 199.055C316.351 199.287 316.283 199.607 316.283 200.013C316.283 200.419 316.351 200.738 316.488 200.97C316.624 201.202 316.812 201.318 317.051 201.318C317.29 201.318 317.478 201.202 317.614 200.97C317.754 200.738 317.824 200.419 317.824 200.013C317.824 199.607 317.754 199.287 317.614 199.055C317.478 198.823 317.29 198.707 317.051 198.707C316.812 198.707 316.624 198.823 316.488 199.055ZM320.364 203.115C320.364 202.453 320.504 201.933 320.783 201.554C321.063 201.175 321.451 200.986 321.946 200.986C322.441 200.986 322.828 201.177 323.108 201.559C323.391 201.938 323.533 202.457 323.533 203.115C323.533 203.774 323.391 204.293 323.108 204.672C322.828 205.047 322.441 205.235 321.946 205.235C321.451 205.235 321.063 205.047 320.783 204.672C320.504 204.293 320.364 203.774 320.364 203.115ZM321.382 202.158C321.246 202.39 321.178 202.709 321.178 203.115C321.178 203.522 321.246 203.841 321.382 204.073C321.519 204.305 321.707 204.421 321.946 204.421C322.185 204.421 322.372 204.305 322.509 204.073C322.649 203.841 322.719 203.522 322.719 203.115C322.719 202.709 322.649 202.39 322.509 202.158C322.372 201.926 322.185 201.81 321.946 201.81C321.707 201.81 321.519 201.926 321.382 202.158Z" fill="white"/>
<circle cx="319.503" cy="236.921" r="13.9949" fill="#3A424A"/>
<path d="M319.48 233.268C320.17 233.268 320.736 233.481 321.18 233.908C321.624 234.334 321.846 234.879 321.846 235.541C321.846 236.391 321.636 237.249 321.216 238.116C320.8 238.983 320.258 239.741 319.593 240.39C319.395 240.581 319.106 240.676 318.728 240.676H317.898C319.205 239.509 320.054 238.429 320.443 237.435C320.112 237.657 319.716 237.768 319.255 237.768C318.627 237.768 318.115 237.557 317.719 237.133C317.323 236.707 317.125 236.174 317.125 235.536C317.125 234.877 317.347 234.334 317.791 233.908C318.234 233.481 318.798 233.268 319.48 233.268ZM318.497 234.614C318.241 234.853 318.113 235.16 318.113 235.536C318.113 235.911 318.241 236.222 318.497 236.468C318.757 236.713 319.086 236.836 319.485 236.836C319.786 236.836 320.055 236.759 320.294 236.606C320.537 236.449 320.716 236.247 320.832 236.002C320.849 235.906 320.858 235.753 320.858 235.541C320.858 235.165 320.728 234.857 320.468 234.614C320.209 234.372 319.88 234.251 319.48 234.251C319.081 234.251 318.753 234.372 318.497 234.614Z" fill="white"/>
<circle cx="319.503" cy="272.423" r="13.9949" fill="#3A424A"/>
<path d="M319.747 271.77C320.375 271.77 320.887 271.983 321.283 272.41C321.679 272.833 321.877 273.364 321.877 274.002C321.877 274.661 321.655 275.203 321.211 275.63C320.768 276.057 320.204 276.27 319.522 276.27C318.832 276.27 318.266 276.057 317.822 275.63C317.378 275.203 317.156 274.659 317.156 273.997C317.156 273.147 317.364 272.288 317.781 271.421C318.201 270.554 318.743 269.797 319.409 269.148C319.607 268.957 319.896 268.861 320.274 268.861H321.104C319.797 270.029 318.948 271.109 318.559 272.102C318.89 271.88 319.286 271.77 319.747 271.77ZM318.534 274.924C318.793 275.166 319.122 275.287 319.522 275.287C319.921 275.287 320.249 275.168 320.505 274.929C320.761 274.686 320.889 274.377 320.889 274.002C320.889 273.626 320.759 273.316 320.5 273.07C320.244 272.824 319.916 272.701 319.517 272.701C319.216 272.701 318.945 272.78 318.703 272.937C318.464 273.091 318.286 273.29 318.17 273.536C318.153 273.632 318.144 273.785 318.144 273.997C318.144 274.372 318.274 274.681 318.534 274.924Z" fill="white"/>
<circle cx="319.503" cy="308.604" r="13.9949" fill="#3A424A"/>
<path d="M320.337 308.438C320.777 308.52 321.135 308.733 321.412 309.078C321.692 309.423 321.832 309.829 321.832 310.297C321.832 310.928 321.612 311.445 321.171 311.848C320.731 312.247 320.156 312.447 319.446 312.447C319.016 312.447 318.594 312.351 318.181 312.16C317.771 311.969 317.445 311.728 317.203 311.438L317.377 311.131C317.463 310.974 317.577 310.885 317.72 310.865C317.864 310.841 318.007 310.894 318.15 311.024C318.475 311.321 318.893 311.469 319.405 311.469C319.855 311.469 320.209 311.358 320.465 311.136C320.721 310.914 320.849 310.609 320.849 310.22C320.849 309.831 320.716 309.525 320.449 309.303C320.186 309.078 319.835 308.965 319.395 308.965H318.714V307.982H319.395C319.743 307.982 320.016 307.895 320.214 307.721C320.415 307.547 320.516 307.301 320.516 306.984C320.516 306.625 320.412 306.363 320.204 306.195C319.995 306.028 319.724 305.944 319.389 305.944C318.966 305.944 318.58 306.095 318.232 306.395C318.144 306.47 318.055 306.513 317.966 306.523C317.877 306.53 317.799 306.513 317.73 306.472C317.666 306.427 317.609 306.368 317.562 306.293L317.408 306.052C317.623 305.721 317.922 305.455 318.304 305.253C318.69 305.052 319.087 304.951 319.497 304.951C320.074 304.951 320.548 305.125 320.92 305.473C321.292 305.818 321.478 306.284 321.478 306.871C321.478 307.271 321.374 307.61 321.166 307.89C320.958 308.167 320.681 308.349 320.337 308.438Z" fill="white"/>
</svg>
