<svg width="903" height="500" viewBox="0 0 903 500" fill="none" xmlns="http://www.w3.org/2000/svg">
<rect width="903" height="500" fill="#EAEBEC"/>
<path d="M608.826 250.416V265.786H591.992V250.416H584.734V288.475H591.992V273.044H608.826V288.475H616.084V250.416H608.826Z" fill="#424A52"/>
<path d="M573.649 268.35C574.686 267.252 576.455 264.934 576.455 261.763C576.455 255.542 571.209 250.479 564.744 250.479H547.605V288.355H567.489C573.893 288.355 579.199 283.293 579.199 277.072C579.199 273.351 576.516 269.997 573.649 268.35ZM554.864 257.798H564.5C566.879 257.798 568.77 259.689 568.77 262.007C568.77 264.385 566.879 266.276 564.5 266.276L554.864 266.215V257.798ZM567.245 281.097H554.864V275.303V272.558H567.245C569.624 272.558 571.575 274.449 571.575 276.828C571.575 279.146 569.624 281.097 567.245 281.097Z" fill="#424A52"/>
<path d="M403.898 242.852C398.897 242.852 393.895 240.961 390.114 237.18C386.515 233.52 384.502 228.702 384.441 223.518C384.441 221.566 384.746 219.675 385.295 217.784C386.21 214.735 387.857 211.929 390.114 209.672C397.738 202.109 410.058 202.109 417.621 209.672C425.184 217.296 425.184 229.617 417.621 237.18C413.84 240.961 408.838 242.852 403.898 242.852ZM391.76 223.457C391.76 226.689 392.98 229.739 395.298 231.995C399.994 236.753 407.74 236.753 412.437 231.995C417.194 227.299 417.194 219.553 412.437 214.857C407.74 210.099 399.994 210.099 395.298 214.857C393.834 216.259 392.858 217.967 392.248 219.919C391.882 221.078 391.699 222.237 391.76 223.457Z" fill="#D61C38"/>
<path d="M356.936 242.425H349.617V204H363.767C371.94 204 378.589 210.648 378.589 218.821C378.589 227.055 371.94 233.703 363.767 233.703H356.936V242.425ZM356.936 226.384H363.767C367.915 226.384 371.33 223.03 371.33 218.821C371.33 214.674 367.915 211.319 363.767 211.319H356.936V226.384Z" fill="#D61C38"/>
<path d="M425.009 288.353C420.252 289.695 414.946 289.207 410.249 286.585C405.797 284.023 402.503 279.936 401.1 274.935C400.552 273.105 400.308 271.153 400.369 269.202C400.43 266.03 401.283 262.859 402.869 260.114C408.115 250.782 420.008 247.427 429.34 252.673C438.672 257.979 441.965 269.812 436.72 279.143C434.097 283.84 429.828 287.011 425.009 288.353ZM408.115 272.922C408.968 276.033 411.042 278.656 413.848 280.18C419.703 283.474 427.083 281.4 430.377 275.606C433.67 269.751 431.597 262.31 425.741 259.016C419.886 255.783 412.506 257.857 409.212 263.651C408.237 265.42 407.688 267.372 407.627 269.385C407.627 270.544 407.81 271.763 408.115 272.922Z" fill="#D61C38"/>
<path d="M454.701 242.361H429.328V204.424H436.586V235.103H450.127C452.627 235.103 454.701 237.116 454.701 239.678V242.361Z" fill="#D61C38"/>
<path d="M305.396 288.842C300.455 288.842 295.454 286.951 291.672 283.169C284.109 275.606 284.109 263.286 291.672 255.662C295.332 252.002 300.211 249.99 305.396 249.99C310.58 249.99 315.459 252.002 319.18 255.662L316.801 258.041C315.337 259.504 313.142 259.809 311.373 258.834C308.506 257.248 305.091 256.821 301.675 257.858C301.126 258.041 300.577 258.224 300.089 258.468C292.282 262.493 291.184 272.374 296.857 278.046C300.76 281.95 306.798 282.621 311.434 279.998C313.142 279.022 315.398 279.388 316.801 280.791L319.18 283.169C315.398 286.951 310.397 288.842 305.396 288.842Z" fill="#D61C38"/>
<path d="M485.816 204.303H479.473C477.948 204.303 476.484 205.096 475.63 206.377L466.054 221.503L456.479 206.377C455.625 205.096 454.222 204.303 452.697 204.303H446.293L462.395 229.127V242.362H469.714V229.127L485.816 204.303Z" fill="#D61C38"/>
<path d="M478.797 252.49L466.05 272.252L453.302 252.49C452.449 251.209 450.985 250.416 449.46 250.416H445.312V288.475H452.571V264.81L466.05 285.67L479.529 264.81V288.475H486.787V250.416H482.64C481.115 250.416 479.651 251.209 478.797 252.49Z" fill="#D61C38"/>
<path d="M349.608 250.416V265.786H332.774V250.416H325.516V288.475H332.774V273.044H349.608V288.475H356.927V250.416H349.608Z" fill="#D61C38"/>
<path d="M523.081 257.796V250.477L494.902 250.416V288.475L523.081 288.353V281.095H502.16V273.044H512.712C515.213 273.044 517.287 271.032 517.287 268.47V265.786H502.16V257.796H523.081Z" fill="#D61C38"/>
<path d="M390.418 279.023C389.808 278.291 389.015 277.742 388.223 277.315C392.126 274.632 394.749 270.179 394.749 265.056C394.749 256.883 388.101 250.174 379.928 250.174H365.777V288.66H373.035V279.877H379.928C380.415 279.877 380.964 279.877 381.513 279.816L387.613 287.013C388.466 288.05 389.747 288.66 391.089 288.66H398.53L390.418 279.023ZM373.035 272.619V257.493H379.928C384.075 257.493 387.43 260.908 387.43 265.056C387.43 269.203 384.075 272.619 379.928 272.619H373.035Z" fill="#D61C38"/>
<path d="M411.949 256.517L405.605 238.83L412.254 236.451L418.597 254.139L411.949 256.517Z" fill="#D61C38"/>
<path d="M536.002 296.71H534.66V241.878H536.002V296.71Z" fill="#424A52"/>
<path fill-rule="evenodd" clip-rule="evenodd" d="M640.57 281L650.094 291.714V282.941C650.095 282.96 650.095 282.98 650.095 283V329C650.095 330.104 649.199 331 648.095 331H614C612.895 331 612 330.104 612 329V283C612 281.895 612.895 281 614 281H640.595C640.586 281 640.578 281 640.57 281Z" fill="#D61C38"/>
<path d="M640.568 281L650.203 291.715L642.495 291.715C640.954 291.715 640.568 290.571 640.568 289.929L640.568 281Z" fill="white"/>
<path d="M621.851 322.091V323.859H620.07V322.091H621.851Z" fill="white"/>
<path d="M624.998 317.101V318.005C625.452 317.272 626.186 316.905 627.198 316.905C628.132 316.905 628.879 317.232 629.438 317.887C629.996 318.542 630.276 319.415 630.276 320.506C630.276 321.571 630.001 322.427 629.451 323.073C628.909 323.71 628.185 324.029 627.277 324.029C626.317 324.029 625.583 323.675 625.077 322.968V326.36H623.597V317.101H624.998ZM626.897 318.11C626.312 318.11 625.854 318.319 625.522 318.738C625.19 319.157 625.024 319.738 625.024 320.48C625.024 321.213 625.19 321.789 625.522 322.209C625.863 322.628 626.33 322.837 626.923 322.837C627.491 322.837 627.94 322.628 628.272 322.209C628.604 321.789 628.77 321.222 628.77 320.506C628.77 319.773 628.599 319.192 628.259 318.765C627.927 318.328 627.473 318.11 626.897 318.11Z" fill="white"/>
<path d="M637.98 314.535V323.859H636.579V322.929C636.151 323.671 635.431 324.042 634.418 324.042C633.466 324.042 632.707 323.719 632.139 323.073C631.581 322.427 631.301 321.558 631.301 320.467C631.301 319.384 631.576 318.524 632.126 317.887C632.685 317.241 633.431 316.918 634.366 316.918C635.317 316.918 636.033 317.272 636.513 317.979V314.535H637.98ZM634.641 318.123C634.073 318.123 633.624 318.332 633.292 318.751C632.969 319.162 632.807 319.725 632.807 320.441C632.807 321.183 632.973 321.768 633.305 322.195C633.645 322.623 634.108 322.837 634.693 322.837C635.278 322.837 635.732 322.628 636.055 322.209C636.387 321.789 636.552 321.209 636.552 320.467C636.552 319.725 636.382 319.149 636.042 318.738C635.71 318.328 635.243 318.123 634.641 318.123Z" fill="white"/>
<path d="M642.934 314.522V315.674C642.646 315.648 642.428 315.635 642.279 315.635C641.974 315.635 641.769 315.692 641.664 315.805C641.559 315.91 641.507 316.124 641.507 316.447V317.101H642.79V318.188H641.52V323.859H640.04V318.188H638.927V317.101H640.04V316.565C640.04 315.857 640.193 315.334 640.498 314.993C640.804 314.653 641.319 314.482 642.044 314.482C642.34 314.482 642.637 314.496 642.934 314.522Z" fill="white"/>
</svg>
