<svg width="109" height="42" viewBox="0 0 109 42" fill="none" xmlns="http://www.w3.org/2000/svg">
<path fill-rule="evenodd" clip-rule="evenodd" d="M34.1976 26.9488C27.0269 27.5767 20.5351 29.6982 14.7476 32.3459C8.451 35.2226 9.64752 35.4602 11.4041 34.4843C20.4163 29.4946 34.1466 26.1341 43.7613 30.4026C57.4323 36.4785 68.2689 40.6197 83.0939 33.9582C85.0542 33.0757 87.2012 31.7518 88.9323 30.4535C89.2718 30.2074 90.9011 29.223 89.3227 29.1976C86.395 29.1551 75.8554 31.8706 66.7669 31.4633C54.0548 30.8948 44.525 26.0408 34.1976 26.9488Z" fill="white"/>
<path fill-rule="evenodd" clip-rule="evenodd" d="M63.9947 11.2602C63.9947 13.9163 63.8844 21.6132 64.0626 23.7177C67.6607 24.142 66.8969 23.7941 66.8969 20.4506C66.8969 18.974 66.8715 17.4635 66.9139 15.9869C67.8728 16.5385 70.9193 23.3952 71.8018 23.7177C72.1413 23.8365 73.3039 23.8195 73.7451 23.8025C74.6362 23.7771 74.7804 23.5989 74.7804 22.6739V10.9632C74.7804 10.0128 74.441 10.2079 72.7013 10.2079C71.4709 10.2079 71.8527 10.7595 71.8527 13.7806C71.8527 15.0789 71.9715 17.1495 71.7933 18.3545C71.2842 17.8623 69.7312 14.9771 69.2475 14.12C68.8317 13.3647 68.4414 12.7028 68.0001 11.9561C66.9563 10.1825 67.5164 10.2079 64.9876 10.2079C64.1305 10.2079 63.9947 10.4371 63.9947 11.2602Z" fill="white"/>
<path fill-rule="evenodd" clip-rule="evenodd" d="M85.6162 23.6227C85.6586 23.2153 85.6925 22.7741 85.6841 22.3667C85.6841 22.2225 85.6671 21.9255 85.6331 21.7982C85.4719 21.2381 85.701 21.6624 85.3786 21.3824C84.8355 21.009 81.6277 21.3315 80.6519 21.0854C80.2954 20.1264 80.4142 19.2354 80.4142 18.0813C85.2937 18.0813 85.4804 18.6159 85.4974 16.8933C85.4974 16.8424 85.4889 16.3247 85.4804 16.2908C85.3022 15.0942 83.885 15.6119 80.4142 15.6034C80.4058 14.5172 80.1936 13.4649 80.8555 12.8539C82.0266 12.4211 84.4621 13.117 85.4295 12.5993C85.4549 12.5654 85.4804 12.4721 85.4889 12.4975C85.4974 12.5145 85.5398 12.4127 85.5568 12.3872C85.7774 11.7592 85.701 11.004 85.5907 10.359C83.9529 9.93474 80.1936 9.73108 78.7595 10.6476C76.7992 11.895 77.2574 14.4069 77.2574 17.0375C77.2574 19.6343 76.8247 22.2225 78.8104 23.3851C80.3209 24.2676 83.9359 24.0894 85.6162 23.6227Z" fill="white"/>
<path fill-rule="evenodd" clip-rule="evenodd" d="M23.8794 23.5535L23.8709 21.3047C22.6489 21.152 19.9334 21.5254 19.0169 21.0501C18.4229 20.3882 18.6689 18.9965 18.6689 18.08C22.6913 18.08 24.4819 18.9711 23.6842 15.653L18.6689 15.5936C18.6689 14.7111 18.6435 13.7607 18.8217 12.9715C20.6462 12.1823 24.8213 14.2019 23.8963 10.6718C23.6417 9.72132 18.9914 10.0353 18.2362 10.188C15.4188 10.7651 15.4952 12.9205 15.4952 15.8567C15.4952 18.2752 15.0454 21.8648 16.6578 23.1122C17.9307 24.0966 22.3179 24.3597 23.8794 23.5535Z" fill="white"/>
<path fill-rule="evenodd" clip-rule="evenodd" d="M34.2527 21.2285C33.472 20.6938 31.2487 21.5764 30.1031 20.9314C29.0084 20.312 29.0508 18.6063 29.0508 17.0364C29.0508 15.4071 28.915 13.8711 30.0607 13.1073C30.8074 12.6152 32.2161 12.7764 33.1496 12.8612C33.2599 12.8697 33.6078 12.8952 33.6927 12.8952C33.7521 12.8952 34.2018 12.8952 34.3206 12.7424C34.4225 12.403 34.5073 11.1216 34.3715 10.6973C34.1255 9.9166 30.3322 9.72142 28.5756 10.587C26.2844 11.7072 25.8516 13.8456 25.8516 17.0364C25.8431 22.0771 27.6591 24.4362 32.5555 23.9185C33.1326 23.8591 34.1679 23.7827 34.3546 23.35C34.5498 22.8663 34.4479 21.5255 34.2527 21.2285Z" fill="white"/>
<path fill-rule="evenodd" clip-rule="evenodd" d="M48.8203 10.9618V20.0079C48.8203 24.2 52.1808 24.2 55.4818 23.8521C56.7123 23.7248 56.8141 23.6145 56.5511 21.3317C54.455 20.8565 52.045 22.2567 51.9432 20.0164C51.9262 19.5412 51.9517 19.0065 51.9517 18.5228L51.9601 11.0891C51.9347 10.0029 51.8413 10.2066 49.5671 10.2066C48.8797 10.2066 48.8203 10.2744 48.8203 10.9618Z" fill="white"/>
<path fill-rule="evenodd" clip-rule="evenodd" d="M61.3487 23.6069C61.5439 22.9025 61.5354 10.9373 61.3402 10.3093C60.6529 10.0717 59.2018 10.1056 58.3786 10.2838C58.1919 11.1664 58.2513 20.7386 58.2938 22.8431C58.3107 23.7766 58.438 23.8105 59.346 23.8021C60.0758 23.8021 60.899 23.8954 61.3487 23.6069Z" fill="white"/>
<path fill-rule="evenodd" clip-rule="evenodd" d="M35.7343 18.5235C35.5985 14.0513 35.7343 11.0897 39.7906 10.1732C41.5812 9.77439 43.6178 10.2072 44.7465 11.1746C45.8751 12.142 46.4776 13.4998 46.554 15.5534C46.7067 19.8897 46.4012 22.9532 42.5571 23.8272C38.5347 24.7437 35.8446 22.2743 35.7343 18.5235ZM38.9109 16.8469C38.8701 15.0848 38.8282 13.2815 40.5526 12.8541C42.9372 12.277 43.3869 14.2203 43.3954 16.2994C43.3963 16.4966 43.4004 16.7025 43.4046 16.9134C43.439 18.6627 43.4803 20.7587 41.7916 21.1449C39.2967 21.7135 38.9233 19.6938 38.9233 17.6402C38.9233 17.38 38.9171 17.1139 38.9109 16.8469Z" fill="white"/>
</svg>
