<svg width="109" height="32" viewBox="0 0 109 32" fill="none" xmlns="http://www.w3.org/2000/svg">
<path d="M33.7768 8.26953H37.4711C37.3874 9.25932 37.3177 10.2631 37.2759 11.2877C37.2341 12.3054 37.2132 13.3579 37.2132 14.4453C37.2132 15.679 37.2341 16.8082 37.2829 17.8259C37.3317 18.8436 37.4014 19.7985 37.499 20.6837H33.7489C33.8465 19.7288 33.9232 18.7251 33.972 17.6865C34.0277 16.6479 34.0486 15.5675 34.0486 14.4453C34.0486 13.3649 34.0277 12.3193 33.9789 11.2877C33.9301 10.27 33.8604 9.25932 33.7768 8.26953ZM25.1335 18.5787H25.2172C25.8166 18.6136 26.2418 18.6275 26.4858 18.6275C27.6498 18.6275 28.4863 18.4881 29.0021 18.2023C29.5109 17.9165 29.7619 17.4565 29.7619 16.8082C29.7619 16.167 29.5179 15.7069 29.03 15.4351C28.542 15.1632 27.6777 15.0308 26.437 15.0308C26.0954 15.0308 25.8306 15.0308 25.6424 15.0308C25.4542 15.0378 25.2799 15.0447 25.1196 15.0517C25.1126 15.7348 25.1126 16.4736 25.1196 17.2543C25.1335 18.042 25.1335 18.4811 25.1335 18.5787ZM21.9272 8.26953H25.3845C25.3078 9.099 25.2451 9.91454 25.2032 10.7022C25.1544 11.4898 25.1335 12.2635 25.1196 13.0163H26.2139C28.6187 13.0163 30.3404 13.3091 31.372 13.8946C32.4036 14.4732 32.9264 15.4211 32.9264 16.7385C32.9264 18.0977 32.3688 19.1015 31.2465 19.7358C30.1313 20.3631 28.3678 20.6837 25.9491 20.6837H21.9062C22.0038 19.7288 22.0735 18.7251 22.1223 17.6865C22.1642 16.6479 22.192 15.5675 22.192 14.4453C22.192 13.3091 22.1711 12.2357 22.1293 11.211C22.0805 10.1934 22.0178 9.21053 21.9272 8.26953Z" fill="white"/>
<path d="M38.6198 8.26953H47.7301L49.2636 10.8764C48.7199 10.751 47.8834 10.6952 47.27 10.6325C46.6566 10.5767 45.9945 10.5419 45.2835 10.5419C45.2835 10.6534 45.2765 10.8207 45.2695 11.0368C45.2486 11.7408 45.2347 12.2287 45.2347 12.4796C45.2347 14.4801 45.2626 16.0903 45.3114 17.2962C45.3671 18.509 45.4438 19.6382 45.5553 20.6837H41.8262C41.9307 19.673 42.0074 18.6205 42.0562 17.5331C42.098 16.4458 42.1259 15.3235 42.1259 14.1665C42.1259 13.2952 42.1189 12.6051 42.112 12.0823C42.105 11.5595 42.091 11.0437 42.0771 10.5419C41.3104 10.5419 40.6273 10.5767 40.0278 10.6325C39.4214 10.6952 38.8777 10.7858 38.3828 10.9183L38.6198 8.26953Z" fill="white"/>
<path d="M61.5834 8.26953H63.9812C63.8976 9.2175 63.8418 10.2631 63.793 11.4062C63.7512 12.5424 63.7303 13.797 63.7303 15.1702V16.2924C64.5388 15.219 65.3474 14.1037 66.142 12.9466C66.9436 11.7896 67.7313 10.5976 68.5119 9.37085C68.5119 9.21053 68.5119 9.04324 68.498 8.85504C68.4841 8.67381 68.4631 8.47864 68.4422 8.26953H71.9344C71.8507 9.41267 71.788 10.4931 71.7392 11.5038C71.6974 12.5215 71.6695 13.5043 71.6695 14.4453C71.6695 15.7348 71.6974 16.8849 71.7462 17.8956C71.795 18.9063 71.8647 19.8403 71.9692 20.6837H68.4213C68.491 19.7079 68.5468 18.6275 68.5816 17.4286C68.6165 16.2227 68.6304 14.6404 68.6304 12.6748C67.8776 13.6855 67.1039 14.7659 66.3093 15.909C65.5147 17.0522 64.6782 18.2929 63.8139 19.6312C63.8139 19.7776 63.8209 20.0285 63.8348 20.398C63.8418 20.5165 63.8488 20.614 63.8627 20.6837H63.0263H60.3984C60.496 19.8543 60.5727 18.9342 60.6145 17.9165C60.6633 16.8988 60.6912 15.7418 60.6912 14.4453C60.6912 13.4903 60.6703 12.5075 60.6285 11.4829C60.6075 11.1065 60.5378 9.60784 60.5378 9.60784L61.5834 8.26953Z" fill="white"/>
<path d="M74.5693 8.26953H78.633C78.9745 9.37782 79.3858 10.5837 79.8528 11.8871C80.3268 13.1906 80.8635 14.6056 81.4699 16.1251C81.9718 14.8496 82.4388 13.56 82.871 12.2566C83.3101 10.9462 83.7074 9.62178 84.0699 8.26953H88.036C88.1336 10.2352 88.3427 12.2496 88.6703 14.3198C88.9979 16.383 89.444 18.509 90.0017 20.6837H86.4746C86.4398 19.5546 86.3492 18.2441 86.2028 16.7664C86.0495 15.2887 85.8334 13.5252 85.5406 11.4759C84.9412 12.9815 84.3766 14.501 83.8538 16.0345C83.331 17.561 82.8501 19.1154 82.404 20.6837H80.2013C79.6925 18.9481 79.1697 17.331 78.6539 15.8393C78.1242 14.3477 77.5805 12.9118 76.995 11.5247C76.7719 13.0791 76.5907 14.6195 76.4443 16.1391C76.3049 17.6586 76.2003 19.1782 76.1306 20.6837H72.75C73.2588 18.3138 73.6631 16.0972 73.9698 14.034C74.2695 11.9708 74.4717 10.047 74.5693 8.26953Z" fill="white"/>
<path d="M17.0958 18.2023C16.587 18.4881 15.7436 18.6275 14.5795 18.6275C14.3356 18.6275 13.9104 18.6136 13.3109 18.5787H13.2273C13.2273 18.4811 13.2273 18.042 13.2203 17.2613C13.2133 16.4736 13.2133 15.7348 13.2203 15.0517C13.3806 15.0447 13.5479 15.0378 13.7361 15.0308C13.9243 15.0308 14.1892 15.0308 14.5307 15.0308C15.7715 15.0308 16.6358 15.1632 17.1237 15.4351C17.6116 15.7069 17.8626 16.16 17.8626 16.8082C17.8626 17.4565 17.6047 17.9165 17.0958 18.2023ZM19.4727 13.8946C18.4341 13.3091 16.7125 13.0163 14.3077 13.0163H13.2203C13.2203 12.3611 13.2552 11.685 13.283 11.0089L13.5619 10.8207H14.6492C15.416 10.8207 16.12 10.8486 16.7822 10.9043C17.4374 10.9601 18.0647 11.0437 18.6572 11.1622L18.3017 8.26953H13.4852H10.4879H10.0209C10.1115 9.21053 10.1743 10.1934 10.2231 11.211C10.2649 12.2357 10.2858 13.3091 10.2858 14.4453C10.2858 15.5675 10.2649 16.6479 10.2161 17.6865C10.1673 18.732 10.0976 19.7288 10 20.6837H14.0428C16.4615 20.6837 18.225 20.3631 19.3403 19.7358C20.4625 19.1015 21.0201 18.0977 21.0201 16.7385C21.0201 15.4211 20.5043 14.4732 19.4727 13.8946Z" fill="white"/>
<path d="M56.8631 12.6043C58.55 10.0113 63.6105 4.00289 63.6105 4.00289C63.6105 4.00289 59.247 3.8356 57.4765 6.04521C56.8283 6.85377 55.964 8.49181 55.1484 9.69768C55.6782 10.7502 56.2846 11.6773 56.8631 12.6043Z" fill="white"/>
<path d="M56.5661 14.3198C56.4266 14.0828 56.2872 13.8528 56.1478 13.6228L54.5098 10.8416C54.0288 9.97727 53.5618 9.11992 53.1227 8.26953H49.0102C49.7421 9.4754 51.0943 11.685 52.2653 13.6019C48.7802 18.3278 42.3047 27.1104 42.3047 27.1104C45.0789 27.1104 49.2611 25.4724 49.2611 25.4724L54.2867 17.0104C55.0605 18.3905 55.7157 19.6173 56.2454 20.6837H59.2218C59.2218 20.6837 59.41 20.0982 59.4727 18.5648C58.6363 17.3449 57.3119 15.5048 56.5661 14.3198Z" fill="white"/>
</svg>
