<svg width="140" height="40" viewBox="0 0 140 40" fill="none" xmlns="http://www.w3.org/2000/svg">
<mask id="mask0_796_89" style="mask-type:luminance" maskUnits="userSpaceOnUse" x="0" y="0" width="35" height="40">
<path d="M0 2.82606C0 4.42024 1.30435 5.65211 2.82607 5.65211C1.23189 5.65211 0 6.95645 0 8.47817C0 10.0724 1.30435 11.3042 2.82607 11.3042C1.23189 11.3042 0 12.6086 0 14.1303C0 15.652 1.30435 16.9563 2.82607 16.9563C1.23189 16.9563 0 18.2607 0 19.7824C0 21.3766 1.30435 22.6084 2.82607 22.6084C1.23189 22.6084 0 23.9128 0 25.4345C0 27.0287 1.30435 28.2606 2.82607 28.2606C1.23189 28.2606 0 29.5649 0 31.0866C0 32.6083 1.30435 33.9127 2.82607 33.9127C1.23189 33.9127 0 35.217 0 36.7387C0 38.2604 1.30435 39.5648 2.82607 39.5648C4.3478 39.5648 5.65212 38.2604 5.65212 36.7387C5.65212 35.217 4.3478 33.9127 2.82607 33.9127C4.42026 33.9127 5.65212 32.6083 5.65212 31.0866C5.65212 29.5649 4.3478 28.2606 2.82607 28.2606C4.42026 28.2606 5.65212 26.9562 5.65212 25.4345C5.65212 23.8403 4.3478 22.6084 2.82607 22.6084C4.42026 22.6084 5.65212 21.3041 5.65212 19.7824C5.65212 18.1882 4.3478 16.9563 2.82607 16.9563C4.42026 16.9563 5.65212 15.652 5.65212 14.1303C5.65212 12.6086 4.3478 11.3042 2.82607 11.3042C4.42026 11.3042 5.65212 9.99989 5.65212 8.47817C5.65212 6.88398 4.3478 5.65211 2.82607 5.65211C4.42026 5.65211 5.65212 4.34778 5.65212 2.82606C5.65212 1.23187 4.3478 0 2.82607 0C1.30435 0 0 1.30433 0 2.82606ZM5.72459 2.82606C5.72459 4.42024 7.02892 5.65211 8.55064 5.65211C6.95646 5.65211 5.72459 6.95645 5.72459 8.47817C5.72459 10.0724 7.02892 11.3042 8.55064 11.3042C6.95646 11.3042 5.72459 12.6086 5.72459 14.1303C5.72459 15.652 7.02892 16.9563 8.55064 16.9563C6.95646 16.9563 5.72459 18.2607 5.72459 19.7824C5.72459 21.3766 7.02892 22.6084 8.55064 22.6084C6.95646 22.6084 5.72459 23.9128 5.72459 25.4345C5.72459 27.0287 7.02892 28.2606 8.55064 28.2606C6.95646 28.2606 5.72459 29.5649 5.72459 31.0866C5.72459 32.6083 7.02892 33.9127 8.55064 33.9127C6.95646 33.9127 5.72459 35.217 5.72459 36.7387C5.72459 38.2604 7.02892 39.5648 8.55064 39.5648C10.1448 39.5648 11.3767 38.2604 11.3767 36.7387C11.3767 35.217 10.0724 33.9127 8.55064 33.9127C10.1448 33.9127 11.3767 32.6083 11.3767 31.0866C11.3767 29.5649 10.0724 28.2606 8.55064 28.2606C10.1448 28.2606 11.3767 26.9562 11.3767 25.4345C11.3767 23.8403 10.0724 22.6084 8.55064 22.6084C10.1448 22.6084 11.3767 21.3041 11.3767 19.7824C11.3767 18.1882 10.0724 16.9563 8.55064 16.9563C10.1448 16.9563 11.3767 15.652 11.3767 14.1303C11.3767 12.6086 10.0724 11.3042 8.55064 11.3042C10.1448 11.3042 11.3767 9.99989 11.3767 8.47817C11.3767 6.88398 10.0724 5.65211 8.55064 5.65211C10.1448 5.65211 11.3767 4.34778 11.3767 2.82606C11.3767 1.23187 10.0724 0 8.55064 0C6.95646 0 5.72459 1.30433 5.72459 2.82606ZM11.4492 2.82606C11.4492 4.42024 12.7535 5.65211 14.2752 5.65211C12.681 5.65211 11.4492 6.95645 11.4492 8.47817C11.4492 10.0724 12.7535 11.3042 14.2752 11.3042C12.681 11.3042 11.4492 12.6086 11.4492 14.1303C11.4492 15.652 12.7535 16.9563 14.2752 16.9563C12.681 16.9563 11.4492 18.2607 11.4492 19.7824C11.4492 21.3766 12.7535 22.6084 14.2752 22.6084C12.681 22.6084 11.4492 23.9128 11.4492 25.4345C11.4492 27.0287 12.7535 28.2606 14.2752 28.2606C12.681 28.2606 11.4492 29.5649 11.4492 31.0866C11.4492 32.6083 12.7535 33.9127 14.2752 33.9127C12.681 33.9127 11.4492 35.217 11.4492 36.7387C11.4492 38.2604 12.7535 39.5648 14.2752 39.5648C15.8694 39.5648 17.1013 38.2604 17.1013 36.7387C17.1013 35.217 15.7969 33.9127 14.2752 33.9127C15.8694 33.9127 17.1013 32.6083 17.1013 31.0866C17.1013 29.5649 15.7969 28.2606 14.2752 28.2606C15.8694 28.2606 17.1013 26.9562 17.1013 25.4345C17.1013 23.8403 15.7969 22.6084 14.2752 22.6084C15.8694 22.6084 17.1013 21.3041 17.1013 19.7824C17.1013 18.1882 15.7969 16.9563 14.2752 16.9563C15.8694 16.9563 17.1013 15.652 17.1013 14.1303C17.1013 12.6086 15.7969 11.3042 14.2752 11.3042C15.8694 11.3042 17.1013 9.99989 17.1013 8.47817C17.1013 6.88398 15.7969 5.65211 14.2752 5.65211C15.8694 5.65211 17.1013 4.34778 17.1013 2.82606C17.1013 1.23187 15.7969 0 14.2752 0C12.681 0 11.4492 1.30433 11.4492 2.82606ZM17.1737 2.82606C17.1737 4.42024 18.4781 5.65211 19.9998 5.65211C18.4056 5.65211 17.1737 6.95645 17.1737 8.47817C17.1737 10.0724 18.4781 11.3042 19.9998 11.3042C18.4056 11.3042 17.1737 12.6086 17.1737 14.1303C17.1737 15.652 18.4781 16.9563 19.9998 16.9563C18.4056 16.9563 17.1737 18.2607 17.1737 19.7824C17.1737 21.3766 18.4781 22.6084 19.9998 22.6084C18.4056 22.6084 17.1737 23.9128 17.1737 25.4345C17.1737 27.0287 18.4781 28.2606 19.9998 28.2606C18.4056 28.2606 17.1737 29.5649 17.1737 31.0866C17.1737 32.6083 18.4781 33.9127 19.9998 33.9127C18.4056 33.9127 17.1737 35.217 17.1737 36.7387C17.1737 38.2604 18.4781 39.5648 19.9998 39.5648C21.594 39.5648 22.8258 38.2604 22.8258 36.7387C22.8258 35.217 21.5215 33.9127 19.9998 33.9127C21.594 33.9127 22.8258 32.6083 22.8258 31.0866C22.8258 29.5649 21.5215 28.2606 19.9998 28.2606C21.594 28.2606 22.8258 26.9562 22.8258 25.4345C22.8258 23.8403 21.5215 22.6084 19.9998 22.6084C21.594 22.6084 22.8258 21.3041 22.8258 19.7824C22.8258 18.1882 21.5215 16.9563 19.9998 16.9563C21.594 16.9563 22.8258 15.652 22.8258 14.1303C22.8258 12.6086 21.5215 11.3042 19.9998 11.3042C21.594 11.3042 22.8258 9.99989 22.8258 8.47817C22.8258 6.88398 21.5215 5.65211 19.9998 5.65211C21.594 5.65211 22.8258 4.34778 22.8258 2.82606C22.8258 1.23187 21.5215 0 19.9998 0C18.4056 0 17.1737 1.30433 17.1737 2.82606ZM22.8983 2.82606C22.8983 4.42024 24.2026 5.65211 25.7244 5.65211C24.1302 5.65211 22.8983 6.95645 22.8983 8.47817C22.8983 10.0724 24.2026 11.3042 25.7244 11.3042C24.1302 11.3042 22.8983 12.6086 22.8983 14.1303C22.8983 15.652 24.2026 16.9563 25.7244 16.9563C24.1302 16.9563 22.8983 18.2607 22.8983 19.7824C22.8983 21.3766 24.2026 22.6084 25.7244 22.6084C24.1302 22.6084 22.8983 23.9128 22.8983 25.4345C22.8983 27.0287 24.2026 28.2606 25.7244 28.2606C24.1302 28.2606 22.8983 29.5649 22.8983 31.0866C22.8983 32.6083 24.2026 33.9127 25.7244 33.9127C24.1302 33.9127 22.8983 35.217 22.8983 36.7387C22.8983 38.2604 24.2026 39.5648 25.7244 39.5648C27.2461 39.5648 28.5504 38.2604 28.5504 36.7387C28.5504 35.217 27.2461 33.9127 25.7244 33.9127C27.3185 33.9127 28.5504 32.6083 28.5504 31.0866C28.5504 29.5649 27.2461 28.2606 25.7244 28.2606C27.3185 28.2606 28.5504 26.9562 28.5504 25.4345C28.5504 23.8403 27.2461 22.6084 25.7244 22.6084C27.3185 22.6084 28.5504 21.3041 28.5504 19.7824C28.5504 18.1882 27.2461 16.9563 25.7244 16.9563C27.3185 16.9563 28.5504 15.652 28.5504 14.1303C28.5504 12.6086 27.2461 11.3042 25.7244 11.3042C27.3185 11.3042 28.5504 9.99989 28.5504 8.47817C28.5504 6.88398 27.2461 5.65211 25.7244 5.65211C27.3185 5.65211 28.5504 4.34778 28.5504 2.82606C28.5504 1.23187 27.2461 0 25.7244 0C24.2026 0 22.8983 1.30433 22.8983 2.82606ZM28.6229 2.82606C28.6229 4.42024 29.9272 5.65211 31.4489 5.65211C29.8548 5.65211 28.6229 6.95645 28.6229 8.47817C28.6229 10.0724 29.9272 11.3042 31.4489 11.3042C29.8548 11.3042 28.6229 12.6086 28.6229 14.1303C28.6229 15.652 29.9272 16.9563 31.4489 16.9563C29.8548 16.9563 28.6229 18.2607 28.6229 19.7824C28.6229 21.3766 29.9272 22.6084 31.4489 22.6084C29.8548 22.6084 28.6229 23.9128 28.6229 25.4345C28.6229 27.0287 29.9272 28.2606 31.4489 28.2606C29.8548 28.2606 28.6229 29.5649 28.6229 31.0866C28.6229 32.6083 29.9272 33.9127 31.4489 33.9127C29.8548 33.9127 28.6229 35.217 28.6229 36.7387C28.6229 38.2604 29.9272 39.5648 31.4489 39.5648C33.0431 39.5648 34.275 38.2604 34.275 36.7387C34.275 35.217 32.9707 33.9127 31.4489 33.9127C33.0431 33.9127 34.275 32.6083 34.275 31.0866C34.275 29.5649 32.9707 28.2606 31.4489 28.2606C33.0431 28.2606 34.275 26.9562 34.275 25.4345C34.275 23.8403 32.9707 22.6084 31.4489 22.6084C33.0431 22.6084 34.275 21.3041 34.275 19.7824C34.275 18.1882 32.9707 16.9563 31.4489 16.9563C33.0431 16.9563 34.275 15.652 34.275 14.1303C34.275 12.6086 32.9707 11.3042 31.4489 11.3042C33.0431 11.3042 34.275 9.99989 34.275 8.47817C34.275 6.88398 32.9707 5.65211 31.4489 5.65211C33.0431 5.65211 34.275 4.34778 34.275 2.82606C34.275 1.23187 32.9707 0 31.4489 0C29.8548 0 28.6229 1.30433 28.6229 2.82606Z" fill="white"/>
</mask>
<g mask="url(#mask0_796_89)">
<mask id="mask1_796_89" style="mask-type:luminance" maskUnits="userSpaceOnUse" x="-8" y="-15" width="44" height="61">
<path d="M35.0664 -14.5645H-7.97656V45.0726H35.0664V-14.5645Z" fill="white"/>
</mask>
<g mask="url(#mask1_796_89)">
<rect x="-7.96094" y="-14.543" width="43.0641" height="59.6233" fill="white"/>
</g>
</g>
<mask id="mask2_796_89" style="mask-type:luminance" maskUnits="userSpaceOnUse" x="0" y="0" width="140" height="40">
<path d="M139.994 0.21875H0.140625V39.3487H139.994V0.21875Z" fill="white"/>
</mask>
<g mask="url(#mask2_796_89)">
<path d="M45.4339 0.146882L53.6947 11.3062C53.9121 11.596 54.3469 11.4511 54.3469 11.0888V0.364268C54.3469 0.146879 54.4918 0.00195312 54.7092 0.00195312H59.4193C59.6367 0.00195312 59.7816 0.146879 59.7816 0.364268V20.9437C59.7816 21.1611 59.6367 21.3061 59.4193 21.3061H55.0715C54.9266 21.3061 54.8541 21.2336 54.7817 21.1611L46.3759 10.1468C46.1586 9.85692 45.7238 10.0018 45.7238 10.3642V20.8713C45.7238 21.0887 45.5789 21.2336 45.3615 21.2336H40.6514C40.434 21.2336 40.2891 21.0887 40.2891 20.8713V0.364268C40.2891 0.146879 40.434 0.00195312 40.6514 0.00195312H45.2166C45.2166 0.00195312 45.3615 0.0744194 45.4339 0.146882Z" fill="white"/>
</g>
<mask id="mask3_796_89" style="mask-type:luminance" maskUnits="userSpaceOnUse" x="0" y="0" width="140" height="40">
<path d="M139.994 0.21875H0.140625V39.3487H139.994V0.21875Z" fill="white"/>
</mask>
<g mask="url(#mask3_796_89)">
<path d="M97.8951 0.00195312H102.968C103.257 0.00195312 103.402 0.291808 103.33 0.509197L96.0111 21.0887C95.9386 21.2336 95.7937 21.3061 95.6487 21.3061H89.272C89.1271 21.3061 88.9822 21.2336 88.9097 21.0887L81.5185 0.509197C81.446 0.291808 81.5909 0.00195312 81.8808 0.00195312H87.0257C87.1706 0.00195312 87.3155 0.0744172 87.388 0.291806L92.243 15.654C92.3879 16.0163 92.8227 16.0163 92.9676 15.654L97.6053 0.291806C97.6053 0.14688 97.7502 0.00195312 97.8951 0.00195312Z" fill="white"/>
</g>
<mask id="mask4_796_89" style="mask-type:luminance" maskUnits="userSpaceOnUse" x="0" y="0" width="140" height="40">
<path d="M139.994 0.21875H0.140625V39.3487H139.994V0.21875Z" fill="white"/>
</mask>
<g mask="url(#mask4_796_89)">
<path d="M121.079 0.364268V4.71205C121.079 4.92943 120.934 5.07436 120.717 5.07436H110.789C110.572 5.07436 110.427 5.21929 110.427 5.43667V7.97288C110.427 8.19027 110.572 8.33519 110.789 8.33519H118.833C119.05 8.33519 119.195 8.48012 119.195 8.69751V12.7554C119.195 12.9728 119.05 13.1178 118.833 13.1178H110.789C110.572 13.1178 110.427 13.2627 110.427 13.4801V15.8713C110.427 16.0887 110.572 16.2337 110.789 16.2337H120.717C120.934 16.2337 121.079 16.3786 121.079 16.596V20.8713C121.079 21.0887 120.934 21.2336 120.717 21.2336H105.355C105.137 21.2336 104.992 21.0887 104.992 20.8713V0.364268C104.992 0.146879 105.137 0.00195312 105.355 0.00195312H120.717C120.934 0.00195312 121.079 0.146879 121.079 0.364268Z" fill="white"/>
</g>
<mask id="mask5_796_89" style="mask-type:luminance" maskUnits="userSpaceOnUse" x="0" y="0" width="140" height="40">
<path d="M139.994 0.21875H0.140625V39.3487H139.994V0.21875Z" fill="white"/>
</mask>
<g mask="url(#mask5_796_89)">
<path d="M129.781 16.3061H139.274C139.491 16.3061 139.636 16.451 139.636 16.6684V20.9437C139.636 21.1611 139.491 21.3061 139.274 21.3061H124.347C124.129 21.3061 123.984 21.1611 123.984 20.9437V0.364268C123.984 0.146879 124.129 0.00195312 124.347 0.00195312H129.057C129.274 0.00195312 129.419 0.146879 129.419 0.364268V15.9438C129.419 16.1612 129.636 16.3061 129.781 16.3061Z" fill="white"/>
</g>
<mask id="mask6_796_89" style="mask-type:luminance" maskUnits="userSpaceOnUse" x="0" y="0" width="140" height="40">
<path d="M139.994 0.21875H0.140625V39.3487H139.994V0.21875Z" fill="white"/>
</mask>
<g mask="url(#mask6_796_89)">
<path d="M69.7033 5.07436H79.6307C79.8481 5.07436 79.993 4.92943 79.993 4.71205V0.364268C79.993 0.146879 79.8481 0.00195312 79.6307 0.00195312H64.2686C64.0512 0.00195312 63.9062 0.146879 63.9062 0.364268V20.9437C63.9062 21.1611 64.0512 21.3061 64.2686 21.3061H79.6307C79.8481 21.3061 79.993 21.1611 79.993 20.9437V16.6684C79.993 16.451 79.8481 16.3061 79.6307 16.3061H69.7033C69.4859 16.3061 69.341 16.1612 69.341 15.9438V13.5525C69.341 13.3351 69.4859 13.1902 69.7033 13.1902H77.6742C77.8916 13.1902 78.0365 13.0453 78.0365 12.8279V8.76998C78.0365 8.55259 77.8916 8.40766 77.6742 8.40766H69.7033C69.4859 8.40766 69.341 8.26273 69.341 8.04535V5.50914C69.2685 5.21929 69.4859 5.07436 69.7033 5.07436Z" fill="white"/>
</g>
</svg>
