<svg width="109" height="30" viewBox="0 0 109 30" fill="none" xmlns="http://www.w3.org/2000/svg">
<path fill-rule="evenodd" clip-rule="evenodd" d="M76.8203 17.4245C76.9241 17.3661 76.9047 17.3725 76.9566 17.2947C77.0734 17.1065 77.2421 17.0481 77.2615 16.834C77.1318 16.8664 77.0799 17.0027 77.0215 17.087C76.9241 17.2233 76.8787 17.2428 76.8203 17.4245Z" fill="black"/>
<path fill-rule="evenodd" clip-rule="evenodd" d="M61.3125 13.9454C61.3774 13.9844 61.4682 13.9454 61.5461 13.9195C61.6888 13.874 61.7018 13.9065 61.7732 13.7832C61.5396 13.7832 61.4488 13.8416 61.3125 13.9454Z" fill="black"/>
<path fill-rule="evenodd" clip-rule="evenodd" d="M64.851 16.5029C64.8965 16.4056 64.8705 16.4316 64.8835 16.3407C64.903 16.2369 64.9094 16.2564 64.8186 16.2109C64.7472 16.2953 64.7213 16.3212 64.6953 16.4316C64.7407 16.4575 64.6953 16.4316 64.7537 16.4575L64.851 16.5029Z" fill="black"/>
<path fill-rule="evenodd" clip-rule="evenodd" d="M76.3047 18.0376C76.4539 17.9922 76.4929 17.9079 76.5642 17.7586C76.4474 17.7521 76.4474 17.7846 76.3955 17.856C76.3242 17.9468 76.3047 17.9208 76.3047 18.0376Z" fill="black"/>
<path fill-rule="evenodd" clip-rule="evenodd" d="M69.6324 8.19126C69.6454 8.06137 69.6584 8.0354 69.7363 7.97046C69.8987 7.83408 69.8402 7.86655 69.9506 7.87304C69.9117 7.96396 69.7233 8.15229 69.6324 8.19126ZM56.6897 15.088C56.6897 14.9256 56.7286 14.8087 56.7416 14.6659C56.7741 14.3866 56.7936 14.0814 56.8131 13.7957C56.826 13.4839 57.0533 12.4839 57.1183 12.1851C57.1767 11.9254 57.2676 11.7046 57.3001 11.4188C57.3456 10.9837 57.4365 10.9448 57.5144 10.672C57.6313 10.2759 57.5469 10.3993 57.7417 9.93817C57.8002 9.80179 57.8002 9.6784 57.8456 9.54852C57.8846 9.43163 57.917 9.30824 57.956 9.19784C58.0274 9.03549 58.021 8.95756 58.0534 8.8017C58.0794 8.71728 58.0989 8.71078 58.1119 8.62636L58.1378 8.50297C58.1378 8.49648 58.1378 8.48998 58.1443 8.48349C58.1443 8.4705 58.1508 8.44453 58.1573 8.43803C58.1898 8.32114 58.2482 8.20424 58.2807 8.07436C58.3132 7.97695 58.3392 7.78213 58.3651 7.69121C58.3976 7.56133 58.4496 7.46392 58.4885 7.32105C58.573 7.02881 58.5665 6.58721 58.6574 6.17808C58.6963 6.01573 58.6963 5.89884 58.7158 5.75597C58.7418 5.52867 58.8132 5.5027 58.8327 5.39879C58.8522 5.31437 58.7938 5.11955 58.7353 5.07409C58.6379 5.00265 58.4561 5.07409 58.3586 5.10656C57.9235 5.24943 58.0339 4.97018 57.6703 5.00265C57.4625 5.02213 57.4754 4.98317 57.3066 5.07409C57.1832 5.13903 57.1248 5.0546 57.0014 5.03512C56.865 5.01564 56.7481 5.07409 56.6247 5.06759C56.4624 5.0611 56.4104 5.04162 56.2611 5.12604C55.748 5.41827 55.5077 5.35983 55.0726 5.78844C54.9168 5.9443 54.7804 6.10665 54.644 6.32095C54.4232 6.66514 54.0271 7.21714 53.9946 7.5873C53.9686 7.82759 53.7348 8.19126 53.6634 8.70429L53.4686 9.4641C53.3062 10.12 53.3192 9.9057 53.1049 10.4642C53.014 10.711 52.9491 10.9188 52.8581 11.1785C52.7348 11.5357 52.5919 12.367 52.5529 12.7826C52.5334 13.0034 52.4685 13.4515 52.488 13.6528C52.514 13.945 52.514 14.2243 52.514 14.5035C52.514 14.7048 52.501 14.9776 52.5204 15.1789C52.5269 15.2698 52.5399 15.2374 52.5399 15.3478C52.5334 15.7634 52.6373 16.1076 52.6568 16.5232C52.6828 17.0297 52.6244 16.9843 52.7672 17.1012C52.7348 17.1856 52.7607 17.231 52.7412 17.3414C52.7283 17.4259 52.7088 17.4389 52.6828 17.5233C52.6568 17.5947 52.5789 17.887 52.5789 17.9454C52.5919 18.5039 52.6049 18.1597 52.8516 18.6013C52.7023 18.8805 52.962 19.1143 53.066 19.4066C53.1374 19.6144 53.2283 19.5235 53.3127 19.7248C53.4361 20.03 53.3777 20.0235 53.6894 20.2313C53.8777 20.3547 53.9946 20.5495 54.2739 20.5106C54.5076 20.4846 54.4947 20.53 54.6375 20.6729C54.7284 20.7638 54.7219 20.8483 54.7479 20.9327C54.7544 20.9457 54.6765 20.9197 54.7999 20.9846C54.8323 20.8418 54.8194 20.8093 54.9298 20.7379L55.3194 20.9067C55.5857 20.9976 55.5012 21.5951 55.8065 21.3093L55.9234 21.1405C56.0078 20.9781 56.1636 20.7638 56.2091 20.595C56.326 20.1794 56.5013 20.2833 56.8585 20.1404C57.0014 20.082 57.0598 19.9651 57.2027 19.9845C57.2482 20.1469 57.1962 20.2833 57.1832 20.4521C57.3001 20.4911 57.3131 20.5106 57.404 20.556L57.391 20.7703L57.982 20.0885C58.0339 20.017 58.0534 19.9131 58.0989 19.7962C58.1314 19.7118 58.3911 19.4325 58.4885 19.3416C58.7483 19.0754 58.6639 19.0754 58.7808 18.8156C58.8262 18.7117 58.9301 18.6792 59.0146 18.6078L59.9042 17.8285C59.9822 17.7636 60.0406 17.7311 60.1185 17.6402C60.1965 17.5558 60.3913 17.2181 60.4822 17.1791C60.6316 17.2635 60.5861 17.4778 60.703 17.6142C60.729 17.6467 60.7225 17.6337 60.7485 17.6532C60.9173 17.796 60.7939 17.7246 60.8784 17.9064C60.9628 18.0948 61.2161 18.0233 61.2745 18.2441C61.3005 18.3415 61.281 18.2766 61.268 18.374C61.2485 18.4974 61.3135 18.4974 61.3459 18.6078C61.3524 18.6143 61.3524 18.6208 61.3524 18.6273C61.3849 18.7312 61.3979 18.8351 61.3654 18.9585C61.3005 19.0624 61.3784 18.9715 61.255 19.0299C61.4628 19.2247 61.3005 19.3157 61.6576 19.5494C61.9564 19.7443 61.9369 19.7767 62.1187 20.017C62.1577 20.069 62.1512 20.0495 62.1837 20.0885C62.4304 20.3287 62.5084 21.0366 62.8006 21.173C62.9695 21.0561 62.7811 21.0885 63.0799 21.0106C63.1318 21.0041 63.1123 21.0041 63.1448 20.9911L63.1838 20.9652C63.2552 20.8418 63.1253 20.7184 63.2682 20.5885C63.515 20.3677 63.7358 20.9587 63.7682 21.0236C63.8591 21.1989 63.8981 21.121 63.9501 21.3353L64.067 21.0885C64.1903 21.108 64.0085 21.1015 64.0994 21.1015C64.2553 21.095 64.2618 20.8288 64.3722 20.7768C64.5345 20.7573 64.3527 20.9067 64.528 20.7703C64.5865 20.7249 64.554 20.7638 64.567 20.6989C64.567 20.6924 64.5735 20.6404 64.58 20.6145C64.6644 20.6145 64.6839 20.608 64.7618 20.6015C64.9567 20.5885 64.8203 20.595 64.8722 20.6275C64.9372 20.6664 64.8398 20.7508 65.0865 20.608C65.1775 20.556 65.1385 20.608 65.1969 20.5755C65.2814 20.5236 65.1775 20.5625 65.2749 20.4976C65.3853 20.4196 65.3983 20.5041 65.5151 20.4651C65.5996 20.4132 65.7749 20.0495 65.7879 19.9845C65.8269 19.8222 65.9438 19.6404 66.0087 19.4845C66.0931 19.2897 66.1646 19.1338 66.2425 18.952C66.275 18.8676 66.3139 18.7896 66.3659 18.6922L66.6516 18.1077C66.6711 18.0623 66.6841 18.0233 66.7101 17.9714C66.8075 17.7441 66.8789 17.6726 66.9828 17.4778L67.3725 16.7245C67.4699 16.5297 67.6127 16.3219 67.6972 16.1206L67.8206 15.8608C67.853 15.8023 67.8465 15.7894 67.866 15.7114C67.8985 15.5815 67.931 15.5815 68.0089 15.4776C68.1258 15.3218 68.1842 15.1789 68.3271 15.0231C68.405 14.9386 68.5284 14.7113 68.5674 14.5879C68.7362 14.0554 69.1453 13.6073 69.4895 13.2177C69.6389 13.0424 69.8337 12.7566 69.9311 12.5423C69.9896 12.4124 69.9571 12.3864 70.0545 12.276C70.2039 12.1137 70.3403 12.0682 70.4117 11.8669C70.4766 11.6721 70.626 11.6072 70.7494 11.4383C70.8598 11.2889 70.9832 11.1656 71.0806 11.0292C71.2364 10.8214 71.1975 10.6915 71.5222 10.3278C71.5871 10.2564 71.7235 9.93167 71.769 9.81478L71.9118 9.5745C72.1067 9.34721 72.0482 9.27577 72.1456 9.06796L72.4119 8.57441C72.4573 8.48349 72.5093 8.41205 72.5548 8.32763C72.6067 8.23671 72.6522 8.17827 72.7041 8.09384C72.9314 7.71069 73.0873 7.18467 73.3535 6.85996L73.8341 6.21705C73.8601 6.11314 73.8406 5.97027 73.7756 5.91183C73.7497 5.88585 73.5808 5.81441 73.5289 5.77545C73.2042 5.58063 73.2821 5.76896 72.9704 5.75597C72.9119 5.48971 73.1392 5.70401 72.9899 5.35983C72.7041 5.34034 72.7366 5.47023 72.5418 5.53517C72.3469 5.59361 72.3599 5.46373 72.0482 5.6131C71.7365 5.75597 71.8599 5.77545 71.756 5.95079C71.717 6.00924 71.4962 6.19107 71.4313 6.24952C71.3339 6.34693 71.2429 6.53526 71.1196 6.52877C71.0416 6.52227 71.0741 6.47032 70.9117 6.57422C70.7559 6.67813 70.5026 6.82749 70.3727 6.97036C70.3208 7.03531 70.1454 7.24312 70.1325 7.32754C69.9701 7.36001 69.8532 7.40547 69.7688 7.60029C69.8792 7.52886 69.8013 7.52886 69.9571 7.50288C69.8987 7.61977 69.7883 7.66523 69.7038 7.74316C69.6584 7.78213 69.6389 7.82759 69.5934 7.87954L69.0414 8.52245C69.0934 8.50297 69.1453 8.46401 69.2298 8.43154C69.2038 8.52895 69.0999 8.63935 69.0414 8.72377C68.9375 8.88612 68.8791 8.76274 68.6973 8.84067C68.5804 8.89262 68.5544 9.00302 68.4894 9.10043C68.405 9.21083 68.3336 9.19784 68.2946 9.34071C68.3661 9.37968 68.3336 9.3537 68.3661 9.3537C68.3726 9.36019 68.3985 9.36019 68.3985 9.36019C68.405 9.36019 68.418 9.36669 68.418 9.36669C68.418 9.36019 68.431 9.36669 68.431 9.36669C68.405 9.38617 68.418 9.37968 68.3855 9.40565L68.2816 9.51605C68.2232 9.5745 68.1842 9.60697 68.1323 9.67191L67.6127 10.3018C67.366 10.6265 67.1582 10.9967 66.9049 11.3084C66.6906 11.5682 66.5152 11.8929 66.3269 12.1851C66.2944 12.2436 66.2685 12.302 66.236 12.3605C66.0152 12.7956 65.7749 13.2372 65.4892 13.6463C65.3853 13.7892 65.4502 13.7892 65.4697 13.8087C65.5022 13.8606 65.5801 13.7892 65.4957 13.997C65.4437 14.1074 65.4632 14.0879 65.3918 14.1723C65.2294 14.3801 65.119 14.6854 65.0086 14.9386L64.9307 14.8737L64.541 15.5621C64.4436 15.7114 64.5021 15.627 64.4891 15.8088C64.4826 15.9582 64.4371 15.9582 64.4047 16.0751C64.3852 16.1595 64.3982 16.166 64.3787 16.2374C64.3722 16.2699 64.3462 16.3219 64.3332 16.3608C64.2943 16.4842 64.2033 16.7505 64.1124 16.8154C63.976 16.5232 64.041 16.6336 63.9955 16.3673L63.8332 15.9582C63.7423 15.6854 63.7098 15.3088 63.6059 15.0685C63.5604 14.9581 63.5215 14.7438 63.4825 14.6139C63.424 14.4321 63.3526 14.3801 63.2942 14.2567C63.0474 13.7632 63.5409 13.9061 63.3591 13.4645C63.2617 13.432 63.2747 13.4385 63.1578 13.4385C62.7681 13.419 63.1318 13.3216 62.963 13.1333C62.8266 13.1527 62.7681 13.2307 62.6642 13.2696C62.411 13.1722 62.5214 13.1398 62.2291 13.2372L62.2032 13.1917C62.1967 13.1852 62.1967 13.1787 62.1902 13.1787C62.1512 13.1398 62.1447 13.1592 62.0798 13.1268C61.9888 13.0813 62.0148 13.0424 61.9109 13.0164C61.6966 12.9579 61.7031 13.2956 61.6966 13.2891C61.6966 13.2826 61.6901 13.3021 61.6901 13.3086C61.5992 13.432 61.4433 13.3671 61.3005 13.4385C61.1836 13.4969 61.1446 13.5684 60.9368 13.6008C60.742 13.6333 60.6965 13.6333 60.5342 13.7112C60.0471 13.932 60.1575 13.8216 60.1705 13.7827C60.1705 13.7827 60.177 13.7762 60.177 13.7632C60.177 13.7502 60.1835 13.7502 60.1835 13.7437C60.0796 13.7502 59.3847 14.0554 59.2938 14.1074C59.047 14.2373 58.6704 14.4256 58.573 14.6334C58.6574 14.5879 58.7288 14.5555 58.8067 14.5165L58.5145 14.7503C58.3716 14.8152 58.4041 14.7113 58.1768 14.8737C58.0339 14.9776 57.7092 15.3088 57.6183 15.3348C57.456 15.3802 57.4105 15.3932 57.3326 15.5686C57.3066 15.64 57.2936 15.679 57.2417 15.7439C57.0598 15.9712 57.1248 15.9842 56.8975 16.166C56.7871 16.2569 56.7091 16.3543 56.5598 16.3738L56.6897 15.088Z" fill="white"/>
<path fill-rule="evenodd" clip-rule="evenodd" d="M92.0295 19.7445C92.0425 19.6341 92.049 19.6276 92.1529 19.5886C92.4776 19.4847 92.627 19.4912 92.9777 19.4068C93.2764 19.3353 93.1725 19.3743 93.2244 19.4003C93.4387 19.5237 93.4258 19.4328 93.6401 19.4522C93.6076 19.5302 93.6076 19.5367 93.5362 19.5821C93.3998 19.5497 93.5102 19.5691 93.3998 19.4977C93.4128 19.7315 93.5816 19.5561 93.7245 19.6925C93.5621 19.7575 93.5621 19.699 93.4258 19.699L92.8673 19.7899C92.601 19.8419 92.614 19.738 92.6075 19.7315C92.7504 19.7185 92.7504 19.738 92.8543 19.6665C92.7698 19.5626 92.8023 19.5951 92.6724 19.6471C92.5166 19.7055 92.1789 19.7899 92.0295 19.7445ZM93.3283 19.3224C93.4517 19.2769 93.757 19.0951 93.9193 19.0951C93.8868 19.2055 93.9193 19.2704 93.6985 19.3029C93.5751 19.3224 93.4712 19.3353 93.3283 19.3224ZM90.3216 18.9652C90.1722 18.9327 89.8735 18.8483 89.9189 18.647C89.9709 18.6275 89.8475 18.6015 90.0034 18.6405C90.0683 18.6535 90.0878 18.7119 90.1462 18.7639C90.2696 18.8678 90.3021 18.7704 90.3216 18.9652ZM95.5298 15.8545C95.2636 15.9584 95.4519 16.1987 95.3415 16.4974C95.2571 16.7117 95.2636 16.5948 94.8545 16.8806L93.4777 17.6923C93.3024 17.7898 92.6594 17.9196 92.4451 17.9066C92.1854 17.8872 92.0555 17.7443 91.9841 17.7183C91.6204 17.5365 91.523 17.6988 91.523 17.0949C91.5165 16.5104 91.6334 16.2507 92.101 15.9324C92.1854 15.874 92.2698 15.8155 92.3607 15.7571C92.4451 15.7051 92.5555 15.6532 92.64 15.5947L93.9972 14.77L94.6207 14.5167C94.7376 14.4648 95.1986 14.1466 95.309 14.1076C95.387 14.0881 95.387 14.0946 95.4389 14.1466C95.374 14.1985 95.4129 14.166 95.3285 14.192L95.2441 14.2245C95.2376 14.218 95.2246 14.231 95.2181 14.2375C95.2441 14.244 95.387 14.2764 95.4 14.2764C95.5428 14.2764 95.5623 14.1141 95.8026 14.2829C95.8026 14.4518 95.7377 14.3998 95.6597 14.5297C95.6792 14.718 95.7182 14.6141 95.7441 14.8025C95.7636 14.9323 95.7247 15.0103 95.7247 15.1272C95.9195 15.1012 95.8935 14.9453 96.0169 14.6596C96.0689 14.5557 96.0494 14.5557 96.1338 14.5297C96.1728 14.6076 96.1273 14.6076 96.1273 14.718C96.1273 15.0233 96.1857 14.7765 96.0494 15.2311C96.0104 15.3545 95.9779 15.5038 95.9325 15.6207C95.8545 15.822 96.0429 16.1078 95.5753 16.0558L95.5298 15.8545ZM96.7183 11.7308L96.5364 12.1204C96.4195 12.4256 96.5689 12.4191 96.6209 12.4516C96.5754 12.9127 96.0948 12.8802 95.8286 12.7893C94.5752 12.3607 95.2831 12.4906 94.6077 12.1464C94.3479 12.0165 93.3089 12.062 93.0101 12.1074C92.5426 12.1853 91.6139 12.4971 91.2567 12.8218C91.1268 12.9452 91.0424 12.9971 90.906 13.0945L90.5813 13.3803C90.5359 13.4257 90.4644 13.4907 90.406 13.5361C90.1852 13.705 89.9904 13.9128 89.9319 13.9517L89.906 13.8154C89.5683 14.0556 89.5748 14.2375 89.4514 14.3349C89.4449 14.3803 89.3799 14.4972 89.341 14.5882C89.289 14.7051 89.2306 14.7375 89.2046 14.8414C89.1656 15.0038 89.1851 14.9908 89.1137 15.1337C89.0487 15.27 88.8734 15.8675 88.8734 15.9714C88.8799 16.2961 88.7955 16.2571 88.75 16.5494C88.776 16.5689 88.763 16.5689 88.8084 16.5819C88.8149 16.5883 88.8539 16.5948 88.8669 16.5948L88.9188 17.0689C88.9188 17.0754 88.9253 17.1403 88.9253 17.1468C88.9318 17.2248 88.9383 17.2702 88.9513 17.3417C88.9773 17.504 89.0487 17.9066 89.1137 18.0495C89.1396 18.0235 89.1396 18.0365 89.1396 17.9976C89.1461 17.9586 89.1396 18.017 89.1332 17.9521C89.1072 17.8222 89.1072 17.9391 89.1461 17.8092C89.1981 17.8872 89.1526 17.8612 89.2241 17.9326C89.302 17.9066 89.2436 17.9521 89.2955 17.8742C89.3604 18.1015 89.5423 17.9456 89.328 18.2898C89.3604 18.3872 89.4189 18.4522 89.4838 18.5236C89.7761 18.8418 89.6007 18.8158 89.5553 19.0106C89.6462 19.0821 89.6787 19.0821 89.7631 19.147C89.9319 19.2574 89.7826 19.2509 89.906 19.3613C90.0099 19.4198 89.9774 19.3743 90.0618 19.3938C90.0878 19.4068 90.3605 19.4977 90.3735 19.5821C90.354 19.686 90.2826 19.751 90.2047 19.7834C90.0163 19.7769 89.9709 19.6925 89.815 19.686L89.9904 19.7964C90.2047 19.8873 90.432 19.9068 90.6593 19.9458C90.6723 20.0237 90.6268 20.0107 90.5878 20.0432C90.7697 20.0757 90.8866 20.1666 91.0684 20.0887C91.2957 19.9913 91.3476 20.0692 91.51 20.1536C91.4451 20.2056 91.3931 20.2121 91.3476 20.2705C91.6464 20.4393 91.8802 20.3939 92.0295 20.4913C92.7634 20.9589 95.0233 20.3289 95.2571 20.3289C95.335 20.4393 95.3935 20.5562 95.4974 20.6472C95.7377 20.8615 95.6597 20.8939 95.8351 21.1342C95.939 21.2901 96.1338 21.381 96.2507 21.5369C96.3286 21.5044 96.2702 21.4589 96.3936 21.4784C96.413 21.4784 96.5559 21.5369 96.5754 21.5433C96.7637 21.5953 96.8481 21.5628 96.8287 21.7706L96.9131 21.7057C96.991 21.6732 97.0884 21.7187 97.1469 21.7641C97.3222 21.9005 97.2118 21.907 97.2703 22.0888C97.1988 22.1473 97.1079 22.1148 97.1079 22.2252L97.1339 22.5045C97.2313 22.472 97.2638 22.446 97.3222 22.3811C97.3872 22.3096 97.3872 22.2902 97.4001 22.1668C97.4196 22.0174 97.4586 21.9005 97.582 21.8226C97.5885 21.5888 97.504 21.3875 97.8612 21.4849C98.0431 21.5304 98.1275 21.7057 98.2574 21.6797C98.3872 21.6537 98.3093 21.5433 98.2833 21.4459C98.2314 21.2706 98.2833 21.329 98.3093 21.2121C98.3418 21.0368 98.2184 20.9134 98.2119 20.7511C98.1924 20.5822 98.2444 20.6861 98.2184 20.4978C98.1924 20.2445 98.134 19.9653 98.2119 19.7185C98.2898 19.4847 98.1535 18.4522 98.3548 18.1989C98.4392 18.095 98.5626 17.9846 98.5951 17.8612C98.4652 17.8937 98.5041 17.9261 98.3678 17.9521C98.3288 17.7573 98.6016 16.7117 98.6795 16.4715C98.8288 16.0169 98.9977 15.5947 99.1471 15.1402L100.797 11.3801C100.9 11.1788 100.978 10.9839 101.056 10.7372C101.167 10.3865 101.388 9.97085 101.55 9.43184C101.595 9.263 101.595 9.00973 101.673 8.87335C101.706 8.80841 101.68 8.83439 101.706 8.74347C101.81 8.34733 102.082 8.34083 101.972 7.26281C101.888 7.20437 101.881 7.26931 101.862 7.21736C101.862 7.21086 101.849 7.21086 101.842 7.21086C101.901 7.13943 101.985 7.10046 101.965 6.97058C101.953 6.86018 101.888 6.82771 101.758 6.82771C101.771 6.77576 101.784 6.73679 101.79 6.68484L101.758 6.53547C101.621 6.57444 101.712 6.52249 101.66 6.67185C101.628 6.76926 101.628 6.75627 101.582 6.81472C101.491 6.92512 101.563 6.8342 101.504 6.95759C101.459 7.04851 101.524 7.01604 101.401 7.03552C101.297 6.79524 101.641 6.76926 101.452 6.53547C101.388 6.45755 101.303 6.3926 101.206 6.43157C101.102 6.47053 101.141 6.52898 100.998 6.59392C100.868 6.5095 100.797 6.37962 100.608 6.46404C100.524 6.503 100.439 6.64587 100.303 6.67185C100.173 6.69783 100.238 6.64587 100.095 6.69133C100.05 6.71082 99.9523 6.74978 99.9004 6.76926C99.6146 6.90564 99.2575 7.2758 99.0821 7.53557C98.9912 7.67844 98.699 8.0486 98.686 8.21745C98.6405 8.8214 98.1989 8.74996 98.1275 9.2565C98.0885 9.52926 97.9197 9.43184 97.6859 9.87994C97.595 10.0488 97.7313 10.1917 97.7703 10.3605C97.7703 10.367 97.7703 10.3735 97.7703 10.38L97.7963 10.4579C97.8677 10.6527 97.8937 10.7112 97.6924 10.893C97.6469 10.8216 97.6794 10.6203 97.4196 10.6203C97.2638 10.6268 97.03 11.0554 96.965 11.2112C96.9326 11.2892 96.9585 11.5294 96.952 11.5424C96.9066 11.6074 96.8027 11.7178 96.7183 11.7308Z" fill="white"/>
<path fill-rule="evenodd" clip-rule="evenodd" d="M75.6218 13.7946C75.7322 13.7361 75.7906 13.7361 75.8945 13.6906C76.0049 13.6387 76.0114 13.5478 76.1348 13.5478C76.2387 13.5478 76.1608 13.5673 76.2582 13.5738C76.7517 13.5932 76.5699 13.6257 76.7712 13.6387C76.9531 13.6452 76.9206 13.6517 76.979 13.8465C76.979 13.853 76.9855 13.8595 76.9855 13.8725L77.0115 13.9244C77.1544 14.1777 77.0959 14.2751 77.1479 14.392C77.2193 14.5414 77.1349 14.405 77.2648 14.4699C77.3557 14.5154 77.3297 14.4699 77.3297 14.6648C77.3297 14.8791 77.2583 15.0999 77.2323 15.2947C77.3492 15.2817 77.2713 15.3272 77.3882 15.0674C77.4401 14.944 77.4466 14.8661 77.596 14.8401C77.6285 15.2622 77.4401 15.3077 77.4271 15.3272C77.3687 15.3791 77.3687 15.4246 77.3492 15.4895C77.3167 15.6194 77.2648 15.7363 77.2128 15.8272C77.1349 15.9636 77.0894 15.9571 77.044 16.1389C77.1479 16.1194 77.3037 15.9116 77.3362 15.8337C77.4531 15.548 77.3752 15.4765 77.531 15.4311C77.6544 15.509 77.5505 15.5415 77.6155 15.6973C77.6739 15.8272 77.6479 15.7168 77.6544 15.8532C77.6544 15.9311 77.6414 15.9246 77.6934 15.9961C77.8428 15.9376 77.8168 15.6973 77.8752 15.561C78.0181 15.6129 77.8298 15.548 78.0246 15.7233L78.1545 15.5869C78.0116 15.3531 78.1675 15.1194 78.1934 15.0284C78.2714 14.7752 78.1804 14.97 78.2908 14.7752C78.4337 14.5284 78.0765 14.1193 78.4207 14.1842C78.4207 14.6907 78.6026 14.6972 78.3428 15.4246C78.3103 15.5155 78.2454 15.5545 78.1999 15.6129C78.0765 15.7688 78.1999 15.8142 78.0765 15.8337C77.9467 15.8467 77.9726 15.7298 77.9272 15.9636C77.8687 16.3013 77.7518 16.2233 77.6804 16.3987C77.6739 16.3987 77.6414 16.5286 77.6414 16.5286C77.6349 16.7039 77.6285 16.5026 77.6869 16.652C77.4336 16.9572 77.5245 16.5351 77.0959 16.8273C77.005 16.8922 76.9011 16.9312 76.8232 16.9897C76.7388 17.0546 76.6933 17.152 76.5829 17.1715C76.5959 17.0026 76.8037 16.8598 76.8816 16.7234C76.992 16.5286 77.1284 16.3987 77.1349 16.3273C77.1479 16.1844 77.1414 16.2948 77.1219 16.2558C77.031 16.3078 77.0635 16.3078 77.005 16.3857L76.479 17.113C76.3946 17.2234 76.3361 17.3014 76.1868 17.3403C76.2387 17.4313 76.3166 17.4183 75.9984 17.6975L75.2581 18.269C75.1087 18.3859 74.9529 18.4054 74.7905 18.4833C74.3165 18.7301 73.8619 19.0872 73.3164 18.9054C73.115 18.8405 72.9137 18.8989 72.7514 18.8015C72.6799 18.6327 72.602 18.0092 72.654 17.7625C72.7968 17.0156 72.9202 16.7429 73.3748 16.1974C73.6865 15.8207 73.8164 15.6519 74.2061 15.3012C74.258 15.2557 74.3035 15.2168 74.3554 15.1778C74.4269 15.1194 74.4723 15.1064 74.5308 15.0544L75.0633 14.4375C75.1997 14.2426 75.1477 14.2751 75.401 14.2037C75.5828 14.1582 75.4464 14.0478 75.8101 14.0283C76.0309 14.0154 76.0439 13.9699 76.2712 13.9764C76.453 13.9829 76.6024 14.0413 76.7777 14.0218C76.7453 13.7751 76.1478 13.892 76.1413 13.892C76.0374 13.866 76.0569 13.7036 75.8685 13.8465C75.7646 13.9309 75.6867 13.9569 75.6218 13.7946ZM76.5634 13.3335C76.6933 13.4244 76.7128 13.3724 76.7453 13.5218C76.1023 13.5283 76.3231 13.5088 76.3037 13.4049C76.2257 13.4244 75.914 13.6906 75.9595 13.353C75.8426 13.275 75.9984 13.3984 75.875 13.327C75.94 13.2361 75.888 13.1841 75.9789 13.1451C76.1868 13.0672 76.4335 13.2426 76.5634 13.3335ZM78.2779 12.6126C78.1934 12.5542 77.9791 12.2684 77.8622 12.1775C77.583 11.9502 77.4466 11.671 77.018 11.5736C76.9141 11.5476 76.8102 11.5346 76.6998 11.5086C76.4855 11.4632 76.453 11.3982 76.3686 11.4891L76.479 11.4956C76.2972 11.5995 75.953 11.4891 75.3295 11.7619C75.0178 11.8983 75.1152 11.7749 75.0113 11.7424C74.8165 11.9048 74.0762 12.0996 73.9528 12.158C73.6541 12.3074 73.7969 12.3139 73.3748 12.3139C72.9722 12.3139 72.4072 12.6581 72.037 12.8399C71.3941 13.1451 70.8356 13.6257 70.407 14.1517C70.3551 14.2167 70.3031 14.2816 70.2447 14.3466C69.9394 14.7102 69.868 14.8791 69.6667 15.2427C69.4654 15.5999 69.4004 15.9441 69.303 16.3597C69.2316 16.6714 69.1926 17.3598 69.2056 17.7235C69.2316 18.4054 69.4589 19.2821 69.9524 19.8146L70.3096 20.1912C70.5434 20.3861 70.3745 20.1523 70.8291 20.6004C70.8681 20.6393 70.8811 20.6653 70.9135 20.7043C71.0304 20.8796 71.3811 21.0615 71.511 21.2043C71.5889 21.2887 71.5824 21.3342 71.6928 21.3991C72.0305 21.607 71.9201 21.6654 72.1409 21.6264C72.3423 21.5875 72.641 21.581 72.8488 21.6135C73.4527 21.7109 73.5502 21.3991 73.6476 21.3537C73.7969 21.2823 74.0502 21.2238 74.2061 21.1783C74.6736 21.042 74.3814 21.1329 74.7061 20.9381L75.1347 20.6263C75.4659 20.3926 75.2516 20.5095 75.4594 20.2107C75.4334 20.1588 75.3945 20.1458 75.3815 20.0744C75.4594 19.9704 75.5049 19.9575 75.5633 19.86C75.6283 19.7691 75.6607 19.6847 75.7257 19.6068L76.3816 19.0613C76.4725 18.9963 76.479 18.9379 76.5699 18.8405C76.6673 18.7431 76.8816 18.5352 76.9531 18.4378C76.7323 18.4313 76.8686 18.5223 76.6543 18.5547C76.6933 18.4313 76.6998 18.4768 76.7193 18.3469C76.7453 18.1846 77.3232 17.7365 77.4596 17.6261C77.5765 17.5352 77.557 17.4313 77.7194 17.3144C77.8622 17.2105 77.9077 17.165 77.9856 16.9767L78.161 16.5805C78.2064 16.5091 78.2454 16.4961 78.3038 16.4247C78.4402 16.2493 78.4142 15.9506 78.5246 15.7688C78.5896 15.6519 78.661 15.483 78.6675 15.3207C78.6805 15.2233 78.6805 15.1194 78.687 15.0219C78.7 14.8921 78.6935 14.918 78.661 14.8466C78.5961 14.7102 78.6285 14.4699 78.5961 14.2816C78.5441 14.0413 78.4792 14.0803 78.4012 13.8985C78.3038 13.6777 78.0051 13.1841 77.8168 13.0153C77.5116 12.749 77.6479 12.788 77.5245 12.5737C77.4726 12.4827 77.5051 12.5607 77.4661 12.4633C77.7453 12.3139 77.6155 12.4178 77.7908 12.5022C78.0311 12.6126 77.9921 12.2944 78.3363 12.9049C78.3883 12.9958 78.4207 13.1257 78.5376 13.1646C78.4857 12.9698 78.3038 12.775 78.2779 12.6126Z" fill="white"/>
<path fill-rule="evenodd" clip-rule="evenodd" d="M83.3244 18.2367C83.3503 18.2367 83.4997 18.1977 83.5322 18.1912C83.4283 18.3146 83.2269 18.4185 83.0321 18.451C82.8698 18.477 82.8568 18.5874 82.4931 18.6588C82.4931 18.5289 82.4801 18.3925 82.7853 18.3731L82.7464 18.4835C82.8308 18.425 82.9217 18.386 83.0191 18.3276C83.1685 18.2302 83.123 18.2302 83.3244 18.2367ZM81.6554 12.2037C81.5839 12.2426 81.5709 12.2361 81.493 12.2881L81.0644 12.6258C80.9605 12.6972 80.7202 12.7232 80.441 13.0154C80.1033 13.3531 80.2397 13.6064 79.8695 13.7557C79.7071 13.8207 79.5967 13.9116 79.5253 14.1584L79.6682 14.2038C79.6617 14.3142 79.6032 14.3857 79.5448 14.4636C79.1811 14.9701 79.1681 15.3923 79.0447 15.8858C78.9928 16.0741 78.8889 16.269 79.0707 16.3988C79.0058 16.6781 78.9798 16.5222 78.9149 17.0353C78.8759 17.321 78.759 17.2756 78.785 17.6457C78.8499 18.4055 78.9084 18.2367 79.1162 18.8147C79.1876 19.016 79.1876 19.1913 79.285 19.4121C79.3759 19.6264 79.4474 19.7368 79.5513 19.8862C79.7591 20.1719 79.6942 20.042 79.9929 20.2109C80.1877 20.3148 80.2591 20.5161 80.3436 20.6005C80.4994 20.5681 80.5319 20.5096 80.7007 20.5875C80.8176 20.646 80.8826 20.7694 80.9605 20.7954C81.0709 20.8343 81.2203 20.7499 81.3307 20.7304C81.4995 20.7044 81.5839 20.7564 81.7333 20.7499C81.9671 20.7369 82.3957 20.8213 82.5516 20.7824C82.7983 20.7109 82.6165 20.6785 83.2529 20.5681C83.1945 20.5291 83.1425 20.5551 83.0516 20.4577C83.11 20.3083 83.1425 20.3927 83.3049 20.2498C83.6361 19.9511 83.727 19.9576 84.1621 19.7628C84.3115 19.6979 84.3829 19.6329 84.5647 19.5939C84.6167 19.4641 84.5712 19.4316 84.7076 19.3537C84.818 19.2887 84.8894 19.3082 84.9609 19.2563C84.9998 19.2368 84.9998 19.2108 85.0648 19.1653C85.1102 19.1394 85.1492 19.1264 85.1882 19.1004C85.2661 19.0484 85.3051 18.9835 85.4219 19.0939C85.396 19.1783 85.2336 19.2757 85.1752 19.3472C85.2596 19.3277 85.3245 19.3017 85.3895 19.2757C85.4479 19.2563 85.5323 19.2238 85.6038 19.2108L85.5259 19.1653C85.4414 19.1264 85.4999 19.2108 85.4544 19.1199C85.5323 19.0939 85.7921 19.0549 85.8635 19.0549C86.3571 19.0549 86.0064 19.0614 86.5065 18.7757C86.7597 18.6393 86.6753 18.6198 86.8117 18.6328C86.8182 18.7302 86.8117 18.7887 86.8442 18.8731C86.8636 18.9186 86.8636 18.9056 86.8766 18.9315C86.987 18.6718 87.3117 18.3731 87.5845 17.5288C87.6105 17.4574 87.5975 17.4574 87.6299 17.386C88.0196 16.5092 87.7468 17.0418 87.9092 16.5482C88.0586 16.1001 87.9871 16.1001 88.0066 15.9378C88.0586 15.5611 88.13 15.5481 88.117 14.9637C88.117 14.8078 88.156 14.8013 88.117 14.6325C88.065 14.4376 88.0975 14.5091 88.091 14.3272C88.0456 14.2363 88.0196 14.1649 87.9222 14.1454C87.9157 14.1389 87.8767 14.1324 87.8637 14.1259C87.8637 14.1259 87.8507 14.1259 87.8442 14.1194C87.8442 14.1064 87.8313 14.1129 87.8248 14.1064C87.8378 14.0999 87.8442 14.0999 87.8702 14.0805C87.9092 14.048 87.8962 14.0545 87.9222 14.0285C87.7598 13.9701 87.7598 13.8856 87.6364 13.6064C87.578 13.483 87.591 13.4245 87.552 13.3271C87.526 13.2492 87.4806 13.2297 87.4351 13.0933C87.578 13.1063 87.539 13.0998 87.604 13.1843C87.6364 13.0674 87.552 13.0349 87.4871 12.9635C87.4156 12.892 87.3702 12.7881 87.2663 12.7946C87.2663 12.918 87.2598 12.7946 87.2923 12.879C87.3377 12.97 87.3052 12.8271 87.3442 12.9829C87.2403 12.931 87.3052 12.9245 87.2338 12.931C87.1559 12.931 87.1039 13.1258 86.9286 12.7557C86.6428 12.1582 86.5909 12.2686 86.3961 12.366C86.4675 12.4764 86.4415 12.4699 86.435 12.6193C86.5519 12.6972 86.474 12.6842 86.6039 12.7167C86.7273 12.7362 86.6883 12.7362 86.7662 12.8336C86.7922 12.8661 86.8831 12.9765 86.8961 13.0089C86.9546 13.2427 86.6883 12.944 87 13.6389C87.0779 13.8077 87.1364 13.9311 87.039 14.0934C86.9091 14.0415 86.8636 13.8337 86.8701 13.6908C86.7143 13.7363 86.8182 13.8077 86.6558 13.8402C86.6753 14.022 86.8052 14.0025 86.7857 14.3402C86.8507 14.3792 86.8377 14.4311 86.8831 14.5221C86.9156 14.587 86.9611 14.6389 86.9546 14.7429C86.9481 14.8792 86.7532 15.5871 86.6753 15.7235C86.6493 15.7819 86.5909 15.8533 86.5519 15.9248C86.5 16.0222 86.5 16.0157 86.422 16.1001C86.3116 16.1001 86.4155 16.0806 86.2792 16.0676C86.2272 16.1391 86.2077 16.178 86.1753 16.2625C86.1168 16.3794 86.1298 16.3794 86.0324 16.3859C86.0908 16.1716 86.2402 15.9443 86.1818 15.7105C86.1428 15.5351 86.1883 15.678 86.2012 15.5351C86.2142 15.4247 86.1818 15.5156 86.1753 15.3793C86.1688 15.2104 86.2987 15.1974 86.2467 14.6649C86.2207 14.3922 86.4675 14.2883 86.3896 13.9441C86.3571 13.8012 86.3896 13.7752 86.4545 13.6518C86.6299 13.6453 86.4805 13.6389 86.6363 13.6973C86.6169 13.5804 86.6363 13.509 86.6299 13.47C86.6234 13.4375 86.5974 13.4051 86.5779 13.3336C86.5389 13.1648 86.4805 13.2037 86.3441 13.1063C86.3311 12.8011 86.2987 12.5933 86.0908 12.4634C86.0259 12.5154 85.9804 12.5738 85.87 12.6518C85.7791 12.7102 85.6882 12.7102 85.6038 12.7816C85.6233 12.944 85.6882 13.0609 85.7077 13.2362C85.8246 14.0805 85.5908 14.6844 85.6622 15.2754C85.6752 15.3663 85.4999 15.7949 85.4414 15.8793C85.3115 16.0612 85.3505 15.9962 85.2856 16.217C85.2531 16.3079 85.2271 16.3339 85.1947 16.4313C85.2791 16.3859 85.3505 16.3274 85.4025 16.3144C85.4739 16.2949 85.5259 16.3339 85.5843 16.243C85.6557 16.1391 85.5259 15.9118 85.7791 15.8923C85.8895 16.1716 85.7596 16.4118 85.6363 16.6521C85.5323 16.8729 85.4414 16.9184 85.3245 17.0807C85.2726 17.1457 85.2596 17.1457 85.2141 17.1976C85.344 17.1911 85.4284 17.0483 85.5908 17.0353C85.5778 17.1911 85.5323 17.1716 85.4219 17.2301C85.2141 17.334 85.1752 17.2041 84.9868 17.3145C84.9284 17.347 84.9868 17.308 84.9414 17.347C84.8829 17.4054 84.8635 17.5028 84.87 17.5808C84.6167 17.6847 84.6167 17.6327 84.4348 17.6912C84.292 17.7366 84.2465 17.8535 84.0712 17.86C84.1556 17.6847 84.4413 17.6262 84.5193 17.4184C84.4284 17.4444 84.3894 17.5028 84.305 17.5613L83.675 17.9704C83.6945 17.899 83.6685 17.9574 83.714 17.899L83.8958 17.7496C83.9543 17.7042 83.9543 17.7171 84.0257 17.6652C84.1881 17.5418 84.5258 17.3145 84.6102 17.1392L84.266 17.2431C84.3309 17.0742 84.3309 17.1976 84.3764 17.1002C84.305 17.0612 84.2011 17.1522 84.1296 17.1911C84.0777 17.2236 84.0517 17.2366 83.9997 17.2626C83.7984 17.3535 83.9218 17.3145 83.8049 17.4639C83.4607 17.899 83.5906 17.8795 83.5192 17.9769C83.4867 18.0224 82.7399 18.3016 82.6685 18.2951C82.5645 18.2886 82.571 18.2172 82.4347 18.2562C82.2788 18.3081 82.2918 18.412 81.9866 18.3731C81.8762 18.3601 81.8632 18.3536 81.8437 18.2432C81.9606 18.1717 82.2528 18.2691 82.5061 18.0808C82.4606 18.0419 82.5126 18.0743 82.4412 18.0483L82.2528 18.0289C81.9606 17.9834 82.0385 17.9639 81.9151 17.8211C81.8437 17.7496 81.8177 17.8016 81.8047 17.6652C81.7788 17.4509 81.9346 16.9703 82.0061 16.7625C82.1229 16.4053 82.2009 16.3014 82.3827 16.0222C82.4541 15.9118 82.5321 15.7949 82.61 15.704C82.7399 15.5611 82.8373 15.3598 82.9542 15.1974C83.1945 14.8533 83.5192 14.6 83.7984 14.2948L84.4348 13.6518C84.8375 13.3077 84.7076 13.4051 85.2076 13.3271C85.2336 13.2882 85.3245 13.0609 85.331 13.0154C85.3505 12.9245 85.2921 12.7362 85.2466 12.6907C85.0518 12.5024 84.8764 12.7621 84.6297 12.6193C84.6751 12.5349 84.5972 12.5998 84.7271 12.5414C84.8505 12.4894 84.9284 12.4634 84.9544 12.2881C84.8764 12.2166 84.8829 12.2491 84.8505 12.1582C84.818 12.0673 84.8829 12.1842 84.8245 12.0868C84.7336 12.0868 84.6686 12.1127 84.5907 12.0868C84.4284 12.0283 84.5582 11.7945 83.188 11.7686C82.9932 11.7621 82.9217 11.788 82.7724 11.8465C82.623 11.8984 82.5191 11.8919 82.3437 11.9179C82.071 11.9569 81.9346 12.1127 81.6554 12.2037Z" fill="white"/>
<path fill-rule="evenodd" clip-rule="evenodd" d="M76.2734 16.9967C76.3773 16.9448 76.3578 16.9448 76.4097 16.867C76.533 16.6853 76.6952 16.6269 76.7212 16.4062C76.5849 16.4452 76.533 16.575 76.4746 16.6658C76.3773 16.8021 76.3383 16.8215 76.2734 16.9967Z" fill="white"/>
<path fill-rule="evenodd" clip-rule="evenodd" d="M60.7734 13.5235C60.8318 13.5625 60.9292 13.5171 61.007 13.4911C61.1433 13.4457 61.1628 13.4846 61.2276 13.3613C61.0005 13.3613 60.9032 13.4132 60.7734 13.5235Z" fill="white"/>
<path fill-rule="evenodd" clip-rule="evenodd" d="M64.2977 16.0836C64.3431 15.9798 64.3171 16.0123 64.3366 15.9214C64.3561 15.8176 64.3626 15.8371 64.2652 15.7852C64.1939 15.8695 64.1679 15.902 64.1484 16.0058C64.1874 16.0382 64.1484 16.0123 64.2003 16.0382L64.2977 16.0836Z" fill="white"/>
<path fill-rule="evenodd" clip-rule="evenodd" d="M75.7578 17.6071C75.9071 17.5682 75.946 17.4839 76.0174 17.3281C75.9006 17.3281 75.9071 17.3606 75.8487 17.4319C75.7773 17.5228 75.7643 17.4903 75.7578 17.6071Z" fill="white"/>
<path d="M8.2798 12.6644C9.41626 12.6644 10.858 13.1644 11.2996 14.9373H14.4947C13.9816 11.0344 10.6956 9.69658 8.2798 9.69658C4.76649 9.69658 2 12.3786 2 16.1063C2 19.8209 4.69505 22.5029 8.2798 22.5029C10.6047 22.5029 13.2153 20.9184 14.0855 18.5415C14.2803 18.0805 14.5336 17.1713 14.5336 15.7361H6.93552V18.4506H10.7346C10.0722 19.3403 9.11754 19.6066 8.2798 19.6066C6.45495 19.6066 5.07171 18.2233 5.07171 16.1063C5.07171 14.0996 6.45495 12.6644 8.2798 12.6644ZM15.3779 16.1063C15.3779 19.7689 18.2547 22.4835 21.807 22.4835C25.3593 22.4835 28.2492 19.7105 28.2492 16.1063C28.2492 12.4501 25.3593 9.68359 21.807 9.68359C18.2547 9.68359 15.3779 12.4501 15.3779 16.1063ZM18.3976 16.1063C18.3976 13.7814 20.0471 12.6319 21.7356 12.593C23.4565 12.5605 25.1969 13.7294 25.1969 16.1063C25.1969 18.4506 23.4565 19.6261 21.7356 19.6066C20.0471 19.5871 18.3976 18.4376 18.3976 16.1063ZM29.5805 16.1063C29.5805 19.7689 32.4573 22.4835 36.0096 22.4835C39.5554 22.4835 42.4518 19.7105 42.4518 16.1063C42.4518 12.4501 39.5554 9.68359 36.0096 9.68359C32.4573 9.68359 29.5805 12.4501 29.5805 16.1063ZM32.6002 16.1063C32.6002 13.7814 34.2497 12.6319 35.9382 12.593C37.6591 12.5605 39.3995 13.7294 39.3995 16.1063C39.3995 18.4506 37.6591 19.6261 35.9382 19.6066C34.2497 19.5871 32.6002 18.4376 32.6002 16.1063ZM46.7768 19.4118V12.7553H48.6991C50.7902 12.7553 51.8552 14.4762 51.8552 16.1063C51.8552 17.7428 50.7902 19.4118 48.6991 19.4118H46.7768ZM43.7636 9.87842V22.3081H48.6991C52.7969 22.3081 54.8555 19.2169 54.8555 16.1063C54.8555 13.0021 52.7969 9.87842 48.6991 9.87842H43.7636Z" fill="white"/>
</svg>
