<svg width="167" height="30" viewBox="0 0 167 30" fill="none" xmlns="http://www.w3.org/2000/svg">
<path fill-rule="evenodd" clip-rule="evenodd" d="M124.945 20.7497C125.119 20.6522 125.086 20.6631 125.173 20.533C125.368 20.2188 125.65 20.1213 125.682 19.7637C125.465 19.8179 125.379 20.0454 125.281 20.1863C125.119 20.4138 125.043 20.4463 124.945 20.7497Z" fill="black"/>
<path fill-rule="evenodd" clip-rule="evenodd" d="M99.0547 14.9369C99.163 15.0019 99.3147 14.9369 99.4448 14.8936C99.6832 14.8177 99.7048 14.8719 99.824 14.666C99.4339 14.666 99.2822 14.7635 99.0547 14.9369Z" fill="black"/>
<path fill-rule="evenodd" clip-rule="evenodd" d="M104.955 19.2103C105.031 19.0477 104.988 19.0911 105.01 18.9394C105.042 18.766 105.053 18.7985 104.901 18.7227C104.782 18.8635 104.739 18.9069 104.695 19.0911C104.771 19.1344 104.695 19.0911 104.793 19.1344L104.955 19.2103Z" fill="black"/>
<path fill-rule="evenodd" clip-rule="evenodd" d="M124.086 21.77C124.335 21.6942 124.4 21.5533 124.519 21.3041C124.324 21.2933 124.324 21.3474 124.238 21.4666C124.118 21.6183 124.086 21.575 124.086 21.77Z" fill="black"/>
<path fill-rule="evenodd" clip-rule="evenodd" d="M112.949 5.32924C112.971 5.11235 112.992 5.06897 113.122 4.96052C113.394 4.73278 113.296 4.787 113.48 4.79785C113.415 4.94968 113.101 5.26418 112.949 5.32924ZM91.3351 16.8465C91.3351 16.5753 91.4002 16.3801 91.4219 16.1416C91.4761 15.6752 91.5086 15.1655 91.5412 14.6883C91.5629 14.1678 91.9424 12.4977 92.0509 11.9988C92.1485 11.565 92.3003 11.1963 92.3545 10.7191C92.4305 9.99253 92.5823 9.92746 92.7124 9.47197C92.9076 8.81044 92.7666 9.01649 93.092 8.24651C93.1896 8.01877 93.1896 7.81271 93.2655 7.59582C93.3306 7.40061 93.3848 7.19456 93.4499 7.0102C93.5692 6.73907 93.5583 6.60894 93.6125 6.34866C93.6559 6.20768 93.6885 6.19683 93.7102 6.05585L93.7535 5.8498C93.7535 5.83895 93.7535 5.82811 93.7644 5.81726C93.7644 5.79557 93.7752 5.75219 93.7861 5.74135C93.8403 5.54614 93.9379 5.35093 93.9921 5.13404C94.0463 4.97136 94.0897 4.64602 94.1331 4.49419C94.1873 4.2773 94.2741 4.11462 94.3392 3.87604C94.4801 3.38802 94.4693 2.65057 94.6211 1.96734C94.6862 1.69622 94.6862 1.50102 94.7187 1.26243C94.7621 0.88286 94.8814 0.83948 94.9139 0.665963C94.9465 0.52498 94.8489 0.199635 94.7513 0.123721C94.5886 0.00442761 94.2849 0.123721 94.1223 0.177945C93.3957 0.416532 93.58 -0.0497966 92.9727 0.00442761C92.6257 0.0369621 92.6474 -0.0281069 92.3654 0.123721C92.1593 0.232169 92.0617 0.0911863 91.8557 0.0586518C91.6279 0.0261173 91.4327 0.123721 91.2267 0.112876C90.9556 0.102031 90.8688 0.0694967 90.6194 0.21048C89.7626 0.698497 89.3614 0.600894 88.6348 1.31665C88.3745 1.57693 88.1467 1.84805 87.919 2.20593C87.5503 2.78071 86.8887 3.70252 86.8345 4.32067C86.7911 4.72193 86.4007 5.32924 86.2814 6.18599L85.9561 7.45483C85.685 8.55016 85.7067 8.19228 85.3488 9.12494C85.197 9.53704 85.0885 9.88408 84.9367 10.3179C84.7306 10.9143 84.492 12.3025 84.427 12.9965C84.3944 13.3653 84.286 14.1136 84.3185 14.4498C84.3619 14.9378 84.3619 15.4041 84.3619 15.8704C84.3619 16.2066 84.3402 16.6621 84.3727 16.9983C84.3836 17.1501 84.4053 17.0959 84.4053 17.2803C84.3944 17.9743 84.5679 18.5491 84.6005 19.2432C84.6439 20.0891 84.5463 20.0132 84.7848 20.2084C84.7306 20.3494 84.774 20.4253 84.7415 20.6096C84.7198 20.7506 84.6872 20.7723 84.6439 20.9133C84.6005 21.0326 84.4703 21.5206 84.4703 21.6182C84.492 22.5509 84.5137 21.9761 84.9258 22.7135C84.6764 23.1799 85.1102 23.5703 85.2837 24.0583C85.403 24.4053 85.5548 24.2535 85.6958 24.5897C85.9019 25.0994 85.8043 25.0885 86.3248 25.4356C86.6393 25.6416 86.8345 25.967 87.3008 25.9019C87.6913 25.8585 87.6696 25.9344 87.9082 26.173C88.06 26.3249 88.0491 26.4658 88.0925 26.6068C88.1034 26.6285 87.9732 26.5851 88.1793 26.6936C88.2335 26.455 88.2118 26.4008 88.3962 26.2815L89.0469 26.5634C89.4915 26.7153 89.3505 27.713 89.8602 27.2358L90.0554 26.9539C90.1964 26.6827 90.4567 26.3249 90.5326 26.0429C90.7278 25.3488 91.0206 25.5223 91.6171 25.2838C91.8557 25.1861 91.9533 24.9909 92.1919 25.0235C92.2678 25.2946 92.181 25.5223 92.1593 25.8043C92.3545 25.8694 92.3762 25.9019 92.5281 25.9778L92.5064 26.3357L93.4933 25.197C93.58 25.0777 93.6125 24.9042 93.6885 24.709C93.7427 24.568 94.1765 24.1017 94.3392 23.9498C94.7729 23.5052 94.632 23.5052 94.8272 23.0714C94.9031 22.8979 95.0766 22.8437 95.2176 22.7244L96.7033 21.423C96.8335 21.3145 96.9311 21.2603 97.0612 21.1085C97.1913 20.9675 97.5167 20.4036 97.6685 20.3385C97.9179 20.4795 97.842 20.8374 98.0372 21.0651C98.0806 21.1193 98.0698 21.0976 98.1132 21.1302C98.3951 21.3688 98.1891 21.2495 98.3301 21.5531C98.471 21.8676 98.894 21.7483 98.9916 22.1171C99.035 22.2797 99.0024 22.1713 98.9807 22.334C98.9482 22.54 99.0567 22.54 99.1109 22.7244C99.1217 22.7352 99.1217 22.7461 99.1217 22.7569C99.176 22.9304 99.1976 23.1039 99.1434 23.31C99.035 23.4835 99.1651 23.3317 98.9591 23.4293C99.3061 23.7546 99.035 23.9065 99.6314 24.2969C100.13 24.6222 100.098 24.6764 100.401 25.0777C100.466 25.1645 100.456 25.1319 100.51 25.197C100.922 25.5983 101.052 26.7803 101.54 27.0081C101.822 26.8129 101.508 26.8671 102.006 26.737C102.093 26.7261 102.061 26.7261 102.115 26.7044L102.18 26.661C102.299 26.455 102.082 26.2489 102.321 26.032C102.733 25.6633 103.102 26.6502 103.156 26.7587C103.308 27.0515 103.373 26.9213 103.46 27.2792L103.655 26.8671C103.861 26.8996 103.557 26.8888 103.709 26.8888C103.969 26.8779 103.98 26.4333 104.165 26.3465C104.436 26.314 104.132 26.5634 104.425 26.3357C104.522 26.2598 104.468 26.3249 104.49 26.2164C104.49 26.2056 104.501 26.1188 104.512 26.0754C104.653 26.0754 104.685 26.0646 104.815 26.0537C105.141 26.032 104.913 26.0429 105 26.0971C105.108 26.1622 104.945 26.3032 105.358 26.0646C105.509 25.9778 105.444 26.0646 105.542 26.0104C105.683 25.9236 105.509 25.9887 105.672 25.8802C105.856 25.7501 105.878 25.8911 106.073 25.826C106.214 25.7392 106.507 25.1319 106.529 25.0235C106.594 24.7524 106.789 24.4487 106.897 24.1884C107.038 23.8631 107.158 23.6028 107.288 23.2991C107.342 23.1582 107.407 23.028 107.494 22.8654L107.971 21.8893C108.004 21.8134 108.025 21.7483 108.069 21.6616C108.231 21.282 108.351 21.1627 108.524 20.8374L109.175 19.5794C109.338 19.254 109.576 18.907 109.717 18.5708L109.923 18.137C109.977 18.0394 109.967 18.0177 109.999 17.8876C110.053 17.6707 110.108 17.6707 110.238 17.4972C110.433 17.2369 110.53 16.9983 110.769 16.738C110.899 16.597 111.105 16.2175 111.17 16.0114C111.452 15.1221 112.136 14.3738 112.71 13.7232C112.96 13.4303 113.285 12.9532 113.448 12.5953C113.545 12.3784 113.491 12.335 113.654 12.1507C113.903 11.8795 114.131 11.8036 114.25 11.4674C114.359 11.1421 114.608 11.0336 114.814 10.7517C114.999 10.5022 115.205 10.2962 115.367 10.0684C115.628 9.72141 115.563 9.50451 116.105 8.8972C116.213 8.7779 116.441 8.23566 116.517 8.04045L116.755 7.6392C117.081 7.25963 116.983 7.14033 117.146 6.7933L117.59 5.96909C117.666 5.81726 117.753 5.69797 117.829 5.55699C117.916 5.40516 117.992 5.30756 118.079 5.16657C118.458 4.52673 118.718 3.64829 119.163 3.10605L119.966 2.03241C120.009 1.8589 119.976 1.62031 119.868 1.52271C119.825 1.47933 119.543 1.36003 119.456 1.29496C118.914 0.969619 119.044 1.28412 118.523 1.26243C118.426 0.817791 118.805 1.17567 118.556 0.600894C118.079 0.568359 118.133 0.785256 117.807 0.893705C117.482 0.991308 117.504 0.774411 116.983 1.02384C116.463 1.26243 116.669 1.29496 116.495 1.58777C116.43 1.68538 116.061 1.98903 115.953 2.08664C115.79 2.24931 115.638 2.56381 115.432 2.55297C115.302 2.54212 115.356 2.45536 115.085 2.62888C114.825 2.8024 114.402 3.05183 114.185 3.29041C114.098 3.39886 113.806 3.7459 113.784 3.88688C113.513 3.94111 113.318 4.01702 113.177 4.34236C113.361 4.22307 113.231 4.22307 113.491 4.17969C113.394 4.3749 113.209 4.45081 113.068 4.58095C112.992 4.64602 112.96 4.72193 112.884 4.80869L111.962 5.88233C112.049 5.8498 112.136 5.78473 112.277 5.7305C112.233 5.89318 112.06 6.07754 111.962 6.21852C111.788 6.48964 111.691 6.28359 111.387 6.41373C111.192 6.50049 111.149 6.68485 111.04 6.84752C110.899 7.03189 110.78 7.0102 110.715 7.24878C110.834 7.31385 110.78 7.27047 110.834 7.27047C110.845 7.28132 110.888 7.28132 110.888 7.28132C110.899 7.28132 110.921 7.29216 110.921 7.29216C110.921 7.28132 110.943 7.29216 110.943 7.29216C110.899 7.3247 110.921 7.31385 110.867 7.35723L110.693 7.54159C110.596 7.6392 110.53 7.69342 110.444 7.80187L109.576 8.85382C109.164 9.39606 108.817 10.0142 108.394 10.5348C108.036 10.9686 107.743 11.5108 107.429 11.9988C107.375 12.0964 107.331 12.194 107.277 12.2916C106.908 13.0182 106.507 13.7557 106.03 14.4389C105.856 14.6775 105.965 14.6775 105.997 14.71C106.052 14.7968 106.182 14.6775 106.041 15.0245C105.954 15.2089 105.987 15.1764 105.867 15.3173C105.596 15.6644 105.412 16.1741 105.227 16.597L105.097 16.4886L104.447 17.6381C104.284 17.8876 104.381 17.7466 104.36 18.0502C104.349 18.2997 104.273 18.2997 104.219 18.4949C104.186 18.6359 104.208 18.6467 104.175 18.766C104.165 18.8202 104.121 18.907 104.1 18.9721C104.034 19.1781 103.883 19.6227 103.731 19.7312C103.503 19.2432 103.611 19.4275 103.536 18.9829L103.264 18.2997C103.113 17.8442 103.058 17.2152 102.885 16.8139C102.809 16.6296 102.744 16.2717 102.679 16.0548C102.581 15.7511 102.462 15.6644 102.364 15.4583C101.952 14.6341 102.776 14.8727 102.473 14.1353C102.31 14.081 102.332 14.0919 102.137 14.0919C101.486 14.0593 102.093 13.8967 101.811 13.5822C101.584 13.6147 101.486 13.7448 101.312 13.8099C100.889 13.6472 101.074 13.593 100.586 13.7557L100.542 13.6798C100.532 13.6689 100.532 13.6581 100.521 13.6581C100.456 13.593 100.445 13.6255 100.336 13.5713C100.185 13.4954 100.228 13.4303 100.054 13.387C99.6965 13.2894 99.7073 13.8533 99.6965 13.8424C99.6965 13.8316 99.6857 13.8641 99.6857 13.875C99.5338 14.081 99.2736 13.9726 99.035 14.0919C98.8398 14.1895 98.7747 14.3088 98.4277 14.363C98.1023 14.4172 98.0264 14.4172 97.7553 14.5474C96.9419 14.9161 97.1263 14.7317 97.148 14.6667C97.148 14.6667 97.1588 14.6558 97.1588 14.6341C97.1588 14.6124 97.1697 14.6124 97.1697 14.6016C96.9961 14.6124 95.8357 15.1221 95.6839 15.2089C95.2718 15.4258 94.6428 15.7403 94.4801 16.0873C94.6211 16.0114 94.7404 15.9572 94.8705 15.8921L94.3825 16.2825C94.1439 16.391 94.1982 16.2175 93.8186 16.4886C93.58 16.6621 93.0378 17.2152 92.8859 17.2586C92.6148 17.3345 92.5389 17.3562 92.4088 17.649C92.3654 17.7683 92.3437 17.8333 92.2569 17.9418C91.9533 18.3214 92.0617 18.3431 91.6822 18.6467C91.4978 18.7985 91.3677 18.9612 91.1182 18.9937L91.3351 16.8465Z" fill="white"/>
<path fill-rule="evenodd" clip-rule="evenodd" d="M150.352 24.6225C150.373 24.4381 150.384 24.4273 150.558 24.3622C151.1 24.1887 151.349 24.1995 151.935 24.0585C152.434 23.9392 152.26 24.0043 152.347 24.0477C152.705 24.2537 152.683 24.1019 153.041 24.1345C152.987 24.2646 152.987 24.2754 152.868 24.3513C152.64 24.2971 152.824 24.3297 152.64 24.2104C152.662 24.6008 152.944 24.308 153.182 24.5357C152.911 24.6442 152.911 24.5466 152.683 24.5466L151.751 24.6984C151.306 24.7851 151.328 24.6116 151.317 24.6008C151.555 24.5791 151.555 24.6116 151.729 24.4923C151.588 24.3188 151.642 24.373 151.425 24.4598C151.165 24.5574 150.601 24.6984 150.352 24.6225ZM152.521 23.9176C152.727 23.8416 153.236 23.538 153.507 23.538C153.453 23.7223 153.507 23.8308 153.139 23.885C152.933 23.9176 152.759 23.9392 152.521 23.9176ZM147.499 23.3211C147.25 23.2669 146.751 23.1259 146.827 22.7897C146.914 22.7572 146.708 22.7138 146.968 22.7788C147.077 22.8005 147.109 22.8981 147.207 22.9849C147.413 23.1584 147.467 22.9957 147.499 23.3211ZM156.197 18.1264C155.752 18.2999 156.067 18.7012 155.883 19.2C155.742 19.5579 155.752 19.3627 155.069 19.8399L152.77 21.1955C152.477 21.3582 151.404 21.5751 151.046 21.5534C150.612 21.5208 150.395 21.2823 150.276 21.2389C149.668 20.9352 149.506 21.2063 149.506 20.1978C149.495 19.2217 149.69 18.7879 150.471 18.2565C150.612 18.1589 150.753 18.0613 150.905 17.9637C151.046 17.877 151.23 17.7902 151.371 17.6926L153.638 16.3153L154.679 15.8924C154.874 15.8056 155.644 15.2742 155.828 15.2091C155.958 15.1766 155.958 15.1875 156.045 15.2742C155.937 15.361 156.002 15.3068 155.861 15.3501L155.72 15.4044C155.709 15.3935 155.687 15.4152 155.676 15.426C155.72 15.4369 155.958 15.4911 155.98 15.4911C156.219 15.4911 156.251 15.22 156.652 15.502C156.652 15.7839 156.544 15.6972 156.414 15.9141C156.446 16.2286 156.512 16.055 156.555 16.3695C156.587 16.5864 156.522 16.7166 156.522 16.9118C156.848 16.8684 156.804 16.6081 157.01 16.131C157.097 15.9574 157.065 15.9574 157.206 15.9141C157.271 16.0442 157.195 16.0442 157.195 16.2286C157.195 16.7383 157.292 16.3262 157.065 17.0853C157 17.2914 156.945 17.5408 156.869 17.736C156.739 18.0722 157.054 18.5494 156.273 18.4626L156.197 18.1264ZM158.182 11.2399L157.878 11.8906C157.683 12.4003 157.932 12.3895 158.019 12.4437C157.943 13.2137 157.141 13.1595 156.696 13.0076C154.603 12.2919 155.785 12.5088 154.657 11.934C154.223 11.7171 152.488 11.793 151.989 11.8689C151.208 11.9991 149.658 12.5196 149.061 13.0619C148.844 13.2679 148.703 13.3547 148.475 13.5174L147.933 13.9945C147.857 14.0704 147.738 14.1789 147.64 14.2548C147.272 14.5368 146.946 14.8838 146.849 14.9489L146.805 14.7211C146.241 15.1224 146.252 15.426 146.046 15.5887C146.035 15.6646 145.927 15.8598 145.862 16.0117C145.775 16.2069 145.678 16.2611 145.634 16.4346C145.569 16.7057 145.602 16.684 145.482 16.9226C145.374 17.1504 145.081 18.1481 145.081 18.3216C145.092 18.8639 144.951 18.7988 144.875 19.2868C144.918 19.3193 144.897 19.3193 144.973 19.341C144.983 19.3519 145.049 19.3627 145.07 19.3627L145.157 20.1544C145.157 20.1652 145.168 20.2737 145.168 20.2845C145.179 20.4147 145.19 20.4906 145.211 20.6099C145.255 20.881 145.374 21.5534 145.482 21.792C145.526 21.7486 145.526 21.7703 145.526 21.7052C145.537 21.6401 145.526 21.7377 145.515 21.6293C145.471 21.4124 145.471 21.6076 145.537 21.3907C145.623 21.5208 145.547 21.4775 145.667 21.5968C145.797 21.5534 145.699 21.6293 145.786 21.4992C145.894 21.8787 146.198 21.6184 145.84 22.1932C145.894 22.3559 145.992 22.4643 146.1 22.5836C146.588 23.115 146.296 23.0717 146.22 23.397C146.372 23.5163 146.426 23.5163 146.567 23.6247C146.849 23.8091 146.599 23.7983 146.805 23.9826C146.979 24.0802 146.925 24.0043 147.066 24.0368C147.109 24.0585 147.565 24.2104 147.586 24.3513C147.554 24.5249 147.434 24.6333 147.304 24.6875C146.99 24.6767 146.914 24.5357 146.654 24.5249L146.946 24.7092C147.304 24.8611 147.684 24.8936 148.063 24.9587C148.085 25.0888 148.009 25.0671 147.944 25.1213C148.248 25.1756 148.443 25.3274 148.747 25.1972C149.126 25.0346 149.213 25.1647 149.484 25.3057C149.376 25.3925 149.289 25.4033 149.213 25.5009C149.712 25.7829 150.102 25.707 150.352 25.8696C151.577 26.6505 155.351 25.5985 155.742 25.5985C155.872 25.7829 155.969 25.9781 156.143 26.1299C156.544 26.4878 156.414 26.542 156.707 26.9433C156.88 27.2035 157.206 27.3554 157.401 27.6156C157.531 27.5614 157.433 27.4855 157.639 27.518C157.672 27.518 157.91 27.6156 157.943 27.6265C158.258 27.7132 158.399 27.659 158.366 28.0061L158.507 27.8976C158.637 27.8434 158.8 27.9193 158.897 27.9952C159.19 28.223 159.006 28.2338 159.103 28.5375C158.984 28.6351 158.832 28.5808 158.832 28.7652L158.876 29.2315C159.038 29.1773 159.093 29.1339 159.19 29.0255C159.299 28.9062 159.299 28.8736 159.32 28.6676C159.353 28.4182 159.418 28.223 159.624 28.0928C159.635 27.7024 159.494 27.3662 160.09 27.5289C160.394 27.6048 160.535 27.8976 160.752 27.8542C160.969 27.8109 160.839 27.6265 160.795 27.4638C160.708 27.171 160.795 27.2686 160.839 27.0734C160.893 26.7806 160.687 26.5745 160.676 26.3034C160.643 26.0215 160.73 26.195 160.687 25.8805C160.643 25.4575 160.546 24.9912 160.676 24.5791C160.806 24.1887 160.578 22.4643 160.915 22.0414C161.056 21.8679 161.262 21.6835 161.316 21.4775C161.099 21.5317 161.164 21.5859 160.936 21.6293C160.871 21.3039 161.327 19.5579 161.457 19.1567C161.706 18.3975 161.988 17.6926 162.238 16.9335L164.992 10.6543C165.166 10.3181 165.296 9.99278 165.426 9.58067C165.61 8.99505 165.979 8.30098 166.25 7.40086C166.326 7.11889 166.326 6.69595 166.456 6.4682C166.51 6.35976 166.467 6.40313 166.51 6.25131C166.684 5.58977 167.139 5.57893 166.955 3.77868C166.814 3.68108 166.803 3.78953 166.771 3.70277C166.771 3.69192 166.749 3.69192 166.738 3.69192C166.836 3.57263 166.977 3.50756 166.944 3.29067C166.923 3.1063 166.814 3.05208 166.597 3.05208C166.619 2.96532 166.641 2.90025 166.651 2.81349L166.597 2.56406C166.369 2.62913 166.521 2.54237 166.435 2.7918C166.38 2.95448 166.38 2.93279 166.304 3.03039C166.153 3.21475 166.272 3.06292 166.174 3.26898C166.098 3.4208 166.207 3.36658 166.001 3.39911C165.827 2.99785 166.402 2.95448 166.088 2.56406C165.979 2.43392 165.838 2.32547 165.675 2.39054C165.502 2.45561 165.567 2.55322 165.328 2.66166C165.111 2.52068 164.992 2.30378 164.678 2.44477C164.537 2.50984 164.396 2.74842 164.168 2.7918C163.951 2.83518 164.06 2.74842 163.821 2.82434C163.745 2.85687 163.582 2.92194 163.496 2.95448C163.018 3.18222 162.422 3.80037 162.129 4.23417C161.977 4.47275 161.489 5.09091 161.468 5.37287C161.392 6.38145 160.654 6.26215 160.535 7.10805C160.47 7.56353 160.188 7.40086 159.798 8.14915C159.646 8.43112 159.873 8.66971 159.938 8.95167C159.938 8.96252 159.938 8.97336 159.938 8.98421L159.982 9.11435C160.101 9.43969 160.145 9.53729 159.808 9.84095C159.732 9.72166 159.787 9.38547 159.353 9.38547C159.093 9.39631 158.702 10.1121 158.594 10.3723C158.539 10.5025 158.583 10.9037 158.572 10.9254C158.496 11.0339 158.323 11.2182 158.182 11.2399Z" fill="white"/>
<path fill-rule="evenodd" clip-rule="evenodd" d="M122.945 14.6881C123.13 14.5905 123.227 14.5905 123.401 14.5146C123.585 14.4278 123.596 14.276 123.802 14.276C123.976 14.276 123.846 14.3085 124.008 14.3194C124.832 14.3519 124.529 14.4061 124.865 14.4278C125.169 14.4387 125.114 14.4495 125.212 14.7749C125.212 14.7857 125.223 14.7966 125.223 14.8182L125.266 14.905C125.505 15.328 125.407 15.4906 125.494 15.6858C125.613 15.9353 125.472 15.7075 125.689 15.816C125.841 15.8919 125.798 15.816 125.798 16.1413C125.798 16.4992 125.678 16.8679 125.635 17.1933C125.83 17.1716 125.7 17.2475 125.895 16.8137C125.982 16.6076 125.993 16.4775 126.242 16.4341C126.296 17.139 125.982 17.215 125.96 17.2475C125.863 17.3342 125.863 17.4102 125.83 17.5186C125.776 17.7355 125.689 17.9307 125.602 18.0825C125.472 18.3103 125.396 18.2994 125.32 18.6031C125.494 18.5706 125.754 18.2235 125.808 18.0934C126.004 17.6162 125.874 17.4969 126.134 17.421C126.34 17.5511 126.166 17.6054 126.275 17.8656C126.372 18.0825 126.329 17.8982 126.34 18.1259C126.34 18.2561 126.318 18.2452 126.405 18.3645C126.654 18.2669 126.611 17.8656 126.709 17.6379C126.947 17.7247 126.633 17.6162 126.958 17.909L127.175 17.6813C126.936 17.2909 127.197 16.9005 127.24 16.7486C127.37 16.3257 127.218 16.651 127.403 16.3257C127.641 15.9136 127.045 15.2303 127.62 15.3388C127.62 16.1847 127.923 16.1955 127.489 17.4102C127.435 17.562 127.327 17.6271 127.251 17.7247C127.045 17.9849 127.251 18.0609 127.045 18.0934C126.828 18.1151 126.871 17.9199 126.795 18.3103C126.698 18.8742 126.503 18.7441 126.383 19.0369C126.372 19.0369 126.318 19.2538 126.318 19.2538C126.307 19.5466 126.296 19.2104 126.394 19.4598C125.971 19.9695 126.123 19.2646 125.407 19.7526C125.255 19.8611 125.082 19.9262 124.952 20.0238C124.811 20.1322 124.735 20.2949 124.55 20.3274C124.572 20.0455 124.919 19.8069 125.049 19.5791C125.234 19.2538 125.461 19.0369 125.472 18.9176C125.494 18.679 125.483 18.8634 125.451 18.7983C125.299 18.8851 125.353 18.8851 125.255 19.0152L124.377 20.2298C124.236 20.4142 124.138 20.5443 123.889 20.6094C123.976 20.7612 124.106 20.7395 123.574 21.2059L122.338 22.1602C122.089 22.3554 121.828 22.3879 121.557 22.5181C120.766 22.9302 120.006 23.5267 119.095 23.223C118.759 23.1145 118.423 23.2122 118.152 23.0495C118.033 22.7675 117.903 21.7264 117.989 21.3143C118.228 20.0671 118.434 19.6117 119.193 18.7007C119.714 18.0717 119.931 17.7897 120.581 17.2041C120.668 17.1282 120.744 17.0631 120.831 16.9981C120.95 16.9005 121.026 16.8788 121.123 16.792L122.013 15.7617C122.24 15.4364 122.154 15.4906 122.577 15.3713C122.88 15.2954 122.653 15.1111 123.26 15.0785C123.629 15.0568 123.65 14.9809 124.03 14.9918C124.334 15.0026 124.583 15.1002 124.876 15.0677C124.822 14.6556 123.824 14.8508 123.813 14.8508C123.639 14.8074 123.672 14.5363 123.358 14.7749C123.184 14.9158 123.054 14.9592 122.945 14.6881ZM124.518 13.9181C124.735 14.0699 124.767 13.9832 124.822 14.2326C123.748 14.2435 124.117 14.2109 124.084 14.0374C123.954 14.0699 123.433 14.5146 123.509 13.9507C123.314 13.8205 123.574 14.0266 123.368 13.9073C123.477 13.7554 123.39 13.6687 123.542 13.6036C123.889 13.4735 124.301 13.7663 124.518 13.9181ZM127.381 12.7143C127.24 12.6167 126.882 12.1396 126.687 11.9877C126.221 11.6082 125.993 11.1418 125.277 10.9792C125.104 10.9358 124.93 10.9141 124.746 10.8707C124.388 10.7948 124.334 10.6864 124.193 10.8382L124.377 10.849C124.073 11.0225 123.498 10.8382 122.457 11.2937C121.937 11.5214 122.1 11.3154 121.926 11.2611C121.601 11.5323 120.364 11.8576 120.158 11.9552C119.659 12.2046 119.898 12.2155 119.193 12.2155C118.521 12.2155 117.577 12.7903 116.959 13.0939C115.885 13.6036 114.953 14.4061 114.237 15.2846C114.15 15.393 114.063 15.5015 113.966 15.6099C113.456 16.2172 113.337 16.4992 113.001 17.1065C112.664 17.703 112.556 18.2777 112.393 18.9718C112.274 19.4924 112.209 20.6419 112.231 21.2492C112.274 22.3879 112.654 23.852 113.478 24.7413L114.074 25.3703C114.465 25.6956 114.183 25.3052 114.942 26.0535C115.007 26.1186 115.029 26.1619 115.083 26.227C115.278 26.5198 115.864 26.8235 116.081 27.0621C116.211 27.2031 116.2 27.279 116.384 27.3874C116.948 27.7344 116.764 27.8321 117.133 27.767C117.469 27.7019 117.968 27.6911 118.315 27.7453C119.323 27.908 119.486 27.3874 119.649 27.3115C119.898 27.1922 120.321 27.0946 120.581 27.0187C121.362 26.7909 120.874 26.9428 121.416 26.6174L122.132 26.0969C122.685 25.7065 122.327 25.9017 122.674 25.4028C122.631 25.316 122.566 25.2944 122.544 25.1751C122.674 25.0015 122.75 24.9799 122.848 24.8172C122.956 24.6654 123.01 24.5244 123.119 24.3942L124.214 23.4833C124.366 23.3748 124.377 23.2772 124.529 23.1145C124.691 22.9519 125.049 22.6048 125.169 22.4422C124.8 22.4313 125.028 22.5831 124.67 22.6374C124.735 22.4313 124.746 22.5072 124.778 22.2903C124.822 22.0192 125.787 21.2709 126.014 21.0866C126.21 20.9347 126.177 20.7612 126.448 20.566C126.687 20.3925 126.763 20.3166 126.893 20.0021L127.186 19.3405C127.262 19.2212 127.327 19.1996 127.424 19.0803C127.652 18.7875 127.609 18.2886 127.793 17.9849C127.901 17.7897 128.021 17.5078 128.032 17.2366C128.053 17.074 128.053 16.9005 128.064 16.7378C128.086 16.5209 128.075 16.5643 128.021 16.445C127.912 16.2172 127.967 15.816 127.912 15.5015C127.826 15.1002 127.717 15.1653 127.587 14.8616C127.424 14.4929 126.925 13.6687 126.611 13.3867C126.101 12.9421 126.329 13.0072 126.123 12.6493C126.036 12.4974 126.09 12.6276 126.025 12.4649C126.492 12.2155 126.275 12.389 126.568 12.53C126.969 12.7143 126.904 12.1829 127.479 13.2024C127.565 13.3542 127.62 13.5711 127.815 13.6362C127.728 13.3108 127.424 12.9855 127.381 12.7143Z" fill="white"/>
<path fill-rule="evenodd" clip-rule="evenodd" d="M135.813 22.1058C135.857 22.1058 136.106 22.0408 136.16 22.0299C135.987 22.236 135.651 22.4095 135.325 22.4637C135.054 22.5071 135.033 22.6914 134.425 22.8107C134.425 22.5938 134.404 22.3661 134.913 22.3336L134.848 22.5179C134.989 22.4203 135.141 22.3553 135.304 22.2577C135.553 22.095 135.477 22.095 135.813 22.1058ZM133.026 12.031C132.907 12.096 132.885 12.0852 132.755 12.1719L132.039 12.7359C131.866 12.8552 131.465 12.8986 130.998 13.3866C130.434 13.9505 130.662 14.3735 130.044 14.6229C129.773 14.7313 129.588 14.8832 129.469 15.2953L129.708 15.3712C129.697 15.5555 129.599 15.6748 129.502 15.805C128.894 16.6509 128.873 17.3558 128.667 18.18C128.58 18.4945 128.406 18.8198 128.71 19.0367C128.602 19.5031 128.558 19.2428 128.45 20.0995C128.385 20.5767 128.189 20.5008 128.233 21.1189C128.341 22.3878 128.439 22.1058 128.786 23.071C128.905 23.4072 128.905 23.7 129.068 24.0687C129.22 24.4266 129.339 24.611 129.512 24.8604C129.86 25.3376 129.751 25.1207 130.25 25.4027C130.575 25.5762 130.695 25.9124 130.836 26.0533C131.096 25.9991 131.15 25.9015 131.432 26.0317C131.627 26.1293 131.736 26.3353 131.866 26.3787C132.05 26.4438 132.3 26.3028 132.484 26.2702C132.766 26.2269 132.907 26.3136 133.156 26.3028C133.547 26.2811 134.263 26.4221 134.523 26.357C134.935 26.2377 134.631 26.1835 135.694 25.9991C135.596 25.9341 135.51 25.9774 135.358 25.8148C135.455 25.5653 135.51 25.7063 135.781 25.4677C136.334 24.9689 136.486 24.9797 137.212 24.6544C137.462 24.5459 137.581 24.4375 137.885 24.3724C137.971 24.1555 137.896 24.1013 138.123 23.9711C138.308 23.8627 138.427 23.8952 138.546 23.8085C138.611 23.7759 138.611 23.7325 138.72 23.6566C138.796 23.6133 138.861 23.5916 138.926 23.5482C139.056 23.4614 139.121 23.353 139.316 23.5373C139.273 23.6783 139.002 23.841 138.904 23.9603C139.045 23.9278 139.154 23.8844 139.262 23.841C139.36 23.8085 139.501 23.7542 139.62 23.7325L139.49 23.6566C139.349 23.5916 139.446 23.7325 139.37 23.5807C139.501 23.5373 139.934 23.4723 140.054 23.4723C140.878 23.4723 140.292 23.4831 141.127 23.0059C141.55 22.7782 141.409 22.7457 141.637 22.7674C141.648 22.93 141.637 23.0276 141.691 23.1686C141.724 23.2445 141.724 23.2228 141.745 23.2662C141.93 22.8324 142.472 22.3336 142.928 20.9237C142.971 20.8044 142.949 20.8044 143.003 20.6851C143.654 19.2211 143.199 20.1104 143.47 19.2862C143.719 18.5379 143.6 18.5379 143.632 18.2667C143.719 17.6377 143.839 17.6161 143.817 16.64C143.817 16.3797 143.882 16.3689 143.817 16.0869C143.73 15.7616 143.784 15.8809 143.773 15.5772C143.698 15.4254 143.654 15.3061 143.491 15.2736C143.481 15.2627 143.416 15.2519 143.394 15.241C143.394 15.241 143.372 15.241 143.361 15.2302C143.361 15.2085 143.34 15.2193 143.329 15.2085C143.35 15.1977 143.361 15.1977 143.405 15.1651C143.47 15.1109 143.448 15.1217 143.491 15.0784C143.22 14.9808 143.22 14.8398 143.014 14.3735C142.917 14.1674 142.938 14.0698 142.873 13.9071C142.83 13.777 142.754 13.7445 142.678 13.5167C142.917 13.5384 142.852 13.5276 142.96 13.6685C143.014 13.4733 142.873 13.4191 142.765 13.2998C142.646 13.1805 142.57 13.007 142.396 13.0178C142.396 13.2239 142.385 13.0178 142.44 13.1588C142.515 13.3107 142.461 13.0721 142.526 13.3323C142.353 13.2456 142.461 13.2347 142.342 13.2456C142.212 13.2456 142.125 13.5709 141.832 12.9528C141.355 11.9551 141.268 12.1394 140.943 12.3021C141.062 12.4864 141.019 12.4756 141.008 12.725C141.203 12.8552 141.073 12.8335 141.29 12.8877C141.496 12.9202 141.431 12.9202 141.561 13.0829C141.604 13.1371 141.756 13.3215 141.778 13.3757C141.876 13.7661 141.431 13.2673 141.952 14.4277C142.082 14.7096 142.179 14.9157 142.017 15.1868C141.8 15.1001 141.724 14.753 141.735 14.5144C141.474 14.5903 141.648 14.7096 141.377 14.7639C141.409 15.0675 141.626 15.035 141.594 15.5989C141.702 15.664 141.68 15.7507 141.756 15.9026C141.811 16.011 141.886 16.0978 141.876 16.2713C141.865 16.499 141.539 17.6811 141.409 17.9089C141.366 18.0065 141.268 18.1258 141.203 18.2451C141.116 18.4077 141.116 18.3969 140.986 18.5379C140.802 18.5379 140.975 18.5053 140.748 18.4836C140.661 18.6029 140.628 18.668 140.574 18.809C140.477 19.0042 140.498 19.0042 140.336 19.015C140.433 18.6572 140.683 18.2776 140.585 17.8872C140.52 17.5944 140.596 17.833 140.618 17.5944C140.639 17.41 140.585 17.5618 140.574 17.3341C140.563 17.0521 140.78 17.0304 140.694 16.1412C140.65 15.6857 141.062 15.5122 140.932 14.9374C140.878 14.6988 140.932 14.6554 141.041 14.4494C141.333 14.4385 141.084 14.4277 141.344 14.5253C141.312 14.3301 141.344 14.2108 141.333 14.1457C141.323 14.0915 141.279 14.0373 141.247 13.918C141.182 13.636 141.084 13.7011 140.856 13.5384C140.834 13.0287 140.78 12.6817 140.433 12.4648C140.325 12.5515 140.249 12.6491 140.065 12.7793C139.913 12.8769 139.761 12.8769 139.62 12.9962C139.652 13.2673 139.761 13.4625 139.793 13.7553C139.989 15.1651 139.598 16.1737 139.717 17.1606C139.739 17.3124 139.446 18.0282 139.349 18.1691C139.132 18.4728 139.197 18.3644 139.088 18.7331C139.034 18.8849 138.991 18.9283 138.937 19.091C139.078 19.015 139.197 18.9174 139.284 18.8958C139.403 18.8632 139.49 18.9283 139.587 18.7765C139.707 18.6029 139.49 18.2234 139.913 18.1908C140.097 18.6572 139.88 19.0584 139.674 19.4597C139.501 19.8284 139.349 19.9043 139.154 20.1754C139.067 20.2839 139.045 20.2839 138.969 20.3706C139.186 20.3598 139.327 20.1212 139.598 20.0995C139.576 20.3598 139.501 20.3273 139.316 20.4249C138.969 20.5984 138.904 20.3815 138.59 20.5659C138.492 20.6201 138.59 20.555 138.514 20.6201C138.416 20.7177 138.384 20.8804 138.394 21.0105C137.971 21.184 137.971 21.0973 137.668 21.1949C137.429 21.2708 137.353 21.466 137.06 21.4768C137.201 21.184 137.679 21.0864 137.809 20.7394C137.657 20.7828 137.592 20.8804 137.451 20.978L136.399 21.6612C136.431 21.5419 136.388 21.6395 136.464 21.5419L136.768 21.2925C136.865 21.2165 136.865 21.2382 136.985 21.1515C137.256 20.9454 137.82 20.5659 137.961 20.273L137.386 20.4466C137.494 20.1646 137.494 20.3706 137.57 20.208C137.451 20.1429 137.277 20.2947 137.158 20.3598C137.071 20.414 137.028 20.4357 136.941 20.4791C136.605 20.6309 136.811 20.5659 136.616 20.8153C136.041 21.5419 136.258 21.5094 136.139 21.672C136.084 21.7479 134.837 22.2143 134.718 22.2034C134.544 22.1926 134.555 22.0733 134.328 22.1384C134.067 22.2251 134.089 22.3986 133.579 22.3336C133.395 22.3119 133.373 22.301 133.341 22.1167C133.536 21.9974 134.024 22.16 134.447 21.8455C134.371 21.7805 134.458 21.8347 134.338 21.7913L134.024 21.7588C133.536 21.6829 133.666 21.6503 133.46 21.4118C133.341 21.2925 133.297 21.3792 133.276 21.1515C133.232 20.7936 133.493 19.9911 133.612 19.644C133.807 19.0476 133.937 18.8741 134.241 18.4077C134.36 18.2234 134.49 18.0282 134.62 17.8763C134.837 17.6377 135 17.3016 135.195 17.0304C135.596 16.4557 136.139 16.0327 136.605 15.523L137.668 14.4494C138.34 13.8746 138.123 14.0373 138.958 13.9071C139.002 13.8421 139.154 13.4625 139.164 13.3866C139.197 13.2347 139.099 12.9202 139.023 12.8443C138.698 12.5298 138.405 12.9636 137.993 12.725C138.069 12.5841 137.939 12.6925 138.156 12.5949C138.362 12.5081 138.492 12.4648 138.535 12.1719C138.405 12.0527 138.416 12.1069 138.362 11.9551C138.308 11.8032 138.416 11.9984 138.318 11.8358C138.167 11.8358 138.058 11.8791 137.928 11.8358C137.657 11.7382 137.874 11.3477 135.586 11.3044C135.26 11.2935 135.141 11.3369 134.892 11.4345C134.642 11.5213 134.469 11.5104 134.176 11.5538C133.72 11.6189 133.493 11.8791 133.026 12.031Z" fill="white"/>
<path fill-rule="evenodd" clip-rule="evenodd" d="M124.023 20.0329C124.197 19.9463 124.164 19.9463 124.251 19.8162C124.457 19.5128 124.728 19.4153 124.771 19.0469C124.544 19.1119 124.457 19.3286 124.359 19.4803C124.197 19.7079 124.132 19.7404 124.023 20.0329Z" fill="white"/>
<path fill-rule="evenodd" clip-rule="evenodd" d="M98.1484 14.2318C98.246 14.2968 98.4085 14.221 98.5385 14.1777C98.7661 14.1018 98.7986 14.1668 98.9069 13.9609C98.5277 13.9609 98.3652 14.0476 98.1484 14.2318Z" fill="white"/>
<path fill-rule="evenodd" clip-rule="evenodd" d="M104.03 18.5063C104.106 18.3329 104.063 18.3871 104.095 18.2354C104.128 18.062 104.139 18.0945 103.976 18.0078C103.857 18.1487 103.814 18.2029 103.781 18.3762C103.846 18.4304 103.781 18.3871 103.868 18.4304L104.03 18.5063Z" fill="white"/>
<path fill-rule="evenodd" clip-rule="evenodd" d="M123.164 21.0538C123.413 20.9888 123.478 20.848 123.597 20.5879C123.402 20.5879 123.413 20.6421 123.316 20.7613C123.197 20.913 123.175 20.8588 123.164 21.0538Z" fill="white"/>
<path d="M10.487 12.802C12.3848 12.802 14.7924 13.6371 15.5298 16.5977H20.8655C20.0087 10.0799 14.5212 7.84591 10.487 7.84591C4.6199 7.84591 0 12.3248 0 18.5498C0 24.753 4.50061 29.2319 10.487 29.2319C14.3694 29.2319 18.729 26.5858 20.1822 22.6166C20.5076 21.8466 20.9305 20.3283 20.9305 17.9316H8.24208V22.4648H14.5863C13.4801 23.9505 11.8859 24.3951 10.487 24.3951C7.43956 24.3951 5.12961 22.0852 5.12961 18.5498C5.12961 15.1987 7.43956 12.802 10.487 12.802ZM22.3404 18.5498C22.3404 24.6663 27.1446 29.1994 33.0768 29.1994C39.0089 29.1994 43.8348 24.5687 43.8348 18.5498C43.8348 12.4441 39.0089 7.82422 33.0768 7.82422C27.1446 7.82422 22.3404 12.4441 22.3404 18.5498ZM27.3832 18.5498C27.3832 14.6673 30.1378 12.7478 32.9575 12.6827C35.8314 12.6285 38.7378 14.5806 38.7378 18.5498C38.7378 22.4648 35.8314 24.4277 32.9575 24.3951C30.1378 24.3626 27.3832 22.4431 27.3832 18.5498ZM46.058 18.5498C46.058 24.6663 50.8623 29.1994 56.7944 29.1994C62.7157 29.1994 67.5525 24.5687 67.5525 18.5498C67.5525 12.4441 62.7157 7.82422 56.7944 7.82422C50.8623 7.82422 46.058 12.4441 46.058 18.5498ZM51.1009 18.5498C51.1009 14.6673 53.8555 12.7478 56.6751 12.6827C59.549 12.6285 62.4554 14.5806 62.4554 18.5498C62.4554 22.4648 59.549 24.4277 56.6751 24.3951C53.8555 24.3626 51.1009 22.4431 51.1009 18.5498ZM74.7752 24.0698V12.9538H77.9853C81.4773 12.9538 83.2558 15.8277 83.2558 18.5498C83.2558 21.2827 81.4773 24.0698 77.9853 24.0698H74.7752ZM69.7432 8.14956V28.9066H77.9853C84.8283 28.9066 88.2662 23.7444 88.2662 18.5498C88.2662 13.3659 84.8283 8.14956 77.9853 8.14956H69.7432Z" fill="white"/>
</svg>
