<svg width="109" height="30" viewBox="0 0 109 30" fill="none" xmlns="http://www.w3.org/2000/svg">
<path d="M12.0382 24.3547L12 5.08872L16.6894 5.07605C21.1367 5.06337 23.7745 5.49432 23.7872 9.56299C23.7872 11.9712 22.755 13.5429 20.2319 13.9485V13.9992C22.4747 14.0499 23.7999 14.8611 23.7999 17.6243L23.8127 21.6549C23.8127 22.4154 23.9529 23.5561 24.5263 24.3293L19.8241 24.342C19.2635 23.5561 19.1488 22.4281 19.1488 21.6676L19.136 17.5736C19.136 16.23 18.295 15.5456 17.4412 15.5456L16.6894 15.5582L16.7021 24.3547H12.0382ZM16.6766 12.7951C18.792 12.7824 19.1233 12.1107 19.1233 10.2981C19.1233 8.51096 18.8047 7.83919 16.6766 7.83919V12.7951ZM35.8675 20.3874C35.8802 23.2646 33.3444 24.5068 30.5155 24.5194C27.6738 24.5194 25.1379 23.2773 25.1252 20.4128L25.1125 13.0232C25.1125 10.2348 27.0239 8.66306 30.4772 8.65039C33.9306 8.65039 35.8547 10.2094 35.8547 12.9979L35.8675 20.3874ZM29.5725 20.6155C29.5725 21.1859 29.8018 21.7056 30.5027 21.6929C31.2036 21.6929 31.4329 21.1859 31.4329 20.6155L31.4202 12.5416C31.4075 11.9839 31.1908 11.4642 30.49 11.4642C29.7764 11.4642 29.5597 11.9839 29.5597 12.5543L29.5725 20.6155ZM41.589 24.304L41.5508 5.02535L37.1035 5.03802L37.1418 24.3166L41.589 24.304ZM47.2724 10.8432H47.3234C47.54 9.22076 48.7506 8.61236 50.3816 8.61236C52.8283 8.61236 53.5674 10.615 53.5674 12.567L53.5929 21.1099C53.5929 23.0111 52.7518 24.4687 50.4963 24.4814C48.8652 24.4814 47.7439 23.6702 47.3488 22.2633H47.2851L47.2979 27.7642H42.8633L42.8251 8.81516H47.2596L47.2724 10.8432ZM47.2851 19.9058C47.2851 20.5902 47.6802 20.9578 48.2154 20.9578C48.7506 20.9578 49.1456 20.5775 49.1456 19.9058L49.1328 13.188C49.1328 12.5163 48.7378 12.136 48.2026 12.136C47.6674 12.136 47.2724 12.5163 47.2724 13.2007L47.2851 19.9058ZM59.3017 24.2659L59.2635 5L54.8162 5.01267L54.8544 24.2786L59.3017 24.2659ZM66.8582 22.4407H66.8073C66.2721 23.5561 65.4565 24.4561 63.6852 24.4561C61.7483 24.4561 60.5632 23.328 60.5632 21.2873V18.9932C60.5505 14.9245 66.8455 15.4061 66.8455 12.5416C66.8455 11.9205 66.6416 11.4009 65.9153 11.4009C65.1762 11.4009 64.985 11.9205 64.985 12.5416V14.2527H60.5505L60.5377 12.8204C60.5377 9.70241 63.2392 8.58701 65.9025 8.58701C68.5785 8.58701 71.28 9.68973 71.28 12.7951L71.3055 24.2533H66.8582V22.4407ZM64.9978 20.286C64.9978 20.8183 65.3928 21.0972 65.8133 21.0972C66.7435 21.0972 66.8582 20.4888 66.8582 19.1199L66.8455 16.4328C65.979 17.0285 64.9978 17.3834 64.9978 18.6002V20.286ZM83.2711 14.2147L83.2584 12.4275C83.2584 9.82916 81.0921 8.56166 77.7152 8.56166C74.7971 8.57434 72.5161 9.79113 72.5161 12.8838C72.5288 17.9158 78.8238 16.7624 78.8366 20.4508C78.8366 21.0972 78.6072 21.6042 77.9063 21.6169C77.2055 21.6169 76.9761 21.0972 76.9761 20.4508V18.1186L72.5288 18.1313L72.5416 20.5902C72.5416 23.3787 74.7334 24.4307 77.575 24.4307C81.296 24.418 83.1946 22.7956 83.1946 19.741C83.1819 14.6963 76.9634 15.2033 76.9634 12.5416C76.9634 11.8952 77.18 11.3755 77.8936 11.3755C78.5945 11.3755 78.8238 11.8952 78.8238 12.5416V14.2147H83.2711ZM85.5903 11.553L85.6158 21.0085C85.6158 23.0365 86.151 24.2279 88.381 24.2152H92V21.4014H91.1207C90.0886 21.4014 90.0503 20.9071 90.0503 19.9945L90.0376 11.553L91.9745 11.5403V8.72644H90.0248V5.93795L85.5776 5.95062L85.5903 8.73911H84.0994V11.553H85.5903Z" fill="white"/>
</svg>
