<svg width="118" height="83" viewBox="0 0 118 83" fill="none" xmlns="http://www.w3.org/2000/svg">
<path fill-rule="evenodd" clip-rule="evenodd" d="M13.2656 30.0117H32.4955V30.6557H13.2656V30.0117Z" fill="white"/>
<path fill-rule="evenodd" clip-rule="evenodd" d="M13.2656 29.0236H16.2759V20.3672L13.2656 22.8832V29.0236Z" fill="white"/>
<path fill-rule="evenodd" clip-rule="evenodd" d="M17.3281 29.0242H20.3234V16.9531L17.3281 19.4842V29.0242Z" fill="white"/>
<path fill-rule="evenodd" clip-rule="evenodd" d="M21.3828 29.0248H24.3781V13.5391L21.3828 16.0701V29.0248Z" fill="white"/>
<path fill-rule="evenodd" clip-rule="evenodd" d="M25.4453 29.0234H28.4406V10.123L25.4453 12.6541V29.0234Z" fill="white"/>
<path fill-rule="evenodd" clip-rule="evenodd" d="M29.5078 29.0252H32.5031V7.41406H31.6794L29.5078 9.2412V29.0252Z" fill="white"/>
<path fill-rule="evenodd" clip-rule="evenodd" d="M22.7971 47.1765C25.9572 47.1765 26.1369 43.3276 24.0552 36.9626C24.0252 34.147 25.5828 32.8889 28.7129 33.1885C30.8246 33.2783 31.9178 32.6493 31.9927 31.3164H13.6016C13.6764 32.6493 14.7697 33.2783 16.8814 33.1885C20.0265 32.8889 21.5691 34.147 21.5391 36.9626C19.4724 43.3276 19.6521 47.1765 22.7971 47.1765Z" fill="white"/>
<path fill-rule="evenodd" clip-rule="evenodd" d="M63.0369 18.9453L56.3574 13.3441V4.43305H51.3852V9.16563L40.4972 0L33.7578 5.66112V11.0227L34.3569 10.5285L40.4972 5.36159L56.6419 18.9453H63.0369Z" fill="white"/>
<path fill-rule="evenodd" clip-rule="evenodd" d="M38.2031 18.1367H41.0487V20.9373H38.2031V18.1367Z" fill="white"/>
<path fill-rule="evenodd" clip-rule="evenodd" d="M41.9375 18.1367H44.7681V20.9373H41.9375V18.1367Z" fill="white"/>
<path fill-rule="evenodd" clip-rule="evenodd" d="M38.2031 14.4375H41.0487V17.2531H38.2031V14.4375Z" fill="white"/>
<path fill-rule="evenodd" clip-rule="evenodd" d="M41.9375 14.4375H44.7681V17.2531H41.9375V14.4375Z" fill="white"/>
<path d="M46.0678 31.3757H42.8029V28.2306H51.3844V23.6777H38.0703V44.3903H46.0678C50.2912 44.3903 53.1666 41.8143 53.1666 37.8905C53.1666 33.9516 50.2912 31.3757 46.0678 31.3757ZM46.0678 39.9572H42.8029V35.8087H46.0678C47.3707 35.8087 48.4341 36.3778 48.4341 37.8905C48.4341 39.3881 47.3707 39.9572 46.0678 39.9572ZM65.7469 23.6777L62.1076 32.7385L58.049 23.6777H53.3164L59.951 37.9204C59.1423 39.3582 57.9591 40.1669 55.8025 39.9572V44.3903C59.6814 44.5999 62.6767 42.7728 64.5039 38.2948L70.4945 23.6777H65.7469ZM86.774 39.8374V23.6777H72.8907V32.9632C72.8907 36.4976 72.2018 38.4745 71.2583 39.8374H69.1616V48.359H73.8941V44.3903H84.2579V48.359H88.9905V39.8374H86.774ZM76.2904 39.8374C77.0242 38.5045 77.6233 36.4377 77.6233 33.0231V28.1108H82.0414V39.8374H76.2904ZM99.3542 30.1925H96.2391V23.6777H91.5065V44.3903H99.3542C103.443 44.3903 106.603 41.2302 106.603 37.2914C106.603 33.3526 103.443 30.1925 99.3542 30.1925ZM99.3542 39.9572H96.2391V34.6256H99.3542C100.807 34.6256 101.87 35.7788 101.87 37.2914C101.87 38.804 100.807 39.9572 99.3542 39.9572Z" fill="white"/>
<path d="M12.73 60.7752C14.033 59.7718 14.7968 58.349 14.7968 56.477C14.7968 52.6879 11.7865 50.3516 7.66798 50.3516C3.81901 50.3516 1.60249 52.2835 0.329483 54.8295L4.37314 57.1659C4.9123 55.8929 5.82587 54.7996 7.66798 54.7996C9.36032 54.7996 10.0642 55.5634 10.0642 56.8364C10.0642 58.1094 9.1207 58.8732 7.24864 58.8732H5.21183V63.0816H7.8477C9.8246 63.0816 10.7981 63.9203 10.7981 65.2682C10.7981 66.631 9.85455 67.4697 7.87765 67.4697C5.64615 67.4697 4.61277 66.2566 4.08859 64.6541L0 66.9905C1.2131 69.9259 3.60934 71.9028 7.87765 71.9028C12.2208 71.9028 15.5456 69.5065 15.5456 65.6276C15.5456 63.4111 14.4673 61.7487 12.73 60.7752ZM34.1914 66.9306V50.7709H20.3082V60.0713C20.3082 63.5908 19.6192 65.5677 18.6757 66.9306H16.579V75.4522H21.3116V71.4984H31.6753V75.4522H36.4079V66.9306H34.1914ZM23.7078 66.9306C24.4567 65.5977 25.0407 63.5309 25.0407 60.1163V55.204H29.4588V66.9306H23.7078ZM48.5239 71.9028C54.4696 71.9028 59.292 67.2301 59.292 61.1347C59.292 55.0242 54.4696 50.3516 48.5239 50.3516C42.5633 50.3516 37.7408 55.0242 37.7408 61.1347C37.7408 67.2301 42.5633 71.9028 48.5239 71.9028ZM48.5239 67.29C45.1392 67.29 42.4884 64.8339 42.4884 61.1347C42.4884 57.4355 45.1392 54.9793 48.5239 54.9793C51.8936 54.9793 54.5595 57.4355 54.5595 61.1347C54.5595 64.8339 51.8936 67.29 48.5239 67.29ZM69.8056 50.7709H61.9579V71.4984H66.7054V64.9836H69.8056C73.8941 64.9836 77.0542 61.8086 77.0542 57.8698C77.0542 53.931 73.8941 50.7709 69.8056 50.7709ZM69.8056 60.5356H66.7054V55.204H69.8056C71.2583 55.204 72.3216 56.3571 72.3216 57.8698C72.3216 59.3824 71.2583 60.5356 69.8056 60.5356ZM89.1702 71.9028C95.1159 71.9028 99.9533 67.2301 99.9533 61.1347C99.9533 55.0242 95.1159 50.3516 89.1702 50.3516C83.2245 50.3516 78.3871 55.0242 78.3871 61.1347C78.3871 67.2301 83.2245 71.9028 89.1702 71.9028ZM89.1702 67.29C85.8005 67.29 83.1347 64.8339 83.1347 61.1347C83.1347 57.4355 85.8005 54.9793 89.1702 54.9793C92.5399 54.9793 95.2057 57.4355 95.2057 61.1347C95.2057 64.8339 92.5399 67.29 89.1702 67.29ZM115.454 60.7453C116.592 59.7718 117.266 58.4089 117.266 56.6866C117.266 53.1072 114.331 50.7709 110.721 50.7709H102.604V71.4984H111.32C115.02 71.4984 118 69.0872 118 65.4179C118 63.3212 116.997 61.7187 115.454 60.7453ZM110.721 55.204C111.815 55.204 112.534 55.9827 112.534 57.0461C112.534 58.1094 111.785 58.8732 110.721 58.8732H107.352V55.204H110.721ZM111.32 67.0504H107.352V63.0816H111.32C112.504 63.0816 113.267 63.9203 113.267 65.0735C113.267 66.2267 112.504 67.0504 111.32 67.0504Z" fill="white"/>
<path d="M3.47776 81.5013L2.08495 79.4496L3.41786 77.5176H2.38448L1.17138 79.2399V77.5176H0.257812V81.5013H1.17138V79.6592L2.44438 81.5013H3.47776ZM5.33485 77.5176H3.82222V81.5013H4.73579V80.2433H5.33485C6.11363 80.2433 6.72767 79.6443 6.72767 78.8805C6.72767 78.1167 6.11363 77.5176 5.33485 77.5176ZM5.33485 79.3897H4.73579V78.3713H5.33485C5.60443 78.3713 5.8141 78.5959 5.8141 78.8805C5.8141 79.165 5.60443 79.3897 5.33485 79.3897ZM9.31861 81.5013H10.322L8.95917 77.5176H7.80598L6.44312 81.5013H7.44654L7.64124 80.8723H9.12391L9.31861 81.5013ZM7.91081 80.0187L8.37509 78.551L8.85433 80.0187H7.91081ZM12.4187 81.5762C13.1526 81.5762 13.7816 81.2168 14.1261 80.6627L13.3473 80.1984C13.1676 80.5129 12.8231 80.6926 12.4187 80.6926C11.7149 80.6926 11.2506 80.2134 11.2506 79.5095C11.2506 78.7906 11.7149 78.3263 12.4187 78.3263C12.8231 78.3263 13.1676 78.506 13.3473 78.8056L14.1261 78.3563C13.7816 77.7872 13.1376 77.4277 12.4187 77.4277C11.2206 77.4277 10.352 78.3413 10.352 79.5095C10.352 80.6776 11.2206 81.5762 12.4187 81.5762ZM17.7803 81.5013L16.3725 79.4496L17.7204 77.5176H16.6871L15.474 79.2399V77.5176H14.5604V81.5013H15.474V79.6592L16.747 81.5013H17.7803ZM20.3413 81.5013H21.2549V77.5176H20.566L19.0384 79.6742V77.5176H18.1248V81.5013H18.7987L20.3413 79.3298V81.5013ZM26.4967 80.6177V77.5176H23.8309V79.2998C23.8309 79.9737 23.6961 80.3631 23.5163 80.6177H23.112V82.2652H24.0255V81.5013H26.0174V82.2652H26.931V80.6177H26.4967ZM24.4748 80.6177C24.6246 80.3631 24.7294 79.9737 24.7294 79.3148V78.3713H25.5831V80.6177H24.4748ZM27.1856 81.5013C27.9194 81.5762 28.7581 81.3067 28.7581 79.8839V78.3862H29.6867V81.5013H30.6002V77.5176H27.8446V79.9138C27.8446 80.5878 27.59 80.7076 27.1856 80.6477V81.5013ZM34.1647 77.5176H32.5622C31.8133 77.5176 31.1993 78.1167 31.1993 78.8805C31.1993 79.4046 31.5288 79.8689 32.023 80.0786L31.0795 81.5013H32.1129L32.9516 80.1984H33.2511V81.5013H34.1647V77.5176ZM32.5622 79.3897C32.3076 79.3897 32.1129 79.165 32.1129 78.8805C32.1129 78.5959 32.3076 78.3713 32.5622 78.3713H33.2511V79.3897H32.5622ZM38.4629 79.4346C38.7175 79.2399 38.8523 78.9703 38.8523 78.6109C38.8523 77.877 38.2832 77.4277 37.4894 77.4277C36.7406 77.4277 36.3213 77.8021 36.0667 78.2964L36.8604 78.7457C36.9503 78.506 37.13 78.2814 37.4894 78.2814C37.8039 78.2814 37.9537 78.4312 37.9537 78.6858C37.9537 78.9254 37.759 79.0752 37.3996 79.0752H37.0102V79.8839H37.5194C37.9088 79.8839 38.0885 80.0486 38.0885 80.3032C38.0885 80.5728 37.9088 80.7226 37.5194 80.7226C37.1001 80.7226 36.9054 80.4979 36.8005 80.1834L36.0068 80.6327C36.2464 81.2018 36.7107 81.5762 37.5194 81.5762C38.3581 81.5762 39.0021 81.1269 39.0021 80.3781C39.0021 79.9438 38.7924 79.6293 38.4629 79.4346ZM42.5964 80.6177V77.5176H39.9156V79.2998C39.9156 79.9737 39.7808 80.3631 39.6011 80.6177H39.1968V82.2652H40.1103V81.5013H42.1022V82.2652H43.0158V80.6177H42.5964ZM40.5746 80.6177C40.7094 80.3631 40.8292 79.9737 40.8292 79.3148V78.3713H41.6829V80.6177H40.5746ZM45.3521 81.5762C46.4903 81.5762 47.4189 80.6776 47.4189 79.5095C47.4189 78.3413 46.4903 77.4277 45.3521 77.4277C44.1989 77.4277 43.2704 78.3413 43.2704 79.5095C43.2704 80.6776 44.1989 81.5762 45.3521 81.5762ZM45.3521 80.6926C44.6931 80.6926 44.1839 80.2134 44.1839 79.5095C44.1839 78.7906 44.6931 78.3263 45.3521 78.3263C45.9961 78.3263 46.5053 78.7906 46.5053 79.5095C46.5053 80.2134 45.9961 80.6926 45.3521 80.6926ZM49.4407 77.5176H47.9281V81.5013H48.8416V80.2433H49.4407C50.2345 80.2433 50.8335 79.6443 50.8335 78.8805C50.8335 78.1167 50.2345 77.5176 49.4407 77.5176ZM49.4407 79.3897H48.8416V78.3713H49.4407C49.7253 78.3713 49.9349 78.5959 49.9349 78.8805C49.9349 79.165 49.7253 79.3897 49.4407 79.3897ZM53.1699 81.5762C54.3081 81.5762 55.2366 80.6776 55.2366 79.5095C55.2366 78.3413 54.3081 77.4277 53.1699 77.4277C52.0316 77.4277 51.1031 78.3413 51.1031 79.5095C51.1031 80.6776 52.0316 81.5762 53.1699 81.5762ZM53.1699 80.6926C52.5259 80.6926 52.0017 80.2134 52.0017 79.5095C52.0017 78.7906 52.5259 78.3263 53.1699 78.3263C53.8138 78.3263 54.338 78.7906 54.338 79.5095C54.338 80.2134 53.8138 80.6926 53.1699 80.6926ZM58.2319 79.4346C58.4416 79.2399 58.5764 78.9853 58.5764 78.6558C58.5764 77.9669 58.0073 77.5176 57.3184 77.5176H55.7608V81.5013H57.4382C58.1421 81.5013 58.7261 81.0371 58.7261 80.3332C58.7261 79.9288 58.5315 79.6143 58.2319 79.4346ZM57.3184 78.3713C57.528 78.3713 57.6628 78.521 57.6628 78.7157C57.6628 78.9254 57.528 79.0752 57.3184 79.0752H56.6744V78.3713H57.3184ZM57.4382 80.6477H56.6744V79.8839H57.4382C57.6628 79.8839 57.8126 80.0486 57.8126 80.2583C57.8126 80.4829 57.6628 80.6477 57.4382 80.6477ZM61.0775 81.5762C62.2157 81.5762 63.1442 80.6776 63.1442 79.5095C63.1442 78.3413 62.2157 77.4277 61.0775 77.4277C59.9392 77.4277 59.0107 78.3413 59.0107 79.5095C59.0107 80.6776 59.9392 81.5762 61.0775 81.5762ZM61.0775 80.6926C60.4335 80.6926 59.9093 80.2134 59.9093 79.5095C59.9093 78.7906 60.4335 78.3263 61.0775 78.3263C61.7215 78.3263 62.2456 78.7906 62.2456 79.5095C62.2456 80.2134 61.7215 80.6926 61.0775 80.6926ZM65.9448 77.5176H63.6684V81.5013H64.582V78.3862H65.9448V77.5176ZM68.0116 81.5762C69.1648 81.5762 70.0933 80.6776 70.0933 79.5095C70.0933 78.3413 69.1648 77.4277 68.0116 77.4277C66.8734 77.4277 65.9448 78.3413 65.9448 79.5095C65.9448 80.6776 66.8734 81.5762 68.0116 81.5762ZM68.0116 80.6926C67.3676 80.6926 66.8584 80.2134 66.8584 79.5095C66.8584 78.7906 67.3676 78.3263 68.0116 78.3263C68.6706 78.3263 69.1798 78.7906 69.1798 79.5095C69.1798 80.2134 68.6706 80.6926 68.0116 80.6926ZM76.009 77.5176H75.1105L74.0172 79.2848L72.9389 77.5176H72.0253V81.5013H72.9389V79.18L73.9722 80.8723H74.0771L75.1105 79.18V81.5013H76.009V77.5176ZM78.9145 81.5013H79.8281V77.5176H79.1541L77.6115 79.6742V77.5176H76.698V81.5013H77.3869L78.9145 79.3298V81.5013ZM83.7369 81.5013L82.3441 79.4496L83.677 77.5176H82.6436L81.4305 79.2399V77.5176H80.517V81.5013H81.4305V79.6592L82.7036 81.5013H83.7369ZM85.594 77.5176H84.0814V81.5013H84.995V80.2433H85.594C86.3728 80.2433 86.9868 79.6443 86.9868 78.8805C86.9868 78.1167 86.3728 77.5176 85.594 77.5176ZM85.594 79.3897H84.995V78.3713H85.594C85.8786 78.3713 86.0733 78.5959 86.0733 78.8805C86.0733 79.165 85.8786 79.3897 85.594 79.3897ZM89.3232 81.5762C90.4614 81.5762 91.3899 80.6776 91.3899 79.5095C91.3899 78.3413 90.4614 77.4277 89.3232 77.4277C88.17 77.4277 87.2414 78.3413 87.2414 79.5095C87.2414 80.6776 88.17 81.5762 89.3232 81.5762ZM89.3232 80.6926C88.6642 80.6926 88.155 80.2134 88.155 79.5095C88.155 78.7906 88.6642 78.3263 89.3232 78.3263C89.9672 78.3263 90.4764 78.7906 90.4764 79.5095C90.4764 80.2134 89.9672 80.6926 89.3232 80.6926ZM95.1341 81.5013L93.7263 79.4496L95.0742 77.5176H94.0408L92.8127 79.2399V77.5176H91.8991V81.5013H92.8127V79.6592L94.0857 81.5013H95.1341ZM95.2389 81.5013C95.9728 81.5762 96.8114 81.3067 96.8114 79.8839V78.3862H97.755V81.5013H98.6685V77.5176H95.8979V79.9138C95.8979 80.5878 95.6582 80.7076 95.2389 80.6477V81.5013ZM101.574 81.5013H102.473V77.5176H101.799L100.256 79.6742V77.5176H99.3425V81.5013H100.031L101.574 79.3298V81.5013ZM107.145 77.5176H106.232L105.153 79.2848L104.075 77.5176H103.161V81.5013H104.075V79.18L105.108 80.8723H105.213L106.232 79.18V81.5013H107.145V77.5176ZM110.365 81.5013H111.369L110.006 77.5176H108.853L107.49 81.5013H108.493L108.688 80.8723H110.17L110.365 81.5013ZM108.957 80.0187L109.422 78.551L109.901 80.0187H108.957ZM114.094 77.5176H111.144V78.3862H112.162V81.5013H113.076V78.3862H114.094V77.5176ZM116.745 81.5013H117.749L116.386 77.5176H115.233L113.87 81.5013H114.873L115.068 80.8723H116.55L116.745 81.5013ZM115.337 80.0187L115.817 78.551L116.281 80.0187H115.337Z" fill="white"/>
</svg>
