<svg width="109" height="30" viewBox="0 0 109 30" fill="none" xmlns="http://www.w3.org/2000/svg">
<mask id="mask0_796_883" style="mask-type:luminance" maskUnits="userSpaceOnUse" x="10" y="5" width="20" height="23">
<path d="M10 6.61493C10 7.52591 10.7454 8.22985 11.6149 8.22985C10.704 8.22985 10 8.97521 10 9.84478C10 10.7558 10.7454 11.4597 11.6149 11.4597C10.704 11.4597 10 12.2051 10 13.0746C10 13.9442 10.7454 14.6896 11.6149 14.6896C10.704 14.6896 10 15.4349 10 16.3045C10 17.2155 10.7454 17.9194 11.6149 17.9194C10.704 17.9194 10 18.6648 10 19.5343C10 20.4453 10.7454 21.1493 11.6149 21.1493C10.704 21.1493 10 21.8946 10 22.7642C10 23.6338 10.7454 24.3791 11.6149 24.3791C10.704 24.3791 10 25.1245 10 25.994C10 26.8636 10.7454 27.609 11.6149 27.609C12.4845 27.609 13.2299 26.8636 13.2299 25.994C13.2299 25.1245 12.4845 24.3791 11.6149 24.3791C12.5259 24.3791 13.2299 23.6338 13.2299 22.7642C13.2299 21.8946 12.4845 21.1493 11.6149 21.1493C12.5259 21.1493 13.2299 20.4039 13.2299 19.5343C13.2299 18.6234 12.4845 17.9194 11.6149 17.9194C12.5259 17.9194 13.2299 17.1741 13.2299 16.3045C13.2299 15.3935 12.4845 14.6896 11.6149 14.6896C12.5259 14.6896 13.2299 13.9442 13.2299 13.0746C13.2299 12.2051 12.4845 11.4597 11.6149 11.4597C12.5259 11.4597 13.2299 10.7144 13.2299 9.84478C13.2299 8.9338 12.4845 8.22985 11.6149 8.22985C12.5259 8.22985 13.2299 7.4845 13.2299 6.61493C13.2299 5.70394 12.4845 5 11.6149 5C10.7454 5 10 5.74535 10 6.61493ZM13.2713 6.61493C13.2713 7.52591 14.0166 8.22985 14.8862 8.22985C13.9752 8.22985 13.2713 8.97521 13.2713 9.84478C13.2713 10.7558 14.0166 11.4597 14.8862 11.4597C13.9752 11.4597 13.2713 12.2051 13.2713 13.0746C13.2713 13.9442 14.0166 14.6896 14.8862 14.6896C13.9752 14.6896 13.2713 15.4349 13.2713 16.3045C13.2713 17.2155 14.0166 17.9194 14.8862 17.9194C13.9752 17.9194 13.2713 18.6648 13.2713 19.5343C13.2713 20.4453 14.0166 21.1493 14.8862 21.1493C13.9752 21.1493 13.2713 21.8946 13.2713 22.7642C13.2713 23.6338 14.0166 24.3791 14.8862 24.3791C13.9752 24.3791 13.2713 25.1245 13.2713 25.994C13.2713 26.8636 14.0166 27.609 14.8862 27.609C15.7972 27.609 16.5011 26.8636 16.5011 25.994C16.5011 25.1245 15.7558 24.3791 14.8862 24.3791C15.7972 24.3791 16.5011 23.6338 16.5011 22.7642C16.5011 21.8946 15.7558 21.1493 14.8862 21.1493C15.7972 21.1493 16.5011 20.4039 16.5011 19.5343C16.5011 18.6234 15.7558 17.9194 14.8862 17.9194C15.7972 17.9194 16.5011 17.1741 16.5011 16.3045C16.5011 15.3935 15.7558 14.6896 14.8862 14.6896C15.7972 14.6896 16.5011 13.9442 16.5011 13.0746C16.5011 12.2051 15.7558 11.4597 14.8862 11.4597C15.7972 11.4597 16.5011 10.7144 16.5011 9.84478C16.5011 8.9338 15.7558 8.22985 14.8862 8.22985C15.7972 8.22985 16.5011 7.4845 16.5011 6.61493C16.5011 5.70394 15.7558 5 14.8862 5C13.9752 5 13.2713 5.74535 13.2713 6.61493ZM16.5425 6.61493C16.5425 7.52591 17.2879 8.22985 18.1575 8.22985C17.2465 8.22985 16.5425 8.97521 16.5425 9.84478C16.5425 10.7558 17.2879 11.4597 18.1575 11.4597C17.2465 11.4597 16.5425 12.2051 16.5425 13.0746C16.5425 13.9442 17.2879 14.6896 18.1575 14.6896C17.2465 14.6896 16.5425 15.4349 16.5425 16.3045C16.5425 17.2155 17.2879 17.9194 18.1575 17.9194C17.2465 17.9194 16.5425 18.6648 16.5425 19.5343C16.5425 20.4453 17.2879 21.1493 18.1575 21.1493C17.2465 21.1493 16.5425 21.8946 16.5425 22.7642C16.5425 23.6338 17.2879 24.3791 18.1575 24.3791C17.2465 24.3791 16.5425 25.1245 16.5425 25.994C16.5425 26.8636 17.2879 27.609 18.1575 27.609C19.0684 27.609 19.7724 26.8636 19.7724 25.994C19.7724 25.1245 19.027 24.3791 18.1575 24.3791C19.0684 24.3791 19.7724 23.6338 19.7724 22.7642C19.7724 21.8946 19.027 21.1493 18.1575 21.1493C19.0684 21.1493 19.7724 20.4039 19.7724 19.5343C19.7724 18.6234 19.027 17.9194 18.1575 17.9194C19.0684 17.9194 19.7724 17.1741 19.7724 16.3045C19.7724 15.3935 19.027 14.6896 18.1575 14.6896C19.0684 14.6896 19.7724 13.9442 19.7724 13.0746C19.7724 12.2051 19.027 11.4597 18.1575 11.4597C19.0684 11.4597 19.7724 10.7144 19.7724 9.84478C19.7724 8.9338 19.027 8.22985 18.1575 8.22985C19.0684 8.22985 19.7724 7.4845 19.7724 6.61493C19.7724 5.70394 19.027 5 18.1575 5C17.2465 5 16.5425 5.74535 16.5425 6.61493ZM19.8138 6.61493C19.8138 7.52591 20.5591 8.22985 21.4287 8.22985C20.5177 8.22985 19.8138 8.97521 19.8138 9.84478C19.8138 10.7558 20.5591 11.4597 21.4287 11.4597C20.5177 11.4597 19.8138 12.2051 19.8138 13.0746C19.8138 13.9442 20.5591 14.6896 21.4287 14.6896C20.5177 14.6896 19.8138 15.4349 19.8138 16.3045C19.8138 17.2155 20.5591 17.9194 21.4287 17.9194C20.5177 17.9194 19.8138 18.6648 19.8138 19.5343C19.8138 20.4453 20.5591 21.1493 21.4287 21.1493C20.5177 21.1493 19.8138 21.8946 19.8138 22.7642C19.8138 23.6338 20.5591 24.3791 21.4287 24.3791C20.5177 24.3791 19.8138 25.1245 19.8138 25.994C19.8138 26.8636 20.5591 27.609 21.4287 27.609C22.3397 27.609 23.0436 26.8636 23.0436 25.994C23.0436 25.1245 22.2983 24.3791 21.4287 24.3791C22.3397 24.3791 23.0436 23.6338 23.0436 22.7642C23.0436 21.8946 22.2983 21.1493 21.4287 21.1493C22.3397 21.1493 23.0436 20.4039 23.0436 19.5343C23.0436 18.6234 22.2983 17.9194 21.4287 17.9194C22.3397 17.9194 23.0436 17.1741 23.0436 16.3045C23.0436 15.3935 22.2983 14.6896 21.4287 14.6896C22.3397 14.6896 23.0436 13.9442 23.0436 13.0746C23.0436 12.2051 22.2983 11.4597 21.4287 11.4597C22.3397 11.4597 23.0436 10.7144 23.0436 9.84478C23.0436 8.9338 22.2983 8.22985 21.4287 8.22985C22.3397 8.22985 23.0436 7.4845 23.0436 6.61493C23.0436 5.70394 22.2983 5 21.4287 5C20.5177 5 19.8138 5.74535 19.8138 6.61493ZM23.085 6.61493C23.085 7.52591 23.8304 8.22985 24.7 8.22985C23.789 8.22985 23.085 8.97521 23.085 9.84478C23.085 10.7558 23.8304 11.4597 24.7 11.4597C23.789 11.4597 23.085 12.2051 23.085 13.0746C23.085 13.9442 23.8304 14.6896 24.7 14.6896C23.789 14.6896 23.085 15.4349 23.085 16.3045C23.085 17.2155 23.8304 17.9194 24.7 17.9194C23.789 17.9194 23.085 18.6648 23.085 19.5343C23.085 20.4453 23.8304 21.1493 24.7 21.1493C23.789 21.1493 23.085 21.8946 23.085 22.7642C23.085 23.6338 23.8304 24.3791 24.7 24.3791C23.789 24.3791 23.085 25.1245 23.085 25.994C23.085 26.8636 23.8304 27.609 24.7 27.609C25.5696 27.609 26.3149 26.8636 26.3149 25.994C26.3149 25.1245 25.5696 24.3791 24.7 24.3791C25.611 24.3791 26.3149 23.6338 26.3149 22.7642C26.3149 21.8946 25.5696 21.1493 24.7 21.1493C25.611 21.1493 26.3149 20.4039 26.3149 19.5343C26.3149 18.6234 25.5696 17.9194 24.7 17.9194C25.611 17.9194 26.3149 17.1741 26.3149 16.3045C26.3149 15.3935 25.5696 14.6896 24.7 14.6896C25.611 14.6896 26.3149 13.9442 26.3149 13.0746C26.3149 12.2051 25.5696 11.4597 24.7 11.4597C25.611 11.4597 26.3149 10.7144 26.3149 9.84478C26.3149 8.9338 25.5696 8.22985 24.7 8.22985C25.611 8.22985 26.3149 7.4845 26.3149 6.61493C26.3149 5.70394 25.5696 5 24.7 5C23.8304 5 23.085 5.74535 23.085 6.61493ZM26.3563 6.61493C26.3563 7.52591 27.1017 8.22985 27.9712 8.22985C27.0603 8.22985 26.3563 8.97521 26.3563 9.84478C26.3563 10.7558 27.1017 11.4597 27.9712 11.4597C27.0603 11.4597 26.3563 12.2051 26.3563 13.0746C26.3563 13.9442 27.1017 14.6896 27.9712 14.6896C27.0603 14.6896 26.3563 15.4349 26.3563 16.3045C26.3563 17.2155 27.1017 17.9194 27.9712 17.9194C27.0603 17.9194 26.3563 18.6648 26.3563 19.5343C26.3563 20.4453 27.1017 21.1493 27.9712 21.1493C27.0603 21.1493 26.3563 21.8946 26.3563 22.7642C26.3563 23.6338 27.1017 24.3791 27.9712 24.3791C27.0603 24.3791 26.3563 25.1245 26.3563 25.994C26.3563 26.8636 27.1017 27.609 27.9712 27.609C28.8822 27.609 29.5862 26.8636 29.5862 25.994C29.5862 25.1245 28.8408 24.3791 27.9712 24.3791C28.8822 24.3791 29.5862 23.6338 29.5862 22.7642C29.5862 21.8946 28.8408 21.1493 27.9712 21.1493C28.8822 21.1493 29.5862 20.4039 29.5862 19.5343C29.5862 18.6234 28.8408 17.9194 27.9712 17.9194C28.8822 17.9194 29.5862 17.1741 29.5862 16.3045C29.5862 15.3935 28.8408 14.6896 27.9712 14.6896C28.8822 14.6896 29.5862 13.9442 29.5862 13.0746C29.5862 12.2051 28.8408 11.4597 27.9712 11.4597C28.8822 11.4597 29.5862 10.7144 29.5862 9.84478C29.5862 8.9338 28.8408 8.22985 27.9712 8.22985C28.8822 8.22985 29.5862 7.4845 29.5862 6.61493C29.5862 5.70394 28.8408 5 27.9712 5C27.0603 5 26.3563 5.74535 26.3563 6.61493Z" fill="white"/>
</mask>
<g mask="url(#mask0_796_883)">
<mask id="mask1_796_883" style="mask-type:luminance" maskUnits="userSpaceOnUse" x="5" y="-4" width="26" height="35">
<path d="M30.0497 -3.32031H5.45312V30.7588H30.0497V-3.32031Z" fill="white"/>
</mask>
<g mask="url(#mask1_796_883)">
<rect x="5.45312" y="-3.30859" width="24.6086" height="34.0713" fill="white"/>
</g>
</g>
<mask id="mask2_796_883" style="mask-type:luminance" maskUnits="userSpaceOnUse" x="10" y="5" width="81" height="23">
<path d="M90.0119 5.125H10.0938V27.4855H90.0119V5.125Z" fill="white"/>
</mask>
<g mask="url(#mask2_796_883)">
<path d="M35.9712 5.08282L40.6918 11.4597C40.816 11.6253 41.0645 11.5425 41.0645 11.3355V5.20704C41.0645 5.08282 41.1473 5 41.2715 5H43.9631C44.0873 5 44.1701 5.08282 44.1701 5.20704V16.967C44.1701 17.0912 44.0873 17.1741 43.9631 17.1741H41.4786C41.3957 17.1741 41.3543 17.1327 41.3129 17.0912L36.5096 10.7972C36.3853 10.6315 36.1369 10.7144 36.1369 10.9214V16.9256C36.1369 17.0498 36.0541 17.1327 35.9298 17.1327H33.2383C33.1141 17.1327 33.0312 17.0498 33.0312 16.9256V5.20704C33.0312 5.08282 33.1141 5 33.2383 5H35.847C35.847 5 35.9298 5.04141 35.9712 5.08282Z" fill="white"/>
</g>
<mask id="mask3_796_883" style="mask-type:luminance" maskUnits="userSpaceOnUse" x="10" y="5" width="81" height="23">
<path d="M90.0119 5.125H10.0938V27.4855H90.0119V5.125Z" fill="white"/>
</mask>
<g mask="url(#mask3_796_883)">
<path d="M65.947 5H68.8456C69.0112 5 69.094 5.16564 69.0526 5.28986L64.8704 17.0498C64.8289 17.1327 64.7461 17.1741 64.6633 17.1741H61.0194C60.9366 17.1741 60.8537 17.1327 60.8123 17.0498L56.5887 5.28986C56.5473 5.16564 56.6301 5 56.7957 5H59.7357C59.8185 5 59.9013 5.04141 59.9428 5.16563L62.7171 13.9442C62.7999 14.1513 63.0484 14.1513 63.1312 13.9442L65.7813 5.16563C65.7813 5.08282 65.8642 5 65.947 5Z" fill="white"/>
</g>
<mask id="mask4_796_883" style="mask-type:luminance" maskUnits="userSpaceOnUse" x="10" y="5" width="81" height="23">
<path d="M90.0119 5.125H10.0938V27.4855H90.0119V5.125Z" fill="white"/>
</mask>
<g mask="url(#mask4_796_883)">
<path d="M79.2005 5.20704V7.69154C79.2005 7.81577 79.1176 7.89859 78.9934 7.89859H73.3205C73.1963 7.89859 73.1134 7.9814 73.1134 8.10563V9.55492C73.1134 9.67915 73.1963 9.76196 73.3205 9.76196H77.9168C78.041 9.76196 78.1238 9.84478 78.1238 9.96901V12.2879C78.1238 12.4121 78.041 12.4949 77.9168 12.4949H73.3205C73.1963 12.4949 73.1134 12.5777 73.1134 12.702V14.0684C73.1134 14.1927 73.1963 14.2755 73.3205 14.2755H78.9934C79.1176 14.2755 79.2005 14.3583 79.2005 14.4825V16.9256C79.2005 17.0498 79.1176 17.1327 78.9934 17.1327H70.2149C70.0906 17.1327 70.0078 17.0498 70.0078 16.9256V5.20704C70.0078 5.08282 70.0906 5 70.2149 5H78.9934C79.1176 5 79.2005 5.08282 79.2005 5.20704Z" fill="white"/>
</g>
<mask id="mask5_796_883" style="mask-type:luminance" maskUnits="userSpaceOnUse" x="10" y="5" width="81" height="23">
<path d="M90.0119 5.125H10.0938V27.4855H90.0119V5.125Z" fill="white"/>
</mask>
<g mask="url(#mask5_796_883)">
<path d="M84.172 14.3169H89.5965C89.7208 14.3169 89.8036 14.3997 89.8036 14.5239V16.967C89.8036 17.0912 89.7208 17.1741 89.5965 17.1741H81.0664C80.9422 17.1741 80.8594 17.0912 80.8594 16.967V5.20704C80.8594 5.08282 80.9422 5 81.0664 5H83.758C83.8822 5 83.965 5.08282 83.965 5.20704V14.1098C83.965 14.2341 84.0892 14.3169 84.172 14.3169Z" fill="white"/>
</g>
<mask id="mask6_796_883" style="mask-type:luminance" maskUnits="userSpaceOnUse" x="10" y="5" width="81" height="23">
<path d="M90.0119 5.125H10.0938V27.4855H90.0119V5.125Z" fill="white"/>
</mask>
<g mask="url(#mask6_796_883)">
<path d="M49.8439 7.89859H55.5169C55.6411 7.89859 55.7239 7.81577 55.7239 7.69154V5.20704C55.7239 5.08282 55.6411 5 55.5169 5H46.7383C46.6141 5 46.5312 5.08282 46.5312 5.20704V16.967C46.5312 17.0912 46.6141 17.1741 46.7383 17.1741H55.5169C55.6411 17.1741 55.7239 17.0912 55.7239 16.967V14.5239C55.7239 14.3997 55.6411 14.3169 55.5169 14.3169H49.8439C49.7197 14.3169 49.6369 14.2341 49.6369 14.1098V12.7434C49.6369 12.6191 49.7197 12.5363 49.8439 12.5363H54.3988C54.5231 12.5363 54.6059 12.4535 54.6059 12.3293V10.0104C54.6059 9.88619 54.5231 9.80337 54.3988 9.80337H49.8439C49.7197 9.80337 49.6369 9.72056 49.6369 9.59633V8.14704C49.5955 7.98141 49.7197 7.89859 49.8439 7.89859Z" fill="white"/>
</g>
</svg>
