<svg width="90" height="84" viewBox="0 0 90 84" fill="none" xmlns="http://www.w3.org/2000/svg">
<mask id="mask0_796_48" style="mask-type:luminance" maskUnits="userSpaceOnUse" x="0" y="0" width="90" height="84">
<path d="M89.2774 0H0V83.3614H89.2774V0Z" fill="white"/>
</mask>
<g mask="url(#mask0_796_48)">
<path d="M36.4659 37.2175C36.4659 38.0242 36.4121 38.7233 36.3583 39.3149C36.3045 39.9065 36.1432 40.4443 35.9818 40.8746C35.7667 41.3048 35.4978 41.6275 35.1213 41.8427C34.7449 42.0578 34.2071 42.1653 33.5617 42.1653C32.9163 42.1653 32.3785 42.0578 31.9482 41.8427C31.5718 41.6275 31.2491 41.2511 31.0877 40.8208C30.8726 40.3906 30.765 39.8527 30.7113 39.2611C30.6575 38.6695 30.6037 37.9704 30.6037 37.2175V13.6073C30.6037 12.8006 30.6575 12.1014 30.7113 11.5099C30.765 10.9183 30.9264 10.3804 31.1415 9.95019C31.3566 9.51994 31.6255 9.19724 32.0558 8.98212C32.4323 8.76699 32.9701 8.65943 33.6155 8.65943C34.2608 8.65943 34.7987 8.76699 35.1751 8.98212C35.5516 9.19724 35.8205 9.57372 36.0356 10.004C36.2508 10.4342 36.3583 10.972 36.4121 11.5636C36.4659 12.1552 36.5197 12.8544 36.5197 13.6073V37.2175H36.4659ZM41.36 5.05606C40.6071 4.03421 39.639 3.22749 38.3482 2.63589C37.1113 2.04429 35.4978 1.77539 33.5617 1.77539C31.6255 1.77539 30.0121 2.04429 28.7751 2.63589C27.5381 3.22749 26.5163 4.03421 25.7633 5.05606C25.0104 6.07791 24.4726 7.36867 24.2037 8.82077C23.9348 10.2729 23.7734 11.8863 23.7734 13.6611V37.325C23.7734 38.8309 23.881 40.2292 24.0961 41.52C24.3112 42.8107 24.6877 43.9401 25.2255 44.962C25.7633 45.9838 26.4625 46.7906 27.3768 47.4897C28.2911 48.1889 29.4205 48.6191 30.8188 48.888L36.8424 52.5452V50.3939C36.8424 49.4797 37.3802 48.6729 38.1869 48.3502C38.8861 48.0813 39.4776 47.7049 39.9617 47.3284C40.8222 46.6292 41.4676 45.8225 41.9516 44.8006C42.4356 43.8326 42.8121 42.7032 43.0272 41.4124C43.2424 40.1754 43.3499 38.7771 43.3499 37.2712V13.6073C43.3499 11.8863 43.1886 10.2729 42.9197 8.82077C42.6508 7.36867 42.1129 6.13169 41.36 5.05606Z" fill="white"/>
</g>
<mask id="mask1_796_48" style="mask-type:luminance" maskUnits="userSpaceOnUse" x="0" y="0" width="90" height="84">
<path d="M89.2774 0H0V83.3614H89.2774V0Z" fill="white"/>
</mask>
<g mask="url(#mask1_796_48)">
<path d="M13.8244 16.0276V24.9554C13.8244 25.7083 13.7706 26.3537 13.7168 26.9453C13.663 27.5369 13.5554 28.0747 13.3403 28.4512C13.1252 28.8814 12.8563 29.2041 12.4798 29.473C12.1034 29.7419 11.5655 29.8495 10.9201 29.8495C10.2748 29.8495 9.73696 29.7419 9.36049 29.473C8.98401 29.2579 8.66132 28.8814 8.49998 28.4512C8.28485 28.0209 8.1773 27.5369 8.12352 26.9453C8.06973 26.3537 8.01595 25.7083 8.01595 24.9554V16.0276V13.6075C8.01595 12.8545 8.06973 12.2092 8.12352 11.6176C8.1773 11.026 8.28485 10.4881 8.49998 10.1117C8.7151 9.68142 8.98401 9.35873 9.36049 9.08982C9.73696 8.82091 10.2748 8.71335 10.9201 8.71335C11.5655 8.71335 12.1034 8.82091 12.4798 9.08982C12.8563 9.35873 13.179 9.68142 13.3403 10.1117C13.5554 10.5419 13.663 11.026 13.7168 11.6176C13.7706 12.2092 13.8244 12.8545 13.8244 13.6075V16.0276ZM18.4496 48.4579C19.6865 48.4579 20.6546 47.4361 20.6546 46.2529V25.063V16.0276V13.4461C20.6546 11.6713 20.4933 10.0579 20.2244 8.60579C19.9555 7.15369 19.4177 5.91671 18.6647 4.89486C17.9118 3.87301 16.9437 3.12007 15.6529 2.52847C14.416 1.99065 12.8025 1.66797 10.8664 1.66797C8.93024 1.66797 7.37056 1.93687 6.07981 2.52847C4.84283 3.06628 3.82099 3.87301 3.06805 4.89486C2.31511 5.91671 1.83106 7.15369 1.50837 8.60579C1.23946 10.0579 1.07812 11.6713 1.07812 13.4461V16.0276V25.063V46.2529C1.07812 47.4899 2.09998 48.4579 3.28317 48.4579H5.64956C6.88654 48.4579 7.85461 47.4361 7.85461 46.2529V36.5184C8.71511 36.6798 9.68318 36.7873 10.7588 36.7873C11.8344 36.7873 12.8025 36.6798 13.663 36.5184V46.2529C13.663 47.4899 14.6849 48.4579 15.8681 48.4579H18.4496Z" fill="white"/>
</g>
<mask id="mask2_796_48" style="mask-type:luminance" maskUnits="userSpaceOnUse" x="0" y="0" width="90" height="84">
<path d="M89.2774 0H0V83.3614H89.2774V0Z" fill="white"/>
</mask>
<g mask="url(#mask2_796_48)">
<path d="M48.6185 46.0377C49.3715 47.0595 50.3395 47.8125 51.6303 48.4041C52.8673 48.9419 54.4807 49.2646 56.4169 49.2646C58.353 49.2646 59.9127 48.9957 61.2034 48.4041C62.4404 47.8663 63.4623 47.0595 64.2152 46.0377C64.9681 45.0158 65.4522 43.7789 65.7749 42.3268C66.0438 40.8747 66.2051 39.2612 66.2051 37.4864V4.67965C66.2051 3.44267 65.1833 2.47461 64.0001 2.47461H61.6337C60.3967 2.47461 59.4286 3.49645 59.4286 4.67965V37.3251C59.4286 38.078 59.3748 38.7234 59.3211 39.315C59.2673 39.9066 59.1597 40.4444 58.9446 40.8209C58.7295 41.2511 58.4606 41.5738 58.0841 41.8427C57.7076 42.1116 57.1698 42.2192 56.5244 42.2192C55.8791 42.2192 55.3412 42.1116 54.9648 41.8427C54.5883 41.5738 54.2656 41.2511 54.1043 40.8209C53.8891 40.3906 53.7816 39.9066 53.7278 39.315C53.674 38.7234 53.6202 38.078 53.6202 37.3251V4.67965C53.6202 3.44267 52.5984 2.47461 51.4152 2.47461H49.0488C47.8118 2.47461 46.8438 3.49645 46.8438 4.67965V37.4864C46.8438 39.2612 47.0051 40.8747 47.274 42.3268C47.3816 43.7789 47.8656 45.0158 48.6185 46.0377Z" fill="white"/>
</g>
<mask id="mask3_796_48" style="mask-type:luminance" maskUnits="userSpaceOnUse" x="0" y="0" width="90" height="84">
<path d="M89.2774 0H0V83.3614H89.2774V0Z" fill="white"/>
</mask>
<g mask="url(#mask3_796_48)">
<path d="M75.8284 16.0276V13.6075C75.8284 12.8545 75.8822 12.2092 75.936 11.6176C75.9898 11.026 76.0973 10.4881 76.3125 10.1117C76.5276 9.68142 76.7965 9.35873 77.173 9.08982C77.5495 8.82091 78.0873 8.71335 78.7326 8.71335C79.378 8.71335 79.9158 8.82091 80.2923 9.08982C80.6688 9.35873 80.9915 9.68142 81.1528 10.1117C81.3679 10.5419 81.4755 11.026 81.5293 11.6176C81.5831 12.2092 81.6368 12.8545 81.6368 13.6075V16.0276V24.9554C81.6368 25.7083 81.5831 26.3537 81.5293 26.9453C81.4755 27.5369 81.3679 28.0747 81.1528 28.4512C80.9377 28.8814 80.6688 29.2041 80.2923 29.473C79.9158 29.7419 79.378 29.8495 78.7326 29.8495C78.0873 29.8495 77.5495 29.7419 77.173 29.473C76.7965 29.2041 76.4738 28.8814 76.3125 28.4512C76.0973 28.0209 75.9898 27.5369 75.936 26.9453C75.8822 26.3537 75.8284 25.7083 75.8284 24.9554V16.0276ZM75.8284 36.5184C76.689 36.6798 77.657 36.7873 78.7326 36.7873C79.8083 36.7873 80.7763 36.6798 81.6368 36.5184V46.2529C81.6368 47.4899 82.6587 48.4579 83.8419 48.4579H86.2083C87.4453 48.4579 88.4133 47.4361 88.4133 46.2529V25.063V16.0276V13.4461C88.4133 11.6713 88.252 10.0579 87.9831 8.60579C87.7142 7.15369 87.1764 5.91671 86.4234 4.89486C85.6705 3.87301 84.7024 3.12007 83.4117 2.52847C82.1747 1.99065 80.5612 1.66797 78.6251 1.66797C76.689 1.66797 75.1293 1.93687 73.8923 2.52847C72.6553 3.06628 71.6335 3.87301 70.8805 4.89486C70.1276 5.91671 69.6436 7.15369 69.3209 8.60579C69.052 10.0579 68.8906 11.6713 68.8906 13.4461V16.0276V25.063V46.2529C68.8906 47.4899 69.9125 48.4579 71.0957 48.4579H73.4621C74.699 48.4579 75.6671 47.4361 75.6671 46.2529V36.5184H75.8284Z" fill="white"/>
</g>
<mask id="mask4_796_48" style="mask-type:luminance" maskUnits="userSpaceOnUse" x="0" y="0" width="90" height="84">
<path d="M89.2774 0H0V83.3614H89.2774V0Z" fill="white"/>
</mask>
<g mask="url(#mask4_796_48)">
<path d="M5.85868 66.1507V64.7524V64.0532C5.85868 63.8381 5.85868 63.623 5.85868 63.4078V61.7944H9.40826V64.591H13.9259V60.0734L13.2268 58.8364C10.7528 58.7826 3.00825 58.8364 2.09396 58.8364L1.17969 60.3423V68.0868C1.34103 68.5171 1.60993 68.8398 2.09396 69.1087C4.13766 70.2381 6.18136 71.4213 8.27885 72.4969C8.92423 72.8196 9.24692 73.1961 9.19314 74.0028C9.0318 76.423 9.5696 75.9927 7.14943 76.5305C6.77296 76.5843 6.39649 76.6919 5.85868 76.7457V74.0566L1.17969 75.2936V80.8869V80.9406L2.25532 81.6398C2.47045 81.6398 2.68557 81.6398 2.95447 81.586C6.0738 80.8331 9.19313 80.0264 12.3125 79.1659L13.9797 77.391V70.8835C13.9259 70.6683 13.8183 70.507 13.657 70.3457L5.85868 66.1507Z" fill="white"/>
</g>
<mask id="mask5_796_48" style="mask-type:luminance" maskUnits="userSpaceOnUse" x="0" y="0" width="90" height="84">
<path d="M89.2774 0H0V83.3614H89.2774V0Z" fill="white"/>
</mask>
<g mask="url(#mask5_796_48)">
<path d="M15.1641 62.0649H17.4767C18.0145 62.1187 18.6061 62.1187 19.3052 62.1725V77.6078C19.359 77.6078 19.359 77.6078 19.4128 77.6078L24.0918 76.8548V62.1725C24.791 62.1187 25.3288 62.1187 25.9204 62.0649H28.1254V58.7305H15.1641V62.0649Z" fill="white"/>
</g>
<mask id="mask6_796_48" style="mask-type:luminance" maskUnits="userSpaceOnUse" x="0" y="0" width="90" height="84">
<path d="M89.2774 0H0V83.3614H89.2774V0Z" fill="white"/>
</mask>
<g mask="url(#mask6_796_48)">
<path d="M42.4361 66.7429V59.7513L41.5756 58.7832H29.3672V76.316C30.9269 76.1547 32.5403 76.0471 34.2613 75.8858V61.5799C35.2294 61.5799 36.0899 61.5261 36.9504 61.6336C37.1655 61.6336 37.542 62.0639 37.542 62.279C37.5958 63.516 37.5958 64.8067 37.5958 66.0975C36.5739 66.1513 35.821 66.2051 34.7453 66.2589V69.3244L37.9185 75.7244L40.2848 75.6168C41.0378 75.5631 41.8445 75.5093 42.6512 75.5093H42.9201C43.0815 75.5093 43.1891 75.5093 43.3504 75.5093C42.1672 73.1429 40.984 70.8841 39.8008 68.5177L42.4361 66.7429Z" fill="white"/>
</g>
<mask id="mask7_796_48" style="mask-type:luminance" maskUnits="userSpaceOnUse" x="0" y="0" width="90" height="84">
<path d="M89.2774 0H0V83.3614H89.2774V0Z" fill="white"/>
</mask>
<g mask="url(#mask7_796_48)">
<path d="M53.0831 72.3372L48.9419 72.1759V71.2616V62.6565V61.796H49.7486H49.8024H52.1688H52.2226H53.0831V72.3372ZM56.6864 58.7305H44.8545L44.1016 59.5372V74.2733L45.231 75.2414L57.0091 75.7254L57.9772 74.7036V59.8061L56.6864 58.7305Z" fill="white"/>
</g>
<mask id="mask8_796_48" style="mask-type:luminance" maskUnits="userSpaceOnUse" x="0" y="0" width="90" height="84">
<path d="M89.2774 0H0V83.3614H89.2774V0Z" fill="white"/>
</mask>
<g mask="url(#mask8_796_48)">
<path d="M68.4121 67.1187C68.4121 67.1187 65.1314 60.8263 63.9482 58.5675C62.4424 58.5137 60.9365 58.5137 59.4844 58.5137V76.2616C61.2054 76.4229 62.765 76.6381 64.5398 76.7994V68.6784C64.755 69.1087 65.0239 69.5389 65.239 70.0229L69.1113 77.4986C70.5096 77.8213 71.9079 77.9826 73.4138 78.2515V58.5675H68.3583V67.1187H68.4121Z" fill="white"/>
</g>
<mask id="mask9_796_48" style="mask-type:luminance" maskUnits="userSpaceOnUse" x="0" y="0" width="90" height="84">
<path d="M89.2774 0H0V83.3614H89.2774V0Z" fill="white"/>
</mask>
<g mask="url(#mask9_796_48)">
<path d="M88.5271 65.882V60.1273C87.9893 59.6433 87.3977 59.0517 87.0213 58.6752C86.7523 58.6215 86.4834 58.5677 86.107 58.5677C82.9339 58.5139 79.8145 58.5139 76.6414 58.5677L75.2969 59.482V77.1223C75.7271 77.7677 76.1574 78.5744 76.5338 79.166C76.749 79.2736 76.9641 79.3812 77.233 79.4349C79.8145 79.919 82.4498 80.2954 84.9776 80.6719L88.4734 79.4887V68.84C85.9456 68.5711 83.5255 68.2484 81.1053 67.9795V71.9055L83.7406 72.3896V73.6265V73.8954C83.7406 74.9173 83.7406 75.8316 83.7406 76.961L79.9221 76.3694H79.8145V62.3862H79.9759H80.4061H83.8481V65.4517C85.354 65.5593 86.8061 65.7206 88.5271 65.882Z" fill="white"/>
</g>
</svg>
