<svg width="145" height="50" viewBox="0 0 145 50" fill="none" xmlns="http://www.w3.org/2000/svg">
<path fill-rule="evenodd" clip-rule="evenodd" d="M43.8356 30.7044C30.8454 31.842 19.0851 35.6852 8.60065 40.4816C-2.80613 45.6931 -0.638537 46.1235 2.54368 44.3556C18.8698 35.3163 43.7434 29.2286 61.161 36.9612C85.927 47.9683 105.558 55.4703 132.415 43.4025C135.966 41.8037 139.856 39.4055 142.992 37.0534C143.607 36.6076 146.558 34.8244 143.699 34.7782C138.395 34.7014 119.302 39.6207 102.837 38.8828C79.8085 37.8528 62.5446 29.0595 43.8356 30.7044Z" fill="white"/>
<path fill-rule="evenodd" clip-rule="evenodd" d="M97.8112 2.27998C97.8112 7.09173 97.6113 21.0351 97.9341 24.8476C104.452 25.6162 103.069 24.9859 103.069 18.929C103.069 16.2541 103.023 13.5177 103.099 10.8428C104.837 11.842 110.356 24.2634 111.954 24.8476C112.569 25.0628 114.675 25.0321 115.475 25.0013C117.089 24.9552 117.35 24.6324 117.35 22.9567V1.74192C117.35 0.0201405 116.735 0.37372 113.584 0.37372C111.355 0.37372 112.047 1.37297 112.047 6.84576C112.047 9.19784 112.262 12.9489 111.939 15.1318C111.017 14.2402 108.203 9.01336 107.327 7.46068C106.574 6.09249 105.867 4.89339 105.067 3.54056C103.176 0.327601 104.191 0.37372 99.6098 0.37372C98.0571 0.37372 97.8112 0.788792 97.8112 2.27998Z" fill="white"/>
<path fill-rule="evenodd" clip-rule="evenodd" d="M136.984 24.6785C137.061 23.9406 137.123 23.1412 137.107 22.4033C137.107 22.1419 137.077 21.6039 137.015 21.3733C136.723 20.3586 137.138 21.1273 136.554 20.62C135.57 19.9436 129.759 20.5278 127.991 20.0819C127.346 18.3448 127.561 16.7306 127.561 14.6399C136.4 14.6399 136.739 15.6084 136.769 12.4877C136.769 12.3954 136.754 11.4577 136.739 11.3962C136.416 9.22858 133.848 10.1663 127.561 10.151C127.545 8.18321 127.161 6.27696 128.36 5.1701C130.482 4.38607 134.894 5.64666 136.646 4.70891C136.692 4.64742 136.739 4.47831 136.754 4.52443C136.769 4.55518 136.846 4.3707 136.877 4.32458C137.277 3.18698 137.138 1.81878 136.938 0.650429C133.971 -0.118222 127.161 -0.487175 124.563 1.17311C121.012 3.43295 121.842 7.98336 121.842 12.749C121.842 17.4531 121.058 22.1419 124.655 24.248C127.392 25.8468 133.941 25.524 136.984 24.6785Z" fill="white"/>
<path fill-rule="evenodd" clip-rule="evenodd" d="M25.1446 24.5558L25.1292 20.4819C22.9155 20.2052 17.9961 20.8816 16.3359 20.0207C15.2597 18.8216 15.7056 16.3004 15.7056 14.6402C22.9924 14.6402 26.2361 16.2543 24.791 10.2435L15.7056 10.1359C15.7056 8.53706 15.6594 6.81528 15.9823 5.38559C19.2875 3.9559 26.851 7.61468 25.1753 1.2195C24.7142 -0.502275 16.2897 0.0665267 14.9215 0.343241C9.81769 1.38861 9.95605 5.29336 9.95605 10.6124C9.95605 14.9937 9.14128 21.4965 12.0622 23.7564C14.3681 25.5396 22.316 26.0162 25.1446 24.5558Z" fill="white"/>
<path fill-rule="evenodd" clip-rule="evenodd" d="M43.9459 20.3429C42.5316 19.3744 38.5039 20.9732 36.4285 19.8048C34.4454 18.6826 34.5222 15.5926 34.5222 12.7486C34.5222 9.79699 34.2763 7.01448 36.3516 5.6309C37.7045 4.73927 40.2564 5.03136 41.9474 5.18509C42.1473 5.20046 42.7776 5.24658 42.9313 5.24658C43.0389 5.24658 43.8537 5.24658 44.0689 4.96986C44.2534 4.35494 44.4071 2.03362 44.1611 1.26497C43.7153 -0.149353 36.8436 -0.502933 33.6614 1.06512C29.5106 3.09436 28.7266 6.96836 28.7266 12.7486C28.7112 21.8802 32.0011 26.1539 40.8713 25.2161C41.9167 25.1085 43.7922 24.9702 44.1304 24.1861C44.484 23.3099 44.2995 20.8809 43.9459 20.3429Z" fill="white"/>
<path fill-rule="evenodd" clip-rule="evenodd" d="M70.3203 1.74135V18.129C70.3203 25.7233 76.408 25.7233 82.3881 25.093C84.6172 24.8624 84.8017 24.6625 84.3251 20.5272C80.528 19.6663 76.1621 22.2028 75.9776 18.1444C75.9468 17.2835 75.993 16.315 75.993 15.4387L76.0083 1.97194C75.9622 0.00419334 75.7931 0.373146 71.6731 0.373146C70.4279 0.373146 70.3203 0.49613 70.3203 1.74135Z" fill="white"/>
<path fill-rule="evenodd" clip-rule="evenodd" d="M93.012 24.6471C93.3656 23.3711 93.3502 1.69513 92.9966 0.557521C91.7514 0.127077 89.1226 0.188569 87.6314 0.511402C87.2932 2.1102 87.4009 19.451 87.4777 23.2635C87.5085 24.9545 87.7391 25.016 89.384 25.0006C90.7061 25.0006 92.1972 25.1697 93.012 24.6471Z" fill="white"/>
<path fill-rule="evenodd" clip-rule="evenodd" d="M46.6346 15.4398C46.3886 7.33823 46.6346 1.97304 53.9829 0.312753C57.2266 -0.409779 60.9162 0.374245 62.9608 2.12677C65.0054 3.8793 66.0969 6.33898 66.2352 10.0593C66.5119 17.9149 65.9585 23.4645 58.9945 25.048C51.7077 26.7082 46.8345 22.2347 46.6346 15.4398ZM52.3898 12.4036C52.3158 9.21153 52.24 5.94476 55.3639 5.17047C59.6837 4.1251 60.4984 7.64552 60.5138 11.4119C60.5155 11.7692 60.5228 12.1422 60.5304 12.5243C60.5928 15.6932 60.6676 19.4903 57.6083 20.1899C53.0887 21.2199 52.4122 17.5611 52.4122 13.8409C52.4122 13.3695 52.4011 12.8874 52.3898 12.4036Z" fill="white"/>
</svg>
