<svg width="109" height="47" viewBox="0 0 109 47" fill="none" xmlns="http://www.w3.org/2000/svg">
<path fill-rule="evenodd" clip-rule="evenodd" d="M27.7422 17.2617H37.5201V17.5892H27.7422V17.2617Z" fill="white"/>
<path fill-rule="evenodd" clip-rule="evenodd" d="M27.7422 16.759H29.2728V12.3574L27.7422 13.6368V16.759Z" fill="white"/>
<path fill-rule="evenodd" clip-rule="evenodd" d="M29.8125 16.7589H31.3355V10.6211L29.8125 11.9081V16.7589Z" fill="white"/>
<path fill-rule="evenodd" clip-rule="evenodd" d="M31.875 16.7589H33.398V8.88477L31.875 10.1717V16.7589Z" fill="white"/>
<path fill-rule="evenodd" clip-rule="evenodd" d="M33.9375 16.7588H35.4605V7.14844L33.9375 8.4354V16.7588Z" fill="white"/>
<path fill-rule="evenodd" clip-rule="evenodd" d="M36 16.7582H37.523V5.76953H37.1042L36 6.69858V16.7582Z" fill="white"/>
<path fill-rule="evenodd" clip-rule="evenodd" d="M32.5898 25.9883C34.1966 25.9883 34.288 24.0312 33.2295 20.7948C33.2142 19.3631 34.0062 18.7234 35.5978 18.8757C36.6715 18.9214 37.2274 18.6016 37.2655 17.9238H27.9141C27.9521 18.6016 28.508 18.9214 29.5818 18.8757C31.181 18.7234 31.9653 19.3631 31.9501 20.7948C30.8992 24.0312 30.9906 25.9883 32.5898 25.9883Z" fill="white"/>
<path fill-rule="evenodd" clip-rule="evenodd" d="M53.0517 11.6332L49.6554 8.78513V4.25409H47.1271V6.66049L41.5909 2L38.1641 4.87854V7.60477L38.4687 7.35347L41.5909 4.72623L49.8001 11.6332H53.0517Z" fill="white"/>
<path fill-rule="evenodd" clip-rule="evenodd" d="M40.4375 11.2227H41.8844V12.6467H40.4375V11.2227Z" fill="white"/>
<path fill-rule="evenodd" clip-rule="evenodd" d="M42.3281 11.2227H43.7674V12.6467H42.3281V11.2227Z" fill="white"/>
<path fill-rule="evenodd" clip-rule="evenodd" d="M40.4375 9.3418H41.8844V10.7735H40.4375V9.3418Z" fill="white"/>
<path fill-rule="evenodd" clip-rule="evenodd" d="M42.3281 9.3418H43.7674V10.7735H42.3281V9.3418Z" fill="white"/>
<path d="M44.4259 17.9533H42.7658V16.3541H47.1293V14.0391H40.3594V24.5709H44.4259C46.5734 24.5709 48.0355 23.261 48.0355 21.2659C48.0355 19.2631 46.5734 17.9533 44.4259 17.9533ZM44.4259 22.3168H42.7658V20.2074H44.4259C45.0884 20.2074 45.6291 20.4967 45.6291 21.2659C45.6291 22.0274 45.0884 22.3168 44.4259 22.3168ZM54.4322 14.0391L52.5817 18.6462L50.518 14.0391H48.1116L51.4852 21.2811C51.0739 22.0122 50.4723 22.4234 49.3757 22.3168V24.5709C51.3481 24.6775 52.8711 23.7484 53.8002 21.4715L56.8462 14.0391H54.4322ZM65.1239 22.2558V14.0391H58.0647V18.7605C58.0647 20.5577 57.7144 21.5629 57.2346 22.2558H56.1685V26.5889H58.5749V24.5709H63.8446V26.5889H66.251V22.2558H65.1239ZM59.7933 22.2558C60.1665 21.5781 60.4711 20.5272 60.4711 18.7909V16.2932H62.7175V22.2558H59.7933ZM71.5207 17.3517H69.9367V14.0391H67.5303V24.5709H71.5207C73.5996 24.5709 75.2064 22.9641 75.2064 20.9613C75.2064 18.9585 73.5996 17.3517 71.5207 17.3517ZM71.5207 22.3168H69.9367V19.6058H71.5207C72.2594 19.6058 72.8 20.1921 72.8 20.9613C72.8 21.7304 72.2594 22.3168 71.5207 22.3168Z" fill="white"/>
<path d="M27.4729 32.9037C28.1354 32.3935 28.5238 31.67 28.5238 30.7181C28.5238 28.7915 26.9931 27.6035 24.899 27.6035C22.9419 27.6035 21.8148 28.5859 21.1675 29.8805L23.2236 31.0684C23.4978 30.4211 23.9623 29.8652 24.899 29.8652C25.7595 29.8652 26.1174 30.2536 26.1174 30.9009C26.1174 31.5482 25.6376 31.9366 24.6857 31.9366H23.6501V34.0764H24.9904C25.9956 34.0764 26.4905 34.5029 26.4905 35.1882C26.4905 35.8812 26.0108 36.3077 25.0056 36.3077C23.8709 36.3077 23.3455 35.6908 23.0789 34.876L21 36.064C21.6168 37.5566 22.8353 38.5618 25.0056 38.5618C27.214 38.5618 28.9046 37.3433 28.9046 35.371C28.9046 34.244 28.3563 33.3987 27.4729 32.9037ZM38.3855 36.0335V27.8167H31.3262V32.5458C31.3262 34.3353 30.9759 35.3405 30.4961 36.0335H29.43V40.3666H31.8364V38.3562H37.1061V40.3666H39.5125V36.0335H38.3855ZM33.0548 36.0335C33.4356 35.3558 33.7326 34.3049 33.7326 32.5686V30.0708H35.9791V36.0335H33.0548ZM45.6732 38.5618C48.6964 38.5618 51.1485 36.1858 51.1485 33.0864C51.1485 29.9795 48.6964 27.6035 45.6732 27.6035C42.6423 27.6035 40.1903 29.9795 40.1903 33.0864C40.1903 36.1858 42.6423 38.5618 45.6732 38.5618ZM45.6732 36.2163C43.9522 36.2163 42.6043 34.9674 42.6043 33.0864C42.6043 31.2055 43.9522 29.9566 45.6732 29.9566C47.3866 29.9566 48.7421 31.2055 48.7421 33.0864C48.7421 34.9674 47.3866 36.2163 45.6732 36.2163ZM56.4944 27.8167H52.504V38.3562H54.918V35.0435H56.4944C58.5733 35.0435 60.1801 33.4291 60.1801 31.4263C60.1801 29.4235 58.5733 27.8167 56.4944 27.8167ZM56.4944 32.7818H54.918V30.0708H56.4944C57.233 30.0708 57.7737 30.6572 57.7737 31.4263C57.7737 32.1955 57.233 32.7818 56.4944 32.7818ZM66.3408 38.5618C69.364 38.5618 71.8237 36.1858 71.8237 33.0864C71.8237 29.9795 69.364 27.6035 66.3408 27.6035C63.3176 27.6035 60.8579 29.9795 60.8579 33.0864C60.8579 36.1858 63.3176 38.5618 66.3408 38.5618ZM66.3408 36.2163C64.6274 36.2163 63.2719 34.9674 63.2719 33.0864C63.2719 31.2055 64.6274 29.9566 66.3408 29.9566C68.0542 29.9566 69.4097 31.2055 69.4097 33.0864C69.4097 34.9674 68.0542 36.2163 66.3408 36.2163ZM79.7054 32.8885C80.2842 32.3935 80.6269 31.7005 80.6269 30.8247C80.6269 29.0047 79.1343 27.8167 77.299 27.8167H73.1716V38.3562H77.6036C79.4846 38.3562 81 37.1301 81 35.2644C81 34.1983 80.4898 33.3834 79.7054 32.8885ZM77.299 30.0708C77.8549 30.0708 78.2205 30.4668 78.2205 31.0075C78.2205 31.5482 77.8397 31.9366 77.299 31.9366H75.5856V30.0708H77.299ZM77.6036 36.0944H75.5856V34.0764H77.6036C78.2052 34.0764 78.5936 34.5029 78.5936 35.0892C78.5936 35.6756 78.2052 36.0944 77.6036 36.0944Z" fill="white"/>
<path d="M22.7623 43.4424L22.0541 42.3991L22.7318 41.4168H22.2064L21.5895 42.2925V41.4168H21.125V43.4424H21.5895V42.5058L22.2368 43.4424H22.7623ZM23.7065 41.4168H22.9374V43.4424H23.4019V42.8027H23.7065C24.1025 42.8027 24.4148 42.4981 24.4148 42.1098C24.4148 41.7214 24.1025 41.4168 23.7065 41.4168ZM23.7065 42.3687H23.4019V41.8509H23.7065C23.8436 41.8509 23.9502 41.9651 23.9502 42.1098C23.9502 42.2545 23.8436 42.3687 23.7065 42.3687ZM25.7322 43.4424H26.2424L25.5494 41.4168H24.9631L24.2701 43.4424H24.7803L24.8793 43.1226H25.6332L25.7322 43.4424ZM25.0164 42.6885L25.2524 41.9422L25.4961 42.6885H25.0164ZM27.3085 43.4805C27.6817 43.4805 28.0015 43.2977 28.1767 43.016L27.7807 42.7799C27.6893 42.9398 27.5141 43.0312 27.3085 43.0312C26.9506 43.0312 26.7145 42.7875 26.7145 42.4296C26.7145 42.0641 26.9506 41.828 27.3085 41.828C27.5141 41.828 27.6893 41.9194 27.7807 42.0717L28.1767 41.8432C28.0015 41.5539 27.6741 41.3711 27.3085 41.3711C26.6993 41.3711 26.2576 41.8356 26.2576 42.4296C26.2576 43.0236 26.6993 43.4805 27.3085 43.4805ZM30.0348 43.4424L29.3189 42.3991L30.0043 41.4168H29.4789L28.862 42.2925V41.4168H28.3975V43.4424H28.862V42.5058L29.5093 43.4424H30.0348ZM31.337 43.4424H31.8015V41.4168H31.4512L30.6744 42.5134V41.4168H30.2099V43.4424H30.5526L31.337 42.3382V43.4424ZM34.4668 42.9931V41.4168H33.1113V42.323C33.1113 42.6657 33.0428 42.8637 32.9514 42.9931H32.7458V43.8308H33.2103V43.4424H34.2231V43.8308H34.6876V42.9931H34.4668ZM33.4387 42.9931C33.5149 42.8637 33.5682 42.6657 33.5682 42.3306V41.8509H34.0023V42.9931H33.4387ZM34.8171 43.4424C35.1902 43.4805 35.6167 43.3434 35.6167 42.62V41.8585H36.0888V43.4424H36.5534V41.4168H35.1522V42.6352C35.1522 42.9779 35.0227 43.0388 34.8171 43.0084V43.4424ZM38.3658 41.4168H37.5509C37.1702 41.4168 36.858 41.7214 36.858 42.1098C36.858 42.3763 37.0255 42.6124 37.2768 42.719L36.797 43.4424H37.3225L37.7489 42.7799H37.9012V43.4424H38.3658V41.4168ZM37.5509 42.3687C37.4215 42.3687 37.3225 42.2545 37.3225 42.1098C37.3225 41.9651 37.4215 41.8509 37.5509 41.8509H37.9012V42.3687H37.5509ZM40.5513 42.3915C40.6808 42.2925 40.7493 42.1555 40.7493 41.9727C40.7493 41.5995 40.4599 41.3711 40.0563 41.3711C39.6756 41.3711 39.4624 41.5615 39.3329 41.8128L39.7365 42.0412C39.7822 41.9194 39.8736 41.8052 40.0563 41.8052C40.2163 41.8052 40.2924 41.8813 40.2924 42.0108C40.2924 42.1326 40.1934 42.2088 40.0106 42.2088H39.8127V42.62H40.0716C40.2696 42.62 40.3609 42.7038 40.3609 42.8332C40.3609 42.9703 40.2696 43.0464 40.0716 43.0464C39.8583 43.0464 39.7593 42.9322 39.706 42.7723L39.3024 43.0007C39.4243 43.2901 39.6603 43.4805 40.0716 43.4805C40.498 43.4805 40.8255 43.252 40.8255 42.8713C40.8255 42.6504 40.7189 42.4905 40.5513 42.3915ZM42.6531 42.9931V41.4168H41.29V42.323C41.29 42.6657 41.2215 42.8637 41.1301 42.9931H40.9245V43.8308H41.389V43.4424H42.4018V43.8308H42.8663V42.9931H42.6531ZM41.6251 42.9931C41.6936 42.8637 41.7545 42.6657 41.7545 42.3306V41.8509H42.1886V42.9931H41.6251ZM44.0543 43.4805C44.6331 43.4805 45.1052 43.0236 45.1052 42.4296C45.1052 41.8356 44.6331 41.3711 44.0543 41.3711C43.4679 41.3711 42.9958 41.8356 42.9958 42.4296C42.9958 43.0236 43.4679 43.4805 44.0543 43.4805ZM44.0543 43.0312C43.7192 43.0312 43.4603 42.7875 43.4603 42.4296C43.4603 42.0641 43.7192 41.828 44.0543 41.828C44.3818 41.828 44.6407 42.0641 44.6407 42.4296C44.6407 42.7875 44.3818 43.0312 44.0543 43.0312ZM46.1333 41.4168H45.3641V43.4424H45.8286V42.8027H46.1333C46.5369 42.8027 46.8415 42.4981 46.8415 42.1098C46.8415 41.7214 46.5369 41.4168 46.1333 41.4168ZM46.1333 42.3687H45.8286V41.8509H46.1333C46.2779 41.8509 46.3846 41.9651 46.3846 42.1098C46.3846 42.2545 46.2779 42.3687 46.1333 42.3687ZM48.0294 43.4805C48.6082 43.4805 49.0803 43.0236 49.0803 42.4296C49.0803 41.8356 48.6082 41.3711 48.0294 41.3711C47.4507 41.3711 46.9785 41.8356 46.9785 42.4296C46.9785 43.0236 47.4507 43.4805 48.0294 43.4805ZM48.0294 43.0312C47.702 43.0312 47.4354 42.7875 47.4354 42.4296C47.4354 42.0641 47.702 41.828 48.0294 41.828C48.3569 41.828 48.6234 42.0641 48.6234 42.4296C48.6234 42.7875 48.3569 43.0312 48.0294 43.0312ZM50.6034 42.3915C50.71 42.2925 50.7785 42.1631 50.7785 41.9955C50.7785 41.6452 50.4891 41.4168 50.1388 41.4168H49.3469V43.4424H50.1998C50.5577 43.4424 50.8547 43.2064 50.8547 42.8484C50.8547 42.6428 50.7557 42.4829 50.6034 42.3915ZM50.1388 41.8509C50.2454 41.8509 50.314 41.927 50.314 42.026C50.314 42.1326 50.2454 42.2088 50.1388 42.2088H49.8114V41.8509H50.1388ZM50.1998 43.0084H49.8114V42.62H50.1998C50.314 42.62 50.3901 42.7038 50.3901 42.8104C50.3901 42.9246 50.314 43.0084 50.1998 43.0084ZM52.0502 43.4805C52.629 43.4805 53.1011 43.0236 53.1011 42.4296C53.1011 41.8356 52.629 41.3711 52.0502 41.3711C51.4715 41.3711 50.9994 41.8356 50.9994 42.4296C50.9994 43.0236 51.4715 43.4805 52.0502 43.4805ZM52.0502 43.0312C51.7228 43.0312 51.4563 42.7875 51.4563 42.4296C51.4563 42.0641 51.7228 41.828 52.0502 41.828C52.3777 41.828 52.6442 42.0641 52.6442 42.4296C52.6442 42.7875 52.3777 43.0312 52.0502 43.0312ZM54.5252 41.4168H53.3677V43.4424H53.8322V41.8585H54.5252V41.4168ZM55.5761 43.4805C56.1624 43.4805 56.6346 43.0236 56.6346 42.4296C56.6346 41.8356 56.1624 41.3711 55.5761 41.3711C54.9973 41.3711 54.5252 41.8356 54.5252 42.4296C54.5252 43.0236 54.9973 43.4805 55.5761 43.4805ZM55.5761 43.0312C55.2486 43.0312 54.9897 42.7875 54.9897 42.4296C54.9897 42.0641 55.2486 41.828 55.5761 41.828C55.9111 41.828 56.1701 42.0641 56.1701 42.4296C56.1701 42.7875 55.9111 43.0312 55.5761 43.0312ZM59.6426 41.4168H59.1857L58.6298 42.3154L58.0815 41.4168H57.6169V43.4424H58.0815V42.2621L58.6069 43.1226H58.6602L59.1857 42.2621V43.4424H59.6426V41.4168ZM61.1199 43.4424H61.5845V41.4168H61.2418L60.4574 42.5134V41.4168H59.9929V43.4424H60.3432L61.1199 42.3382V43.4424ZM63.572 43.4424L62.8638 42.3991L63.5416 41.4168H63.0161L62.3993 42.2925V41.4168H61.9347V43.4424H62.3993V42.5058L63.0466 43.4424H63.572ZM64.5163 41.4168H63.7472V43.4424H64.2117V42.8027H64.5163C64.9123 42.8027 65.2245 42.4981 65.2245 42.1098C65.2245 41.7214 64.9123 41.4168 64.5163 41.4168ZM64.5163 42.3687H64.2117V41.8509H64.5163C64.661 41.8509 64.76 41.9651 64.76 42.1098C64.76 42.2545 64.661 42.3687 64.5163 42.3687ZM66.4125 43.4805C66.9912 43.4805 67.4634 43.0236 67.4634 42.4296C67.4634 41.8356 66.9912 41.3711 66.4125 41.3711C65.8261 41.3711 65.354 41.8356 65.354 42.4296C65.354 43.0236 65.8261 43.4805 66.4125 43.4805ZM66.4125 43.0312C66.0774 43.0312 65.8185 42.7875 65.8185 42.4296C65.8185 42.0641 66.0774 41.828 66.4125 41.828C66.7399 41.828 66.9988 42.0641 66.9988 42.4296C66.9988 42.7875 66.7399 43.0312 66.4125 43.0312ZM69.3672 43.4424L68.6513 42.3991L69.3367 41.4168H68.8113L68.1868 42.2925V41.4168H67.7223V43.4424H68.1868V42.5058L68.8341 43.4424H69.3672ZM69.4205 43.4424C69.7936 43.4805 70.2201 43.3434 70.2201 42.62V41.8585H70.6998V43.4424H71.1643V41.4168H69.7555V42.6352C69.7555 42.9779 69.6337 43.0388 69.4205 43.0084V43.4424ZM72.6417 43.4424H73.0986V41.4168H72.7559L71.9716 42.5134V41.4168H71.507V43.4424H71.8573L72.6417 42.3382V43.4424ZM75.4745 41.4168H75.01L74.4617 42.3154L73.9134 41.4168H73.4489V43.4424H73.9134V42.2621L74.4389 43.1226H74.4922L75.01 42.2621V43.4424H75.4745V41.4168ZM77.1118 43.4424H77.622L76.929 41.4168H76.3427L75.6497 43.4424H76.1599L76.2589 43.1226H77.0128L77.1118 43.4424ZM76.396 42.6885L76.632 41.9422L76.8757 42.6885H76.396ZM79.008 41.4168H77.5078V41.8585H78.0256V43.4424H78.4901V41.8585H79.008V41.4168ZM80.3559 43.4424H80.8661L80.1731 41.4168H79.5867L78.8938 43.4424H79.404L79.503 43.1226H80.2569L80.3559 43.4424ZM79.64 42.6885L79.8837 41.9422L80.1198 42.6885H79.64Z" fill="white"/>
</svg>
