<svg width="129" height="37" viewBox="0 0 129 37" fill="none" xmlns="http://www.w3.org/2000/svg">
<path d="M0.0616438 31.4582L0 0.144209L7.56164 0.123608C14.7329 0.103007 18.9863 0.803452 19.0068 7.41648C19.0068 11.3307 17.3425 13.8853 13.274 14.5445V14.6269C16.8904 14.7094 19.0274 16.0278 19.0274 20.5189L19.0479 27.0702C19.0479 28.3062 19.274 30.1604 20.1986 31.417L12.6164 31.4376C11.7123 30.1604 11.5274 28.3268 11.5274 27.0908L11.5068 20.4365C11.5068 18.2528 10.1507 17.1403 8.77397 17.1403L7.56164 17.1609L7.58219 31.4582H0.0616438ZM7.5411 12.6698C10.9521 12.6492 11.4863 11.5573 11.4863 8.61136C11.4863 5.70657 10.9726 4.6147 7.5411 4.6147V12.6698ZM38.4863 25.01C38.5068 29.6865 34.4178 31.7055 29.8562 31.7261C25.274 31.7261 21.1849 29.7071 21.1644 25.0512L21.1438 13.0406C21.1438 8.50835 24.226 5.95379 29.7945 5.93318C35.363 5.93318 38.4658 8.46715 38.4658 12.9994L38.4863 25.01ZM28.3356 25.3808C28.3356 26.3079 28.7055 27.1526 29.8356 27.132C30.9658 27.132 31.3356 26.3079 31.3356 25.3808L31.3151 12.2578C31.2945 11.3513 30.9452 10.5067 29.8151 10.5067C28.6644 10.5067 28.3151 11.3513 28.3151 12.2784L28.3356 25.3808ZM47.7123 31.3758L47.6507 0.0412027L40.4795 0.061804L40.5411 31.3964L47.7123 31.3758ZM56.8767 9.49722H56.9589C57.3082 6.86024 59.2603 5.87138 61.8904 5.87138C65.8356 5.87138 67.0274 9.12639 67.0274 12.299L67.0685 26.1843C67.0685 29.2745 65.7123 31.6437 62.0753 31.6643C59.4452 31.6643 57.637 30.3458 57 28.059H56.8973L56.9178 37H49.7671L49.7055 6.201H56.8562L56.8767 9.49722ZM56.8973 24.2272C56.8973 25.3396 57.5342 25.9371 58.3973 25.9371C59.2603 25.9371 59.8973 25.319 59.8973 24.2272L59.8767 13.3085C59.8767 12.2166 59.2397 11.5986 58.3767 11.5986C57.5137 11.5986 56.8767 12.2166 56.8767 13.3291L56.8973 24.2272ZM76.274 31.314L76.2123 0L69.0411 0.0206013L69.1027 31.3346L76.274 31.314ZM88.4589 28.3474H88.3767C87.5137 30.1604 86.1986 31.6231 83.3425 31.6231C80.2192 31.6231 78.3082 29.7895 78.3082 26.4727V22.7439C78.2877 16.1308 88.4384 16.9137 88.4384 12.2578C88.4384 11.2483 88.1096 10.4037 86.9384 10.4037C85.7466 10.4037 85.4384 11.2483 85.4384 12.2578V15.039H78.2877L78.2671 12.711C78.2671 7.6431 82.6233 5.83018 86.9178 5.83018C91.2329 5.83018 95.589 7.62249 95.589 12.6698L95.6301 31.2934H88.4589V28.3474ZM85.4589 24.8452C85.4589 25.7105 86.0959 26.1637 86.774 26.1637C88.274 26.1637 88.4589 25.1748 88.4589 22.9499L88.4384 18.5824C87.0411 19.5507 85.4589 20.1275 85.4589 22.1052V24.8452ZM114.925 14.9772L114.904 12.0724C114.904 7.84911 111.411 5.78898 105.966 5.78898C101.26 5.80958 97.5822 7.7873 97.5822 12.814C97.6027 20.9928 107.753 19.118 107.774 25.113C107.774 26.1637 107.404 26.9877 106.274 27.0084C105.144 27.0084 104.774 26.1637 104.774 25.113V21.3224L97.6027 21.343L97.6233 25.3396C97.6233 29.8719 101.158 31.5818 105.74 31.5818C111.74 31.5612 114.801 28.9243 114.801 23.9594C114.781 15.76 104.753 16.5841 104.753 12.2578C104.753 11.2071 105.103 10.3625 106.253 10.3625C107.384 10.3625 107.753 11.2071 107.753 12.2578V14.9772H114.925ZM118.664 10.6509L118.705 26.0195C118.705 29.3157 119.568 31.2522 123.164 31.2316H129V26.6581H127.582C125.918 26.6581 125.856 25.8547 125.856 24.3714L125.836 10.6509L128.959 10.6303V6.05679H125.815V1.5245L118.644 1.5451L118.664 6.07739H116.26V10.6509H118.664Z" fill="white"/>
</svg>
