<svg width="144" height="42" viewBox="0 0 144 42" fill="none" xmlns="http://www.w3.org/2000/svg">
<path d="M42.5463 7.63867H49.157C49.0073 9.40984 48.8826 11.206 48.8078 13.0395C48.7329 14.8606 48.6955 16.744 48.6955 18.6898C48.6955 20.8975 48.7329 22.9182 48.8202 24.7392C48.9075 26.5603 49.0323 28.2691 49.2069 29.8532H42.4964C42.671 28.1444 42.8082 26.3482 42.8955 24.4898C42.9953 22.6313 43.0327 20.698 43.0327 18.6898C43.0327 16.7565 42.9953 14.8855 42.908 13.0395C42.8207 11.2184 42.696 9.40984 42.5463 7.63867ZM27.0797 26.0863H27.2294C28.3021 26.1487 29.0629 26.1736 29.4995 26.1736C31.5825 26.1736 33.0792 25.9242 34.0022 25.4128C34.9128 24.9014 35.3618 24.0781 35.3618 22.9182C35.3618 21.7706 34.9253 20.9474 34.0521 20.461C33.179 19.9745 31.6324 19.7375 29.4122 19.7375C28.801 19.7375 28.327 19.7375 27.9902 19.7375C27.6535 19.75 27.3416 19.7625 27.0548 19.7749C27.0423 20.9973 27.0423 22.3194 27.0548 23.7164C27.0797 25.1259 27.0797 25.9117 27.0797 26.0863ZM21.3421 7.63867H27.5287C27.3915 9.12296 27.2793 10.5823 27.2044 11.9918C27.1171 13.4012 27.0797 14.7857 27.0548 16.1328H29.013C33.3162 16.1328 36.3971 16.6567 38.2431 17.7044C40.0891 18.7397 41.0246 20.436 41.0246 22.7934C41.0246 25.2257 40.0267 27.0218 38.0186 28.1568C36.0229 29.2794 32.8672 29.8532 28.5391 29.8532H21.3047C21.4793 28.1444 21.604 26.3482 21.6914 24.4898C21.7662 22.6313 21.8161 20.698 21.8161 18.6898C21.8161 16.6567 21.7787 14.7358 21.7038 12.9023C21.6165 11.0812 21.5043 9.32253 21.3421 7.63867Z" fill="white"/>
<path d="M51.2131 7.63867H67.5154L70.2595 12.3036C69.2866 12.0791 67.7898 11.9793 66.6922 11.867C65.5946 11.7673 64.4096 11.7049 63.1374 11.7049C63.1374 11.9045 63.1249 12.2038 63.1124 12.5905C63.075 13.8502 63.0501 14.7234 63.0501 15.1724C63.0501 18.7522 63.1 21.6334 63.1873 23.7913C63.2871 25.9616 63.4243 27.9822 63.6238 29.8532H56.9507C57.1378 28.0446 57.275 26.1611 57.3624 24.2154C57.4372 22.2696 57.4871 20.2614 57.4871 18.1909C57.4871 16.6317 57.4746 15.3969 57.4621 14.4614C57.4497 13.5259 57.4247 12.6029 57.3998 11.7049C56.0277 11.7049 54.8054 11.7673 53.7327 11.867C52.6475 11.9793 51.6746 12.1414 50.7891 12.3784L51.2131 7.63867Z" fill="white"/>
<path d="M92.3157 7.63867H96.6065C96.4568 9.33501 96.357 11.206 96.2697 13.2515C96.1948 15.2846 96.1574 17.5298 96.1574 19.987V21.9951C97.6043 20.0743 99.0512 18.0786 100.473 16.0081C101.908 13.9376 103.317 11.8047 104.714 9.60941C104.714 9.32253 104.714 9.02318 104.689 8.68641C104.664 8.36211 104.627 8.01286 104.589 7.63867H110.838C110.689 9.68425 110.576 11.6176 110.489 13.4262C110.414 15.2472 110.364 17.0059 110.364 18.6898C110.364 20.9973 110.414 23.0554 110.501 24.8639C110.589 26.6725 110.713 28.3439 110.901 29.8532H104.552C104.677 28.1069 104.776 26.1736 104.839 24.0283C104.901 21.8704 104.926 19.039 104.926 15.5216C103.579 17.3302 102.194 19.2636 100.772 21.3091C99.3505 23.3547 97.8538 25.5749 96.3071 27.9697C96.3071 28.2317 96.3196 28.6807 96.3445 29.3418C96.357 29.5538 96.3695 29.7284 96.3944 29.8532H94.8977H90.1953C90.3699 28.3689 90.5071 26.7224 90.582 24.9014C90.6693 23.0803 90.7192 21.0098 90.7192 18.6898C90.7192 16.981 90.6818 15.2223 90.6069 13.3887C90.5695 12.7152 90.4448 10.0335 90.4448 10.0335L92.3157 7.63867Z" fill="white"/>
<path d="M115.537 7.63867H122.809C123.42 9.62189 124.156 11.7797 124.991 14.1122C125.839 16.4446 126.8 18.9767 127.885 21.6958C128.783 19.4132 129.619 17.1057 130.392 14.7733C131.178 12.4283 131.889 10.0584 132.537 7.63867H139.635C139.809 11.1561 140.183 14.7608 140.77 18.4653C141.356 22.1573 142.154 25.9616 143.152 29.8532H136.841C136.778 27.8325 136.616 25.4876 136.354 22.8433C136.08 20.199 135.693 17.0433 135.169 13.3763C134.097 16.0705 133.086 18.7896 132.151 21.5336C131.215 24.2652 130.355 27.0467 129.556 29.8532H125.615C124.704 26.7474 123.769 23.8536 122.846 21.1844C121.898 18.5152 120.925 15.9457 119.877 13.4636C119.478 16.2451 119.154 19.0016 118.892 21.7207C118.643 24.4399 118.455 27.159 118.331 29.8532H112.281C113.192 25.6123 113.915 21.6459 114.464 17.9539C115 14.2619 115.362 10.8193 115.537 7.63867Z" fill="white"/>
<path d="M12.6976 25.4128C11.787 25.9242 10.2778 26.1736 8.19479 26.1736C7.75823 26.1736 6.99738 26.1487 5.9247 26.0863H5.77502C5.77502 25.9117 5.77502 25.1259 5.76255 23.7289C5.75007 22.3194 5.75007 20.9973 5.76255 19.7749C6.04943 19.7625 6.34878 19.75 6.68555 19.7375C7.02233 19.7375 7.4963 19.7375 8.10748 19.7375C10.3277 19.7375 11.8743 19.9745 12.7475 20.461C13.6206 20.9474 14.0696 21.7582 14.0696 22.9182C14.0696 24.0781 13.6081 24.9014 12.6976 25.4128ZM16.9509 17.7044C15.0924 16.6567 12.0115 16.1328 7.70834 16.1328H5.76255C5.76255 14.9604 5.82491 13.7505 5.8748 12.5406L6.37373 12.2038H8.31952C9.69156 12.2038 10.9513 12.2537 12.1363 12.3535C13.3087 12.4533 14.4313 12.6029 15.4915 12.815L14.8554 7.63867H6.23652H0.873113H0.0374191C0.199569 9.32253 0.311826 11.0812 0.399137 12.9023C0.473976 14.7358 0.511395 16.6567 0.511395 18.6898C0.511395 20.698 0.473976 22.6313 0.386664 24.4898C0.299353 26.3607 0.174623 28.1444 0 29.8532H7.23437C11.5625 29.8532 14.7182 29.2794 16.7139 28.1568C18.722 27.0218 19.7199 25.2257 19.7199 22.7934C19.7199 20.436 18.7969 18.7397 16.9509 17.7044Z" fill="white"/>
<path d="M83.8652 15.3969C86.8837 10.7569 95.9392 0.00517703 95.9392 0.00517703C95.9392 0.00517703 88.131 -0.294176 84.9629 3.65978C83.8029 5.10665 82.2562 8.03782 80.7969 10.1957C81.7448 12.0791 82.83 13.738 83.8652 15.3969Z" fill="white"/>
<path d="M83.3167 18.4653C83.0673 18.0412 82.8178 17.6296 82.5683 17.218L79.6372 12.2412C78.7765 10.6946 77.9408 9.16038 77.155 7.63867H69.7959C71.1056 9.79651 73.5254 13.7505 75.6209 17.1806C69.3843 25.6373 57.7969 41.3533 57.7969 41.3533C62.7611 41.3533 70.245 38.4222 70.245 38.4222L79.238 23.2799C80.6226 25.7495 81.795 27.9448 82.743 29.8532H88.069C88.069 29.8532 88.4057 28.8054 88.518 26.0614C87.0212 23.8786 84.6513 20.5857 83.3167 18.4653Z" fill="white"/>
</svg>
