<svg width="109" height="42" viewBox="0 0 109 42" fill="none" xmlns="http://www.w3.org/2000/svg">
<mask id="mask0_796_780" style="mask-type:luminance" maskUnits="userSpaceOnUse" x="32" y="2" width="40" height="38">
<path d="M72 2H32V39.3494H72V2Z" fill="white"/>
</mask>
<g mask="url(#mask0_796_780)">
<path d="M48.3352 18.6744C48.3352 19.0359 48.3111 19.3491 48.287 19.6142C48.2629 19.8793 48.1906 20.1202 48.1183 20.313C48.0219 20.5058 47.9014 20.6503 47.7328 20.7467C47.5641 20.8431 47.3231 20.8913 47.034 20.8913C46.7448 20.8913 46.5039 20.8431 46.3111 20.7467C46.1424 20.6503 45.9978 20.4817 45.9255 20.2889C45.8292 20.0961 45.781 19.8552 45.7569 19.5901C45.7328 19.325 45.7087 19.0118 45.7087 18.6744V8.09613C45.7087 7.73468 45.7328 7.42143 45.7569 7.15637C45.781 6.8913 45.8533 6.65034 45.9496 6.45757C46.046 6.2648 46.1665 6.12022 46.3593 6.02384C46.528 5.92745 46.7689 5.87926 47.0581 5.87926C47.3472 5.87926 47.5882 5.92745 47.7569 6.02384C47.9255 6.12022 48.046 6.2889 48.1424 6.48167C48.2388 6.67444 48.287 6.9154 48.3111 7.18046C48.3352 7.44552 48.3593 7.75878 48.3593 8.09613V18.6744H48.3352ZM50.528 4.2648C50.1906 3.80697 49.7569 3.44552 49.1786 3.18046C48.6243 2.9154 47.9014 2.79492 47.034 2.79492C46.1665 2.79492 45.4436 2.9154 44.8894 3.18046C44.3352 3.44552 43.8773 3.80697 43.54 4.2648C43.2026 4.72263 42.9617 5.30094 42.8412 5.95155C42.7207 6.60215 42.6484 7.32504 42.6484 8.12022V18.7226C42.6484 19.3973 42.6966 20.0238 42.793 20.6022C42.8894 21.1805 43.0581 21.6865 43.299 22.1443C43.54 22.6021 43.8533 22.9636 44.2629 23.2768C44.6725 23.5901 45.1786 23.7829 45.8051 23.9034L48.5039 25.5419V24.5781C48.5039 24.1684 48.7448 23.807 49.1063 23.6624C49.4195 23.5419 49.6846 23.3732 49.9014 23.2046C50.287 22.8913 50.5761 22.5299 50.793 22.072C51.0099 21.6383 51.1786 21.1323 51.2749 20.554C51.3713 19.9997 51.4195 19.3732 51.4195 18.6985V8.09613C51.4195 7.32504 51.3472 6.60215 51.2267 5.95155C51.1063 5.30094 50.8653 4.74673 50.528 4.2648Z" fill="white"/>
</g>
<mask id="mask1_796_780" style="mask-type:luminance" maskUnits="userSpaceOnUse" x="32" y="2" width="40" height="38">
<path d="M72 2H32V39.3494H72V2Z" fill="white"/>
</mask>
<g mask="url(#mask1_796_780)">
<path d="M38.203 9.18178V13.1818C38.203 13.5191 38.1789 13.8083 38.1548 14.0733C38.1307 14.3384 38.0825 14.5794 37.9862 14.748C37.8898 14.9408 37.7693 15.0854 37.6006 15.2059C37.4319 15.3264 37.191 15.3746 36.9018 15.3746C36.6127 15.3746 36.3717 15.3264 36.203 15.2059C36.0344 15.1095 35.8898 14.9408 35.8175 14.748C35.7211 14.5553 35.6729 14.3384 35.6488 14.0733C35.6247 13.8083 35.6006 13.5191 35.6006 13.1818V9.18178V8.09744C35.6006 7.76009 35.6247 7.47094 35.6488 7.20588C35.6729 6.94082 35.7211 6.69985 35.8175 6.53118C35.9139 6.33841 36.0344 6.19383 36.203 6.07335C36.3717 5.95286 36.6127 5.90467 36.9018 5.90467C37.191 5.90467 37.4319 5.95286 37.6006 6.07335C37.7693 6.19383 37.9139 6.33841 37.9862 6.53118C38.0825 6.72395 38.1307 6.94082 38.1548 7.20588C38.1789 7.47094 38.203 7.76009 38.203 8.09744V9.18178ZM40.2753 23.7119C40.8295 23.7119 41.2633 23.2541 41.2633 22.724V13.23V9.18178V8.02515C41.2633 7.22997 41.191 6.50708 41.0705 5.85648C40.95 5.20588 40.7091 4.65166 40.3717 4.19383C40.0344 3.736 39.6006 3.39865 39.0223 3.13359C38.4681 2.89262 37.7452 2.74805 36.8777 2.74805C36.0103 2.74805 35.3115 2.86853 34.7331 3.13359C34.1789 3.37455 33.7211 3.736 33.3838 4.19383C33.0464 4.65166 32.8295 5.20588 32.685 5.85648C32.5645 6.50708 32.4922 7.22997 32.4922 8.02515V9.18178V13.23V22.724C32.4922 23.2782 32.95 23.7119 33.4801 23.7119H34.5404C35.0946 23.7119 35.5283 23.2541 35.5283 22.724V18.3625C35.9139 18.4348 36.3476 18.483 36.8295 18.483C37.3115 18.483 37.7452 18.4348 38.1307 18.3625V22.724C38.1307 23.2782 38.5886 23.7119 39.1187 23.7119H40.2753Z" fill="white"/>
</g>
<mask id="mask2_796_780" style="mask-type:luminance" maskUnits="userSpaceOnUse" x="32" y="2" width="40" height="38">
<path d="M72 2H32V39.3494H72V2Z" fill="white"/>
</mask>
<g mask="url(#mask2_796_780)">
<path d="M53.7874 22.6274C54.1247 23.0853 54.5585 23.4226 55.1368 23.6877C55.691 23.9287 56.4139 24.0732 57.2813 24.0732C58.1488 24.0732 58.8476 23.9527 59.4259 23.6877C59.9801 23.4467 60.438 23.0853 60.7753 22.6274C61.1127 22.1696 61.3295 21.6154 61.4741 20.9648C61.5946 20.3142 61.6669 19.5913 61.6669 18.7961V4.09732C61.6669 3.54311 61.2091 3.10938 60.6789 3.10938H59.6187C59.0645 3.10938 58.6307 3.5672 58.6307 4.09732V18.7238C58.6307 19.0612 58.6066 19.3503 58.5825 19.6154C58.5584 19.8805 58.5103 20.1214 58.4139 20.2901C58.3175 20.4829 58.197 20.6274 58.0283 20.7479C57.8597 20.8684 57.6187 20.9166 57.3295 20.9166C57.0404 20.9166 56.7994 20.8684 56.6307 20.7479C56.4621 20.6274 56.3175 20.4829 56.2452 20.2901C56.1488 20.0973 56.1006 19.8805 56.0765 19.6154C56.0524 19.3503 56.0283 19.0612 56.0283 18.7238V4.09732C56.0283 3.54311 55.5705 3.10938 55.0404 3.10938H53.9801C53.4259 3.10938 52.9922 3.5672 52.9922 4.09732V18.7961C52.9922 19.5913 53.0645 20.3142 53.185 20.9648C53.2331 21.6154 53.45 22.1696 53.7874 22.6274Z" fill="white"/>
</g>
<mask id="mask3_796_780" style="mask-type:luminance" maskUnits="userSpaceOnUse" x="32" y="2" width="40" height="38">
<path d="M72 2H32V39.3494H72V2Z" fill="white"/>
</mask>
<g mask="url(#mask3_796_780)">
<path d="M65.9756 9.18178V8.09744C65.9756 7.76009 65.9997 7.47094 66.0238 7.20588C66.0479 6.94082 66.0961 6.69985 66.1925 6.53118C66.2889 6.33841 66.4094 6.19383 66.578 6.07335C66.7467 5.95286 66.9877 5.90467 67.2768 5.90467C67.566 5.90467 67.8069 5.95286 67.9756 6.07335C68.1443 6.19383 68.2889 6.33841 68.3612 6.53118C68.4575 6.72395 68.5057 6.94082 68.5298 7.20588C68.5539 7.47094 68.578 7.76009 68.578 8.09744V9.18178V13.1818C68.578 13.5191 68.5539 13.8083 68.5298 14.0733C68.5057 14.3384 68.4575 14.5794 68.3612 14.748C68.2648 14.9408 68.1443 15.0854 67.9756 15.2059C67.8069 15.3264 67.566 15.3746 67.2768 15.3746C66.9877 15.3746 66.7467 15.3264 66.578 15.2059C66.4094 15.0854 66.2648 14.9408 66.1925 14.748C66.0961 14.5553 66.0479 14.3384 66.0238 14.0733C65.9997 13.8083 65.9756 13.5191 65.9756 13.1818V9.18178ZM65.9756 18.3625C66.3612 18.4348 66.7949 18.483 67.2768 18.483C67.7588 18.483 68.1925 18.4348 68.578 18.3625V22.724C68.578 23.2782 69.0359 23.7119 69.566 23.7119H70.6262C71.1804 23.7119 71.6142 23.2541 71.6142 22.724V13.23V9.18178V8.02515C71.6142 7.22997 71.5419 6.50708 71.4214 5.85648C71.3009 5.20588 71.06 4.65166 70.7226 4.19383C70.3853 3.736 69.9515 3.39865 69.3732 3.13359C68.819 2.89262 68.0961 2.74805 67.2286 2.74805C66.3612 2.74805 65.6624 2.86853 65.1081 3.13359C64.5539 3.37455 64.0961 3.736 63.7587 4.19383C63.4214 4.65166 63.2045 5.20588 63.06 5.85648C62.9395 6.50708 62.8672 7.22997 62.8672 8.02515V9.18178V13.23V22.724C62.8672 23.2782 63.325 23.7119 63.8551 23.7119H64.9154C65.4696 23.7119 65.9033 23.2541 65.9033 22.724V18.3625H65.9756Z" fill="white"/>
</g>
<mask id="mask4_796_780" style="mask-type:luminance" maskUnits="userSpaceOnUse" x="32" y="2" width="40" height="38">
<path d="M72 2H32V39.3494H72V2Z" fill="white"/>
</mask>
<g mask="url(#mask4_796_780)">
<path d="M34.6276 31.6374V31.0109V30.6977C34.6276 30.6013 34.6276 30.5049 34.6276 30.4085V29.6856H36.218V30.9386H38.2421V28.9145L37.9288 28.3603C36.8204 28.3362 33.3505 28.3603 32.9409 28.3603L32.5312 29.035V32.5049C32.6035 32.6977 32.724 32.8422 32.9409 32.9627C33.8565 33.4688 34.7722 33.9989 35.712 34.4808C36.0011 34.6254 36.1457 34.7941 36.1216 35.1555C36.0493 36.2398 36.2903 36.0471 35.2059 36.288C35.0373 36.3121 34.8686 36.3603 34.6276 36.3844V35.1796L32.5312 35.7338V38.2398V38.2639L33.0132 38.5772C33.1096 38.5772 33.2059 38.5772 33.3264 38.5531C34.724 38.2157 36.1216 37.8543 37.5192 37.4688L38.2662 36.6736V33.7579C38.2421 33.6615 38.1939 33.5892 38.1216 33.5169L34.6276 31.6374Z" fill="white"/>
</g>
<mask id="mask5_796_780" style="mask-type:luminance" maskUnits="userSpaceOnUse" x="32" y="2" width="40" height="38">
<path d="M72 2H32V39.3494H72V2Z" fill="white"/>
</mask>
<g mask="url(#mask5_796_780)">
<path d="M38.7891 29.8084H39.8252C40.0662 29.8325 40.3312 29.8325 40.6445 29.8566V36.7723C40.6686 36.7723 40.6686 36.7723 40.6927 36.7723L42.7891 36.4349V29.8566C43.1023 29.8325 43.3433 29.8325 43.6083 29.8084H44.5963V28.3145H38.7891V29.8084Z" fill="white"/>
</g>
<mask id="mask6_796_780" style="mask-type:luminance" maskUnits="userSpaceOnUse" x="32" y="2" width="40" height="38">
<path d="M72 2H32V39.3494H72V2Z" fill="white"/>
</mask>
<g mask="url(#mask6_796_780)">
<path d="M51.0117 31.9042V28.7716L50.6261 28.3379H45.1562V36.1933C45.855 36.121 46.5779 36.0728 47.349 36.0005V29.5909C47.7828 29.5909 48.1683 29.5668 48.5538 29.615C48.6502 29.615 48.8189 29.8078 48.8189 29.9042C48.843 30.4584 48.843 31.0367 48.843 31.615C48.3852 31.6391 48.0478 31.6632 47.5659 31.6873V33.0608L48.9876 35.9283L50.0478 35.8801C50.3852 35.856 50.7466 35.8319 51.1081 35.8319H51.2285C51.3008 35.8319 51.349 35.8319 51.4213 35.8319C50.8912 34.7716 50.3611 33.7596 49.8309 32.6993L51.0117 31.9042Z" fill="white"/>
</g>
<mask id="mask7_796_780" style="mask-type:luminance" maskUnits="userSpaceOnUse" x="32" y="2" width="40" height="38">
<path d="M72 2H32V39.3494H72V2Z" fill="white"/>
</mask>
<g mask="url(#mask7_796_780)">
<path d="M55.7819 34.4108L53.9265 34.3385V33.9289V30.0735V29.6879H54.2879H54.312H55.3723H55.3964H55.7819V34.4108ZM57.3964 28.3145H52.0952L51.7578 28.6759V35.2783L52.2638 35.712L57.5409 35.9289L57.9747 35.4711V28.7964L57.3964 28.3145Z" fill="white"/>
</g>
<mask id="mask8_796_780" style="mask-type:luminance" maskUnits="userSpaceOnUse" x="32" y="2" width="40" height="38">
<path d="M72 2H32V39.3494H72V2Z" fill="white"/>
</mask>
<g mask="url(#mask8_796_780)">
<path d="M62.6484 32.0722C62.6484 32.0722 61.1786 29.2529 60.6484 28.2409C59.9737 28.2168 59.299 28.2168 58.6484 28.2168V36.1686C59.4195 36.2409 60.1183 36.3373 60.9135 36.4096V32.771C61.0099 32.9638 61.1304 33.1566 61.2267 33.3734L62.9617 36.7228C63.5882 36.8674 64.2147 36.9397 64.8894 37.0602V28.2409H62.6243V32.0722H62.6484Z" fill="white"/>
</g>
<mask id="mask9_796_780" style="mask-type:luminance" maskUnits="userSpaceOnUse" x="32" y="2" width="40" height="38">
<path d="M72 2H32V39.3494H72V2Z" fill="white"/>
</mask>
<g mask="url(#mask9_796_780)">
<path d="M71.6699 31.5178V28.9395C71.4289 28.7227 71.1639 28.4576 70.9952 28.2889C70.8747 28.2648 70.7542 28.2407 70.5856 28.2407C69.1639 28.2166 67.7663 28.2166 66.3446 28.2407L65.7422 28.6504V36.554C65.935 36.8431 66.1277 37.2046 66.2964 37.4696C66.3928 37.5178 66.4892 37.566 66.6097 37.5901C67.7663 37.807 68.947 37.9757 70.0795 38.1443L71.6458 37.6142V32.8431C70.5133 32.7227 69.4289 32.5781 68.3446 32.4576V34.2166L69.5253 34.4335V34.9877V35.1082C69.5253 35.566 69.5253 35.9757 69.5253 36.4817L67.8145 36.2166H67.7663V29.9516H67.8386H68.0313H69.5735V31.3251C70.2482 31.3733 70.8988 31.4455 71.6699 31.5178Z" fill="white"/>
</g>
</svg>
