<svg width="476" height="200" viewBox="0 0 476 200" fill="none" xmlns="http://www.w3.org/2000/svg">
<path d="M92.5835 197.543V154.676H1.66197L0.0237423 132.56C-0.158282 129.556 0.706337 126.644 2.6176 123.823L82.4811 9.69283C83.9373 7.59954 85.6665 5.87031 87.6688 4.50512C89.6711 3.13993 91.4458 2.45734 92.993 2.45734H118.932V128.328H146.781V154.676H118.932V197.543H92.5835ZM27.3275 128.328H92.5835V37.4061C91.5823 41.4107 90.1261 44.7781 88.2149 47.5085L36.7473 120.683C34.1989 124.141 31.059 126.689 27.3275 128.328Z" fill="#424A52"/>
<path d="M163.121 100.068C163.121 68.851 169.583 44.3686 182.507 26.6212C195.521 8.87372 213.405 0 236.159 0C258.912 0 276.75 8.87372 289.674 26.6212C302.689 44.3686 309.196 68.851 309.196 100.068C309.196 131.286 302.734 155.768 289.81 173.515C276.887 191.172 259.003 200 236.159 200C213.405 200 195.521 191.126 182.507 173.379C169.583 155.631 163.121 131.195 163.121 100.068ZM189.469 100.068C189.469 123.003 193.61 141.024 201.892 154.13C210.174 167.144 221.597 173.652 236.159 173.652C250.721 173.652 262.143 167.144 270.425 154.13C278.707 141.024 282.848 123.003 282.848 100.068C282.848 77.0421 278.707 59.0216 270.425 46.0068C262.143 32.901 250.721 26.3481 236.159 26.3481C221.597 26.3481 210.174 32.901 201.892 46.0068C193.61 59.0216 189.469 77.0421 189.469 100.068Z" fill="#424A52"/>
<path d="M421.082 197.543V154.676H330.16L328.522 132.56C328.34 129.556 329.205 126.644 331.116 123.823L410.979 9.69283C412.436 7.59954 414.165 5.87031 416.167 4.50512C418.169 3.13993 419.944 2.45734 421.491 2.45734H447.43V128.328H475.28V154.676H447.43V197.543H421.082ZM355.826 128.328H421.082V37.4061C420.081 41.4107 418.624 44.7781 416.713 47.5085L365.246 120.683C362.697 124.141 359.557 126.689 355.826 128.328Z" fill="#424A52"/>
</svg>
